<?xml version="1.0" encoding="utf-8"?>
<!-- Generator: Adobe Illustrator 18.1.0, SVG Export Plug-In . SVG Version: 6.00 Build 0)  -->
<svg version="1.1" id="Camada_1" xmlns="http://www.w3.org/2000/svg" xmlns:xlink="http://www.w3.org/1999/xlink" x="0px" y="0px"
	 viewBox="0 0 841.9 595.3" enable-background="new 0 0 841.9 595.3" xml:space="preserve">
<g display="none">
	<g id="b" display="inline">
		<ellipse fill="#9CBB41" stroke="#FFFFFF" stroke-width="11.5407" cx="420.9" cy="212.7" rx="125.8" ry="116.2"/>
		<path fill="#9CBB41" stroke="#FFFFFF" stroke-width="11.5407" d="M325.5,183.6h190.8c16.8,0,30.4,13.6,30.4,30.4v190.8
			c0,16.8-13.6,30.4-30.4,30.4H325.5c-16.8,0-30.4-13.6-30.4-30.4V214C295.1,197.2,308.7,183.6,325.5,183.6z"/>
	</g>
</g>
<g>
	<path fill="#FFFFFF" d="M256.4,212.7c-18.3,0-33.2,14.9-33.2,33.2v117.5c0,18.3,14.9,33.2,33.2,33.2c18.3,0,33.2-14.9,33.2-33.2
		V245.8C289.6,227.5,274.7,212.7,256.4,212.7z"/>
	<path fill="#FFFFFF" d="M585.5,212.7c-18.3,0-33.2,14.9-33.2,33.2v117.5c0,18.3,14.9,33.2,33.2,33.2s33.2-14.9,33.2-33.2V245.8
		C618.7,227.5,603.8,212.7,585.5,212.7z"/>
	<path fill="#FFFFFF" d="M256.4,212.7c-18.3,0-33.2,14.9-33.2,33.2v117.5c0,18.3,14.9,33.2,33.2,33.2c18.3,0,33.2-14.9,33.2-33.2
		V245.8C289.6,227.5,274.7,212.7,256.4,212.7z"/>
	<path fill="#FFFFFF" d="M585.5,212.7c-18.3,0-33.2,14.9-33.2,33.2v117.5c0,18.3,14.9,33.2,33.2,33.2s33.2-14.9,33.2-33.2V245.8
		C618.7,227.5,603.8,212.7,585.5,212.7z"/>
	<g>
		<g>
			<path fill="#FFFFFF" d="M487,113.8l19.9-35.9c2.4-4.3,0.8-9.8-3.5-12.2c-4.3-2.4-9.8-0.8-12.2,3.5L470.8,106
				c-15.3-6.1-32.1-9.5-49.8-9.5c-17.7,0-34.6,3.4-49.8,9.5l-20.4-36.8c-2.4-4.3-7.9-5.9-12.2-3.5c-4.3,2.4-5.9,7.9-3.5,12.2
				l19.9,35.9c-35.9,20.5-59.8,57.1-59.8,98.9c0,0.3,0,0.6,0,0.9c0,0.2,0,0.3,0,0.5v190.8c0,16.8,13.6,30.4,30.4,30.4h15.2v62.2
				c0,18.3,14.9,33.2,33.2,33.2c18.3,0,33.2-14.9,33.2-33.2v-62.2h27.7v62.2c0,18.3,14.9,33.2,33.2,33.2c18.3,0,33.2-14.9,33.2-33.2
				v-62.2h15.2c16.8,0,30.4-13.6,30.4-30.4V214c0-0.2,0-0.3,0-0.5c0-0.3,0-0.6,0-0.9C546.8,170.9,522.9,134.3,487,113.8z"/>
			<path fill="#FFFFFF" d="M468,534.2c-20.2,0-36.7-16.5-36.7-36.7v-58.7h-20.7v58.7c0,20.2-16.5,36.7-36.7,36.7
				c-20.2,0-36.7-16.5-36.7-36.7v-58.7h-11.7c-18.7,0-33.9-15.2-33.9-33.9V214c0-0.1,0-0.3,0-0.4v-0.1v-0.2c0-0.2,0-0.4,0-0.6
				c0-40.7,21.8-77.9,58.6-100.2L332,79.6c-1.6-2.9-2-6.3-1.1-9.5s3-5.9,6-7.5c1.9-1,3.9-1.6,6-1.6c4.5,0,8.7,2.5,10.9,6.4
				l18.9,34.1c15.3-5.7,31.6-8.6,48.3-8.6c16.7,0,32.9,2.9,48.3,8.6l18.9-34.1c2.2-4,6.4-6.4,10.9-6.4c2.1,0,4.2,0.5,6,1.6
				c6,3.3,8.2,11,4.9,17l-18.2,32.9c36.7,22.2,58.6,59.4,58.6,100.2c0,0.2,0,0.4,0,0.6v0.4v0.1c0,0.1,0,0.3,0,0.4V405
				c0,18.7-15.2,33.9-33.9,33.9h-11.7v58.7C504.6,517.8,488.2,534.2,468,534.2z M403.6,431.8h34.7v65.7c0,16.4,13.3,29.7,29.7,29.7
				s29.7-13.3,29.7-29.7v-65.7h18.7c14.8,0,26.9-12.1,26.9-26.9v-191v-0.3v-0.9c0-39.3-21.7-75.1-58-95.8l-3-1.7l21.6-38.9
				c1.5-2.6,0.5-6-2.1-7.5c-0.8-0.5-1.7-0.7-2.7-0.7c-2,0-3.8,1.1-4.8,2.8l-21.9,39.5l-2.9-1.1c-15.4-6.1-31.7-9.2-48.5-9.2
				c-16.8,0-33.2,3.1-48.5,9.2l-2.9,1.1l-21.9-39.5c-1-1.7-2.8-2.8-4.8-2.8c-0.9,0-1.8,0.2-2.7,0.7c-1.3,0.7-2.2,1.9-2.6,3.3
				c-0.4,1.4-0.2,2.9,0.5,4.2l21.6,38.9l-3,1.7c-36.3,20.7-58,56.5-58,95.8v0.9v0.5v190.8c0,14.8,12.1,26.9,26.9,26.9h18.7v65.7
				c0,16.4,13.3,29.7,29.7,29.7s29.7-13.3,29.7-29.7v-65.7H403.6z"/>
		</g>
		<g>
			<path fill="#FFFFFF" d="M256.4,212.7c-18.3,0-33.2,14.9-33.2,33.2v117.5c0,18.3,14.9,33.2,33.2,33.2c18.3,0,33.2-14.9,33.2-33.2
				V245.8C289.6,227.5,274.7,212.7,256.4,212.7z"/>
			<path fill="#FFFFFF" d="M256.4,400.1c-20.2,0-36.7-16.5-36.7-36.7V245.8c0-20.2,16.5-36.7,36.7-36.7c20.2,0,36.7,16.5,36.7,36.7
				v117.5C293.1,383.6,276.6,400.1,256.4,400.1z M256.4,216.2c-16.4,0-29.7,13.3-29.7,29.7v117.5c0,16.4,13.3,29.7,29.7,29.7
				s29.7-13.3,29.7-29.7V245.8C286.1,229.5,272.8,216.2,256.4,216.2z"/>
		</g>
		<g>
			<path fill="#FFFFFF" d="M585.5,212.7c-18.3,0-33.2,14.9-33.2,33.2v117.5c0,18.3,14.9,33.2,33.2,33.2s33.2-14.9,33.2-33.2V245.8
				C618.7,227.5,603.8,212.7,585.5,212.7z"/>
			<path fill="#FFFFFF" d="M585.5,400.1c-20.2,0-36.7-16.5-36.7-36.7V245.8c0-20.2,16.5-36.7,36.7-36.7s36.7,16.5,36.7,36.7v117.5
				C622.2,383.6,605.7,400.1,585.5,400.1z M585.5,216.2c-16.4,0-29.7,13.3-29.7,29.7v117.5c0,16.4,13.3,29.7,29.7,29.7
				s29.7-13.3,29.7-29.7V245.8C615.2,229.5,601.9,216.2,585.5,216.2z"/>
		</g>
	</g>
	<path fill="#9CBB41" d="M256.4,212.7c-18.3,0-33.2,14.9-33.2,33.2v117.5c0,18.3,14.9,33.2,33.2,33.2c18.3,0,33.2-14.9,33.2-33.2
		V245.8C289.6,227.5,274.7,212.7,256.4,212.7z"/>
	<path fill="#9CBB41" d="M585.5,212.7c-18.3,0-33.2,14.9-33.2,33.2v117.5c0,18.3,14.9,33.2,33.2,33.2s33.2-14.9,33.2-33.2V245.8
		C618.7,227.5,603.8,212.7,585.5,212.7z"/>
	<path fill="#9CBB41" d="M295.1,404.9c0,16.8,13.6,30.4,30.4,30.4h15.2v62.2c0,18.3,14.9,33.2,33.2,33.2c18.3,0,33.2-14.9,33.2-33.2
		v-62.2h27.7v62.2c0,18.3,14.9,33.2,33.2,33.2c18.3,0,33.2-14.9,33.2-33.2v-62.2h15.2c16.8,0,30.4-13.6,30.4-30.4V220.4H295.1V404.9
		z"/>
	<path fill="#9CBB41" d="M487,113.8l19.9-35.9c2.4-4.3,0.8-9.8-3.5-12.2c-4.3-2.4-9.8-0.8-12.2,3.5L470.8,106
		c-15.3-6.1-32.1-9.5-49.8-9.5c-17.7,0-34.6,3.4-49.8,9.5l-20.4-36.8c-2.4-4.3-7.9-5.9-12.2-3.5c-4.3,2.4-5.9,7.9-3.5,12.2
		l19.9,35.9c-35.9,20.5-59.8,57.1-59.8,98.9c0,0.3,0,0.6,0,0.9c0,0.2,0,0.3,0,0.5v0.6h251.7V214c0-0.2,0-0.3,0-0.5
		c0-0.3,0-0.6,0-0.9C546.8,170.9,522.9,134.3,487,113.8z M362.9,164.4c-4.6,0-8.4-3.8-8.4-8.4c0-4.6,3.8-8.4,8.4-8.4
		s8.4,3.8,8.4,8.4C371.3,160.6,367.5,164.4,362.9,164.4z M479,164.4c-4.6,0-8.4-3.8-8.4-8.4c0-4.6,3.8-8.4,8.4-8.4s8.4,3.8,8.4,8.4
		C487.4,160.6,483.7,164.4,479,164.4z"/>
</g>
</svg>
