<?xml version="1.0" encoding="UTF-8" standalone="no"?>
<svg
   xmlns:dc="http://purl.org/dc/elements/1.1/"
   xmlns:cc="http://creativecommons.org/ns#"
   xmlns:rdf="http://www.w3.org/1999/02/22-rdf-syntax-ns#"
   xmlns:svg="http://www.w3.org/2000/svg"
   xmlns="http://www.w3.org/2000/svg"
   xmlns:sodipodi="http://sodipodi.sourceforge.net/DTD/sodipodi-0.dtd"
   xmlns:inkscape="http://www.inkscape.org/namespaces/inkscape"
   version="1.1"
   id="Layer_1"
   width="715.27863"
   height="200.8533"
   viewBox="-3.5 -3.5 715.27863 200.8533"
   enable-background="new -3.5 -3.5 695 185"
   xml:space="preserve"
   inkscape:version="0.48.4 r9939"
   sodipodi:docname="angularjs-full.svg"
   inkscape:export-filename="C:\Matheus\Dev\Square Cube\Projetos\Github\Adesivos\Repo\adesivos\view\angularjs-full.png"
   inkscape:export-xdpi="64.422447"
   inkscape:export-ydpi="64.422447"><metadata
   id="metadata66"><rdf:RDF><cc:Work
       rdf:about=""><dc:format>image/svg+xml</dc:format><dc:type
         rdf:resource="http://purl.org/dc/dcmitype/StillImage" /><dc:title></dc:title></cc:Work></rdf:RDF></metadata><defs
   id="defs64" /><sodipodi:namedview
   pagecolor="#ffffff"
   bordercolor="#666666"
   borderopacity="1"
   objecttolerance="10"
   gridtolerance="10"
   guidetolerance="10"
   inkscape:pageopacity="0"
   inkscape:pageshadow="2"
   inkscape:window-width="1366"
   inkscape:window-height="705"
   id="namedview62"
   showgrid="false"
   fit-margin-top="10"
   fit-margin-left="10"
   fit-margin-right="10"
   fit-margin-bottom="10"
   inkscape:zoom="0.44316547"
   inkscape:cx="353.446"
   inkscape:cy="102.7283"
   inkscape:window-x="-8"
   inkscape:window-y="-8"
   inkscape:window-maximized="1"
   inkscape:current-layer="Layer_1" />
<filter
   id="googleDropShadow"
   color-interpolation-filters="sRGB">
	<feOffset
   result="offOut"
   in="SourceGraphic"
   dx="0.3"
   dy="0.5"
   id="feOffset4" />
	<feGaussianBlur
   stdDeviation="0.25"
   result="blurOut"
   in="offOut"
   id="feGaussianBlur6" />
	<feColorMatrix
   type="matrix"
   result="blurTransOut"
   in="blurOut"
   values="1 0 0 0 0 0 1 0 0 0 0 0 1 0 0 0 0 0 .8 0"
   id="feColorMatrix8" />
	<feBlend
   in="SourceGraphic"
   mode="normal"
   in2="blurTransOut"
   id="feBlend10" />
</filter>
<g
   id="g12"
   transform="translate(5.946,5.625)">
	<polygon
   points="229.733,114.75 229.733,57.715 238.394,57.715 238.394,128.516 229.236,128.516 185.914,70.98 185.914,128.516 177.248,128.516 177.248,57.715 186.407,57.715 "
   id="polygon14"
   style="fill:#cccccc" />
	<path
   d="m 308.698,125.743 c -5.708,2.182 -11.867,3.269 -18.468,3.269 -25.643,0 -38.47,-12.294 -38.47,-36.886 0,-23.271 12.378,-34.908 37.13,-34.908 7.102,0 13.705,0.993 19.807,2.976 v 7.921 c -6.103,-2.311 -12.378,-3.468 -18.817,-3.468 -19.306,0 -28.957,9.163 -28.957,27.479 0,19.638 9.5,29.462 28.518,29.462 3.033,0 6.399,-0.398 10.099,-1.193 v -24.06 h 9.158 l 0,29.408 0,0 z"
   id="path16"
   inkscape:connector-curvature="0"
   style="fill:#cccccc" />
	<path
   d="M 323.305,101.186 V 57.718 h 9.153 v 43.467 c 0,13.599 6.769,20.406 20.304,20.406 13.531,0 20.3,-6.808 20.3,-20.406 V 57.718 h 9.158 v 43.467 c 0,18.557 -9.819,27.83 -29.458,27.83 -19.638,0.001 -29.457,-9.273 -29.457,-27.829 z"
   id="path18"
   inkscape:connector-curvature="0"
   style="fill:#cccccc" />
	<polygon
   points="444.758,128.516 398.563,128.516 398.563,57.715 407.717,57.715 407.717,121.092 444.758,121.092 "
   id="polygon20"
   style="fill:#cccccc" />
	<polygon
   points="518.87,128.518 508.723,128.518 499.56,106.234 476.148,106.234 478.671,98.816 496.495,98.816 483.275,66.728 457.973,128.518 448.469,128.518 483.669,48.376 "
   id="polygon22"
   style="fill:#cccccc" />
	<path
   d="M 528.526,128.516 V 57.715 h 30.203 c 13.469,0 20.201,5.663 20.201,16.981 0,9.212 -6.581,16.029 -19.754,20.447 l 24.309,33.373 H 571.404 L 548.88,96.682 v -5.986 c 13.53,-2.151 20.295,-7.349 20.295,-15.598 0,-6.533 -3.762,-9.806 -11.283,-9.806 h -20.206 v 63.227 h -9.159 l -0.001,-0.003 0,0 z"
   id="path24"
   inkscape:connector-curvature="0"
   style="fill:#cccccc" />
	<path
   d="m 617.798,57.715 v 50.404 c 0,13.598 -8.005,20.396 -24.017,20.396 v -7.425 c 9.904,0 14.857,-4.329 14.857,-12.972 V 57.715 h 9.16 z"
   id="path26"
   inkscape:connector-curvature="0"
   style="fill:#cccccc" />
	<path
   d="m 634.137,126.04 v -8.418 c 7.429,2.64 15.447,3.965 24.063,3.965 12.18,0 18.272,-4.457 18.272,-13.376 0,-7.58 -4.493,-11.385 -13.47,-11.385 h -9.113 c -14.817,0 -22.233,-6.432 -22.233,-19.306 0,-13.531 9.495,-20.304 28.479,-20.304 8.249,0 15.922,0.998 23.021,2.976 v 8.417 c -7.101,-2.643 -14.772,-3.964 -23.021,-3.964 -12.875,0 -19.311,4.293 -19.311,12.875 0,7.588 4.354,11.385 13.065,11.385 h 9.113 c 15.08,0 22.628,6.441 22.628,19.306 0,13.868 -9.142,20.801 -27.432,20.801 -8.614,0 -16.632,-0.994 -24.061,-2.972 z"
   id="path28"
   inkscape:connector-curvature="0"
   style="fill:#cccccc" />
	<polygon
   points="232.045,112.438 232.045,55.402 240.711,55.402 240.711,126.203 231.552,126.203 188.227,68.667 188.227,126.203 179.565,126.203 179.565,55.402 188.723,55.402 "
   id="polygon30" />
	<path
   d="m 311.015,123.43 c -5.708,2.182 -11.864,3.268 -18.467,3.268 -25.645,0 -38.47,-12.293 -38.47,-36.885 0,-23.271 12.378,-34.909 37.135,-34.909 7.096,0 13.7,0.994 19.802,2.976 v 7.92 c -6.103,-2.311 -12.378,-3.468 -18.813,-3.468 -19.307,0 -28.96,9.163 -28.96,27.479 0,19.639 9.504,29.463 28.517,29.463 3.034,0 6.404,-0.396 10.103,-1.193 V 94.02 h 9.154 l -0.001,29.41 0,0 z"
   id="path32"
   inkscape:connector-curvature="0" />
	<path
   d="M 325.621,98.871 V 55.398 h 9.153 V 98.87 c 0,13.598 6.769,20.401 20.305,20.401 13.53,0 20.299,-6.804 20.299,-20.401 V 55.398 h 9.158 V 98.87 c 0,18.556 -9.819,27.825 -29.457,27.825 -19.639,0 -29.458,-9.267 -29.458,-27.824 z"
   id="path34"
   inkscape:connector-curvature="0" />
	<polygon
   points="447.071,126.199 400.88,126.199 400.88,55.398 410.034,55.398 410.034,118.775 447.071,118.775 "
   id="polygon36" />
	<polygon
   points="521.188,126.202 511.035,126.202 501.877,103.92 478.46,103.92 480.989,96.496 498.808,96.496 485.592,64.408 460.29,126.202 450.785,126.202 485.987,46.056 "
   id="polygon38" />
	<path
   d="M 530.843,126.203 V 55.402 h 30.202 c 13.47,0 20.196,5.659 20.196,16.982 0,9.207 -6.577,16.028 -19.749,20.445 l 24.31,33.374 H 573.716 L 551.195,94.368 v -5.992 c 13.531,-2.151 20.299,-7.344 20.299,-15.598 0,-6.533 -3.766,-9.801 -11.292,-9.801 h -20.2 v 63.226 c 0,0 -9.159,0 -9.159,0 z"
   id="path40"
   inkscape:connector-curvature="0" />
	<path
   d="m 620.115,55.398 v 50.405 c 0,13.602 -8.005,20.396 -24.016,20.396 v -7.424 c 9.903,0 14.856,-4.33 14.856,-12.973 V 55.398 h 9.16 z"
   id="path42"
   inkscape:connector-curvature="0"
   style="fill:#a6120d" />
	<path
   d="m 636.45,123.723 v -8.416 c 7.43,2.639 15.447,3.965 24.064,3.965 12.179,0 18.271,-4.459 18.271,-13.373 0,-7.584 -4.492,-11.385 -13.47,-11.385 h -9.113 c -14.817,0 -22.232,-6.436 -22.232,-19.311 0,-13.531 9.491,-20.303 28.478,-20.303 8.249,0 15.923,0.998 23.022,2.976 v 8.418 c -7.102,-2.644 -14.773,-3.965 -23.022,-3.965 -12.875,0 -19.311,4.293 -19.311,12.875 0,7.588 4.351,11.385 13.065,11.385 h 9.113 c 15.079,0 22.628,6.438 22.628,19.31 0,13.865 -9.141,20.797 -27.431,20.797 -8.614,-0.001 -16.633,-0.995 -24.062,-2.973 z"
   id="path44"
   inkscape:connector-curvature="0"
   style="fill:#a6120d" />
	<path
   d="m 551.851,163.994 -3.363,-10.225 h -2.391 l 4.641,12.92 c -0.108,0.281 -0.285,0.709 -0.525,1.287 -0.242,0.578 -0.384,0.896 -0.421,0.959 -0.125,0.188 -0.279,0.346 -0.464,0.475 -0.184,0.129 -0.47,0.193 -0.858,0.193 -0.125,0 -0.271,-0.013 -0.435,-0.035 -0.163,-0.023 -0.429,-0.086 -0.795,-0.188 v 1.923 c 0.234,0.063 0.433,0.104 0.591,0.129 0.16,0.022 0.39,0.034 0.687,0.034 1.218,0 2.076,-0.351 2.575,-1.054 0.5,-0.703 1.357,-2.654 2.576,-5.855 0.516,-1.359 1.155,-3.119 1.922,-5.275 1.022,-2.869 1.684,-4.706 1.979,-5.512 h -2.332 l -3.387,10.224 z m -12.487,0.861 c -1.521,0 -2.56,-0.69 -3.116,-2.074 -0.298,-0.733 -0.445,-1.69 -0.445,-2.87 0,-1.632 0.361,-2.804 1.088,-3.517 0.725,-0.709 1.569,-1.065 2.533,-1.065 1.104,0 1.941,0.435 2.511,1.301 0.569,0.867 0.853,1.961 0.853,3.281 0,1.485 -0.283,2.68 -0.853,3.586 -0.57,0.905 -1.427,1.358 -2.571,1.358 z m -5.497,1.465 h 1.945 v -1.604 c 0.446,0.603 0.866,1.04 1.259,1.313 0.658,0.461 1.466,0.691 2.423,0.691 1.71,0 3.047,-0.656 4.013,-1.97 0.965,-1.313 1.446,-2.96 1.446,-4.944 0,-2.094 -0.487,-3.678 -1.465,-4.752 -0.977,-1.074 -2.249,-1.611 -3.816,-1.611 -0.754,0 -1.451,0.158 -2.096,0.475 -0.643,0.316 -1.194,0.775 -1.658,1.377 v -6.246 h -2.051 l 0,17.271 0,0 z"
   id="path46"
   inkscape:connector-curvature="0" />
</g>
<g
   id="g48"
   transform="translate(5.946,5.625)">
	<polygon
   points="83.331,176.625 153.4,137.792 166.462,29.46 83.243,0.875 0.554,29.975 13.621,138.311 "
   id="polygon50"
   style="fill:#b3b3b3" />
	<polygon
   points="146.041,132.609 158.214,35.721 83.05,10.089 83.05,167.471 "
   id="polygon52"
   style="fill:#a6120d" />
	<polygon
   points="83.049,10.086 9.833,36.183 21.03,133.072 83.049,167.471 "
   id="polygon54"
   style="fill:#dd1b16" />
	<path
   d="m 103.74,93.871 -20.69,9.675 H 61.243 L 50.992,129.186 31.925,129.539 83.05,15.804 103.74,93.871 z M 101.74,89 83.187,52.271 67.969,88.368 h 15.08 L 101.74,89 z"
   id="path56"
   inkscape:connector-curvature="0"
   style="fill:#f2f2f2" />
	<polygon
   points="83.088,88.396 83.049,103.523 107.062,103.546 118.285,129.543 136.529,129.881 83.049,15.804 83.186,52.271 100.454,88.396 "
   id="polygon58"
   style="fill:#b3b3b3" />
</g>
<path
   d="m 659.12,154.465 c 0.912,0.755 2.817,2.341 2.817,5.36 0,2.937 -1.667,4.328 -3.335,5.637 -0.516,0.515 -1.111,1.072 -1.111,1.946 0,0.872 0.595,1.349 1.031,1.707 l 1.431,1.109 c 1.746,1.469 3.333,2.82 3.333,5.56 0,3.731 -3.613,7.502 -10.44,7.502 -5.757,0 -8.535,-2.738 -8.535,-5.678 0,-1.43 0.713,-3.452 3.058,-4.843 2.459,-1.508 5.795,-1.705 7.581,-1.827 -0.557,-0.714 -1.192,-1.468 -1.192,-2.698 0,-0.674 0.2,-1.072 0.398,-1.549 -0.438,0.04 -0.873,0.079 -1.271,0.079 -4.207,0 -6.589,-3.137 -6.589,-6.232 0,-1.826 0.835,-3.852 2.54,-5.32 2.264,-1.866 4.962,-2.184 7.107,-2.184 h 8.177 l -2.541,1.429 h -2.459 m -2.821,17.629 c -0.317,-0.041 -0.515,-0.041 -0.911,-0.041 -0.358,0 -2.503,0.08 -4.17,0.636 -0.873,0.318 -3.414,1.269 -3.414,4.088 0,2.819 2.74,4.845 6.988,4.845 3.81,0 5.836,-1.83 5.836,-4.287 10e-4,-2.029 -1.309,-3.097 -4.329,-5.241 z m 1.152,-7.544 c 0.913,-0.915 0.992,-2.183 0.992,-2.898 0,-2.859 -1.707,-7.305 -5.001,-7.305 -1.033,0 -2.144,0.516 -2.781,1.311 -0.674,0.834 -0.872,1.904 -0.872,2.938 0,2.659 1.549,7.066 4.964,7.066 0.992,0 2.061,-0.476 2.698,-1.112 z m -23.324,6.908 c -6.301,0 -9.67,-4.914 -9.67,-9.355 0,-5.192 4.241,-9.63 10.267,-9.63 5.825,0 9.472,4.557 9.472,9.354 -10e-4,4.676 -3.607,9.631 -10.069,9.631 m 4.953,-3.21 c 0.954,-1.269 1.192,-2.853 1.192,-4.401 0,-3.487 -1.665,-10.146 -6.581,-10.146 -1.308,0 -2.616,0.516 -3.566,1.35 -1.546,1.386 -1.825,3.13 -1.825,4.835 0,3.923 1.943,10.382 6.739,10.382 1.546,0 3.132,-0.752 4.041,-2.02 z m -26.436,3.21 c -6.302,0 -9.671,-4.914 -9.671,-9.355 0,-5.192 4.242,-9.63 10.267,-9.63 5.825,0 9.472,4.557 9.472,9.354 0,4.676 -3.607,9.631 -10.068,9.631 m 4.954,-3.21 c 0.952,-1.269 1.19,-2.853 1.19,-4.401 0,-3.487 -1.665,-10.146 -6.58,-10.146 -1.307,0 -2.616,0.516 -3.567,1.35 -1.546,1.386 -1.823,3.13 -1.823,4.835 0,3.923 1.941,10.382 6.738,10.382 1.547,0 3.133,-0.752 4.042,-2.02 z m -17.653,2.589 v -4.862 c 0,-0.398 0.038,-1.554 0.079,-1.913 0.08,-0.316 0.118,-0.399 0.399,-0.637 l 1.035,-0.995 h -8.448 l -3.186,1.713 6.016,-0.318 v 6.414 c -1.195,0.48 -2.509,0.996 -5.061,0.996 -8.686,0 -14.106,-7.053 -14.106,-14.542 0,-6.973 4.743,-11.757 11.038,-11.757 4.701,0 7.173,2.431 8.527,3.744 l -0.996,1.596 1.394,-0.318 3.308,-3.148 c -0.877,-0.598 -2.271,-1.634 -5.261,-2.471 -1.872,-0.519 -3.943,-0.836 -6.095,-0.836 -10.162,0 -16.099,7.171 -16.099,14.9 0,6.337 4.183,14.426 15.182,14.426 2.191,0 4.262,-0.318 6.574,-0.677 l 5.7,-1.315 m 71.77,-1.147 c -1.317,-0.12 -1.592,-0.359 -1.592,-1.912 v -22.555 c 0.007,-0.086 0.014,-0.174 0.023,-0.257 0.159,-1.394 0.558,-1.633 1.793,-2.351 h -5.699 l -2.989,1.435 h 3.047 v 0.018 l -0.003,-0.014 v 24.6 c 0,0.797 -0.158,0.916 -1.075,2.11 h 7.053 l 1.475,-0.875 c -0.677,-0.08 -1.355,-0.12 -2.033,-0.199 m 16.214,0.367 c -0.434,0.237 -0.87,0.515 -1.304,0.713 -1.308,0.593 -2.654,0.751 -3.841,0.751 -1.265,0 -3.244,-0.08 -5.264,-1.543 -2.807,-1.979 -4.036,-5.382 -4.036,-8.351 0,-6.133 4.987,-9.14 9.062,-9.14 1.424,0 2.891,0.356 4.078,1.109 1.977,1.304 2.491,3.005 2.768,3.915 l -9.298,3.76 -3.049,0.238 c 0.988,5.026 4.394,7.954 8.152,7.954 2.019,0 3.483,-0.712 4.828,-1.384 l -2.096,1.978 M 684.21,158.26 c 0.751,-0.277 1.147,-0.514 1.147,-1.068 0,-1.581 -1.78,-3.404 -3.917,-3.404 -1.585,0 -4.551,1.227 -4.551,5.501 0,0.673 0.079,1.385 0.119,2.098 l 7.202,-3.127 z"
   id="path60"
   inkscape:connector-curvature="0"
   style="filter:url(#googleDropShadow)" />
</svg>