<?xml version="1.0" encoding="UTF-8" standalone="no"?>
<svg
   xmlns:dc="http://purl.org/dc/elements/1.1/"
   xmlns:cc="http://creativecommons.org/ns#"
   xmlns:rdf="http://www.w3.org/1999/02/22-rdf-syntax-ns#"
   xmlns:svg="http://www.w3.org/2000/svg"
   xmlns="http://www.w3.org/2000/svg"
   xmlns:sodipodi="http://sodipodi.sourceforge.net/DTD/sodipodi-0.dtd"
   xmlns:inkscape="http://www.inkscape.org/namespaces/inkscape"
   width="256px"
   height="295px"
   viewBox="0 0 256 295"
   version="1.1"
   preserveAspectRatio="xMinYMin meet"
   id="svg2"
   inkscape:version="0.91 r13725"
   sodipodi:docname="bitbucket.svg"
   inkscape:export-filename="C:\Users\Lincoln\Desktop\github\bitbucket.png"
   inkscape:export-xdpi="90"
   inkscape:export-ydpi="90">
  <metadata
     id="metadata16">
    <rdf:RDF>
      <cc:Work
         rdf:about="">
        <dc:format>image/svg+xml</dc:format>
        <dc:type
           rdf:resource="http://purl.org/dc/dcmitype/StillImage" />
      </cc:Work>
    </rdf:RDF>
  </metadata>
  <defs
     id="defs14" />
  <sodipodi:namedview
     pagecolor="#ffffff"
     bordercolor="#666666"
     borderopacity="1"
     objecttolerance="10"
     gridtolerance="10"
     guidetolerance="10"
     inkscape:pageopacity="0"
     inkscape:pageshadow="2"
     inkscape:window-width="798"
     inkscape:window-height="838"
     id="namedview12"
     showgrid="false"
     inkscape:zoom="0.8"
     inkscape:cx="128"
     inkscape:cy="147.5"
     inkscape:window-x="-7"
     inkscape:window-y="0"
     inkscape:window-maximized="0"
     inkscape:current-layer="svg2" />
  <g
     fill="#205081"
     id="g4">
    <path
       d="M128,4.60742407e-06 L128,4.60742407e-06 C57.7318818,4.60742407e-06 0.0116395051,18.8218157 0.0116395051,42.6627818 C0.0116395051,48.9367227 15.069093,138.026665 21.3430339,173.160715 C23.8526056,189.472966 65.2606085,212.059146 128,212.059146 L128,212.059146 C190.739386,212.059146 230.892591,189.472966 234.656972,173.160715 C240.930901,138.026665 255.988355,48.9367227 255.988355,42.6627818 C254.733569,18.8218157 198.268112,4.60742407e-06 128,4.60742407e-06 L128,4.60742407e-06 Z M128,183.199025 C105.41382,183.199025 87.8467888,165.631988 87.8467888,143.045808 C87.8467888,120.459628 105.41382,102.892607 128,102.892607 C150.586169,102.892607 168.153205,120.459628 168.153205,143.045808 C168.153205,164.377203 150.586169,183.199025 128,183.199025 L128,183.199025 Z M128,55.2106636 C82.8276337,55.2106636 46.4387859,47.6819368 46.4387859,37.6436384 C46.4387859,27.6053283 82.8276337,20.0766016 128,20.0766016 C173.172349,20.0766016 209.561208,27.6053283 209.561208,37.6436384 C209.561208,47.6819368 173.172349,55.2106636 128,55.2106636 L128,55.2106636 Z"
       id="path6" />
    <path
       d="M220.608176,207.039991 C218.098592,207.039991 216.843807,208.294777 216.843807,208.294777 C216.843807,208.294777 185.474114,233.390541 129.008657,233.390541 C72.5432113,233.390541 41.1735069,208.294777 41.1735069,208.294777 C41.1735069,208.294777 38.6639351,207.039991 37.4091493,207.039991 C34.899566,207.039991 32.3899943,208.294777 32.3899943,212.059146 L32.3899943,213.313932 C37.4091493,239.664482 41.1735069,258.486293 41.1735069,260.995864 C44.937876,279.817687 82.5815098,294.875141 127.753871,294.875141 L127.753871,294.875141 C172.926232,294.875141 210.569866,279.817687 214.334235,260.995864 C214.334235,258.486293 218.098592,239.664482 223.117747,213.313932 L223.117747,212.059146 C224.372533,209.549563 223.117747,207.039991 220.608176,207.039991 L220.608176,207.039991 Z"
       id="path8" />
    <circle
       cx="128"
       cy="141.79108"
       r="20.076605"
       id="circle10" />
  </g>
</svg>
