<svg version="1.1" id="Layer_1" xmlns="http://www.w3.org/2000/svg" xmlns:xlink="http://www.w3.org/1999/xlink" x="0px" y="0px"
	 viewBox="0 0 139.1 137.8" enable-background="new 0 0 139.1 137.8" xml:space="preserve">
<g>
	<linearGradient id="SVGID_1_" gradientUnits="userSpaceOnUse" x1="212.8385" y1="-52.5912" x2="12.3624" y2="117.378">
		<stop  offset="0" style="stop-color:#7A2D4E"/>
		<stop  offset="0.135" style="stop-color:#732B4C"/>
		<stop  offset="0.3599" style="stop-color:#5F2646"/>
		<stop  offset="0.6469" style="stop-color:#411E3D"/>
		<stop  offset="0.9819" style="stop-color:#171130"/>
		<stop  offset="1" style="stop-color:#14102F"/>
	</linearGradient>
	<path fill="url(#SVGID_1_)" d="M118.1,137.8H21c-11.6,0-21-9.4-21-21V21C0,9.4,9.4,0,21,0h97.1c11.5,0,21,9.4,21,21v95.8
		C139.1,128.3,129.6,137.8,118.1,137.8z"/>
	<g>
		<path fill="#FFFFFF" d="M75.8,26c3.9,0,7.4,0.3,10.6,1c3.2,0.7,6,1.8,8.2,3.4C97,32,98.8,34,100,36.6c1.3,2.6,1.9,5.8,1.9,9.6
			c0,4.1-0.9,7.6-2.8,10.3c-1.9,2.7-4.6,5-8.3,6.8c5,1.5,8.8,4,11.3,7.6c2.5,3.6,3.7,8,3.7,13.1c0,4.1-0.8,7.7-2.4,10.7
			c-1.6,3-3.8,5.5-6.5,7.4c-2.7,1.9-5.8,3.3-9.3,4.2c-3.5,0.9-7,1.4-10.7,1.4H37.4V26H75.8z M73.5,59.1c3.2,0,5.8-0.8,7.9-2.3
			c2.1-1.5,3.1-4,3.1-7.4c0-1.9-0.3-3.5-1-4.7c-0.7-1.2-1.6-2.2-2.7-2.9c-1.1-0.7-2.5-1.2-3.9-1.4c-1.5-0.3-3-0.4-4.6-0.4H55.3v19.1
			H73.5z M74.6,93.8c1.8,0,3.4-0.2,5-0.5c1.6-0.3,3-0.9,4.2-1.7c1.2-0.8,2.2-1.9,2.9-3.3c0.7-1.4,1.1-3.1,1.1-5.3
			c0-4.2-1.2-7.2-3.5-9c-2.4-1.8-5.5-2.7-9.4-2.7H55.3v22.4H74.6z"/>
	</g>
</g>
</svg>
