<?xml version="1.0" encoding="UTF-8" standalone="no"?>
<svg
   xmlns:dc="http://purl.org/dc/elements/1.1/"
   xmlns:cc="http://creativecommons.org/ns#"
   xmlns:rdf="http://www.w3.org/1999/02/22-rdf-syntax-ns#"
   xmlns:svg="http://www.w3.org/2000/svg"
   xmlns="http://www.w3.org/2000/svg"
   xmlns:sodipodi="http://sodipodi.sourceforge.net/DTD/sodipodi-0.dtd"
   xmlns:inkscape="http://www.inkscape.org/namespaces/inkscape"
   height="63.143818mm"
   width="84.666664mm"
   version="1.1"
   viewBox="0 0 299.9938 223.73371"
   id="svg2"
   inkscape:version="0.91 r13725"
   sodipodi:docname="coffeescript.svg">
  <metadata
     id="metadata18">
    <rdf:RDF>
      <cc:Work
         rdf:about="">
        <dc:format>image/svg+xml</dc:format>
        <dc:type
           rdf:resource="http://purl.org/dc/dcmitype/StillImage" />
        <dc:title></dc:title>
      </cc:Work>
    </rdf:RDF>
  </metadata>
  <defs
     id="defs16" />
  <sodipodi:namedview
     pagecolor="#ffffff"
     bordercolor="#666666"
     borderopacity="1"
     objecttolerance="10"
     gridtolerance="10"
     guidetolerance="10"
     inkscape:pageopacity="0"
     inkscape:pageshadow="2"
     inkscape:window-width="1600"
     inkscape:window-height="847"
     id="namedview14"
     showgrid="false"
     fit-margin-top="0"
     fit-margin-left="0"
     fit-margin-right="0"
     fit-margin-bottom="0"
     inkscape:zoom="0.47160268"
     inkscape:cx="335.49889"
     inkscape:cy="250.21094"
     inkscape:window-x="-8"
     inkscape:window-y="-8"
     inkscape:window-maximized="1"
     inkscape:current-layer="svg2" />
  <g
     transform="matrix(0.4470998,0,0,0.4470998,-19.159053,-73.637777)"
     id="g4">
    <rect
       height="93.013"
       width="154.03999"
       y="315.04999"
       x="301.32001"
       id="rect6"
       style="fill:none" />
    <g
       transform="matrix(0.5784,0,0,0.59172,163.19,69.508)"
       id="g8">
      <path
         d="m 301.07,191.4 c 0,0 -5.2487,-3.515 -14.184,-4.8984 -14.689,-2.2744 -37.583,-2.0265 -44.926,9.0416 -4.9521,7.4646 2.1503,13.213 7.5381,16.296 11.341,6.4891 33.09,4.0112 45.219,0.82969 10.08,-2.6441 20.3,-5.1995 31.696,-12.56 14.719,-9.507 39.129,-23.024 38.462,-23.071 11.084,-6.337 44.032,-17.556 86.455,-16.02 15.772,0.57095 28.257,1.1113 42.165,4.5305 11.469,2.8195 24.312,8.7988 34.622,18.948 8.5963,8.4619 10.423,19.431 9.4375,27.075 -1.5752,12.221 -11.207,20.957 -27.362,26.815 -24.518,8.8911 -50.079,7.0377 -65.492,6.6011 -44.206,-3.6619 -54.32,-32.847 -17.954,-37.289 17.872,36.276 113.22,7.9738 66.567,-14.363 -27.097,-12.17 -81.207,1.9335 -81.207,1.9335 -17.999,6.6895 -40.016,16.987 -62.424,29.555 0,0 -12.809,8.3546 -35.96,12.11 -7.1514,1.16 -14.663,1.5735 -23.704,1.5496 -5.9262,-0.0157 -13.93,-0.57529 -20.714,-2.0584 -59.386,-12.982 -46.128,-43.366 -46.128,-43.366 0,0 0,-15.192 32.869,-20.164 19.705,-2.9806 33.494,-1.7801 41.663,0.9567 5.2644,1.7636 7.03,3.4835 9.1605,5.6724 5.1291,5.27 -5.6275,11.935 -5.8005,11.877 z M 98.89,296.64 c 5.7793,31.81 12.822,61.704 22.895,91.361 -9.1694,5.2653 -22.289,14.887 -35.602,31.83 -24.307,30.936 -28.435,79.109 -19.887,98.33 7.7502,17.428 8.3046,37.092 53.034,60.215 34.889,18.037 72.721,0.13149 82.238,-3.9381 -9.616,0.63045 -54.488,-12.07 -76.714,-42.466 -12.241,-16.741 -17.267,-34.839 -18.835,-52.025 -2.5168,-27.584 6.0056,-50.14 23.807,-67.852 0.21058,-0.20952 0.40701,-0.39596 0.61524,-0.60156 6.4684,16.252 13.982,32.567 22.85,49.221 l -0.26368,-0.006 65.74,93.359 c 13.062,25.396 16.978,39.035 19.887,51.377 0.33467,-0.0523 11.822,26.695 63.377,42.482 22.761,6.97 52.886,13.137 94.064,11.654 132.08,-4.7549 142.81,-55.94 148.05,-54.137 4.2799,-21.839 10.637,-39.112 19.336,-53.586 l 58.004,-81.76 11.619,-22.119 c 20.034,-37.308 34.77,-88.338 43.27,-125.22 3.0972,-13.438 5.7142,-26.606 3.1172,-23.916 -13.641,14.13 -30.702,31.594 -118.88,45.002 -39.875,6.0633 -95.131,15.124 -171.7,13.555 -269.6,-5.5 -290.04,-60.74 -290.04,-60.74 z m 102.68,277.8 c 3.4626,-0.24305 4.5524,-1.0511 2.8359,-1.0332 -0.37252,0.004 -1.3855,0.41295 -2.8359,1.0332 z m -58.48,-369.5 c 0,0 -32.593,22.097 2.2097,42.537 34.8027,20.44 87.836,27.621 87.836,27.621 44.271,9.9239 131.32,13.683 219.31,10.496 19.597,-0.70977 135.05,-11.339 174.01,-31.488 31.607,-16.345 34.915,-25.406 22.65,-42.537 64.369,30.287 16.662,55.694 -1.1048,64.082 -10.424,5.3091 -29.115,10.852 -54.138,16.573 -55.683,15.654 -120.44,19.964 -187.83,20.992 -73.108,1.0031 -149.45,-3.3356 -235.89,-24.307 -30.898,-10.21 -69.409,-17.215 -75.683,-45.851 1.4767,-19.493 25.631,-28.661 48.614,-38.117 z"
         id="path10"
         inkscape:connector-curvature="0"
         style="fill:#28334c;fill-rule:evenodd" />
    </g>
    <path
       d="m 173.66,631.05 c 1.0706,9.5148 -1.2193,17.93 -7.9492,19.789 -3.4366,0.94931 -8.4606,-2.9998 -8.4791,-6.6414 -0.0362,-7.1126 10.237,-11.5 16.428,-13.147 z m 119.62,-82.97 c -0.44595,-0.002 -0.88505,0.005 -1.3153,0.0193 -17.941,2.2816 -26.77,12.308 -32.195,26.565 -4.4952,11.814 -9.194,23.65 -3.1796,41.611 2.7617,8.2469 21.345,13.531 33.519,8.6745 9.68,-3.8612 17.067,-10.756 21.267,-16.328 0.45836,2.539 1.1374,5.2042 2.0807,8.0208 2.7617,8.2469 21.332,13.733 32.724,7.1842 10.714,-6.1587 10.114,-11.458 12.056,-18.434 -5.2909,9.9265 -24.057,11.165 -25.967,1.6264 -1.0387,-5.1896 -1.6802,-9.8799 0.79444,-13.011 12.088,0.23755 19.254,-5.7299 26.1,-11.927 4.2192,-5.4072 9.9087,-9.1108 7.1545,-24.397 -1.3936,-7.7341 -10.605,-9.4448 -17.488,-9.2169 -17.941,2.2816 -26.769,12.309 -32.194,26.566 -3.0588,8.039 -6.2086,16.09 -6.0162,26.072 -5.1156,5.8912 -10.288,11.702 -17.993,13.95 -9.403,1.7556 -16.106,0.12134 -17.754,-7.8608 -0.64126,-5.2565 -1.149,-10.423 1.3256,-13.555 12.088,0.23756 19.254,-5.7299 26.1,-11.927 4.2192,-5.4072 9.9078,-9.1099 7.1535,-24.396 -1.3065,-7.2508 -9.4831,-9.2076 -16.172,-9.2361 z m 2.1294,8.0161 c 7.4246,0.0903 4.6523,10.897 1.4567,17.62 -7.6378,11.041 -14.167,13.858 -20.403,14.503 3.3649,-15.62 9.0124,-32.244 18.946,-32.123 z m 56.866,0.36706 c 7.4246,0.0903 4.6532,10.897 1.4577,17.62 -7.6379,11.041 -14.167,13.858 -20.403,14.503 3.3648,-15.62 9.0115,-32.244 18.945,-32.123 z m -95.952,-45.528 c -8.5034,-0.0974 -17.589,4.747 -20.829,10.88 -2.2725,-10.252 -14.662,-10.54 -14.614,-10.734 0,0 -17.582,-1.3602 -25.107,16.484 -9.1721,21.751 -7.1463,44.387 -11.617,44.086 l -13.044,2.3567 c 0.23217,-0.21412 0.46273,-0.36347 0.66701,-0.40157 -0.11772,-8.9355 -1.6464,-16.257 -4.981,-20.234 -5.4022,-6.4415 -12.426,-7.4305 -24.936,-4.0521 -4.9983,1.3498 -9.082,5.1367 -12.695,8.408 -5.1658,4.6777 -10.206,14.948 -11.712,19.29 -5.3839,20.433 -3.1855,18.976 -4.6841,24.918 -0.0102,0.0535 -0.0174,0.12131 -0.0271,0.17635 -2.6327,3.0021 -13.577,14.07 -30.107,11.721 -19.078,-2.7108 -14.309,-32.529 -14.309,-32.529 -0.51771,-2.44 6.0875,-60.488 30.208,-62.348 9.1292,-0.70392 11.634,7.1739 10.064,12.917 -1.5726,5.7543 -6.5099,10.653 -6.5099,10.653 0,1.4402 7.0839,4.6974 12.874,3.5384 4.7814,-0.95714 12.188,-24.94 -4.24,-31.988 -5.1338,-2.2025 -10.164,-2.9751 -14.654,-2.9969 -9.8783,-0.048 -17.143,3.5394 -17.143,3.5394 0,0 -19.297,4.4084 -31.39,45.212 -3.4408,11.61 -4.7662,22.801 -4.6831,32.134 0.12554,14.101 4.1881,24.7 14.758,31.95 15.687,10.761 48.203,-0.81415 56.018,-15.058 1.4839,14.161 20.151,24.125 37.193,12.426 5.9619,-3.718 10.75,-8.2613 13.848,-13.98 4.5499,-8.4002 5.9223,-20.255 6.6158,-27.682 -0.11287,-0.0348 -0.21771,-0.0742 -0.31758,-0.11693 l 14.124,-2.8694 -10.118,48.687 c 0.26897,-1.4332 -31.482,4.8573 -25.856,26.26 1.8111,6.8899 9.3735,12.592 16.301,13.418 7.6305,0.9099 17.88,-3.8385 20.797,-10.159 7.2155,14.726 34.659,12.309 40.658,-6.7088 l 20.235,-92.582 13.303,-0.19168 1.8736,-4.9837 -14.427,-0.19168 c 1.4923,-13.11 4.2205,-25.319 13.115,-25.302 6.066,0.0868 6.4384,5.6262 5.9956,8.6256 l 6.3704,0 c -0.1698,-4.8866 1.056,-11.442 -5.0588,-17.826 -3.2108,-3.2885 -7.5052,-4.695 -11.959,-4.746 z m -32.307,13.823 c 2.1317,0 4.5044,1.0461 6.9812,3.9572 0,0 -1.8175,9.2918 -4.181,21.276 l -15.885,0 3.7651,-18.401 c 0,0 3.8719,-6.8324 9.3194,-6.8324 z m -14.26,30.984 15.927,0 c -3.64,18.398 -8.436,42.393 -12.55,62.028 l -16.751,3.341 z m 2.7196,65.14 c -2.222,10.535 -4.1724,19.427 -5.4607,24.567 -0.99714,3.9778 -7.0167,7.637 -11.403,6.7644 -2.1924,-0.4362 -5.2418,-1.7171 -4.523,-5.2309 l 4.6222,-22.592 z m -57.275,-63.444 c 4.9674,-0.0425 4.7218,8.5266 4.2241,8.272 0,0 -10.845,8.4693 -0.37473,16.293 0.3122,8.0512 -2.2954,21.418 -11.054,29.327 -2.9651,2.6775 -10.715,3.5682 -12.553,-2.6835 -0.24851,-0.84526 -2.3055,-9.2409 0.8703,-22.392 1.4459,-5.9875 3.547,-16.859 9.4347,-22.844 4.3293,-4.401 7.3561,-5.9538 9.4534,-5.9718 z m 555.63,-31.405 -21.547,2.1085 -4.122,22.235 -6.183,0.19168 -0.74945,5.5587 5.6209,0 -9.3404,49.267 c -0.62575,2.8179 -1.41,5.4737 -0.58989,9.7708 1.1014,5.7706 6.9951,11.747 12.741,11.884 7.1389,0.17084 13.835,-8.0639 16.488,-13.993 -3.3975,1.7142 -10.171,1.1567 -9.3682,-3.0669 l 10.305,-54.246 8.4314,-0.19167 1.3116,-4.9837 -7.6819,-2e-5 z m -78.13,40.636 -8.8061,43.703 c -1.0784,5.3516 8.8646,6.223 15.176,-1.1501 5.8394,-6.8213 7.3762,-11.031 10.305,-26.644 1.6448,-10.105 1.9452,-18.796 -4.6841,-22.043 -4.0307,-1.9744 -9.2985,1.2102 -11.991,6.1338 z m -17.05,-23.194 -12.624,62.107 c -2.629,3.9465 -5.7482,7.4677 -10.235,7.856 -6.9793,0.472 -10.304,-2.9817 -7.3072,-13.226 l 10.118,-50.22 -20.048,-0.19167 -11.242,61.721 c -1.3044,7.162 4.6114,14.31 15.926,14.568 9.2266,-0.52464 16.999,-5.3703 19.861,-8.6256 l 0.54895,-0.18018 -9.5424,46.95 22.858,-5.7504 6.9324,-36.228 c 5.15,5.0579 11.344,5.8451 17.987,4.792 13.874,-4.1628 23.423,-13.228 28.292,-27.602 5.2582,-29.144 6.3396,-42.921 -6.5577,-49.453 -8.9876,-4.5522 -19.342,-0.65543 -25.294,4.4086 l 1.3115,-10.542 z m -14.03,-14.161 c 0,6.5635 -5.2009,11.884 -11.617,11.884 -6.4156,0 -11.617,-5.3207 -11.617,-11.884 0,-6.5634 5.2009,-11.884 11.617,-11.884 6.4156,-10e-6 11.617,5.3207 11.617,11.884 z m -113.51,17.968 c -1.9528,-7.6e-4 -3.9336,0.15671 -5.4879,0.60188 -6.5503,1.8762 -12.129,4.5521 -17.331,11.022 -4.9272,5.6198 -8.8368,12.02 -10.773,19.935 -2.8932,8.635 -4.1325,15.293 -4.5904,19.072 -0.271,7.4108 0.15406,12.334 1.8736,16.676 3.3794,8.5331 8.265,9.7246 13.959,11.501 13.012,1.1833 23.517,-2.2653 26.453,-5.1844 4.221,-1.8147 7.8356,-5.1218 14.299,-11.779 l 0.55836,-0.27699 -3.4625,16.857 20.985,-0.38335 12.179,-58.271 c 0.83676,-4.0037 7.1459,-5.6713 11.054,-4.792 1.8688,0.42037 4.4962,1.9342 4.7853,6.4472 0.19637,3.0658 3.3892,2.1988 4.9576,2.5618 3.5141,0.81333 8.2817,-2.5205 8.9934,-6.1338 1.1839,-6.0106 0.6809,-13.906 -9.9302,-15.334 -5.606,0.53574 -11.882,2.8548 -17.987,9.009 l 2.061,-8.6256 -21.547,-0.19169 -10.059,48.97 -2.0263,1.9206 c -3.5248,4.5072 -8.596,8.7178 -16.113,12.459 -5.1509,2.2259 -10.589,2.4957 -16.488,-0.38336 -3.7448,-2.1605 -3.6995,-10.489 -1.9673,-21.564 1.5847,-7.1572 3.1722,-14.312 6.464,-20.222 1.8443,-4.7416 4.3732,-8.6079 7.2135,-12.076 6.2469,-5.6705 10.298,-1.4276 9.3401,4.8811 -0.69929,4.6056 -3.5939,9.6572 5.6659,7.7621 11.628,-9.3502 -0.12442,-22.09 -5.6546,-23.721 -0.99187,-0.29254 -4.1686,-0.73562 -7.4234,-0.73702 z m -57.04,-5.2818 c -2.7798,3.467 9.2537,0.55919 12.321,-1.6265 5.6888,-4.0536 6.4282,-11.551 3.1798,-18.298 -4.1191,-8.5545 -13.045,-11.313 -23.053,-11.385 -14.441,-0.40639 -24.1,5.7071 -30.074,15.045 -4.1574,4.7628 -4.6127,11.303 -3.6884,16.643 1.8475,10.676 10.662,18.859 17.816,26.771 6.4503,7.1341 14.585,18.134 13.766,27.311 -0.83109,6.6938 -3.0127,14.574 -9.4779,19.543 -4.7813,3.6744 -15.982,5.7342 -22.92,-5.286 -3.155,-5.0113 -1.1926,-11.095 1.0501,-15.731 2.2429,-4.6361 9.5823,-8.252 14.186,-7.9882 2.4085,0.13798 -0.19492,-4.2126 -4.372,-6.5058 -3.5337,-1.9401 -9.0698,-2.2884 -14.441,0.13552 -7.6773,3.4646 -14.503,9.1152 -14.176,23.584 0.27695,12.259 6.8774,16.827 16.296,22.093 15.708,5.3271 26.256,2.2704 36.036,-2.0331 10.53,-7.2989 22.787,-16.226 21.527,-32.394 0.40324,-21.327 -10.385,-25.308 -17.42,-32.8 -13.869,-9.685 -24.806,-23.284 -14.176,-36.595 4.7322,-5.9256 19.763,-5.4945 21.33,1.0843 1.4784,6.2077 0.92542,12.652 -3.7096,18.433 z"
       id="path12"
       inkscape:connector-curvature="0"
       style="fill:#28334c;fill-rule:evenodd" />
  </g>
</svg>
