<?xml version="1.0" encoding="UTF-8" standalone="no"?>
<svg
   xmlns:dc="http://purl.org/dc/elements/1.1/"
   xmlns:cc="http://creativecommons.org/ns#"
   xmlns:rdf="http://www.w3.org/1999/02/22-rdf-syntax-ns#"
   xmlns:svg="http://www.w3.org/2000/svg"
   xmlns="http://www.w3.org/2000/svg"
   xmlns:sodipodi="http://sodipodi.sourceforge.net/DTD/sodipodi-0.dtd"
   xmlns:inkscape="http://www.inkscape.org/namespaces/inkscape"
   width="512"
   height="512"
   viewBox="0 0 409.6 409.6"
   version="1.1"
   id="svg2"
   inkscape:version="0.48.4 r9939"
   sodipodi:docname="ember.svg">
  <metadata
     id="metadata218">
    <rdf:RDF>
      <cc:Work
         rdf:about="">
        <dc:format>image/svg+xml</dc:format>
        <dc:type
           rdf:resource="http://purl.org/dc/dcmitype/StillImage" />
      </cc:Work>
    </rdf:RDF>
  </metadata>
  <defs
     id="defs216" />
  <sodipodi:namedview
     pagecolor="#ffffff"
     bordercolor="#666666"
     borderopacity="1"
     objecttolerance="10"
     gridtolerance="10"
     guidetolerance="10"
     inkscape:pageopacity="0"
     inkscape:pageshadow="2"
     inkscape:window-width="1366"
     inkscape:window-height="705"
     id="namedview214"
     showgrid="false"
     inkscape:zoom="0.43344728"
     inkscape:cx="401.78959"
     inkscape:cy="292.7451"
     inkscape:window-x="-8"
     inkscape:window-y="-8"
     inkscape:window-maximized="1"
     inkscape:current-layer="svg2"
     fit-margin-top="10"
     fit-margin-left="10"
     fit-margin-right="10"
     fit-margin-bottom="10" />
  <g
     id="#ffffffff"
     transform="matrix(1.3330993,0,0,1.3330993,-11.404547,2.3871201)">
    <path
       d="m 87.8,76.87 c 2.91,-4.24 8.18,-5.9 13.05,-6.52 9.01,-0.84 18.16,-0.76 27.08,0.89 3.53,0.68 7.07,1.72 10.15,3.63 4.12,2.14 2.07,7.53 3.62,11.12 -2,5.51 -4.7,10.87 -8.61,15.28 -0.74,0.8 -1.49,1.59 -2.26,2.37 -7.47,3.67 -16.15,2.92 -24.24,3.1 -2.82,-2.71 -6.96,-2.55 -10.41,-3.91 -4.06,-1.32 -6.92,-4.66 -10.46,-6.86 -2.35,-6.77 -2.8,-14.13 -1.96,-21.21 -0.15,3.51 0.05,7.02 0.5,10.49 1.25,-2.76 1.95,-5.78 3.54,-8.38 m 17.44,13.14 c -0.07,2.49 0.8,6.13 3.86,6.3 2.88,-1.22 4.27,-4.44 4.68,-7.37 1.15,-3.36 0.6,-7.13 -1.24,-10.15 -0.64,-0.09 -1.94,-0.28 -2.59,-0.37 -4.03,2.16 -4.84,7.42 -4.71,11.59 z"
       id="path7"
       inkscape:connector-curvature="0"
       style="fill:#ffffff" />
    <path
       d="m 189.35,76.51 c 9.41,-1.98 19.15,-1.29 28.55,0.33 5.55,1.06 11.56,2.47 15.43,6.92 2.43,2.52 2.28,6.38 4.45,9.07 0.14,-2.96 -0.42,-6.08 0.77,-8.9 l 0.2,-0.41 c 0.08,8.09 -1.62,16.25 -5.49,23.39 -0.08,0.05 -0.24,0.16 -0.32,0.21 -3.87,0.81 -7.16,3.2 -11.03,3.96 -4.76,1.22 -9.78,0.25 -14.5,1.65 -5.96,-0.6 -11.87,-1.97 -17.43,-4.19 -5.23,-4.44 -7.58,-11.19 -9.44,-17.58 1.64,-3.8 -0.22,-8.5 2.55,-11.89 1.79,-1.43 4.08,-2 6.26,-2.56 m 18.55,9.28 c -1.8,1.93 -1.91,4.77 -1.99,7.27 0.32,3.3 0.79,7.15 3.6,9.34 1.89,1.29 4.15,-0.3 4.62,-2.28 1.25,-4.27 0.72,-9.03 -1.2,-13.04 -0.46,0.78 -0.9,1.58 -1.34,2.37 l 0.34,-2.41 -2.48,0.35 c 0.92,-0.42 1.83,-0.86 2.74,-1.31 -1.28,-0.76 -3.02,-1.52 -4.29,-0.29 z"
       id="path9"
       inkscape:connector-curvature="0"
       style="fill:#ffffff" />
    <path
       d="m 228.49,250.57 c 3.14,-2.96 6.98,1.04 7.14,4.37 0.68,8.04 -7.27,15.05 -15.06,14.88 0.13,-7 2.81,-14.37 7.92,-19.25 z"
       id="path11"
       inkscape:connector-curvature="0"
       style="fill:#ffffff" />
    <path
       d="m 44.46,253.48 c 1.73,-1.64 4.03,-3.41 6.58,-2.84 4.11,2.19 3.36,8.1 1.01,11.36 -3.14,4.33 -8.27,7.57 -13.67,7.88 0.32,-5.87 1.85,-12.08 6.08,-16.4 z"
       id="path13"
       inkscape:connector-curvature="0"
       style="fill:#ffffff" />
    <path
       d="m 162.68,264.5 c 1.25,-4.24 3.82,-8.75 8.32,-10.08 2.88,-0.41 6.6,-0.57 8.55,2.04 3.45,4.6 3.33,10.87 1.85,16.19 -1.34,5.39 -4.07,11.02 -9.32,13.53 -3.93,2.01 -8.49,1.34 -12.56,0.18 -0.93,-7.42 1.09,-14.8 3.16,-21.86 z"
       id="path15"
       inkscape:connector-curvature="0"
       style="fill:#ffffff" />
  </g>
  <g
     id="#f7a488ff"
     transform="matrix(1.3330993,0,0,1.3330993,-11.404547,2.3871201)">
    <path
       d="M 246.79,11.98 C 251.3,9.1 256.62,7.3 262,7.59 c 6.44,1.82 12.28,7.03 13.52,13.8 1.26,6.96 -0.73,14.06 -3.77,20.3 -5.45,11.34 -13.92,20.95 -23.48,29.01 -2.5,0.26 -5.06,0.13 -7.35,-1 -0.08,-0.97 -0.25,-2.9 -0.33,-3.86 0.53,0.4 1.57,1.22 2.1,1.63 0.39,0.33 1.19,0.97 1.58,1.29 3.73,-1.5 7.49,-3.23 10.3,-6.19 6.04,-6.16 11.21,-13.2 15.18,-20.86 2.96,-6.01 5.16,-12.81 4.06,-19.57 -0.91,-6.25 -6.27,-11.13 -12.19,-12.71 -2.81,-0.33 -5.06,1.9 -7.15,3.43 -1.31,1.24 -2.49,2.6 -3.44,4.13 -4.9,8.54 -11.63,16.21 -14.35,25.85 -1.34,4.41 -0.29,9.04 0.31,13.48 -2.61,-4.83 -5.28,-9.7 -8.85,-13.91 6.83,-7.69 12.33,-16.45 18.98,-24.29 2,-2.26 4.12,-4.43 5.83,-6.94 -3.58,0.9 -6.4,3.33 -9.42,5.3 -8.56,5.81 -16.74,12.82 -27.01,15.35 -0.78,-0.51 -1.57,-1.01 -2.35,-1.5 2.53,0.52 4.77,-1.04 7.03,-1.95 9.32,-4.15 16.99,-11.06 25.59,-16.4 z"
       id="path18"
       inkscape:connector-curvature="0"
       style="fill:#f7a488" />
  </g>
  <g
     id="#fcd2c1ff"
     transform="matrix(1.3330993,0,0,1.3330993,-11.404547,2.3871201)">
    <path
       d="m 254.47,12.86 c 2.09,-1.53 4.34,-3.76 7.15,-3.43 5.92,1.58 11.28,6.46 12.19,12.71 1.1,6.76 -1.1,13.56 -4.06,19.57 -3.97,7.66 -9.14,14.7 -15.18,20.86 -2.81,2.96 -6.57,4.69 -10.3,6.19 -0.39,-0.32 -1.19,-0.96 -1.58,-1.29 0.92,-3.13 1.32,-6.39 2.2,-9.54 3.08,-9.14 9.68,-16.4 14.43,-24.64 2.38,-4.27 4.11,-9.72 1.77,-14.37 -1.71,-2.51 -4.35,-4.13 -6.62,-6.06 z"
       id="path21"
       inkscape:connector-curvature="0"
       style="fill:#fcd2c1" />
    <path
       d="m 48.69,32.96 c 3.67,2.8 8.52,4.09 11.27,8.01 3.35,4.23 4.65,9.55 6.42,14.53 1.09,0.3 2.18,0.6 3.28,0.9 -0.16,0.38 -0.49,1.15 -0.65,1.53 -1.57,-0.1 -3.32,-0.84 -4.81,-0.04 -1.4,1.59 -1.7,3.77 -1.96,5.79 C 58.53,60.7 55.53,56.96 52.9,53.03 49.01,47.24 46.08,39.87 48.69,32.96 z"
       id="path23"
       inkscape:connector-curvature="0"
       style="fill:#fcd2c1" />
    <path
       d="m 172.18,159.15 c 6.76,-0.87 13.8,-0.26 19.86,3.06 -1.53,4.69 -2.19,10.81 -7.5,12.72 -4.71,-1.18 -9.59,0.25 -13.69,2.6 l -0.28,-0.04 c -3.48,-0.77 -7.01,0.06 -10.52,0.19 -8.67,0.33 -17.51,0.6 -25.93,-1.87 -0.23,-0.34 -0.68,-1.01 -0.91,-1.34 8.02,-3.68 15.8,-7.97 24.12,-10.98 2.11,0.28 3.95,-0.75 5.61,-1.93 3.4,1.08 6.46,-0.62 9.24,-2.41 z"
       id="path25"
       inkscape:connector-curvature="0"
       style="fill:#fcd2c1" />
  </g>
  <g
     id="#fff8edff"
     transform="matrix(1.3330993,0,0,1.3330993,-11.404547,2.3871201)">
    <path
       d="m 243.53,16.48 c 3.02,-1.97 5.84,-4.4 9.42,-5.3 -1.71,2.51 -3.83,4.68 -5.83,6.94 -6.65,7.84 -12.15,16.6 -18.98,24.29 -3.45,-3.95 -7.24,-7.67 -11.62,-10.58 10.27,-2.53 18.45,-9.54 27.01,-15.35 z"
       id="path28"
       inkscape:connector-curvature="0"
       style="fill:#fff8ed" />
    <path
       d="m 72.31,107.31 c 1.4,-2.13 2.11,-4.93 4.4,-6.33 -0.44,5.93 2.94,11.29 7.41,14.88 2.36,5.88 7.01,10.51 12.17,14.02 -4.51,7.99 -2.02,17.52 1.43,25.4 9.78,22.17 30.82,39.77 55.18,42.9 -3.01,6.82 -4.93,14.01 -6.96,21.15 -20.86,0.75 -41.58,-4.96 -60.28,-13.93 -10.91,-5.46 -21.78,-12.27 -28.43,-22.81 -7,-9.82 -8.71,-22.68 -5.83,-34.26 3.82,-15.07 13.08,-27.84 20.91,-41.02 z"
       id="path30"
       inkscape:connector-curvature="0"
       style="fill:#fff8ed" />
    <path
       d="m 236.61,137.21 c 0.37,-0.17 1.1,-0.52 1.46,-0.7 6.77,3.61 14.05,9.19 14.7,17.46 1.26,9.66 -1.89,19.15 -4.53,28.32 -0.17,1.25 0.09,2.43 1.19,3.23 -3.94,6.6 -10.23,11.37 -16.8,15.15 -10.12,5.72 -21.39,9.01 -32.66,11.58 1.3,-8.03 1.42,-16.4 -1.53,-24.1 11.23,-4.76 20.85,-12.8 28.6,-22.12 6.18,-8.15 11.08,-18.34 9.57,-28.82 z"
       id="path32"
       inkscape:connector-curvature="0"
       style="fill:#fff8ed" />
    <path
       d="m 202.98,230.85 c 9.12,-1.65 17.89,-4.73 26.84,-7.06 1.58,1.55 2.97,3.27 4.46,4.9 -4.87,1.04 -10.09,1.39 -14.36,4.22 -3.31,1.9 -5.75,4.97 -8.92,7.04 -4.31,0.25 -8.66,0.33 -12.96,0 -2.05,-1.26 -3.94,-2.75 -5.81,-4.26 -1.16,-0.53 -1.13,-1.77 -0.19,-2.5 3.58,-1.06 7.27,-1.69 10.94,-2.34 z"
       id="path34"
       inkscape:connector-curvature="0"
       style="fill:#fff8ed" />
  </g>
  <g
     id="#fbc9b5ff"
     transform="matrix(1.3330993,0,0,1.3330993,-11.404547,2.3871201)">
    <path
       d="m 251.03,16.99 c 0.95,-1.53 2.13,-2.89 3.44,-4.13 2.27,1.93 4.91,3.55 6.62,6.06 2.34,4.65 0.61,10.1 -1.77,14.37 -4.75,8.24 -11.35,15.5 -14.43,24.64 -0.88,3.15 -1.28,6.41 -2.2,9.54 -0.53,-0.41 -1.57,-1.23 -2.1,-1.63 -0.97,-3.26 -2.32,-6.38 -3.6,-9.52 -0.6,-4.44 -1.65,-9.07 -0.31,-13.48 2.72,-9.64 9.45,-17.31 14.35,-25.85 z"
       id="path37"
       inkscape:connector-curvature="0"
       style="fill:#fbc9b5" />
  </g>
  <g
     id="#85592bff"
     transform="matrix(1.3330993,0,0,1.3330993,-11.404547,2.3871201)">
    <path
       d="m 116.52,27.49 c 15.46,-7.97 33.17,-10.77 50.44,-9.87 16.34,0.78 33.2,3.78 47.21,12.71 0.78,0.49 1.57,0.99 2.35,1.5 4.38,2.91 8.17,6.63 11.62,10.58 3.57,4.21 6.24,9.08 8.85,13.91 1.28,3.14 2.63,6.26 3.6,9.52 0.08,0.96 0.25,2.89 0.33,3.86 -0.93,-0.38 -1.86,-0.76 -2.79,-1.13 -2.85,-10.16 -7.61,-19.98 -15.22,-27.44 -10.55,-10.7 -25.28,-16.04 -39.88,-18.27 -9.93,-1.62 -20.04,-1.49 -30.07,-1.2 -13.66,0.83 -27.5,3.9 -39.4,10.88 -7.02,4.33 -13.76,10.05 -16.93,17.87 -0.62,1.43 -1.24,2.87 -1.81,4.32 -0.21,-1.32 -0.42,-2.63 -0.63,-3.95 -0.12,-4.66 3.15,-8.29 6.12,-11.48 3.31,-3.63 7.57,-6.14 11.24,-9.36 -4.11,-0.49 -8.26,-0.98 -12.15,-2.46 -10.63,-3.7 -22,-6.88 -33.33,-5.03 -2.3,0.27 -4.81,1.33 -6.92,-0.14 12.71,-4.45 26.56,-1.37 38.91,2.79 5.82,2.32 12.28,3.29 18.46,2.39 z"
       id="path40"
       inkscape:connector-curvature="0"
       style="fill:#85592b" />
  </g>
  <g
     id="#b98448ff"
     transform="matrix(1.3330993,0,0,1.3330993,-11.404547,2.3871201)">
    <path
       d="m 56.28,23.64 c 0.95,-0.46 1.91,-0.9 2.87,-1.33 2.11,1.47 4.62,0.41 6.92,0.14 11.33,-1.85 22.7,1.33 33.33,5.03 3.89,1.48 8.04,1.97 12.15,2.46 -3.67,3.22 -7.93,5.73 -11.24,9.36 C 88.59,34.78 78.45,26.5 65.96,23.95 c -3.2,-0.89 -6.55,0.8 -9.68,-0.31 z"
       id="path43"
       inkscape:connector-curvature="0"
       style="fill:#b98448" />
    <path
       d="m 113.56,32.54 c 11.9,-6.98 25.74,-10.05 39.4,-10.88 10.03,-0.29 20.14,-0.42 30.07,1.2 14.6,2.23 29.33,7.57 39.88,18.27 7.61,7.46 12.37,17.28 15.22,27.44 -8.92,-3.56 -18.43,-5.53 -28,-6.26 C 196.74,50.75 179.15,45.74 162.01,43.05 152.4,41.37 142.64,42.07 132.95,42 c -8.56,0.53 -17.21,1.52 -25.29,4.54 -3.78,1 -7.14,3.28 -11.03,3.87 3.17,-7.82 9.91,-13.54 16.93,-17.87 z"
       id="path45"
       inkscape:connector-curvature="0"
       style="fill:#b98448" />
    <path
       d="m 244.08,100.72 c 7.21,11.5 12.63,24.32 14.58,37.83 2.24,13.67 -0.34,28.01 -6.78,40.24 -0.71,1.61 -2.05,2.78 -3.64,3.5 2.64,-9.17 5.79,-18.66 4.53,-28.32 -0.65,-8.27 -7.93,-13.85 -14.7,-17.46 -6.89,-3.27 -14.79,-4.23 -22.3,-3.01 -1.57,0.06 -3.15,0.12 -4.71,0.24 1.51,-2.34 2.74,-4.92 4.73,-6.9 4.84,-1.68 11.42,-0.3 14.57,-5.29 6.66,-5.24 9.77,-13.58 13.72,-20.83 z"
       id="path47"
       inkscape:connector-curvature="0"
       style="fill:#b98448" />
    <path
       d="m 138.9,137.69 c 12.75,0.26 25.52,-1.16 38,-3.71 -0.05,0.9 -0.14,2.7 -0.18,3.6 -0.2,-0.64 -0.59,-1.93 -0.78,-2.57 -11.77,2.36 -23.78,3.42 -35.77,3.53 0.8,2.46 1.53,4.94 2.21,7.43 0.74,2.52 1.4,5.06 2.16,7.57 -2.76,-4.02 -2.81,-9.19 -4.77,-13.6 -0.21,-0.56 -0.65,-1.69 -0.87,-2.25 z"
       id="path49"
       inkscape:connector-curvature="0"
       style="fill:#b98448" />
    <path
       d="m 259.48,209.22 c 4.03,3.25 8.83,5.33 13.86,6.49 -0.8,0.04 -2.41,0.11 -3.21,0.14 -1.57,4.95 -3.63,9.74 -6.13,14.3 1.33,0.16 2.66,0.32 3.99,0.49 -3.32,0.29 -6.84,0.61 -9.58,2.71 -2.45,1.53 -3.73,4.18 -5.06,6.63 -2.85,-5.79 -8.66,-9.83 -15.05,-10.64 l -0.28,-0.33 c -1.69,-1.99 -3.34,-4.01 -5.11,-5.93 2.92,-1.96 5.99,-3.74 9.31,-4.91 6.43,-1.33 13.44,-3.07 17.26,-8.95 z"
       id="path51"
       inkscape:connector-curvature="0"
       style="fill:#b98448" />
  </g>
  <g
     id="#f79f83ff"
     transform="matrix(1.3330993,0,0,1.3330993,-11.404547,2.3871201)">
    <path
       d="m 45.77,39.05 c -0.42,-6.94 5.1,-12.07 10.51,-15.41 3.13,1.11 6.48,-0.58 9.68,0.31 12.49,2.55 22.63,10.83 34.35,15.35 -2.97,3.19 -6.24,6.82 -6.12,11.48 -1.12,1.21 -2.24,2.42 -3.36,3.63 -0.12,-4.67 0.94,-10 -2.14,-14 -2.8,-3.38 -6.74,-5.61 -10.66,-7.46 -9.15,-4.05 -20.37,-5 -29.34,0.01 -2.61,6.91 0.32,14.28 4.21,20.07 2.63,3.93 5.63,7.67 9.34,10.65 0,0.65 0.02,1.93 0.02,2.58 C 54.28,59.18 46.99,49.98 45.77,39.05 z"
       id="path54"
       inkscape:connector-curvature="0"
       style="fill:#f79f83" />
    <path
       d="m 132.61,176.82 c 0.38,-0.25 1.14,-0.76 1.51,-1.01 8.42,2.47 17.26,2.2 25.93,1.87 3.51,-0.13 7.04,-0.96 10.52,-0.19 -1.12,0.69 -2.3,1.25 -3.54,1.68 -10.86,0.6 -22.01,1.63 -32.65,-1.22 -0.44,-0.28 -1.33,-0.85 -1.77,-1.13 z"
       id="path56"
       inkscape:connector-curvature="0"
       style="fill:#f79f83" />
    <path
       d="m 267.94,182.95 c 1.6,-2.2 5.53,-2.24 6.77,0.33 1.26,2.98 0.25,6.31 0.78,9.43 0.33,1.4 2.17,1.5 3.26,1.01 2.98,-1.49 4.79,-4.93 8.17,-5.65 3.1,-0.65 5.46,3.3 4.08,5.93 -1.3,3.8 -5.73,6 -6.24,10 3.27,0.09 7.87,-2.21 10.1,1.18 1.8,2.91 -1.02,5.89 -3.42,7.3 -5.23,2.91 -11.4,4.01 -17.35,3.66 -0.21,0.44 -0.64,1.32 -0.86,1.76 0.03,-0.55 0.08,-1.64 0.11,-2.19 -5.03,-1.16 -9.83,-3.24 -13.86,-6.49 -0.91,-0.75 -1.79,-1.51 -2.64,-2.32 -2.93,-2.76 -5.96,-7.09 -4.2,-11.22 3.34,-1.69 7.39,1.06 10.82,-0.25 2.45,-3.77 1.63,-8.89 4.48,-12.48 m 0.78,1.85 c -1.75,4.03 -1.75,8.58 -3.42,12.65 -3.89,1.07 -7.73,-0.52 -11.61,-0.74 -0.24,4.13 2.54,7.6 5.59,10.03 4.33,3.36 9.16,6.41 14.65,7.37 5.54,0.8 11.33,-0.32 16.29,-2.9 2.15,-1.11 4.48,-3.55 2.78,-6.03 -3.36,-1.01 -8.64,3.5 -10.37,-0.96 0.53,-4.72 5.67,-7.11 6.97,-11.56 0.13,-1.47 -0.91,-3.16 -2.59,-2.87 -3.73,1.55 -5.67,6.24 -10,6.56 -5.53,-1.33 -2.55,-7.78 -3.62,-11.69 -0.53,-2.32 -3.92,-1.78 -4.67,0.14 z"
       id="path58"
       inkscape:connector-curvature="0"
       style="fill:#f79f83" />
  </g>
  <g
     id="#fbc3aeff"
     transform="matrix(1.3330993,0,0,1.3330993,-11.404547,2.3871201)">
    <path
       d="m 48.69,32.96 c 8.97,-5.01 20.19,-4.06 29.34,-0.01 3.92,1.85 7.86,4.08 10.66,7.46 3.08,4 2.02,9.33 2.14,14 1.12,-1.21 2.24,-2.42 3.36,-3.63 0.21,1.32 0.42,2.63 0.63,3.95 -0.05,0.59 -0.17,1.79 -0.22,2.39 -8.53,0.41 -17.11,3.18 -25.59,0.81 0.16,-0.38 0.49,-1.15 0.65,-1.53 -1.1,-0.3 -2.19,-0.6 -3.28,-0.9 -1.77,-4.98 -3.07,-10.3 -6.42,-14.53 -2.75,-3.92 -7.6,-5.21 -11.27,-8.01 z"
       id="path61"
       inkscape:connector-curvature="0"
       style="fill:#fbc3ae" />
  </g>
  <g
     id="#b67d41ff"
     transform="matrix(1.3330993,0,0,1.3330993,-11.404547,2.3871201)">
    <path
       d="m 107.66,46.54 c 8.08,-3.02 16.73,-4.01 25.29,-4.54 9.69,0.07 19.45,-0.63 29.06,1.05 17.14,2.69 34.73,7.7 48.12,19.26 -14.74,-1.5 -29.57,0.03 -44.18,2.07 -5.67,0.71 -11.39,-0.49 -16.63,-2.62 -17.51,-6.07 -36.45,-6.1 -54.72,-4.64 0.05,-0.6 0.17,-1.8 0.22,-2.39 0.57,-1.45 1.19,-2.89 1.81,-4.32 3.89,-0.59 7.25,-2.87 11.03,-3.87 z"
       id="path64"
       inkscape:connector-curvature="0"
       style="fill:#b67d41" />
    <path
       d="m 218.73,210.19 c 5.17,-2.01 10.29,-4.22 15.05,-7.1 2.29,3.36 4.59,6.75 6.31,10.45 -0.85,0.82 -1.68,1.67 -2.47,2.54 -0.11,2.58 2.94,1.68 4.6,2.09 -3.32,1.17 -6.39,2.95 -9.31,4.91 -4.31,-4.75 -9.52,-8.52 -14.18,-12.89 z"
       id="path66"
       inkscape:connector-curvature="0"
       style="fill:#b67d41" />
    <path
       d="m 93.15,211.57 c 4.55,1.89 9.23,3.45 13.95,4.86 -4.57,5.73 -8.95,11.61 -12.68,17.93 -1.58,-1.48 -3.46,-2.54 -5.44,-3.38 -1.18,-0.55 -2.33,-1.14 -3.48,-1.73 2.44,-5.94 4.34,-12.14 7.65,-17.68 z"
       id="path68"
       inkscape:connector-curvature="0"
       style="fill:#b67d41" />
  </g>
  <g
     id="#000000ff"
     transform="matrix(1.3330993,0,0,1.3330993,-11.404547,2.3871201)">
    <path
       d="m 94.6,57.12 c 18.27,-1.46 37.21,-1.43 54.72,4.64 5.24,2.13 10.96,3.33 16.63,2.62 14.61,-2.04 29.44,-3.57 44.18,-2.07 9.57,0.73 19.08,2.7 28,6.26 0.93,0.37 1.86,0.75 2.79,1.13 2.29,1.13 4.85,1.26 7.35,1 3.47,-0.09 6.86,-2.02 10.32,-1.32 2.84,2.66 2.88,7.14 2.64,10.78 -1.58,4.22 -7.19,4.01 -9.92,7.1 -2.13,3.07 -3.68,6.49 -5.29,9.84 -0.64,1.21 -1.31,2.4 -1.94,3.62 -3.95,7.25 -7.06,15.59 -13.72,20.83 -4.84,1.14 -9.79,1.86 -14.77,1.91 -3.19,4.31 -6.19,8.78 -8.73,13.5 -4.04,7.76 -8.63,15.31 -11.71,23.51 -0.81,-0.76 -1.63,-1.51 -2.45,-2.24 0.73,-1.35 1.46,-2.69 2.16,-4.05 4.3,-9.46 9.7,-18.34 14.71,-27.42 -4.21,1.04 -8.28,2.55 -12.36,4 -6.42,0.49 -12.62,2.41 -18.93,3.57 -0.52,1.08 -1.05,2.17 -1.56,3.25 0.04,-0.9 0.13,-2.7 0.18,-3.6 -12.48,2.55 -25.25,3.97 -38,3.71 0.22,0.56 0.66,1.69 0.87,2.25 -2.37,-1.74 -5.25,-1.79 -8.04,-1.21 -4.95,-0.51 -9.89,-1.18 -14.87,-1.37 6.39,7.84 9.7,17.47 12.27,27.11 0.65,1.39 1.4,2.71 2.13,4.06 -0.63,1.58 -1.16,3.19 -1.71,4.8 -2.66,-5.75 -3.74,-12.06 -5.92,-17.98 -2.57,-7.8 -6.85,-15.5 -13.95,-20 -1.37,-0.99 -3.07,-1.17 -4.7,-1.23 -0.18,-0.46 -0.53,-1.38 -0.71,-1.84 10.22,2.21 20.65,3.45 31.12,3.38 1.15,0.04 2.3,0.07 3.46,0.08 21.82,-0.25 43.52,-4.17 64.49,-10.07 2.59,-0.75 5.2,-1.4 7.82,-2.05 -9.48,-1.69 -19.42,-2.21 -28.18,-6.55 -4.87,-2.39 -6.63,-8 -8.18,-12.79 -2.59,-8.15 -3.2,-17.08 -7.67,-24.52 -2.22,-4.18 -7.5,-2.71 -11.33,-2.97 -1.42,1.97 -2.62,4.09 -3.4,6.39 -3.07,8.54 -5.92,17.4 -11.46,24.73 -1.91,2.38 -4.08,4.83 -7.07,5.81 -6.28,1.98 -12.84,2.72 -19.35,3.5 -7.72,0.39 -15.78,0.14 -23.01,-2.87 -6.19,-2.66 -10.05,-8.55 -13.13,-14.25 -0.78,-1.45 -1.53,-2.92 -2.2,-4.42 -2.77,-6.65 -4.81,-13.6 -6.34,-20.64 -0.58,-4.37 -7.25,-4.34 -7.58,-8.78 0,-0.65 -0.02,-1.93 -0.02,-2.58 0.26,-2.02 0.56,-4.2 1.96,-5.79 1.49,-0.8 3.24,-0.06 4.81,0.04 8.48,2.37 17.06,-0.4 25.59,-0.81 m 2.31,2.58 C 88.9,59.51 81,62.17 72.95,61.37 c -2.52,-0.41 -5,-1.12 -7.58,-1.15 -0.27,2.13 -0.85,4.38 0.06,6.44 2.39,2.27 6.17,3.52 6.88,7.13 2.33,9.3 4.92,18.71 9.78,27.06 2.83,4.62 6.28,9.44 11.57,11.39 10.03,3.6 21.02,2.66 31.3,0.73 4.24,-0.84 9.1,-1.32 12.09,-4.83 6.67,-7.33 9.34,-17.15 12.85,-26.19 1.2,-2.65 2.07,-5.77 4.56,-7.52 3.69,-0.37 7.45,-0.33 11.14,0.07 2.42,1.05 3.81,3.56 5.01,5.79 3.34,7.19 4.71,15.06 6.72,22.68 1.05,3.77 2.46,7.67 5.33,10.46 2.54,2.16 5.89,2.91 9.01,3.84 10.29,2.59 20.99,4.12 31.6,2.97 2.54,-0.52 5.23,-1.02 7.38,-2.56 1.87,-1.93 3.2,-4.33 4.5,-6.67 5.46,-7.62 8.63,-16.58 13.4,-24.61 2.14,-3.52 6.93,-3.61 9.56,-6.58 1.39,-2.51 0.2,-5.77 -0.83,-8.25 -3.29,0.98 -7.24,0.6 -9.87,3.13 -1.32,-0.17 -2.66,-0.16 -3.97,-0.07 -3.49,-3.5 -8.83,-4.58 -13.5,-5.77 -16.65,-5.55 -34.62,-5.36 -51.85,-3.16 -6.73,0.12 -13.38,2.68 -20.14,1.31 -7.08,-0.51 -13.1,-5.54 -20.29,-5.25 C 124.41,58.3 110.47,59.27 96.91,59.7 z"
       id="path71"
       inkscape:connector-curvature="0"
       style="fill:#000000" />
    <path
       d="m 180.69,74.43 c 12.06,-2.86 24.69,-3.77 36.97,-2.13 4.8,1.58 10.01,1.92 14.47,4.44 l -1.18,0.76 c -9.25,-3.46 -19.16,-4.44 -28.94,-4.67 -7.79,0.83 -16.38,0.24 -23.14,4.9 -0.41,0 -1.24,-0.01 -1.65,-0.01 0.21,-0.22 0.65,-0.65 0.87,-0.87 0.84,-0.82 1.71,-1.63 2.6,-2.42 z"
       id="path73"
       inkscape:connector-curvature="0"
       style="fill:#000000" />
    <path
       d="m 143.56,75.13 0.97,0.59 c 0.28,2.78 0.31,5.66 -0.69,8.31 -2.19,6.22 -4.83,12.41 -9.15,17.48 -0.4,-0.06 -1.2,-0.18 -1.6,-0.24 3.91,-4.41 6.61,-9.77 8.61,-15.28 1.56,-3.4 2.35,-7.12 1.86,-10.86 z"
       id="path75"
       inkscape:connector-curvature="0"
       style="fill:#000000" />
    <path
       d="m 105.24,90.01 c -0.13,-4.17 0.68,-9.43 4.71,-11.59 0.65,0.09 1.95,0.28 2.59,0.37 -0.75,1.08 -1.5,2.16 -2.25,3.24 1.15,0.44 2.31,0.88 3.47,1.32 0,1.86 0.03,3.73 0.02,5.59 -0.41,2.93 -1.8,6.15 -4.68,7.37 -3.06,-0.17 -3.93,-3.81 -3.86,-6.3 z"
       id="path77"
       inkscape:connector-curvature="0"
       style="fill:#000000" />
    <path
       d="m 239.21,82.57 c 0.59,1.23 1.41,2.5 1.19,3.94 -0.38,4.8 -1.27,9.57 -2.85,14.13 -0.9,2.39 -1.58,5.31 -4.29,6.27 3.87,-7.14 5.57,-15.3 5.49,-23.39 l 0.46,-0.95 z"
       id="path79"
       inkscape:connector-curvature="0"
       style="fill:#000000" />
    <path
       d="m 207.9,85.79 c 1.27,-1.23 3.01,-0.47 4.29,0.29 -0.91,0.45 -1.82,0.89 -2.74,1.31 l 2.48,-0.35 -0.34,2.41 c 0.44,-0.79 0.88,-1.59 1.34,-2.37 1.92,4.01 2.45,8.77 1.2,13.04 -0.47,1.98 -2.73,3.57 -4.62,2.28 -2.81,-2.19 -3.28,-6.04 -3.6,-9.34 0.08,-2.5 0.19,-5.34 1.99,-7.27 z"
       id="path81"
       inkscape:connector-curvature="0"
       style="fill:#000000" />
  </g>
  <g
     id="#444545ff"
     transform="matrix(1.3330993,0,0,1.3330993,-11.404547,2.3871201)">
    <path
       d="m 96.91,59.7 c 13.56,-0.43 27.5,-1.4 40.75,2.06 2.49,1.06 5.12,1.8 7.54,3.02 2.35,1.72 2.74,4.77 2.86,7.46 -3.98,-2.14 -7.49,-5.22 -11.95,-6.38 -7.33,-2.12 -15.07,-2.42 -22.66,-2.43 -6.54,0.66 -13.21,-0.16 -19.65,1.38 -0.38,0.06 -1.13,0.18 -1.51,0.25 -6.48,0.29 -12.99,0.6 -19.39,1.72 -2.41,0.35 -4.46,-1.36 -6.57,-2.26 -0.1,-1.08 -0.2,-2.16 -0.31,-3.24 0.65,0.6 1.31,1.2 1.96,1.79 2.43,-0.6 5.02,-1.22 7.39,-0.01 -1.67,-0.13 -3.33,-0.2 -5,-0.21 2.02,1.91 4.91,2.02 7.52,2.2 0.43,-0.2 1.29,-0.59 1.72,-0.79 6.74,-1.32 13.43,-3.01 20.28,-3.7 -0.99,-0.3 -1.99,-0.58 -2.98,-0.86 z"
       id="path84"
       inkscape:connector-curvature="0"
       style="fill:#444545" />
    <path
       d="m 178.09,65.7 c 17.23,-2.2 35.2,-2.39 51.85,3.16 1.64,1.15 3,2.63 4.26,4.18 -12.8,-2.99 -26.03,-6.13 -39.24,-4.09 -5.02,0.77 -10.63,1.58 -14.27,5.48 -0.89,0.79 -1.76,1.6 -2.6,2.42 -1.83,-1.14 -3.88,-2.53 -3.87,-4.94 -0.71,-2.88 1.98,-4.63 3.87,-6.21 z"
       id="path86"
       inkscape:connector-curvature="0"
       style="fill:#444545" />
    <path
       d="m 112.54,78.79 c 1.84,3.02 2.39,6.79 1.24,10.15 0.01,-1.86 -0.02,-3.73 -0.02,-5.59 -1.16,-0.44 -2.32,-0.88 -3.47,-1.32 0.75,-1.08 1.5,-2.16 2.25,-3.24 z"
       id="path88"
       inkscape:connector-curvature="0"
       style="fill:#444545" />
  </g>
  <g
     id="#323232ff"
     transform="matrix(1.3330993,0,0,1.3330993,-11.404547,2.3871201)">
    <path
       d="m 65.37,60.22 c 2.58,0.03 5.06,0.74 7.58,1.15 8.05,0.8 15.95,-1.86 23.96,-1.67 0.99,0.28 1.99,0.56 2.98,0.86 -6.85,0.69 -13.54,2.38 -20.28,3.7 -1.43,-0.36 -2.84,-0.78 -4.24,-1.2 -2.37,-1.21 -4.96,-0.59 -7.39,0.01 -0.65,-0.59 -1.31,-1.19 -1.96,-1.79 0.11,1.08 0.21,2.16 0.31,3.24 2.11,0.9 4.16,2.61 6.57,2.26 6.4,-1.12 12.91,-1.43 19.39,-1.72 -4.71,1.72 -10.94,2.81 -13.06,8 -1.07,7.79 1.72,15.36 4.08,22.65 1.9,5.53 6.08,10.9 12.15,11.96 7.14,1.16 14.46,2.12 21.67,0.91 5.15,-0.8 11.81,0.07 15.32,-4.61 l -1.62,-0.33 c 0.77,-0.78 1.52,-1.57 2.26,-2.37 0.4,0.06 1.2,0.18 1.6,0.24 4.32,-5.07 6.96,-11.26 9.15,-17.48 1,-2.65 0.97,-5.53 0.69,-8.31 l -0.97,-0.59 c -0.86,-0.51 -1.72,-1.01 -2.59,-1.5 0.46,-0.18 1.36,-0.53 1.82,-0.7 -0.91,-0.74 -1.88,-1.38 -2.89,-1.94 -9.8,-4.11 -20.47,-5.15 -30.93,-6.29 -5.05,-0.23 -10.11,0.59 -15.17,0.11 6.44,-1.54 13.11,-0.72 19.65,-1.38 7.59,0.01 15.33,0.31 22.66,2.43 4.46,1.16 7.97,4.24 11.95,6.38 -0.12,-2.69 -0.51,-5.74 -2.86,-7.46 -2.42,-1.22 -5.05,-1.96 -7.54,-3.02 7.19,-0.29 13.21,4.74 20.29,5.25 6.76,1.37 13.41,-1.19 20.14,-1.31 -1.89,1.58 -4.58,3.33 -3.87,6.21 -0.01,2.41 2.04,3.8 3.87,4.94 -0.22,0.22 -0.66,0.65 -0.87,0.87 0.41,0 1.24,0.01 1.65,0.01 -0.43,4.48 0.33,8.97 1.67,13.23 1.86,6.39 4.21,13.14 9.44,17.58 l -1.42,0.41 c 1.08,2 3.37,2.61 5.38,3.22 7.23,2.01 14.69,3.1 22.17,3.6 3.89,0.25 7.87,0.09 11.6,-1.13 2.77,-1.26 4.79,-3.65 7.06,-5.6 0.1,0.5 0.29,1.48 0.38,1.97 -1.3,2.34 -2.63,4.74 -4.5,6.67 -2.15,1.54 -4.84,2.04 -7.38,2.56 -10.61,1.15 -21.31,-0.38 -31.6,-2.97 -3.12,-0.93 -6.47,-1.68 -9.01,-3.84 -2.87,-2.79 -4.28,-6.69 -5.33,-10.46 -2.01,-7.62 -3.38,-15.49 -6.72,-22.68 -1.2,-2.23 -2.59,-4.74 -5.01,-5.79 -3.69,-0.4 -7.45,-0.44 -11.14,-0.07 -2.49,1.75 -3.36,4.87 -4.56,7.52 -3.51,9.04 -6.18,18.86 -12.85,26.19 -2.99,3.51 -7.85,3.99 -12.09,4.83 -10.28,1.93 -21.27,2.87 -31.3,-0.73 -5.29,-1.95 -8.74,-6.77 -11.57,-11.39 C 77.23,92.5 74.64,83.09 72.31,73.79 71.6,70.18 67.82,68.93 65.43,66.66 64.52,64.6 65.1,62.35 65.37,60.22 z"
       id="path91"
       inkscape:connector-curvature="0"
       style="fill:#323232" />
    <path
       d="m 194.96,68.95 c 13.21,-2.04 26.44,1.1 39.24,4.09 -1.26,-1.55 -2.62,-3.03 -4.26,-4.18 4.67,1.19 10.01,2.27 13.5,5.77 -0.58,0.2 -1.74,0.59 -2.31,0.78 l 0,0.95 c 0.02,0.32 0.06,0.96 0.09,1.28 2.44,0.34 4.94,0.43 7.39,0.06 0.17,-0.33 0.5,-0.99 0.66,-1.32 0.12,-0.24 0.36,-0.71 0.47,-0.95 -0.58,-0.18 -1.75,-0.54 -2.33,-0.73 2.63,-2.53 6.58,-2.15 9.87,-3.13 1.03,2.48 2.22,5.74 0.83,8.25 -3.03,0.28 -6.25,0.55 -8.72,2.53 -3.23,1.96 -4.03,5.91 -6.18,8.77 -0.05,-3.26 1.43,-6.65 0.44,-9.83 -6.34,-7.11 -16.7,-10.12 -25.99,-8.99 -12.28,-1.64 -24.91,-0.73 -36.97,2.13 3.64,-3.9 9.25,-4.71 14.27,-5.48 z"
       id="path93"
       inkscape:connector-curvature="0"
       style="fill:#323232" />
  </g>
  <g
     id="#d6e5e4ff"
     transform="matrix(1.3330993,0,0,1.3330993,-11.404547,2.3871201)">
    <path
       d="m 70.37,62.85 c 1.67,0.01 3.33,0.08 5,0.21 1.4,0.42 2.81,0.84 4.24,1.2 -0.43,0.2 -1.29,0.59 -1.72,0.79 -2.61,-0.18 -5.5,-0.29 -7.52,-2.2 z"
       id="path96"
       inkscape:connector-curvature="0"
       style="fill:#d6e5e4" />
    <path
       d="m 178.87,77.73 c 6.76,-4.66 15.35,-4.07 23.14,-4.9 9.78,0.23 19.69,1.21 28.94,4.67 2.99,1.53 5.49,3.83 7.6,6.43 -1.19,2.82 -0.63,5.94 -0.77,8.9 -2.17,-2.69 -2.02,-6.55 -4.45,-9.07 -3.87,-4.45 -9.88,-5.86 -15.43,-6.92 -9.4,-1.62 -19.14,-2.31 -28.55,-0.33 -2.18,0.56 -4.47,1.13 -6.26,2.56 -2.77,3.39 -0.91,8.09 -2.55,11.89 -1.34,-4.26 -2.1,-8.75 -1.67,-13.23 z"
       id="path98"
       inkscape:connector-curvature="0"
       style="fill:#d6e5e4" />
  </g>
  <g
     id="#262626ff"
     transform="matrix(1.3330993,0,0,1.3330993,-11.404547,2.3871201)">
    <path
       d="m 92.29,65.06 c 0.38,-0.07 1.13,-0.19 1.51,-0.25 5.06,0.48 10.12,-0.34 15.17,-0.11 10.46,1.14 21.13,2.18 30.93,6.29 1.01,0.56 1.98,1.2 2.89,1.94 -0.46,0.17 -1.36,0.52 -1.82,0.7 -5.02,-2.62 -10.6,-3.92 -16.14,-4.94 -10.13,-1.75 -20.61,-2.14 -30.73,-0.11 -4.01,0.74 -7.93,2.83 -10.34,6.18 -0.84,7.08 -0.39,14.44 1.96,21.21 1.31,3.67 3.45,7.52 7.28,9.01 4.34,1.55 9.02,1.7 13.59,1.76 8.09,-0.18 16.77,0.57 24.24,-3.1 l 1.62,0.33 c -3.51,4.68 -10.17,3.81 -15.32,4.61 -7.21,1.21 -14.53,0.25 -21.67,-0.91 -6.07,-1.06 -10.25,-6.43 -12.15,-11.96 -2.36,-7.29 -5.15,-14.86 -4.08,-22.65 2.12,-5.19 8.35,-6.28 13.06,-8 z"
       id="path101"
       inkscape:connector-curvature="0"
       style="fill:#262626" />
  </g>
  <g
     id="#dbeae9ff"
     transform="matrix(1.3330993,0,0,1.3330993,-11.404547,2.3871201)">
    <path
       d="m 94.1,68.58 c 10.12,-2.03 20.6,-1.64 30.73,0.11 5.54,1.02 11.12,2.32 16.14,4.94 0.87,0.49 1.73,0.99 2.59,1.5 0.49,3.74 -0.3,7.46 -1.86,10.86 -1.55,-3.59 0.5,-8.98 -3.62,-11.12 -3.08,-1.91 -6.62,-2.95 -10.15,-3.63 -8.92,-1.65 -18.07,-1.73 -27.08,-0.89 -4.87,0.62 -10.14,2.28 -13.05,6.52 -1.59,2.6 -2.29,5.62 -3.54,8.38 -0.45,-3.47 -0.65,-6.98 -0.5,-10.49 2.41,-3.35 6.33,-5.44 10.34,-6.18 z"
       id="path104"
       inkscape:connector-curvature="0"
       style="fill:#dbeae9" />
  </g>
  <g
     id="#272727ff"
     transform="matrix(1.3330993,0,0,1.3330993,-11.404547,2.3871201)">
    <path
       d="m 217.66,72.3 c 9.29,-1.13 19.65,1.88 25.99,8.99 0.99,3.18 -0.49,6.57 -0.44,9.83 2.15,-2.86 2.95,-6.81 6.18,-8.77 2.47,-1.98 5.69,-2.25 8.72,-2.53 -2.63,2.97 -7.42,3.06 -9.56,6.58 -4.77,8.03 -7.94,16.99 -13.4,24.61 -0.09,-0.49 -0.28,-1.47 -0.38,-1.97 -2.27,1.95 -4.29,4.34 -7.06,5.6 -3.73,1.22 -7.71,1.38 -11.6,1.13 -7.48,-0.5 -14.94,-1.59 -22.17,-3.6 -2.01,-0.61 -4.3,-1.22 -5.38,-3.22 l 1.42,-0.41 c 5.56,2.22 11.47,3.59 17.43,4.19 5.79,1.14 11.8,1.5 17.67,0.72 3.53,-0.56 6.07,-3.43 7.86,-6.33 0.08,-0.05 0.24,-0.16 0.32,-0.21 2.71,-0.96 3.39,-3.88 4.29,-6.27 1.58,-4.56 2.47,-9.33 2.85,-14.13 0.22,-1.44 -0.6,-2.71 -1.19,-3.94 l -0.46,0.95 -0.2,0.41 c -2.11,-2.6 -4.61,-4.9 -7.6,-6.43 l 1.18,-0.76 c -4.46,-2.52 -9.67,-2.86 -14.47,-4.44 z"
       id="path107"
       inkscape:connector-curvature="0"
       style="fill:#272727" />
  </g>
  <g
     id="#dceaeaff"
     transform="matrix(1.3330993,0,0,1.3330993,-11.404547,2.3871201)">
    <path
       d="m 241.13,75.41 c 0.57,-0.19 1.73,-0.58 2.31,-0.78 1.31,-0.09 2.65,-0.1 3.97,0.07 0.58,0.19 1.75,0.55 2.33,0.73 -0.11,0.24 -0.35,0.71 -0.47,0.95 -2.71,0.16 -5.43,0.1 -8.14,-0.02 l 0,-0.95 z"
       id="path110"
       inkscape:connector-curvature="0"
       style="fill:#dceaea" />
    <path
       d="m 85.72,95.97 c 3.54,2.2 6.4,5.54 10.46,6.86 3.45,1.36 7.59,1.2 10.41,3.91 -4.57,-0.06 -9.25,-0.21 -13.59,-1.76 -3.83,-1.49 -5.97,-5.34 -7.28,-9.01 z"
       id="path112"
       inkscape:connector-curvature="0"
       style="fill:#dceaea" />
  </g>
  <g
     id="#1a1a1aff"
     transform="matrix(1.3330993,0,0,1.3330993,-11.404547,2.3871201)">
    <path
       d="m 241.13,76.36 c 2.71,0.12 5.43,0.18 8.14,0.02 -0.16,0.33 -0.49,0.99 -0.66,1.32 -2.45,0.37 -4.95,0.28 -7.39,-0.06 -0.03,-0.32 -0.07,-0.96 -0.09,-1.28 z"
       id="path115"
       inkscape:connector-curvature="0"
       style="fill:#1a1a1a" />
    <path
       d="m 178.28,134.33 c 6.31,-1.16 12.51,-3.08 18.93,-3.57 -5.11,3.69 -11.57,5.73 -15.37,11.04 -1.48,1.82 -1.61,4.62 -0.12,6.48 3.03,4.12 8.34,5.31 13.14,5.9 -0.7,1.36 -1.43,2.7 -2.16,4.05 -4.46,-3.75 -10.02,-5.78 -15.52,-7.49 0.11,-4.39 0.28,-8.82 -0.46,-13.16 0.51,-1.08 1.04,-2.17 1.56,-3.25 z"
       id="path117"
       inkscape:connector-curvature="0"
       style="fill:#1a1a1a" />
  </g>
  <g
     id="#ab662aff"
     transform="matrix(1.3330993,0,0,1.3330993,-11.404547,2.3871201)">
    <path
       d="m 152.4,83.18 c 0.78,-2.3 1.98,-4.42 3.4,-6.39 3.83,0.26 9.11,-1.21 11.33,2.97 4.47,7.44 5.08,16.37 7.67,24.52 1.55,4.79 3.31,10.4 8.18,12.79 8.76,4.34 18.7,4.86 28.18,6.55 -2.62,0.65 -5.23,1.3 -7.82,2.05 -1.61,-0.53 -3.21,-1.12 -4.89,-1.41 -6.59,-1.08 -13.12,-2.48 -19.62,-4.04 -2.5,-0.3 -3.39,-2.85 -4.23,-4.85 -3.84,-10.17 -4.77,-21.36 -9.98,-31.02 -1.12,-2.24 -3.63,-4.23 -6.21,-2.97 -3.9,2.17 -5.62,6.66 -7.51,10.46 -2.34,6.97 -3.82,14.3 -7.21,20.89 -1.19,2.39 -3.32,4.22 -5.81,5.15 -6.08,2.57 -12.82,1.79 -19.19,2.93 -0.42,-0.21 -1.25,-0.63 -1.66,-0.83 -0.87,-0.9 -1.69,-1.83 -2.51,-2.76 6.51,-0.78 13.07,-1.52 19.35,-3.5 2.99,-0.98 5.16,-3.43 7.07,-5.81 5.54,-7.33 8.39,-16.19 11.46,-24.73 z"
       id="path120"
       inkscape:connector-curvature="0"
       style="fill:#ab662a" />
  </g>
  <g
     id="#b57c40ff"
     transform="matrix(1.3330993,0,0,1.3330993,-11.404547,2.3871201)">
    <path
       d="m 158.41,81.38 c 2.58,-1.26 5.09,0.73 6.21,2.97 5.21,9.66 6.14,20.85 9.98,31.02 0.84,2 1.73,4.55 4.23,4.85 6.5,1.56 13.03,2.96 19.62,4.04 -14.79,4.43 -30.12,6.59 -45.41,8.44 -4.81,0.53 -9.72,-0.25 -14.44,1.02 -7.37,-3 -14.11,-7.47 -19.91,-12.91 6.37,-1.14 13.11,-0.36 19.19,-2.93 2.49,-0.93 4.62,-2.76 5.81,-5.15 3.39,-6.59 4.87,-13.92 7.21,-20.89 1.89,-3.8 3.61,-8.29 7.51,-10.46 m -7.56,23.56 c -0.46,2.27 -0.66,4.58 -0.61,6.9 2.33,-0.62 4.6,-2.01 7.07,-1.21 0.07,1.35 0.15,2.71 0.23,4.07 0.46,0.01 1.38,0.03 1.85,0.04 0.54,-2.39 1.59,-4.88 4.54,-4.3 0.83,0.82 1.66,1.65 2.51,2.45 1.05,-2.64 0.23,-5.35 -0.38,-7.98 -4.88,-1.55 -10.42,-2.1 -15.21,0.03 z"
       id="path123"
       inkscape:connector-curvature="0"
       style="fill:#b57c40" />
  </g>
  <g
     id="#e0cba4ff"
     transform="matrix(1.3330993,0,0,1.3330993,-11.404547,2.3871201)">
    <path
       d="m 76.18,95.68 c 0.67,1.5 1.42,2.97 2.2,4.42 l -1.67,0.88 c -2.29,1.4 -3,4.2 -4.4,6.33 -7.83,13.18 -17.09,25.95 -20.91,41.02 -2.88,11.58 -1.17,24.44 5.83,34.26 6.65,10.54 17.52,17.35 28.43,22.81 18.7,8.97 39.42,14.68 60.28,13.93 -0.07,0.68 -0.21,2.03 -0.27,2.71 -10.41,-0.11 -20.85,-1.03 -30.92,-3.76 -1.7,-0.18 -3.91,-1.49 -5.29,0.09 -3.31,3.35 -5.95,7.3 -8.6,11.17 -1.61,2.31 -2.6,5.09 -4.73,7.01 -0.58,-0.73 -1.15,-1.46 -1.71,-2.19 3.73,-6.32 8.11,-12.2 12.68,-17.93 -4.72,-1.41 -9.4,-2.97 -13.95,-4.86 -2.55,-1.06 -5.04,-2.22 -7.53,-3.39 -7.62,-3.61 -15,-7.87 -21.46,-13.33 -10.82,-9.68 -18.12,-24.12 -16.58,-38.88 1.69,-17.4 11.82,-32.2 20.8,-46.63 2.91,-4.38 4.92,-9.26 7.8,-13.66 z"
       id="path126"
       inkscape:connector-curvature="0"
       style="fill:#e0cba4" />
  </g>
  <g
     id="#784614ff"
     transform="matrix(1.3330993,0,0,1.3330993,-11.404547,2.3871201)">
    <path
       d="m 244.08,100.72 c 0.63,-1.22 1.3,-2.41 1.94,-3.62 1.27,3.26 2.58,6.51 4.32,9.55 8.2,15.99 13.12,34.37 10.26,52.37 -1.17,9.25 -4.83,17.96 -9.4,26.02 -0.44,0.12 -1.32,0.36 -1.77,0.48 -1.1,-0.8 -1.36,-1.98 -1.19,-3.23 1.59,-0.72 2.93,-1.89 3.64,-3.5 6.44,-12.23 9.02,-26.57 6.78,-40.24 -1.95,-13.51 -7.37,-26.33 -14.58,-37.83 z"
       id="path129"
       inkscape:connector-curvature="0"
       style="fill:#784614" />
  </g>
  <g
     id="#edc490ff"
     transform="matrix(1.3330993,0,0,1.3330993,-11.404547,2.3871201)">
    <path
       d="m 76.71,100.98 1.67,-0.88 c 3.08,5.7 6.94,11.59 13.13,14.25 7.23,3.01 15.29,3.26 23.01,2.87 0.82,0.93 1.64,1.86 2.51,2.76 -0.54,0 -1.61,0 -2.14,0 -10.34,-0.21 -21.04,-0.12 -30.77,-4.12 -4.47,-3.59 -7.85,-8.95 -7.41,-14.88 z"
       id="path132"
       inkscape:connector-curvature="0"
       style="fill:#edc490" />
  </g>
  <g
     id="#f6a08bff"
     transform="matrix(1.3330993,0,0,1.3330993,-11.404547,2.3871201)">
    <path
       d="m 150.85,104.94 c 4.79,-2.13 10.33,-1.58 15.21,-0.03 0.61,2.63 1.43,5.34 0.38,7.98 -0.85,-0.8 -1.68,-1.63 -2.51,-2.45 -2.95,-0.58 -4,1.91 -4.54,4.3 -0.47,-0.01 -1.39,-0.03 -1.85,-0.04 -0.08,-1.36 -0.16,-2.72 -0.23,-4.07 -2.47,-0.8 -4.74,0.59 -7.07,1.21 -0.05,-2.32 0.15,-4.63 0.61,-6.9 z"
       id="path135"
       inkscape:connector-curvature="0"
       style="fill:#f6a08b" />
  </g>
  <g
     id="#d7e5e4ff"
     transform="matrix(1.3330993,0,0,1.3330993,-11.404547,2.3871201)">
    <path
       d="m 221.91,111.08 c 3.87,-0.76 7.16,-3.15 11.03,-3.96 -1.79,2.9 -4.33,5.77 -7.86,6.33 -5.87,0.78 -11.88,0.42 -17.67,-0.72 4.72,-1.4 9.74,-0.43 14.5,-1.65 z"
       id="path138"
       inkscape:connector-curvature="0"
       style="fill:#d7e5e4" />
  </g>
  <g
     id="#fae8d0ff"
     transform="matrix(1.3330993,0,0,1.3330993,-11.404547,2.3871201)">
    <path
       d="m 84.12,115.86 c 9.73,4 20.43,3.91 30.77,4.12 4.06,3.34 7.73,7.2 12.34,9.82 2.92,1.66 5.76,3.48 8.16,5.86 -10.47,0.07 -20.9,-1.17 -31.12,-3.38 0.18,0.46 0.53,1.38 0.71,1.84 -0.68,0.01 -2.05,0.03 -2.73,0.04 -1.92,-1.51 -3.91,-2.95 -5.96,-4.28 -5.16,-3.51 -9.81,-8.14 -12.17,-14.02 z"
       id="path141"
       inkscape:connector-curvature="0"
       style="fill:#fae8d0" />
  </g>
  <g
     id="#daad85ff"
     transform="matrix(1.3330993,0,0,1.3330993,-11.404547,2.3871201)">
    <path
       d="m 114.89,119.98 c 0.53,0 1.6,0 2.14,0 0.41,0.2 1.24,0.62 1.66,0.83 5.8,5.44 12.54,9.91 19.91,12.91 0.59,0.23 1.77,0.68 2.35,0.91 -0.52,0.28 -1.58,0.83 -2.1,1.11 -1.16,-0.01 -2.31,-0.04 -3.46,-0.08 -2.4,-2.38 -5.24,-4.2 -8.16,-5.86 -4.61,-2.62 -8.28,-6.48 -12.34,-9.82 z"
       id="path144"
       inkscape:connector-curvature="0"
       style="fill:#daad85" />
  </g>
  <g
     id="#b26829ff"
     transform="matrix(1.3330993,0,0,1.3330993,-11.404547,2.3871201)">
    <path
       d="m 215.59,123.46 c 4.98,-0.05 9.93,-0.77 14.77,-1.91 -3.15,4.99 -9.73,3.61 -14.57,5.29 -1.99,1.98 -3.22,4.56 -4.73,6.9 -1.6,0.79 -3.03,1.88 -4.2,3.22 2.54,-4.72 5.54,-9.19 8.73,-13.5 z"
       id="path147"
       inkscape:connector-curvature="0"
       style="fill:#b26829" />
  </g>
  <g
     id="#a66a30ff"
     transform="matrix(1.3330993,0,0,1.3330993,-11.404547,2.3871201)">
    <path
       d="m 198.45,124.26 c 1.68,0.29 3.28,0.88 4.89,1.41 -20.97,5.9 -42.67,9.82 -64.49,10.07 0.52,-0.28 1.58,-0.83 2.1,-1.11 -0.58,-0.23 -1.76,-0.68 -2.35,-0.91 4.72,-1.27 9.63,-0.49 14.44,-1.02 15.29,-1.85 30.62,-4.01 45.41,-8.44 z"
       id="path150"
       inkscape:connector-curvature="0"
       style="fill:#a66a30" />
  </g>
  <g
     id="#333333ff"
     transform="matrix(1.3330993,0,0,1.3330993,-11.404547,2.3871201)">
    <path
       d="m 197.21,130.76 c 4.08,-1.45 8.15,-2.96 12.36,-4 -5.01,9.08 -10.41,17.96 -14.71,27.42 -4.8,-0.59 -10.11,-1.78 -13.14,-5.9 -1.49,-1.86 -1.36,-4.66 0.12,-6.48 3.8,-5.31 10.26,-7.35 15.37,-11.04 z"
       id="path153"
       inkscape:connector-curvature="0"
       style="fill:#333333" />
    <path
       d="m 116.86,137.36 c 4.98,0.19 9.92,0.86 14.87,1.37 3.65,2.38 7.61,5.13 8.77,9.6 1.1,3.86 -1.47,7.43 -3.79,10.25 -2.11,2.43 -4.31,5.09 -7.58,5.89 -2.57,-9.64 -5.88,-19.27 -12.27,-27.11 z"
       id="path155"
       inkscape:connector-curvature="0"
       style="fill:#333333" />
  </g>
  <g
     id="#fdf2e2ff"
     transform="matrix(1.3330993,0,0,1.3330993,-11.404547,2.3871201)">
    <path
       d="m 96.29,129.88 c 2.05,1.33 4.04,2.77 5.96,4.28 0.68,-0.01 2.05,-0.03 2.73,-0.04 1.63,0.06 3.33,0.24 4.7,1.23 7.1,4.5 11.38,12.2 13.95,20 -3.8,3.26 -4.88,8.77 -4.43,13.54 1.68,6.35 8.93,9.92 15.18,9.06 10.64,2.85 21.79,1.82 32.65,1.22 -2.36,2.24 -5.01,4.19 -7.14,6.68 -3,3.69 -4.72,8.19 -6.99,12.33 -24.36,-3.13 -45.4,-20.73 -55.18,-42.9 -3.45,-7.88 -5.94,-17.41 -1.43,-25.4 z"
       id="path158"
       inkscape:connector-curvature="0"
       style="fill:#fdf2e2" />
    <path
       d="m 215.77,133.5 c 7.51,-1.22 15.41,-0.26 22.3,3.01 -0.36,0.18 -1.09,0.53 -1.46,0.7 1.51,10.48 -3.39,20.67 -9.57,28.82 -7.75,9.32 -17.37,17.36 -28.6,22.12 -1.59,-4.23 -4.26,-7.85 -7.49,-10.97 3.97,-2.26 7.97,-4.78 10.61,-8.62 7.49,-10.46 12.81,-22.3 17.22,-34.34 -0.75,-0.18 -2.26,-0.54 -3.01,-0.72 z"
       id="path160"
       inkscape:connector-curvature="0"
       style="fill:#fdf2e2" />
  </g>
  <g
     id="#f9e6ccff"
     transform="matrix(1.3330993,0,0,1.3330993,-11.404547,2.3871201)">
    <path
       d="m 211.06,133.74 c 1.56,-0.12 3.14,-0.18 4.71,-0.24 0.75,0.18 2.26,0.54 3.01,0.72 -4.41,12.04 -9.73,23.88 -17.22,34.34 -2.64,3.84 -6.64,6.36 -10.61,8.62 -1.67,-0.65 -3.34,-1.28 -5,-1.92 1.58,-0.07 3.74,0.13 4.31,-1.79 1.74,-4.28 3.54,-8.57 4.89,-13 3.08,-8.2 7.67,-15.75 11.71,-23.51 1.17,-1.34 2.6,-2.43 4.2,-3.22 z"
       id="path163"
       inkscape:connector-curvature="0"
       style="fill:#f9e6cc" />
    <path
       d="m 123.63,155.35 c 2.18,5.92 3.26,12.23 5.92,17.98 0.37,0.59 1.11,1.76 1.48,2.34 0.51,0.41 1.03,0.79 1.58,1.15 0.44,0.28 1.33,0.85 1.77,1.13 -6.25,0.86 -13.5,-2.71 -15.18,-9.06 -0.45,-4.77 0.63,-10.28 4.43,-13.54 z"
       id="path165"
       inkscape:connector-curvature="0"
       style="fill:#f9e6cc" />
  </g>
  <g
     id="#e7d3a7ff"
     transform="matrix(1.3330993,0,0,1.3330993,-11.404547,2.3871201)">
    <path
       d="m 140.17,138.54 c 11.99,-0.11 24,-1.17 35.77,-3.53 0.19,0.64 0.58,1.93 0.78,2.57 0.74,4.34 0.57,8.77 0.46,13.16 -0.12,2.82 -1.16,5.49 -4.08,6.31 1.22,-1.49 2.85,-2.96 2.91,-5.03 0.46,-4.56 0.03,-9.14 -0.15,-13.7 -8.83,0.08 -17.71,0.86 -26.25,3.22 -2.74,0.81 -5.78,1.72 -7.23,4.43 -0.68,-2.49 -1.41,-4.97 -2.21,-7.43 z"
       id="path168"
       inkscape:connector-curvature="0"
       style="fill:#e7d3a7" />
  </g>
  <g
     id="#1d1c1bff"
     transform="matrix(1.3330993,0,0,1.3330993,-11.404547,2.3871201)">
    <path
       d="m 131.73,138.73 c 2.79,-0.58 5.67,-0.53 8.04,1.21 1.96,4.41 2.01,9.58 4.77,13.6 -5.05,4.39 -10.3,8.84 -13.28,14.99 -0.73,-1.35 -1.48,-2.67 -2.13,-4.06 3.27,-0.8 5.47,-3.46 7.58,-5.89 2.32,-2.82 4.89,-6.39 3.79,-10.25 -1.16,-4.47 -5.12,-7.22 -8.77,-9.6 z"
       id="path171"
       inkscape:connector-curvature="0"
       style="fill:#1d1c1b" />
  </g>
  <g
     id="#fff7e2ff"
     transform="matrix(1.3330993,0,0,1.3330993,-11.404547,2.3871201)">
    <path
       d="m 149.61,141.54 c 8.54,-2.36 17.42,-3.14 26.25,-3.22 0.18,4.56 0.61,9.14 0.15,13.7 -0.06,2.07 -1.69,3.54 -2.91,5.03 -0.34,0.19 -1.02,0.57 -1.36,0.76 -2.11,1.19 -4.26,2.31 -6.48,3.26 -3.34,-5.79 -3.78,-12.73 -6.9,-18.59 -0.36,-0.27 -1.08,-0.8 -1.44,-1.06 1.32,5.86 3.6,11.53 4.23,17.55 -0.03,1.24 -0.4,3.45 -2.16,3.08 -4.49,-0.65 -9.75,-0.9 -13.1,-4.33 -0.21,-0.83 -0.43,-1.65 -0.66,-2.47 -0.17,-0.43 -0.52,-1.28 -0.69,-1.71 -0.76,-2.51 -1.42,-5.05 -2.16,-7.57 1.45,-2.71 4.49,-3.62 7.23,-4.43 z"
       id="path174"
       inkscape:connector-curvature="0"
       style="fill:#fff7e2" />
  </g>
  <g
     id="#fed490ff"
     transform="matrix(1.3330993,0,0,1.3330993,-11.404547,2.3871201)">
    <path
       d="m 156.92,141.42 c 0.36,0.26 1.08,0.79 1.44,1.06 3.12,5.86 3.56,12.8 6.9,18.59 2.22,-0.95 4.37,-2.07 6.48,-3.26 l 0.44,1.34 c -2.78,1.79 -5.84,3.49 -9.24,2.41 -1.66,1.18 -3.5,2.21 -5.61,1.93 -3.48,-1.2 -7.18,-1.74 -10.55,-3.23 -0.22,-0.63 -0.67,-1.91 -0.89,-2.54 3.35,3.43 8.61,3.68 13.1,4.33 1.76,0.37 2.13,-1.84 2.16,-3.08 -0.63,-6.02 -2.91,-11.69 -4.23,-17.55 z"
       id="path177"
       inkscape:connector-curvature="0"
       style="fill:#fed490" />
  </g>
  <g
     id="#f8ab90ff"
     transform="matrix(1.3330993,0,0,1.3330993,-11.404547,2.3871201)">
    <path
       d="m 177.18,150.74 c 5.5,1.71 11.06,3.74 15.52,7.49 0.82,0.73 1.64,1.48 2.45,2.24 -1.35,4.43 -3.15,8.72 -4.89,13 -0.57,1.92 -2.73,1.72 -4.31,1.79 l -1.41,-0.33 c 5.31,-1.91 5.97,-8.03 7.5,-12.72 -6.06,-3.32 -13.1,-3.93 -19.86,-3.06 l -0.44,-1.34 c 0.34,-0.19 1.02,-0.57 1.36,-0.76 2.92,-0.82 3.96,-3.49 4.08,-6.31 z"
       id="path180"
       inkscape:connector-curvature="0"
       style="fill:#f8ab90" />
  </g>
  <g
     id="#e5866bff"
     transform="matrix(1.3330993,0,0,1.3330993,-11.404547,2.3871201)">
    <path
       d="m 144.54,153.54 c 0.17,0.43 0.52,1.28 0.69,1.71 -3.06,3.29 -6.87,5.86 -9.37,9.66 -2.5,3.12 -3.82,6.94 -4.83,10.76 -0.37,-0.58 -1.11,-1.75 -1.48,-2.34 0.55,-1.61 1.08,-3.22 1.71,-4.8 2.98,-6.15 8.23,-10.6 13.28,-14.99 z"
       id="path183"
       inkscape:connector-curvature="0"
       style="fill:#e5866b" />
  </g>
  <g
     id="#f9ad92ff"
     transform="matrix(1.3330993,0,0,1.3330993,-11.404547,2.3871201)">
    <path
       d="m 145.23,155.25 c 0.23,0.82 0.45,1.64 0.66,2.47 0.22,0.63 0.67,1.91 0.89,2.54 3.37,1.49 7.07,2.03 10.55,3.23 -8.32,3.01 -16.1,7.3 -24.12,10.98 0.23,0.33 0.68,1 0.91,1.34 -0.37,0.25 -1.13,0.76 -1.51,1.01 -0.55,-0.36 -1.07,-0.74 -1.58,-1.15 1.01,-3.82 2.33,-7.64 4.83,-10.76 2.5,-3.8 6.31,-6.37 9.37,-9.66 z"
       id="path186"
       inkscape:connector-curvature="0"
       style="fill:#f9ad92" />
  </g>
  <g
     id="#e14a30ff"
     transform="matrix(1.3330993,0,0,1.3330993,-11.404547,2.3871201)">
    <path
       d="m 178.07,183.33 c 3.7,-1.42 8.2,-0.02 10.29,3.37 4.74,7.6 4.93,17.24 2.76,25.72 -2.96,11.45 -8.98,21.93 -16.21,31.21 2.96,-1.87 6.55,-3.77 10.09,-2.18 7.2,3 11.85,10.81 11.49,18.56 0.27,7.38 -2.86,14.19 -5.55,20.86 5.19,-2.58 10.8,-4.94 15.08,-8.88 1.1,-11.56 6.38,-23.15 15.84,-30.21 4.14,-3.48 9.81,-4.68 15.11,-4.24 4.18,0.3 7.9,3.25 9.31,7.17 2.73,7.31 1.44,15.97 -3.4,22.12 -5.16,6.5 -12.67,10.88 -20.56,13.22 2.25,4.62 8.13,5.3 12.64,4.3 7.36,-1.77 13.8,-6.08 19.73,-10.63 1.12,-10.43 3.88,-20.6 6.78,-30.65 0.82,-4.36 6.46,-5.04 9.84,-3.34 0.84,6.07 0.17,12.18 0.16,18.27 3.42,-6.31 6.22,-13.92 12.84,-17.71 2.04,-1.14 5.87,-2.1 6.88,0.83 3.09,7.94 -1.3,16.52 1.42,24.52 0.56,1.93 2.29,3.69 4.4,3.68 5.2,0.01 9.71,-2.89 14,-5.48 3.25,-1.28 5.33,2.39 4.68,5.17 0.26,5.21 -5.18,7.54 -9,9.66 -5.76,2.85 -13.2,5.52 -19.14,1.68 -5.6,-4.3 -7.03,-11.92 -7.41,-18.57 -1.31,0.63 -1.5,2.19 -2.04,3.39 -3.25,8.63 -6.39,17.31 -9.69,25.93 -1.54,3.35 -3.4,7.43 -7.39,8.3 -4.56,-0.62 -7.3,-5.17 -7.61,-9.44 -8.41,8 -21.19,11.18 -32.32,7.78 -5.89,-1.83 -10.66,-6.32 -13.48,-11.73 -10.99,6.12 -23.21,9.58 -35.45,12.17 -8.29,1.85 -17.06,-0.59 -23.87,-5.47 -5.25,3.19 -10.77,7.15 -17.23,6.72 -4.07,-0.1 -7.07,-3.76 -7.6,-7.57 -1.73,-8.59 -0.95,-17.45 -0.26,-26.11 -1.27,0.64 -1.73,2.03 -2.31,3.21 -2.99,6.53 -5.85,13.16 -7.77,20.09 -1.05,3.26 -2.24,6.82 -5.15,8.89 -4.39,1.48 -10.6,-0.91 -11.27,-5.98 -0.57,-9.42 1.19,-18.81 2.98,-28.02 -1.83,0.72 -2.3,2.87 -3.25,4.41 -4.9,9 -7.57,19.18 -13.55,27.6 -1.99,3.29 -6.51,3.66 -9.66,1.94 -2.47,-1.42 -3.11,-4.39 -3.82,-6.91 -7.96,5.54 -17.64,8.92 -27.4,8.39 -8.94,-0.61 -15.34,-8.65 -17.9,-16.64 -4.62,-1.17 -9.33,-2.23 -13.7,-4.16 -3.71,-2.39 -1.02,-7.46 1.07,-10.07 1.6,-1.82 3.71,-0.13 5.27,0.77 2.47,1.72 5.62,1.4 8.45,1.09 0.28,-9.58 4.12,-19.39 11.16,-26.01 7.18,-6.99 20.69,-6.98 26.71,1.51 3.74,6 2.51,14.13 -1.74,19.57 -5.35,6.98 -13.3,11.45 -21.4,14.53 0.05,4.56 5.32,6 9.05,5.38 7.69,-1.18 14.62,-5.29 20.95,-9.6 2.2,-11.2 4.03,-22.72 7.46,-33.7 1.18,-2.97 4.9,-3.29 7.65,-3.26 2.74,-0.13 4.93,2.56 4.55,5.24 -0.17,7.39 -1.89,14.64 -3.29,21.87 2.07,-1.22 2.34,-4.01 3.69,-5.86 3.17,-5.15 5.68,-10.79 9.72,-15.33 2.94,-3.09 7.04,-5.62 11.47,-5 2.26,0.69 2.65,3.3 2.89,5.31 0.2,7.2 -2.28,14.06 -3.93,20.96 1.91,-1.82 2.66,-4.44 4.12,-6.59 3.26,-5.12 6.5,-10.24 9.87,-15.29 2.38,-3.24 6.76,-6.22 10.84,-4.2 2.98,0.96 3.56,4.41 3.41,7.14 -0.61,9.73 -3,19.25 -3.84,28.95 0.12,2.94 -0.61,7.34 2.57,8.89 3.57,-0.11 6.62,-2.33 9.22,-4.57 1.45,-1.3 0.94,-3.49 1.32,-5.2 1.95,-15 3.77,-30.01 5.4,-45.05 1.27,-12.75 5.34,-25.2 11.68,-36.32 2.74,-5.16 8,-8.48 13.35,-10.4 m -1.87,13.88 c -4.21,5.9 -6.91,12.81 -8.68,19.81 -2.42,8.88 -4.88,17.78 -6.17,26.91 6.59,-10.36 12.38,-21.31 16.77,-32.79 1.5,-4.69 3.83,-10.09 1.53,-14.88 -0.85,-1.93 -2.74,-0.08 -3.45,0.95 m 52.29,53.36 c -5.11,4.88 -7.79,12.25 -7.92,19.25 7.79,0.17 15.74,-6.84 15.06,-14.88 -0.16,-3.33 -4,-7.33 -7.14,-4.37 m -184.03,2.91 c -4.23,4.32 -5.76,10.53 -6.08,16.4 5.4,-0.31 10.53,-3.55 13.67,-7.88 2.35,-3.26 3.1,-9.17 -1.01,-11.36 -2.55,-0.57 -4.85,1.2 -6.58,2.84 m 118.22,11.02 c -2.07,7.06 -4.09,14.44 -3.16,21.86 4.07,1.16 8.63,1.83 12.56,-0.18 5.25,-2.51 7.98,-8.14 9.32,-13.53 1.48,-5.32 1.6,-11.59 -1.85,-16.19 -1.95,-2.61 -5.67,-2.45 -8.55,-2.04 -4.5,1.33 -7.07,5.84 -8.32,10.08 z"
       id="path189"
       inkscape:connector-curvature="0"
       style="fill:#e14a30" />
  </g>
  <g
     id="#fbd1c0ff"
     transform="matrix(1.3330993,0,0,1.3330993,-11.404547,2.3871201)">
    <path
       d="m 268.72,184.8 c 0.75,-1.92 4.14,-2.46 4.67,-0.14 1.07,3.91 -1.91,10.36 3.62,11.69 4.33,-0.32 6.27,-5.01 10,-6.56 1.68,-0.29 2.72,1.4 2.59,2.87 -1.3,4.45 -6.44,6.84 -6.97,11.56 1.73,4.46 7.01,-0.05 10.37,0.96 1.7,2.48 -0.63,4.92 -2.78,6.03 -4.96,2.58 -10.75,3.7 -16.29,2.9 -5.49,-0.96 -10.32,-4.01 -14.65,-7.37 -3.05,-2.43 -5.83,-5.9 -5.59,-10.03 3.88,0.22 7.72,1.81 11.61,0.74 1.67,-4.07 1.67,-8.62 3.42,-12.65 z"
       id="path192"
       inkscape:connector-curvature="0"
       style="fill:#fbd1c0" />
  </g>
  <g
     id="#e2cda9ff"
     transform="matrix(1.3330993,0,0,1.3330993,-11.404547,2.3871201)">
    <path
       d="m 249.43,185.52 c 0.45,-0.12 1.33,-0.36 1.77,-0.48 -2.08,5.94 -7.22,10.17 -11.85,14.17 -1.8,1.37 -3.65,2.67 -5.57,3.88 -4.76,2.88 -9.88,5.09 -15.05,7.1 4.66,4.37 9.87,8.14 14.18,12.89 1.77,1.92 3.42,3.94 5.11,5.93 -1.32,0.25 -2.56,0.14 -3.74,-0.32 -1.49,-1.63 -2.88,-3.35 -4.46,-4.9 -4.72,-4.33 -9.27,-8.96 -14.78,-12.32 -5.3,1.54 -10.61,3.1 -16.08,3.94 0.19,-1.11 0.52,-2.17 1.01,-3.16 11.27,-2.57 22.54,-5.86 32.66,-11.58 6.57,-3.78 12.86,-8.55 16.8,-15.15 z"
       id="path195"
       inkscape:connector-curvature="0"
       style="fill:#e2cda9" />
  </g>
  <g
     id="#fffefeff"
     transform="matrix(1.3330993,0,0,1.3330993,-11.404547,2.3871201)">
    <path
       d="m 176.2,197.21 c 0.71,-1.03 2.6,-2.88 3.45,-0.95 2.3,4.79 -0.03,10.19 -1.53,14.88 -4.39,11.48 -10.18,22.43 -16.77,32.79 1.29,-9.13 3.75,-18.03 6.17,-26.91 1.77,-7 4.47,-13.91 8.68,-19.81 z"
       id="path198"
       inkscape:connector-curvature="0"
       style="fill:#fffefe" />
  </g>
  <g
     id="#865629ff"
     transform="matrix(1.3330993,0,0,1.3330993,-11.404547,2.3871201)">
    <path
       d="m 233.78,203.09 c 1.92,-1.21 3.77,-2.51 5.57,-3.88 3.17,4.56 5.69,9.51 8.45,14.32 3.53,-1.4 6.83,-3.46 9.04,-6.63 0.85,0.81 1.73,1.57 2.64,2.32 -3.82,5.88 -10.83,7.62 -17.26,8.95 -1.66,-0.41 -4.71,0.49 -4.6,-2.09 0.79,-0.87 1.62,-1.72 2.47,-2.54 -1.72,-3.7 -4.02,-7.09 -6.31,-10.45 z"
       id="path201"
       inkscape:connector-curvature="0"
       style="fill:#865629" />
  </g>
  <g
     id="#87592cff"
     transform="matrix(1.3330993,0,0,1.3330993,-11.404547,2.3871201)">
    <path
       d="m 85.62,208.18 c 2.49,1.17 4.98,2.33 7.53,3.39 -3.31,5.54 -5.21,11.74 -7.65,17.68 1.15,0.59 2.3,1.18 3.48,1.73 -4.82,-1.03 -9.81,-0.18 -14.35,1.56 3.05,-8.38 6.45,-16.66 10.99,-24.36 z"
       id="path204"
       inkscape:connector-curvature="0"
       style="fill:#87592c" />
  </g>
  <g
     id="#fbebd6ff"
     transform="matrix(1.3330993,0,0,1.3330993,-11.404547,2.3871201)">
    <path
       d="m 198.96,215.41 c 5.47,-0.84 10.78,-2.4 16.08,-3.94 5.51,3.36 10.06,7.99 14.78,12.32 -8.95,2.33 -17.72,5.41 -26.84,7.06 -3.67,0.65 -7.36,1.28 -10.94,2.34 2.48,-5.86 5.3,-11.6 6.92,-17.78 z"
       id="path207"
       inkscape:connector-curvature="0"
       style="fill:#fbebd6" />
    <path
       d="m 109.46,218.37 c 1.38,-1.58 3.59,-0.27 5.29,-0.09 10.07,2.73 20.51,3.65 30.92,3.76 -0.71,4.63 -1.11,9.29 -1.81,13.92 -3.81,-3.27 -8.76,-5.84 -13.93,-4.87 -3.06,0.27 -5.54,2.22 -8.25,3.44 -3.86,0.28 -6.77,-3.26 -10.6,-3.15 -3.51,0.07 -6.97,-0.51 -10.22,-1.84 2.65,-3.87 5.29,-7.82 8.6,-11.17 z"
       id="path209"
       inkscape:connector-curvature="0"
       style="fill:#fbebd6" />
  </g>
  <g
     id="#85552aff"
     transform="matrix(1.3330993,0,0,1.3330993,-11.404547,2.3871201)">
    <path
       d="m 270.13,215.85 c 0.8,-0.03 2.41,-0.1 3.21,-0.14 -0.03,0.55 -0.08,1.64 -0.11,2.19 -1.26,4.43 -3.27,8.59 -5.24,12.74 -1.33,-0.17 -2.66,-0.33 -3.99,-0.49 2.5,-4.56 4.56,-9.35 6.13,-14.3 z"
       id="path212"
       inkscape:connector-curvature="0"
       style="fill:#85552a" />
  </g>
</svg>
