<?xml version="1.0" encoding="utf-8"?>
<!-- Generator: Adobe Illustrator 16.0.0, SVG Export Plug-In . SVG Version: 6.00 Build 0)  -->
<!DOCTYPE svg PUBLIC "-//W3C//DTD SVG 1.1//EN" "http://www.w3.org/Graphics/SVG/1.1/DTD/svg11.dtd">
<svg version="1.1" id="Layer_1" xmlns="http://www.w3.org/2000/svg" xmlns:xlink="http://www.w3.org/1999/xlink" x="0px" y="0px"
	 width="188.542px" height="38.833px" viewBox="0 0 188.542 38.833" enable-background="new 0 0 188.542 38.833"
	 xml:space="preserve">
<g>
	<polyline fill="#E82429" points="0,6.6 13.6,6.6 13.6,10.9 4.9,10.9 4.9,16.4 13.4,16.4 13.4,20.7 4.9,20.7 4.9,26.5 13.6,26.5 
		13.6,30.799 0,30.799 0,6.6 	"/>
	<path fill="#E82429" d="M16.62,12.871h4.025c0,0.8,0,1.538-0.034,2.388c0.786-1.405,2.388-2.977,5.594-2.945c5.857,0,7,4.5,7,7.688
		v10.83h-4.288v-9.75c0-2.684-0.883-4.745-3.892-4.745c-3.042,0.033-4.089,2.061-4.089,4.6v9.914H16.62V12.871"/>
	<path fill="#E82429" d="M55.064,28.706c0,2.944-0.556,4.844-1.669,6.349c-1.537,2.062-4.546,3.698-8.244,3.7
		c-5.596,0-8.277-3.338-8.932-6.119h4.974c0.393,0.8,1.1,1.4,1.9,1.83c0.884,0.5,1.8,0.601,2.4,0.601
		c2.552,0,5.333-1.769,5.333-5.399v-1.504c-0.884,1.604-2.781,3.207-5.824,3.207c-5.169,0-9.162-3.928-9.162-9.455
		c0-5.857,4.189-9.587,9.162-9.587c2.585,0,4.8,1.2,5.8,2.945v-2.421h4.318v15.854 M40.047,21.799c0,3.101,2.3,5.5,5.4,5.529
		c1.603,0,2.88-0.556,3.828-1.535c0.949-0.951,1.505-2.293,1.538-3.83c0-1.375-0.426-2.814-1.311-3.86
		c-0.85-1.08-2.191-1.799-4.055-1.799c-2.912,0-5.365,2.257-5.365,5.463v0.069L40.047,21.799z"/>
	<rect x="58.6" y="12.9" fill="#E82429" width="4.3" height="18"/>
	<path fill="#E82429" d="M66.418,12.871h4.023c0,0.8,0,1.538-0.032,2.388c0.786-1.405,2.389-2.977,5.595-2.945
		c5.856,0,7,4.5,7,7.688v10.83h-4.286v-9.75c0-2.684-0.883-4.745-3.893-4.745c-3.043,0.033-4.091,2.061-4.091,4.6v9.914h-4.285
		V12.871"/>
	<path fill="#E82429" d="M89.025,23.275c0.196,2.899,2.7,4.5,5.2,4.449c2.094,0,3.501-0.947,4.319-2.42h4.416
		c-0.849,1.995-2.127,3.5-3.631,4.515c-1.504,1.049-3.271,1.57-5.137,1.57c-5.53,0-9.488-4.482-9.488-9.488
		c0-5.104,3.992-9.586,9.422-9.586c2.684,0,5,1,6.701,2.748c2.193,2.3,3,5.1,2.6,8.212H89.025 M99.266,20
		c-0.163-1.702-1.963-4.089-5.103-4.057c-3.174,0-4.907,2.29-5.072,4.057H99.266z"/>
	<polyline fill="#E82429" points="119.6,22.2 112.201,6.6 117.5,6.6 122.1,17.6 126.701,6.6 131.9,6.6 124.5,22.2 124.5,30.799 
		119.6,30.799 119.6,22.2 	"/>
	<path fill="#E82429" d="M148.998,30.833h-4.285v-2.584c-1.146,2.094-3.535,3.141-6.053,3.141c-5.759,0-9.13-4.482-9.13-9.553
		c0-5.661,4.091-9.521,9.13-9.521c3.271,0,5.299,1.7,6.1,3.174v-2.618h4.285v17.961 M133.817,21.9c0,2.2,1.601,5.5,5.5,5.464
		c2.39,0,3.958-1.244,4.776-2.88c0.426-0.784,0.623-1.635,0.687-2.519c0.033-0.852-0.13-1.734-0.489-2.52
		c-0.752-1.702-2.422-3.173-5.008-3.173c-3.468,0-5.43,2.813-5.43,5.595v0.066L133.817,21.9z"/>
	<path fill="#E82429" d="M152.563,12.871h4.06v2.356c0.782-1.604,2.258-2.88,4.974-2.913v4.319h-0.199
		c-3.008,0-4.546,1.407-4.546,4.515v9.685h-4.287L152.563,12.871"/>
	<path fill="#E82429" d="M181.061,30.833h-4.089v-2.584c-0.785,1.342-2.486,3.141-6.151,3.141c-5.528,0-9.094-4.319-9.094-9.553
		c0-5.824,4.155-9.521,9.028-9.521c3.436,0,5.4,1.8,6,2.879V6.622h4.285v24.21 M166.013,21.799c0,3,2.199,5.5,5.5,5.529
		c1.568,0,2.977-0.621,3.99-1.635c1.016-1.016,1.604-2.421,1.539-3.992c0-1.57-0.623-2.913-1.604-3.862
		c-0.981-0.981-2.354-1.569-3.894-1.569c-3.5,0-5.527,2.682-5.527,5.496v0.069L166.013,21.799z"/>
	<path fill="#E82429" d="M54.172,7.05H58.1l3.296,3.276V4.128c0-1.335-1.083-2.418-2.418-2.418c-0.579,0-1.104,0.203-1.521,0.5
		C56.944,0.9,55.7,0,54.2,0c-1.946,0-3.524,1.577-3.524,3.523C50.647,5.5,52.2,7,54.2,7"/>
	<path fill="#E82429" d="M183.533,7.153h-0.617V6.622h1.869v0.531h-0.617v2.243h-0.635V7.153 M185.153,6.622h0.806l0.742,1.9
		l0.73-1.924h0.801v2.774h-0.594v-2.02l-0.737,2.044h-0.417l-0.736-2.031v2.031h-0.595V6.622z"/>
</g>
</svg>
