<?xml version="1.0" encoding="UTF-8" standalone="no"?>
<svg
   xmlns:dc="http://purl.org/dc/elements/1.1/"
   xmlns:cc="http://creativecommons.org/ns#"
   xmlns:rdf="http://www.w3.org/1999/02/22-rdf-syntax-ns#"
   xmlns:svg="http://www.w3.org/2000/svg"
   xmlns="http://www.w3.org/2000/svg"
   xmlns:sodipodi="http://sodipodi.sourceforge.net/DTD/sodipodi-0.dtd"
   xmlns:inkscape="http://www.inkscape.org/namespaces/inkscape"
   width="494.8342"
   height="125.32557"
   viewBox="0 0 395.86736 100.26046"
   version="1.1"
   id="svg2"
   inkscape:version="0.48.4 r9939"
   sodipodi:docname="express.svg">
  <metadata
     id="metadata32">
    <rdf:RDF>
      <cc:Work
         rdf:about="">
        <dc:format>image/svg+xml</dc:format>
        <dc:type
           rdf:resource="http://purl.org/dc/dcmitype/StillImage" />
      </cc:Work>
    </rdf:RDF>
  </metadata>
  <defs
     id="defs30" />
  <sodipodi:namedview
     pagecolor="#ffffff"
     bordercolor="#666666"
     borderopacity="1"
     objecttolerance="10"
     gridtolerance="10"
     guidetolerance="10"
     inkscape:pageopacity="0"
     inkscape:pageshadow="2"
     inkscape:window-width="1366"
     inkscape:window-height="705"
     id="namedview28"
     showgrid="false"
     fit-margin-top="10"
     fit-margin-right="10"
     fit-margin-bottom="10"
     fit-margin-left="10"
     inkscape:zoom="1.0597849"
     inkscape:cx="309.54564"
     inkscape:cy="53.053066"
     inkscape:window-x="-8"
     inkscape:window-y="-8"
     inkscape:window-maximized="1"
     inkscape:current-layer="svg2" />
  <g
     id="#434f5bff"
     transform="translate(-23.01416,-28.859542)">
    <path
       d="m 51.76,37.75 c 8.88,-2.23 19.15,0.16 25.36,7.12 6.14,6.63 8.02,16.03 7.92,24.81 -17.21,-0.01 -34.43,-0.02 -51.65,0 0.44,8.15 1.84,17.07 7.86,23.1 5.92,6.07 15.26,7.15 23.21,5.49 7.4,-1.48 13.97,-6.99 16.03,-14.35 0.89,-2.2 0.64,-5.66 3.85,-5.73 -0.76,6.11 -3.07,12.28 -7.79,16.44 -7.29,6.75 -18.26,7.92 -27.58,5.53 -8.06,-2.13 -13.88,-9.25 -16.03,-17.09 -3.1,-11.05 -2.79,-23.7 3.39,-33.67 3.43,-5.65 9,-9.99 15.43,-11.65 m -8.21,6.85 c -6.63,5.52 -9.5,14.24 -10.15,22.59 16.41,0.02 32.82,0.02 49.22,0 C 82.32,60.52 80.91,53.62 76.79,48.21 69.36,37.94 53.06,36.45 43.55,44.6 z"
       id="path14"
       inkscape:connector-curvature="0"
       style="fill:#434f5b" />
    <path
       d="m 162.19,40.12 c 9.17,-5.14 21.77,-4.16 29.48,3.21 6.42,6.05 9.19,15.06 9.47,23.69 0.38,9.24 -1.82,19.03 -7.96,26.17 -9.52,11.26 -29.51,10.76 -38.39,-1.03 -2.24,-2.8 -3.45,-6.2 -4.79,-9.47 0,12.81 0,25.62 0,38.43 -0.61,0 -1.81,0 -2.42,0 -0.02,-27.56 0.03,-55.13 -0.02,-82.69 0.6,-0.07 1.81,-0.19 2.42,-0.26 0.05,5.77 0,11.55 0.03,17.32 2.47,-6.15 6.2,-12.13 12.18,-15.37 m 6.12,0.17 c -10.43,2.8 -16.77,13.33 -17.89,23.57 -0.99,9.35 0.1,19.79 6.39,27.23 5.31,6.39 14.23,8.89 22.26,7.49 7.08,-1.04 12.94,-6.26 15.98,-12.57 4.01,-8.32 4.64,-18.06 2.55,-26.99 -1.43,-5.84 -4.34,-11.56 -9.17,-15.29 -5.61,-4.39 -13.37,-5.27 -20.12,-3.44 z"
       id="path16"
       inkscape:connector-curvature="0"
       style="fill:#434f5b" />
    <path
       d="m 226.69,39.81 c 4.35,-2.34 9.35,-2.97 14.22,-2.95 -0.21,0.56 -0.62,1.68 -0.83,2.25 -5.8,0.3 -11.95,1.48 -16.23,5.75 -5.54,5.08 -7.68,12.83 -7.81,20.14 -0.1,11.66 -0.01,23.33 -0.04,35 -0.61,0 -1.81,0 -2.42,0 -0.02,-20.52 0.04,-41.03 -0.03,-61.54 0.61,-0.08 1.81,-0.24 2.41,-0.32 0.11,5.09 -0.07,10.19 0.16,15.29 1.71,-5.64 5.1,-11 10.57,-13.62 z"
       id="path18"
       inkscape:connector-curvature="0"
       style="fill:#434f5b" />
    <path
       d="m 256.11,41.21 c 9.77,-6.68 24.29,-5.45 32.52,3.15 6.5,6.63 8.54,16.31 8.41,25.32 -17.22,-0.02 -34.43,-0.02 -51.65,0 0.43,8.14 1.83,17.06 7.85,23.09 5.93,6.08 15.28,7.16 23.25,5.5 7.38,-1.49 13.93,-6.99 15.99,-14.33 0.9,-2.21 0.64,-5.67 3.85,-5.76 -0.75,6.34 -3.27,12.72 -8.28,16.89 -7.11,6.24 -17.41,7.31 -26.35,5.29 -6.74,-1.61 -12.33,-6.63 -15.11,-12.91 -3.58,-8.09 -4.27,-17.28 -2.88,-25.95 1.46,-7.95 5.59,-15.7 12.4,-20.29 m -1.65,4.36 c -5.89,5.57 -8.43,13.73 -9.06,21.62 16.41,0.02 32.82,0.02 49.22,0 -0.2,-9.39 -3.6,-19.71 -12.16,-24.66 -8.67,-5.05 -20.72,-4.07 -28,3.04 z"
       id="path20"
       inkscape:connector-curvature="0"
       style="fill:#434f5b" />
    <path
       d="m 310.49,44.54 c 3.95,-5.48 11.03,-7.59 17.52,-7.62 6.65,-0.15 14.03,1.17 18.8,6.21 3.43,3.57 4.18,8.71 4.49,13.44 -0.82,-0.02 -1.63,-0.05 -2.43,-0.07 -0.34,-4.06 -1.04,-8.4 -3.92,-11.5 -4.2,-4.72 -10.96,-5.79 -16.97,-5.63 -5.37,0.07 -11.2,1.47 -14.8,5.73 -4.48,5.11 -3.4,14.66 3.16,17.52 9.88,4.43 21.24,4.77 30.68,10.26 7.57,4.71 7.57,16.59 1.38,22.43 -5.36,5.15 -13.28,6.28 -20.41,5.9 -6.49,-0.3 -13.58,-2.01 -17.89,-7.24 -3.57,-4.16 -4.26,-9.82 -4.57,-15.09 0.6,0 1.8,0 2.4,-0.01 0.35,4.6 0.94,9.51 3.97,13.2 4.08,5.03 10.87,6.69 17.07,6.88 6.18,0.01 12.98,-0.9 17.62,-5.39 3.79,-3.45 4.76,-9.33 2.85,-13.98 -1.77,-3.84 -5.67,-6.13 -9.52,-7.45 -8.43,-2.75 -17.45,-3.69 -25.48,-7.61 -7.17,-3.51 -8.21,-13.85 -3.95,-19.98 z"
       id="path22"
       inkscape:connector-curvature="0"
       style="fill:#434f5b" />
    <path
       d="m 367.41,46.4 c 2.82,-5.79 9.37,-8.71 15.51,-9.29 6.97,-0.63 14.65,0.08 20.34,4.56 4.53,3.55 6.03,9.59 5.81,15.11 -0.55,-0.1 -1.65,-0.29 -2.21,-0.38 -0.36,-4.03 -1.05,-8.35 -3.93,-11.42 -3.96,-4.46 -10.26,-5.64 -15.96,-5.63 -5.46,-0.02 -11.43,1.09 -15.34,5.23 -4.78,4.83 -4.2,14.43 2.1,17.71 9.95,4.79 21.59,4.96 31.21,10.54 7.66,4.68 7.67,16.66 1.43,22.51 -5.35,5.11 -13.22,6.24 -20.32,5.88 -6.53,-0.3 -13.68,-2.02 -18,-7.3 -3.53,-4.16 -4.21,-9.8 -4.52,-15.04 0.6,0 1.8,0 2.4,-0.01 0.35,4.82 1.04,10.03 4.43,13.74 4.14,4.63 10.63,6.14 16.6,6.34 6.17,0.01 12.95,-0.89 17.6,-5.36 3.82,-3.45 4.8,-9.35 2.87,-14.03 -1.78,-3.85 -5.7,-6.14 -9.57,-7.45 -8.41,-2.74 -17.41,-3.68 -25.42,-7.59 -6.53,-3.13 -7.9,-12.05 -5.03,-18.12 z"
       id="path24"
       inkscape:connector-curvature="0"
       style="fill:#434f5b" />
    <path
       d="m 90.56,38.29 c 0.77,0.01 2.32,0.02 3.09,0.03 6.87,9.32 13.81,18.59 20.68,27.9 7.11,-9.25 14.14,-18.54 21.17,-27.85 0.73,-0.03 2.18,-0.09 2.9,-0.13 -7.28,10.1 -14.99,19.87 -22.45,29.84 8.23,10.75 16.7,21.33 24.79,32.19 -1.53,-0.27 -3.4,-0.14 -4.26,-1.72 -7.36,-9.54 -14.75,-19.06 -22.08,-28.62 -7.41,9.48 -14.68,19.08 -22.03,28.6 -0.84,1.54 -2.67,1.48 -4.16,1.76 C 96.26,89.42 104.69,78.84 112.89,68.08 105.46,58.14 97.84,48.34 90.56,38.29 z"
       id="path26"
       inkscape:connector-curvature="0"
       style="fill:#434f5b" />
  </g>
</svg>
