<?xml version="1.0" encoding="UTF-8" standalone="no"?>
<svg
   xmlns:dc="http://purl.org/dc/elements/1.1/"
   xmlns:cc="http://creativecommons.org/ns#"
   xmlns:rdf="http://www.w3.org/1999/02/22-rdf-syntax-ns#"
   xmlns:svg="http://www.w3.org/2000/svg"
   xmlns="http://www.w3.org/2000/svg"
   xmlns:sodipodi="http://sodipodi.sourceforge.net/DTD/sodipodi-0.dtd"
   xmlns:inkscape="http://www.inkscape.org/namespaces/inkscape"
   width="770"
   height="247.5"
   viewBox="0 0 616 198"
   version="1.1"
   id="svg2"
   inkscape:version="0.48.4 r9939"
   sodipodi:docname="fedora.svg">
  <metadata
     id="metadata41">
    <rdf:RDF>
      <cc:Work
         rdf:about="">
        <dc:format>image/svg+xml</dc:format>
        <dc:type
           rdf:resource="http://purl.org/dc/dcmitype/StillImage" />
      </cc:Work>
    </rdf:RDF>
  </metadata>
  <defs
     id="defs39" />
  <sodipodi:namedview
     pagecolor="#ffffff"
     bordercolor="#666666"
     borderopacity="1"
     objecttolerance="10"
     gridtolerance="10"
     guidetolerance="10"
     inkscape:pageopacity="0"
     inkscape:pageshadow="2"
     inkscape:window-width="1366"
     inkscape:window-height="705"
     id="namedview37"
     showgrid="false"
     inkscape:zoom="0.58077037"
     inkscape:cx="322.06921"
     inkscape:cy="64.202678"
     inkscape:window-x="-8"
     inkscape:window-y="-8"
     inkscape:window-maximized="1"
     inkscape:current-layer="#3c6eb4ff"
     fit-margin-top="10"
     fit-margin-right="10"
     fit-margin-bottom="10"
     fit-margin-left="10" />
  <g
     id="#294172ff"
     transform="translate(8,8)">
    <path
       d="m 547.31,0 3.37,0 c 10.69,0.33 21.16,4.18 29.57,10.76 11.57,8.94 19.02,23.01 19.75,37.63 l 0,3.35 c -0.25,13.55 -6.39,26.75 -16.29,35.95 -9.55,8.91 -22.65,13.86 -35.7,13.68 -11.68,0.02 -23.36,-0.02 -35.04,0.03 -3.67,-0.02 -7.71,-0.35 -10.51,-3 -3.37,-2.72 -4.13,-7.26 -4.04,-11.35 0.08,-12.65 -0.09,-25.3 0.09,-37.95 0.25,-13.61 6.72,-26.75 16.72,-35.86 C 523.96,5.27 535.55,0.68 547.31,0 m -4.02,24.31 c -4.24,7.3 -2.81,16.01 -3.05,24.04 -4.22,0.1 -8.48,-0.33 -12.65,0.43 -9.82,-0.71 -19.17,6.37 -22.27,15.52 -4.4,11.45 2.04,26.34 14.11,29.7 10.66,5.17 24.38,-0.66 29.49,-11.03 3.8,-7.21 2.45,-15.6 2.7,-23.42 4.27,-0.16 8.66,0.5 12.85,-0.57 12.09,1.08 23.02,-10.03 23.38,-21.87 0.8,-10.64 -6.6,-21.06 -16.82,-24 -10.41,-3.4 -22.61,1.54 -27.74,11.2 z"
       id="path5"
       inkscape:connector-curvature="0"
       style="fill:#294172" />
    <path
       d="m 555.71,26.73 c 3.4,-3.53 8.49,-3.66 13.04,-3.13 3.66,2.88 7.84,6.35 7.95,11.44 0.59,7.43 -6.43,13.84 -13.72,13.41 -3.72,-0.08 -7.45,-0.09 -11.16,-0.29 0.1,-7.15 -2.16,-16 3.89,-21.43 z"
       id="path7"
       inkscape:connector-curvature="0"
       style="fill:#294172" />
    <path
       d="m 515.16,73.04 c -0.66,-7.49 6.41,-14.14 13.82,-13.57 3.7,0.05 7.41,0.06 11.11,0.33 -0.23,7.14 2.13,15.98 -3.95,21.39 -3.53,3.71 -8.85,3.66 -13.56,3.16 -3.34,-3.03 -7.24,-6.43 -7.42,-11.31 z"
       id="path9"
       inkscape:connector-curvature="0"
       style="fill:#294172" />
  </g>
  <g
     id="#ffffffff"
     transform="translate(8,8)">
    <path
       d="m 543.29,24.31 c 5.13,-9.66 17.33,-14.6 27.74,-11.2 1.68,1.5 3.67,3.38 3.14,5.89 -0.2,2.79 -2.91,4.32 -5.42,4.6 -4.55,-0.53 -9.64,-0.4 -13.04,3.13 -6.05,5.43 -3.79,14.28 -3.89,21.43 3.71,0.2 7.44,0.21 11.16,0.29 1.78,1 3.79,2.27 4.02,4.52 0.61,2.38 -1.05,4.39 -2.53,6.01 -4.19,1.07 -8.58,0.41 -12.85,0.57 -0.25,7.82 1.1,16.21 -2.7,23.42 -5.11,10.37 -18.83,16.2 -29.49,11.03 -1.06,-1.77 -2.43,-3.82 -1.54,-5.96 0.5,-2.22 2.75,-3.11 4.69,-3.69 4.71,0.5 10.03,0.55 13.56,-3.16 6.08,-5.41 3.72,-14.25 3.95,-21.39 -3.7,-0.27 -7.41,-0.28 -11.11,-0.33 -1.82,-0.93 -3.82,-2.19 -4.11,-4.41 -0.71,-2.51 1.1,-4.63 2.72,-6.28 4.17,-0.76 8.43,-0.33 12.65,-0.43 0.24,-8.03 -1.19,-16.74 3.05,-24.04 z"
       id="path14"
       inkscape:connector-curvature="0"
       style="fill:#ffffff" />
  </g>
  <g
     id="#3c6eb4ff"
     transform="translate(8,8)">
    <path
       d="m 571.03,13.11 c 10.22,2.94 17.62,13.36 16.82,24 -0.36,11.84 -11.29,22.95 -23.38,21.87 1.48,-1.62 3.14,-3.63 2.53,-6.01 -0.23,-2.25 -2.24,-3.52 -4.02,-4.52 7.29,0.43 14.31,-5.98 13.72,-13.41 -0.11,-5.09 -4.29,-8.56 -7.95,-11.44 2.51,-0.28 5.22,-1.81 5.42,-4.6 0.53,-2.51 -1.46,-4.39 -3.14,-5.89 z"
       id="path17"
       inkscape:connector-curvature="0"
       style="fill:#3c6eb4" />
    <path
       d="m 505.32,64.3 c 3.1,-9.15 12.45,-16.23 22.27,-15.52 -1.62,1.65 -3.43,3.77 -2.72,6.28 0.29,2.22 2.29,3.48 4.11,4.41 -7.41,-0.57 -14.48,6.08 -13.82,13.57 0.18,4.88 4.08,8.28 7.42,11.31 -1.94,0.58 -4.19,1.47 -4.69,3.69 -0.89,2.14 0.48,4.19 1.54,5.96 -12.07,-3.36 -18.51,-18.25 -14.11,-29.7 z"
       id="path19"
       inkscape:connector-curvature="0"
       style="fill:#3c6eb4" />
    <path
       d="m 230.34,58.32 c 3.29,-4.06 10.12,-4.18 13.59,-0.28 2.36,2.34 2.36,5.86 2.41,8.96 -0.11,34.99 0.08,69.98 -0.1,104.97 0.33,6.05 -6.3,10.89 -11.96,8.75 -4.6,-1.47 -5.96,-6.55 -7.55,-10.54 -5.73,7.47 -14.89,11.49 -24.17,11.82 l -1.97,0 c -12.16,-0.46 -24.25,-6.25 -31.15,-16.45 -11.85,-17.22 -10.32,-43.34 5.17,-57.88 8.25,-7.84 20.15,-11.04 31.33,-9.99 9.02,0.89 17.49,5.97 22.27,13.71 -0.06,-14.79 0.01,-29.59 -0.05,-44.39 0.01,-2.98 0.1,-6.3 2.18,-8.68 m -32.23,55.88 c -2.91,0.68 -5.69,1.93 -8.12,3.69 -12.26,9.03 -13.51,28.69 -3.87,40.07 8.78,10.49 26.97,10.53 35.77,0.03 8.57,-10.41 8.4,-27.24 -0.64,-37.32 -5.73,-6.29 -15.01,-8.33 -23.14,-6.47 z"
       id="path21"
       inkscape:connector-curvature="0"
       style="fill:#3c6eb4" />
    <path
       d="m 21.85,74.78 c 5.81,-12.79 20.17,-20.83 34.11,-19.3 4.58,0.12 9,3.73 9.15,8.47 0.69,5.02 -4.25,9.09 -9.06,8.36 -5.58,-0.63 -11.55,1.02 -15.11,5.58 -5.47,5.97 -4.2,14.49 -4.27,21.9 5.21,0.3 10.7,-0.86 15.7,0.93 5.9,2.85 4.54,12.34 -1.47,14.16 -4.69,0.94 -9.51,0.29 -14.26,0.48 0.05,17.89 -0.02,35.78 0.04,53.67 0.02,3.16 -0.12,6.73 -2.45,9.16 -3.16,3.71 -9.43,3.95 -12.84,0.46 -2.44,-2.16 -2.94,-5.58 -2.91,-8.67 0.04,-18.21 0,-36.42 0.03,-54.63 -4.18,-0.1 -8.4,0.34 -12.53,-0.34 C 2.52,114.32 0.59,110.86 0,107.65 l 0,-1.01 c 0.55,-3.05 2.65,-6.13 5.93,-6.56 4.16,-0.61 8.38,-0.22 12.56,-0.28 -0.02,-8.41 -0.5,-17.27 3.36,-25.02 z"
       id="path23"
       inkscape:connector-curvature="0"
       style="fill:#3c6eb4" />
    <path
       d="m 90.97,100.18 c 12.03,-4.51 26.18,-3.29 37.01,3.73 12.01,7.62 18.79,22 18.34,36.05 -0.27,3.6 -4.11,5.47 -7.36,5.24 -18.83,0.11 -37.67,-0.11 -56.5,0.1 1.04,7.99 5.72,15.64 13.21,19.02 8.77,4.16 19.43,2.73 27.69,-1.98 3.18,-1.72 5.7,-4.36 8.69,-6.34 4.28,-2.67 10.74,1.07 10.65,6.1 0.03,3.59 -2.64,6.34 -5.15,8.56 -8.41,7.02 -19.23,10.64 -30.08,11.34 l -2.59,0 c -5.96,-0.56 -11.96,-1.72 -17.33,-4.47 -9.9,-4.81 -17.71,-13.71 -21.2,-24.15 -3.73,-10.88 -2.82,-23.26 2.5,-33.47 4.57,-9.03 12.66,-16.18 22.12,-19.73 m 1.06,16.67 c -5.11,3.63 -7.91,9.59 -9.08,15.6 15.21,0.03 30.42,0.02 45.63,0.01 -0.97,-5.19 -3.28,-10.21 -7.18,-13.85 -7.74,-7.39 -20.77,-8 -29.37,-1.76 z"
       id="path27"
       inkscape:connector-curvature="0"
       style="fill:#3c6eb4" />
    <path
       d="m 270.23,113.32 c 6.78,-8.53 17.01,-14.26 27.85,-15.46 11.08,-1.43 22.7,1.73 31.42,8.73 9.05,7.05 14.98,17.98 15.83,29.43 1.14,11.48 -2.84,23.29 -10.54,31.85 -7.78,8.86 -19.41,13.79 -31.11,14.13 l -1.19,0 c -8.87,-0.47 -17.74,-3.18 -24.81,-8.67 -9.2,-6.91 -15.35,-17.76 -16.41,-29.23 -1.2,-10.9 2.03,-22.25 8.96,-30.78 m 26.17,1.15 c -2.88,0.79 -5.58,2.17 -7.92,4.01 -12.36,9.79 -12.79,30.75 -1.27,41.35 8.74,8.1 23.75,8.02 32.36,-0.23 10.64,-10.12 10.78,-29.11 0.39,-39.45 -6.04,-6.05 -15.44,-7.98 -23.56,-5.68 z"
       id="path29"
       inkscape:connector-curvature="0"
       style="fill:#3c6eb4" />
    <path
       d="m 362.41,101.36 c 2.95,-3.7 8.95,-4.29 12.56,-1.2 3.09,2.3 3.39,6.42 4.05,9.9 4.18,-4.56 8.93,-8.94 15.02,-10.7 4.45,-1.49 9.22,-2.01 13.89,-1.79 5.25,0.43 8.43,6.79 5.95,11.34 -1.32,3.03 -4.61,4.52 -7.77,4.57 -8.21,0.24 -16.83,2.88 -22.41,9.18 -3.48,3.93 -5.18,9.15 -5.29,14.34 -0.21,11.62 0.07,23.25 -0.12,34.87 0.17,4.97 -4.2,9.56 -9.23,9.29 -4.84,0.02 -8.81,-4.39 -8.78,-9.13 -0.16,-20.67 0,-41.35 -0.08,-62.03 -0.03,-2.98 0.17,-6.26 2.21,-8.64 z"
       id="path31"
       inkscape:connector-curvature="0"
       style="fill:#3c6eb4" />
    <path
       d="m 445.2,100.2 c 9.77,-3.61 20.79,-3.52 30.59,-0.08 11.09,3.88 20.17,12.96 24.02,24.06 3.76,10.18 2.54,21.19 2.75,31.81 -0.16,6.08 0.35,12.19 -0.25,18.25 -0.59,5.29 -7.04,8.6 -11.71,6.11 -3.89,-1.85 -4.81,-6.45 -6.37,-10.05 -6.15,7.06 -15.28,11.12 -24.55,11.7 l -2.72,0 c -14.44,-0.79 -28.06,-9.59 -34.47,-22.58 -6.25,-11.99 -6.43,-27.06 -0.06,-39.05 4.72,-9.25 13.04,-16.56 22.77,-20.17 m 8.93,14.04 c -3.84,0.94 -7.45,2.85 -10.32,5.56 -10.83,10.36 -10.72,29.85 0.28,40.04 8.97,8.28 24.44,7.97 32.97,-0.8 10.03,-10.27 9.99,-28.67 -0.16,-38.85 -5.83,-5.89 -14.83,-7.85 -22.77,-5.95 z"
       id="path33"
       inkscape:connector-curvature="0"
       style="fill:#3c6eb4" />
    <flowRoot
       xml:space="preserve"
       id="flowRoot3018"
       style="font-size:40px;font-style:normal;font-weight:normal;line-height:125%;letter-spacing:0px;word-spacing:0px;fill:#3c6eb4;fill-opacity:1;stroke:none;font-family:Sans"
       transform="matrix(0.11113906,0,0,0.11113906,433.29359,151.5062)"><flowRegion
         id="flowRegion3020"><rect
           id="rect3022"
           width="58.542931"
           height="75.761444"
           x="644.83319"
           y="151.73856"
           style="fill:#3c6eb4;fill-opacity:1" /></flowRegion><flowPara
         id="flowPara3024">TM</flowPara></flowRoot>    <flowRoot
       xml:space="preserve"
       id="flowRoot3018-1"
       style="font-size:40px;font-style:normal;font-weight:normal;line-height:125%;letter-spacing:0px;word-spacing:0px;fill:#3c6eb4;fill-opacity:1;stroke:none;font-family:Sans"
       transform="matrix(0.11113906,0,0,0.11113906,517.45442,71.753066)"><flowRegion
         id="flowRegion3020-7"><rect
           id="rect3022-4"
           width="58.542931"
           height="75.761444"
           x="644.83319"
           y="151.73856"
           style="fill:#3c6eb4;fill-opacity:1" /></flowRegion><flowPara
         id="flowPara3024-0">TM</flowPara></flowRoot>  </g>
</svg>
