<?xml version="1.0" encoding="UTF-8" standalone="no"?>
<svg
   xmlns:dc="http://purl.org/dc/elements/1.1/"
   xmlns:cc="http://creativecommons.org/ns#"
   xmlns:rdf="http://www.w3.org/1999/02/22-rdf-syntax-ns#"
   xmlns:svg="http://www.w3.org/2000/svg"
   xmlns="http://www.w3.org/2000/svg"
   xmlns:sodipodi="http://sodipodi.sourceforge.net/DTD/sodipodi-0.dtd"
   xmlns:inkscape="http://www.inkscape.org/namespaces/inkscape"
   width="512"
   height="512"
   viewBox="0 0 409.6 409.6"
   version="1.1"
   id="svg2"
   inkscape:version="0.48.4 r9939"
   sodipodi:docname="flask.svg">
  <metadata
     id="metadata81">
    <rdf:RDF>
      <cc:Work
         rdf:about="">
        <dc:format>image/svg+xml</dc:format>
        <dc:type
           rdf:resource="http://purl.org/dc/dcmitype/StillImage" />
      </cc:Work>
    </rdf:RDF>
  </metadata>
  <defs
     id="defs79" />
  <sodipodi:namedview
     pagecolor="#ffffff"
     bordercolor="#666666"
     borderopacity="1"
     objecttolerance="10"
     gridtolerance="10"
     guidetolerance="10"
     inkscape:pageopacity="0"
     inkscape:pageshadow="2"
     inkscape:window-width="1366"
     inkscape:window-height="705"
     id="namedview77"
     showgrid="false"
     fit-margin-top="10"
     fit-margin-left="10"
     fit-margin-right="10"
     fit-margin-bottom="10"
     inkscape:zoom="0.62933334"
     inkscape:cx="467.64175"
     inkscape:cy="276.13802"
     inkscape:window-x="-8"
     inkscape:window-y="-8"
     inkscape:window-maximized="1"
     inkscape:current-layer="svg2" />
  <g
     id="#000000ff"
     transform="matrix(0.72793775,0,0,0.72793775,-18.370903,-20.855611)">
    <path
       d="m 81.61,56.43 c 1.41,-5.06 6.6,-7.83 11.45,-8.68 6.25,-1.11 13.69,0.3 17.64,5.68 3.27,4.42 2.75,10.37 0.9,15.25 -1.35,3.41 -2.09,7.51 -0.17,10.86 1.54,2.7 4.74,3.75 7.66,4.03 7.09,0.66 14.2,-0.92 21.28,-0.11 2.43,0.36 5.25,1.36 6.15,3.89 1.14,3.71 -0.15,7.56 -1.2,11.13 9.55,10.67 25.32,7.48 37.3,13.02 4.58,1.92 6.36,6.92 6.62,11.53 3.45,0.57 6.9,1.31 10.06,2.84 7.43,3.49 13.25,9.63 20.8,12.9 3.79,1.62 8.01,1.84 11.79,3.52 12.45,5.34 25.75,9.11 37.07,16.77 5.83,3.89 10.67,9.42 12.91,16.14 -5.95,4 -13.47,2.76 -19.87,0.66 -7.44,-2.26 -14.52,-5.75 -22.19,-7.25 -4.15,-0.81 -9.19,-0.38 -11.85,3.35 -3.6,5.2 -3.8,11.9 -3.19,17.99 3.49,40.43 3.94,81.25 11.56,121.22 2.8,15.06 6.92,29.83 12,44.27 7.99,27.01 25.44,49.73 42.89,71.32 9.86,12.38 19.83,24.81 32,35.03 15.55,13.31 32.94,24.28 50.9,34 23.71,11.75 49.26,19.37 75.16,24.49 6.92,-6.08 12.28,-13.67 19.07,-19.88 4.62,-4.57 10.07,-9.02 16.72,-9.88 3.56,-0.48 6.84,1.33 9.85,2.97 -0.77,9.7 -9.14,15.87 -13.98,23.57 -0.74,1.43 -1.72,3.96 0.37,4.69 5.89,2.94 12.51,0.62 18.7,0.41 9.04,-0.44 17.04,5.41 26.06,4.98 5.24,-0.28 9.39,-3.85 12.85,-7.44 2.71,2.14 5.65,4.21 9.13,4.86 9.23,1.96 18.65,-0.11 27.96,0.03 3.91,0.18 8.69,0.89 10.74,4.72 2.28,4.44 0.69,9.57 -0.22,14.17 -11.43,6.9 -25.51,5.25 -37.57,10.38 -2.99,1.22 -5.47,3.32 -8.22,4.96 -4.85,-1.2 -9.6,-3.41 -14.74,-2.94 -13.59,0.95 -25.47,8.84 -38.89,10.67 -4.98,0.63 -10.05,-0.04 -14.98,1.04 -19.2,3.51 -38.69,5.1 -58.16,5.96 -10.03,0.05 -20.1,0.66 -30.09,-0.52 -34.16,-2.65 -68.66,-4.97 -101.82,-14.15 -9.43,-2.52 -18.49,-6.16 -27.75,-9.22 -19.51,-7.19 -37.5,-17.86 -54.75,-29.36 -8.1,-4.97 -15.06,-11.51 -22.48,-17.39 -11.63,-9.55 -22.93,-19.58 -32.82,-30.95 -5.54,-6.31 -10.02,-13.43 -15.22,-20 C 98.53,411.32 75.09,365.57 58.59,317.56 47.81,284.41 44.28,249.19 31.23,216.73 c -2.67,-5.97 -6.11,-11.94 -5.96,-18.7 -0.84,-18.55 14.44,-34.57 31.59,-39.3 -3.06,-1.35 -7.73,-0.83 -8.84,-4.8 -2.2,-7.35 4.04,-14.81 11.08,-16.29 4.97,-1.01 10.35,-1.79 14.24,-5.37 5.47,-4.56 6.98,-12.75 4.42,-19.23 -1.06,-2.56 -4.77,-4.81 -2.85,-7.86 4.9,-7.5 14.27,-10.58 19.26,-18.04 1.42,-2.04 2.07,-4.82 0.88,-7.13 -1.94,-3.96 -6.49,-5.53 -9.01,-9.02 -3.1,-4.09 -5.77,-9.3 -4.43,-14.56 m 9.27,13.29 c -0.55,-2.49 -3.15,-5.19 -1.96,-7.65 5.57,-2.71 12.34,1.6 17.86,-1.43 0.74,-5.8 -4.95,-11.75 -10.88,-10.67 -8.51,1.6 -12.69,14.49 -5.02,19.75 m 14.56,18.64 c -1.06,0.06 -2.66,1.2 -2.03,2.37 1.27,0.98 4.03,-1.77 2.03,-2.37 m 11.45,5.85 c 4.53,0.39 9.11,-0.31 13.15,-2.45 -3.85,-3.33 -11.79,-3.5 -13.15,2.45 m 5.02,10.59 c -1.14,8.51 4.47,16.32 11.08,21.04 2.59,1.92 7.04,2.93 9.32,0.06 0.65,-3.41 -1,-6.75 -1.37,-10.12 2.25,0.63 4.46,1.38 6.7,2.06 -1.68,-2.74 -3.88,-5.23 -6.87,-6.56 -6.01,-2.86 -12.52,-4.51 -18.86,-6.48 m -28.48,21.31 c 4.87,0.76 8.8,-2.81 13.53,-3.02 6,-0.55 11.98,1.04 17.99,0.49 -1.88,-2.37 -4.13,-4.41 -6.42,-6.38 -8.64,1.87 -17.72,3.81 -25.1,8.91 m 34.02,8.39 c -6.47,1.18 -12.68,3.42 -19.06,4.98 -8,2.31 -16.35,3.88 -23.74,7.87 1.54,0.36 3.18,0.8 4.72,0.19 10.24,-3.42 20.75,-6.85 31.66,-6.88 6.18,-0.09 12.39,1.91 16.93,6.2 -0.85,-3.05 -2.51,-6.5 -0.69,-9.52 2.35,-0.87 4.22,1.28 5.48,2.96 2.79,3.8 4.71,8.79 9.37,10.72 2.38,1.13 5.02,-0.59 6.08,-2.75 2.16,-3.84 1.65,-8.4 1.04,-12.57 2.83,3.1 5.83,6.2 9.74,7.93 -1.38,-3.97 -3.94,-7.33 -6.54,-10.57 1.14,-1.95 2.32,-3.91 3,-6.08 -1.43,-2.11 -4.21,-1.52 -6.35,-1.27 -10.79,2 -20.92,6.49 -31.64,8.79 m 36.6,16.58 c -23.99,5.51 -46.79,15.41 -71.04,19.92 -2.79,0.56 -5.62,0.96 -8.37,1.73 -1.62,0.53 -3.87,1.04 -3.89,3.17 2.67,2.48 6.15,3.76 9.19,5.69 -1.34,1.62 -4.49,2.1 -4.58,4.37 2.26,2.62 6.48,3.44 7.72,6.85 -2.07,1.79 -4.85,3.34 -7.67,2.62 -5.27,-1.22 -11.01,-2.75 -14.76,-6.92 -2.62,-2.98 -1.95,-7.13 -1.18,-10.67 -9.23,1.56 -18.88,3.38 -26.58,9.08 -4.13,3.02 -7.12,7.86 -6.94,13.1 0.36,6.94 3.88,13.43 8.52,18.46 -0.03,-5.52 -1.07,-11.04 -0.27,-16.56 0.5,-4.92 2.15,-10.49 6.77,-13.05 3.86,-2.17 8.39,-1.04 12.39,0.09 -3.34,1.45 -8.11,2.64 -8.55,6.99 0.54,5.09 4.68,8.83 8.76,11.43 3.35,2.01 7.4,3.92 11.38,2.8 3.46,-1.48 2.56,-5.74 2.44,-8.72 5.96,0.24 11.7,-2.14 17.62,-1.8 1.57,1.83 -0.48,4.43 -0.85,6.48 13.12,-1.77 24.28,-9.28 35.85,-15.11 6.5,-3.26 13.56,-6 20.95,-5.84 3.32,0.07 6.65,-0.04 9.93,-0.57 13.96,-1.98 28.06,-3.72 41.53,-8.04 3.48,-1.13 6.9,-2.46 10.49,-3.19 8.37,-1.54 15.97,-6.97 20.09,-14.42 2.29,-4.16 2.91,-9.89 -0.26,-13.77 -3.15,-0.98 -6.52,-0.69 -9.77,-0.87 -19.85,-0.54 -39.57,2.63 -58.92,6.75 m -107.64,6.04 c 0.62,0.43 1.25,0.85 1.89,1.27 5.79,-2.16 11.99,-3.82 16.83,-7.86 -6.88,0.17 -12.62,4.01 -18.72,6.59 m 206.13,5.93 c 2.02,2.89 5.43,4.17 8.11,6.28 1.51,1.41 2.57,3.23 3.87,4.84 0.74,-1.82 1.85,-3.82 1.01,-5.8 -1.43,-3.41 -5.05,-5.25 -8.44,-6.15 -1.4,-0.21 -4.05,-1.12 -4.55,0.83 m -60.42,23.44 c -9.98,0.8 -19.88,3.01 -29.13,6.89 3.44,2.3 7.2,4.26 9.92,7.46 -7.38,-0.22 -14.34,-2.98 -21.49,-4.53 -0.75,3.04 -1.68,7.09 -5.35,7.72 -5.28,0.92 -10.61,-0.49 -15.9,-0.81 1.87,1.02 4.46,1.5 5.27,3.75 -0.55,2.84 -2.88,4.79 -5.16,6.32 -6.26,4.06 -14.4,6.21 -21.56,3.25 -1.77,1.74 -4.05,3.69 -3.51,6.5 0.75,6.62 6.24,11.51 7.42,17.99 0.5,2.16 -1.35,3.69 -2.36,5.35 -0.74,0.9 -1.38,1.92 -2.31,2.66 -4.82,1.34 -10.39,0.22 -14.7,3.19 -2.99,2.05 -3.07,5.96 -3.24,9.2 -1.93,0.05 -5.33,-1.06 -5.8,1.71 -0.72,4.88 1.79,10.18 5.89,12.87 1.92,1.32 3.73,-0.64 5.43,-1.34 5.5,1.72 11.28,4.33 14.28,9.55 3.1,5.39 2.42,11.86 2.11,17.81 -0.25,3.05 0.07,6.18 -0.78,9.16 -2.95,0.88 -4.97,-2.01 -6.31,-4.17 -2.01,-3.54 -3.95,-7.82 -2.67,-11.92 0.79,-2.65 3.86,-2.94 6.07,-3.65 -2.43,-3.37 -4.32,-7.39 -7.93,-9.69 -1.78,-1.17 -4.1,-0.44 -5.41,1.08 -3.51,3.6 -6.23,7.88 -9.83,11.41 3.88,3.01 8.15,5.59 11.52,9.2 1.55,1.66 3.01,4.04 2.09,6.37 -1.02,1.87 -3.12,2.76 -4.77,3.98 3.66,0.95 7.42,2.33 9.98,5.26 4.65,5.15 5.76,12.23 7.82,18.61 0.62,2.24 2.73,4.15 5.12,4.15 2.91,-1.07 4.2,-4.64 7.18,-5.57 2.46,-0.04 4.25,2.07 6.2,3.32 -6.79,-8.66 -16.46,-14.73 -22.46,-24.01 3.27,-0.81 6.63,-0.32 9.87,0.4 -0.14,-5.31 -1.44,-10.56 -1.19,-15.88 -0.05,-2.33 2.42,-2.89 4.1,-3.71 0.77,-0.77 1.55,-1.54 2.33,-2.31 -0.39,6.6 -1.86,13.15 -1.38,19.78 0.16,1.41 0.71,3.57 2.51,3.5 4.77,-2.09 7.66,-6.64 11.4,-10.02 2.92,-1.14 4.62,2.38 6.08,4.28 2.56,4.4 7.31,7.98 7.43,13.44 0.31,2.68 -2.37,4.56 -4.84,4.44 -4.91,0.04 -9.1,-2.85 -13.42,-4.78 4.36,9.36 16.35,12.98 18.91,23.4 0.31,5.33 -0.27,11.34 3.73,15.58 2.6,3.29 6.87,1.06 10.16,0.36 0.81,2.32 1.53,4.71 2.83,6.82 0.35,-0.05 1.04,-0.16 1.38,-0.21 1.45,-3.06 1.49,-6.52 1.91,-9.81 3.72,1.13 7.7,2.27 10.47,5.17 3.04,3.11 3.96,7.5 5.34,11.47 0.75,2.71 2.19,5.37 5.16,6.08 0.23,-7.98 -5.19,-14.48 -7,-21.99 3.4,2.9 6.09,6.48 9.18,9.69 3.48,3.66 7.06,7.56 8.62,12.49 0.84,2.69 0.58,5.98 -1.65,7.96 -3.89,3.62 -9.59,3.55 -14.57,3.66 6.78,3.44 10.89,10.37 17.61,13.88 3.54,1.96 8.12,1 11.29,3.73 5.05,4.04 9.26,9.6 10.48,16.06 0.62,2.63 -0.52,6 -3.51,6.45 -4.04,0.51 -8.13,-0.95 -11.5,-3.11 -6.69,-4.63 -14.14,-8.75 -22.37,-9.63 3.01,3.84 7.28,6.39 11.53,8.63 19.02,9.16 38.73,17.12 56.66,28.39 11.41,7.33 18.8,19.01 28.61,28.09 -8.25,2.26 -18.36,2.13 -25.1,-3.71 -2.3,-3.41 3.25,-4.37 5.47,-5.49 -4.44,-0.92 -8.81,-2.21 -13.3,-2.83 -1.68,-0.28 -4.42,-0.3 -4.16,2.11 1.47,4.63 4.58,9.08 9.26,10.88 10.57,4.51 22.29,4.19 33.51,5.44 -1.75,3.12 -3.81,6.03 -5.84,8.97 1.78,0.33 3.57,0.62 5.36,0.9 -1.17,1.53 -4.27,2.7 -3.55,4.9 2.61,2.39 5.92,3.85 9.01,5.52 2.88,-0.51 5.92,-2.38 8.81,-0.87 4.69,2.7 5.62,8.9 9.99,11.93 3.35,1.34 6.38,-1.41 8.53,-3.66 2.62,-3.04 5.64,-5.74 9.19,-7.67 -2.44,3.73 -5.63,6.95 -7.59,11 6.6,-2.54 12.05,-8.11 19.49,-8.24 14.72,-0.53 27.66,7.69 40.78,13.2 3.8,1.86 8.13,1.66 12.12,2.85 5.05,1.44 9.9,3.7 15.18,4.22 4.27,0.56 8.34,-1.26 12.14,-2.97 0.97,-0.17 2.9,-2.16 1.07,-2.57 -9.17,-4.36 -19.74,-4.77 -28.86,-9.29 -1.28,-0.85 -3.16,-1.68 -3.26,-3.42 0.48,-1.11 1.01,-2.2 1.6,-3.25 -5.85,1.34 -12.09,1.54 -17.84,-0.37 -8.69,-2.76 -15.71,-9.07 -21.45,-15.94 -1.83,-2.1 -3.37,-4.89 -6.37,-5.34 -9.53,-2.51 -18.86,-5.94 -27.54,-10.64 -12.57,-6.58 -24.15,-16.27 -30.17,-29.38 0.59,-0.5 1.77,-1.5 2.36,-2 -2.29,-3.59 -4.97,-6.93 -8.02,-9.91 -9.02,-9.05 -15.3,-20.29 -21.66,-31.25 -1.82,-3.08 -3.28,-6.55 -6.19,-8.79 -4.02,-3.1 -6.35,-7.73 -9.87,-11.31 -0.65,3.63 -1.08,7.31 -1.25,10.99 -0.67,-8.98 -6.34,-20.02 -16.49,-20.36 0.57,-1.82 0.93,-3.73 1.87,-5.4 1.59,-2.15 4.1,-3.31 5.96,-5.18 -0.12,-2.67 -2.95,-4.39 -3.56,-6.98 -2.84,-14.78 -8.55,-28.86 -10.9,-43.75 -1.4,-5.51 -1.88,-11.23 -3.74,-16.62 -5.1,2.9 -7.39,8.53 -9.26,13.78 0.07,-5.92 0.3,-12.3 3.49,-17.47 1.25,0.66 2.43,1.45 3.64,2.19 1.03,-2.93 2.67,-5.92 2.08,-9.13 -0.78,-2.47 -3.67,-1.59 -5.59,-1.78 2.57,-7.31 3.98,-15.68 1.05,-23.1 -1.12,0.51 -2.15,1.17 -3.29,1.63 0.79,-2.11 1.39,-4.3 1.62,-6.56 1.03,-9.16 1.57,-18.46 0.48,-27.65 -0.42,-3.19 -1.33,-7.45 -5.36,-7.42 2.51,-8.13 3.55,-16.65 3.86,-25.12 0.06,-5.49 -0.1,-11.18 -2.31,-16.29 -0.94,-2.16 -2.76,-4.32 -5.3,-4.41 -4.53,-0.46 -7.44,4.27 -11.89,4.24 m -81.65,20.87 c 0.63,0.79 0.78,2.25 1.99,2.39 0.69,-0.82 1.34,-1.67 1.97,-2.54 -0.99,0.04 -2.97,0.11 -3.96,0.15 m -68.55,5.62 c 1.32,1 2.69,1.94 4.07,2.86 1.07,-1.37 2.11,-2.75 3.1,-4.16 -2.48,-0.32 -4.92,0.22 -7.17,1.3 m 39.24,10.98 c 4.28,3.52 10.17,4.01 14.46,7.48 -3.42,0.44 -7.47,-1.81 -10.37,0.58 4,6.52 15.31,3.87 17.14,-3.07 -0.68,-3.33 -4.46,-4.23 -7.35,-4.48 -4.62,-0.27 -9.25,-0.77 -13.88,-0.51 m -16.52,9.01 c -0.65,2.87 3.27,4.19 5.13,5.72 1.72,-1.61 3.4,-3.26 5,-4.99 -2.24,-3.22 -7.45,-3.49 -10.13,-0.73 m 12.38,6.4 c 0.75,2.13 3.51,2.04 5.22,2.95 0.17,-1.08 0.3,-2.16 0.39,-3.25 -1.81,-0.87 -3.83,-0.43 -5.61,0.3 m 23.09,-0.77 c -0.96,0.8 -0.81,2.94 0.63,3.09 1.92,-0.17 1.27,-4.17 -0.63,-3.09 m -58.17,2.68 c -1.26,1.04 0.25,3.66 1.73,2.53 1.26,-1.04 -0.28,-3.64 -1.73,-2.53 m 29.14,4.85 c 1.58,0.12 3.15,0.22 4.73,0.3 -0.3,-1.41 -0.57,-2.82 -1.03,-4.18 -2.1,0.23 -2.92,2.21 -3.7,3.88 m -33.16,2.61 c 1.8,0.08 1.82,-2.89 0.07,-2.96 -1.79,-0.08 -1.83,2.93 -0.07,2.96 m 25.39,7.37 c 2.12,2.56 4.98,4.44 8.15,5.41 1.69,0.73 3.04,-1.05 4.47,-1.58 -3.07,-3.73 -8.14,-4.15 -12.62,-3.83 m -16.14,11.92 c 0.35,3.25 3.71,4.67 6.27,5.9 -0.62,-3.76 -1.82,-7.52 -4.6,-10.28 -0.59,1.4 -2.09,2.71 -1.67,4.38 m 17.34,0.01 c 1.92,3.16 6.14,3.14 9.36,3.86 -0.99,-2.52 -1.68,-6.32 -4.94,-6.78 -1.83,-0.47 -5.03,0.55 -4.42,2.92 m -1.68,5.72 c 2.18,2.23 5.03,3.53 7.97,4.43 -1.17,-3.45 -4.6,-4.6 -7.97,-4.43 m 15.25,8.71 c -0.5,1.61 0.07,2.15 1.7,1.61 0.5,-1.62 -0.07,-2.15 -1.7,-1.61 m -23.94,0.94 c 0.22,7.61 4.13,14.35 5.69,21.67 0.97,4.56 3.23,9.01 7.43,11.36 -0.13,-6 -2.04,-11.73 -4.31,-17.22 -2.4,-5.52 -4.55,-11.4 -8.81,-15.81 m -5.81,5.47 c 0.54,5.54 2.63,10.8 5.16,15.71 6.1,11.11 9.27,23.54 15.25,34.7 2.94,5.45 6.82,10.5 11.96,14.05 -2.05,-3.64 -4.32,-7.17 -5.94,-11.04 -3.39,-7.6 -4.55,-16.05 -8.67,-23.33 -1.38,-2.55 -3.27,-4.78 -4.53,-7.38 -3.21,-8.12 -6.37,-16.91 -13.23,-22.71 m 37.69,20.08 c 2.2,0.53 4.37,0 6.28,-1.15 -2.19,-0.48 -4.62,-0.7 -6.28,1.15 m 6.5,10.92 c -1.07,0.26 -2.81,0.22 -2.3,1.83 2.66,2.18 7.27,2.1 8.6,-1.48 -2.04,-0.59 -4.21,-0.73 -6.3,-0.35 m 29.49,1.36 c -1.9,2.29 0.77,3.92 2.68,4.75 -0.59,-1.73 0.3,-5.82 -2.68,-4.75 m 17.19,1.2 c -0.97,1.35 1.39,2.75 2.32,1.52 0.97,-1.36 -1.4,-2.71 -2.32,-1.52 m -5.55,14.16 c 1.57,3.76 3.79,7.32 4.42,11.41 0.58,1.78 -1.07,3.91 -2.99,3.57 -6.96,-0.65 -12.5,-5.69 -19.25,-7.11 -1.55,-0.3 -3.73,-0.42 -4.27,1.49 0.07,3.97 2.56,7.28 4.75,10.38 -0.05,0.62 -0.16,1.87 -0.21,2.49 2.8,1.29 5.62,2.58 8.48,3.77 8.46,3.48 16.11,8.58 24.34,12.54 2.25,1.13 4.73,1.64 7.22,1.87 -1.16,-6.44 -5.37,-11.84 -10.3,-15.9 -4.72,-6.5 -3.18,-15.32 -6.59,-22.36 -0.93,-2.26 -3.65,-1.83 -5.6,-2.15 m -69.08,3.75 c 1.25,6.75 4.41,12.91 6.85,19.27 10.08,23.39 25.34,43.96 38.87,65.39 0.46,-0.1 1.37,-0.3 1.83,-0.39 0.38,0.67 0.77,1.35 1.15,2.03 -0.53,-0.1 -1.59,-0.29 -2.12,-0.39 0.31,1.15 0.82,2.25 1.34,3.33 9.7,18 20.82,35.99 37.31,48.57 6.74,4.58 11.05,11.75 17.21,17 4.44,3.96 10.29,5.93 16.05,6.99 1.85,0.6 4.23,-1.11 2.85,-3.07 -2.59,-5.11 -7.28,-8.96 -12.14,-11.83 -2.98,-2.01 -7.43,-1.32 -9.51,-4.6 -2.88,-3.87 -7.01,-6.68 -9.53,-10.81 -1.24,-1.92 0.78,-3.23 1.85,-4.55 -2.89,0.37 -6.11,0.62 -8.57,-1.28 -5.89,-4.21 -7.29,-11.92 -11.87,-17.18 -2.75,-1.38 -6.31,-1.04 -8.69,-3.32 -7.28,-5.87 -6.85,-16.18 -11.02,-23.91 -2.27,-5.14 -6.6,-8.77 -10.9,-12.15 -1.77,-3.02 -2.43,-6.61 -4.5,-9.5 -6.09,-9.14 -14.08,-16.96 -19.21,-26.74 -3.03,-5.63 -4.33,-11.97 -7.29,-17.62 -2.83,-5.37 -5.5,-11.01 -9.96,-15.24 m 45.04,24.84 c 1.64,0.3 3.29,0.56 4.95,0.79 -0.05,-0.76 -0.14,-2.27 -0.19,-3.03 -1.68,0.53 -3.29,1.26 -4.76,2.24 m 0.34,14.25 c 2.27,3.05 5.4,5.3 8.77,7 -1.49,-3.61 -4.38,-7.49 -8.77,-7 m 65.95,1.54 c 1.56,3.16 5.4,3.6 8.42,4.47 -0.73,-1.53 -1.24,-3.22 -2.38,-4.49 -1.76,-1.37 -4.23,-1.05 -6.04,0.02 m -29.68,2.83 c 1.28,2.23 3.05,4.13 4.79,6 -2.72,-1.31 -5.51,-2.49 -8.42,-3.32 0.4,1.95 0.85,3.9 1.3,5.86 -2.37,-0.38 -4.74,-0.72 -7.12,-0.9 2.74,3.88 6.84,6.6 9.21,10.77 -1.99,-0.17 -3.98,-0.37 -5.96,-0.59 5.29,4.54 11.08,8.61 15.61,13.97 -4.39,-1.26 -8.25,-3.75 -12.48,-5.4 0.88,1.85 1.88,3.78 3.68,4.91 5.87,4.12 12.81,6.37 18.75,10.39 5.75,3.9 11.63,7.91 18.42,9.77 -1.91,-3.03 -4.66,-5.35 -7.37,-7.62 0.28,-1.76 1.64,-3.74 0.46,-5.45 -1.99,-3.36 -5.67,-5.26 -7.77,-8.53 0.03,-1.22 0.24,-2.42 0.41,-3.62 -3.7,-2.47 -7.67,-4.71 -10.58,-8.15 3.07,-0.25 6.15,-0.24 9.23,-0.2 -2.61,-1.66 -5.62,-3 -7.33,-5.7 2.62,-3.21 7.17,-3.74 10.4,-6.19 -5,-2.05 -10.24,-3.39 -15.39,-4.98 -3.18,-0.81 -6.57,-2.13 -9.84,-1.02 m -23.3,5.91 c 2.48,3.79 6.87,5.45 10.87,7.09 -2.59,-3.62 -6.32,-6.55 -10.87,-7.09 m -12.62,7.95 c 1.98,3.25 4.84,5.84 7.95,7.99 -1.65,-3.49 -4.35,-6.47 -7.95,-7.99 m 90.11,26.49 c 0.99,1.18 2.54,1.38 3.9,1.85 -0.51,-1 -1.06,-1.97 -1.66,-2.92 -0.56,0.27 -1.68,0.81 -2.24,1.07 m 10.48,4.72 c 0.61,2.02 2.08,3.36 4.1,3.93 -0.88,-1.77 -2.11,-3.37 -4.1,-3.93 m -51.31,6.58 c 3.3,2.15 7.18,3.87 11.16,2.56 -3.36,-2.01 -7.3,-2.65 -11.16,-2.56 m 28.82,1.51 c 2.88,5.91 10.18,6.38 15.87,7.46 -4.44,-3.94 -10.11,-6.26 -15.87,-7.46 m -26.49,2.49 c -0.29,0.49 -0.87,1.49 -1.16,1.99 0.96,0.01 2.87,0.02 3.83,0.03 -0.89,-0.69 -1.75,-1.39 -2.67,-2.02 m 10.86,0.57 c 2.85,1.97 6.07,4.23 9.72,3.04 -2.77,-2.19 -6.22,-3.15 -9.72,-3.04 m -10.69,7.62 c 2.33,4.32 5.77,8.41 10.81,9.46 7.58,3.89 16.58,5.23 24.8,2.64 1.46,-0.68 4.12,-1.42 3.06,-3.52 -2.94,-2.99 -7.43,-3.29 -11.12,-4.92 -7.14,-3.15 -14.71,-5.9 -22.62,-5.9 -1.98,-0.24 -3.44,1.18 -4.93,2.24 m 37.55,0.65 c 2.94,3.75 7.12,6.17 10.5,9.48 5.2,3.43 11.93,5.13 18.04,3.37 -3.34,-3.95 -9.06,-3.33 -12.93,-6.39 -4.63,-3.26 -9.84,-6.08 -15.61,-6.46 m 14.54,0.76 c 8.87,5.14 18.96,9.82 29.48,7.75 -4.2,-3.14 -9.96,-2.14 -14.17,-5.21 -4.44,-3.05 -10.13,-3.43 -15.31,-2.54 m 86.64,13.6 c 1.67,0.05 3.35,0.06 5.02,0.04 -0.56,-1.35 -1.1,-2.72 -1.78,-4.01 -2.08,0.27 -2.62,2.32 -3.24,3.97 m -123.32,3.87 c 2.41,1.39 5.02,2.41 7.72,3.1 -1.99,-2.2 -4.71,-3.52 -7.72,-3.1 m 39.67,-1.11 c 3.61,4.72 9.63,7.11 15.51,6.3 -4.28,-3.76 -9.89,-5.74 -15.51,-6.3 m -13.13,2.34 c -0.8,1.41 1.66,2.53 2.58,1.49 0.79,-1.42 -1.67,-2.63 -2.58,-1.49 m 107.62,3.21 c 0.81,2.46 3.76,2.16 5.78,2.74 -1.31,-1.96 -3.18,-4.21 -5.78,-2.74 m -95.28,7.71 c 3.38,6.97 11.97,8.77 18.99,9.3 -5.2,-4.87 -11.97,-8.15 -18.99,-9.3 m 15.67,1.34 c 1.83,1.58 4.13,2.37 6.44,2.96 -0.38,-1.09 -0.84,-2.13 -1.4,-3.12 -1.65,-0.5 -3.39,-0.03 -5.04,0.16 m -26.22,3.74 c 2.34,0.75 6.27,3.91 7.67,0.26 -2.23,-1.93 -5.23,-1.45 -7.67,-0.26 m 271.49,13.22 c 0.72,0.16 2.14,0.46 2.85,0.61 -0.01,-1.74 -0.07,-3.49 -0.21,-5.22 -1.31,1.26 -2.11,2.89 -2.64,4.61 m -275.36,2.49 c 1.74,0.67 3.65,1.65 5.57,1.02 1.36,-0.71 2.08,-2.2 3.03,-3.34 -2.99,0.23 -5.9,1.03 -8.6,2.32 m 28.55,-1.65 c -3.22,-0.21 0.13,2.24 1.53,2.23 1.51,0.75 4.83,0.75 4.65,-1.57 -1.98,-0.71 -4.1,-0.91 -6.18,-0.66 m 10.88,4.09 c 2.62,2.19 5.86,3.33 9.2,3.89 -0.22,-0.89 -0.65,-2.66 -0.87,-3.54 -2.27,-2.29 -5.68,-1.14 -8.33,-0.35 M 227,505.48 c -0.55,1.6 -0.01,2.16 1.63,1.67 0.55,-1.62 0,-2.18 -1.63,-1.67 m 56.54,0.6 c 1.5,1.29 3.4,2.53 5.48,2.2 2.06,-0.55 3.6,-2.12 5.19,-3.43 -3.6,-0.6 -7.35,-0.37 -10.67,1.23 m 178.51,1.98 c 1.23,0.87 2.51,1.68 3.79,2.51 0.71,-1.5 1.39,-3.01 2.04,-4.53 -2.06,0.31 -4.12,0.78 -5.83,2.02 m -249.87,1.03 c -0.95,1.37 1.51,2.6 2.42,1.48 0.97,-1.41 -1.51,-2.62 -2.42,-1.48 m 173.11,2.13 c -2.27,0.78 -0.1,3.42 1.52,2.19 2.16,-0.91 0.11,-3.39 -1.52,-2.19 m -161.41,2.53 c -0.2,0.63 -0.61,1.89 -0.81,2.52 0.99,-0.04 1.98,-0.09 2.97,-0.13 -0.15,-0.67 -0.47,-2.01 -0.63,-2.68 -0.38,0.07 -1.15,0.22 -1.53,0.29 m 52.79,-0.28 c 4.48,1.1 9.14,1.38 13.72,0.77 -4.47,-1.17 -9.15,-1.31 -13.72,-0.77 m -61.9,2.83 c 3.84,3.67 8.47,6.32 13.01,9.01 6.19,3.58 12.46,7.07 19.08,9.8 2.71,1.08 5.17,2.68 7.36,4.61 -7.29,-1.53 -13.82,-5.29 -20.61,-8.19 -8.19,-3.52 -15.12,-9.62 -23.78,-12.08 3.38,3.75 7.95,6.03 12.17,8.68 3.92,2.41 7.87,4.79 12.09,6.66 19.72,8.96 39.57,18.32 60.97,22.51 11.25,2.02 22.58,3.56 33.87,5.36 32.27,4.84 65.52,9.52 97.87,2.78 -14.14,-6.85 -30.02,-0.6 -44.87,-2.79 -3.88,-0.37 -7.36,-2.22 -11.07,-3.18 -2.94,0.09 -5.79,0.89 -8.72,1.1 -18.85,1.8 -37.49,-2.51 -56.04,-5.15 -7.28,-1.35 -13.6,-5.56 -20.53,-8 -19.44,-8.12 -39.39,-15.42 -57.34,-26.62 -4.08,-2.46 -8.67,-4.21 -13.46,-4.5 m 22.9,3.45 c 1.16,1.15 2.47,2.13 3.75,3.15 0.77,-1.34 1.54,-2.67 2.23,-4.05 -1.84,-0.93 -5.1,-1.55 -5.98,0.9 m 116.21,11.16 c -2.4,1.75 -2.8,4.77 -2.91,7.53 2.94,-0.84 5.47,-2.59 7.99,-4.28 0.84,1.96 1.51,4.05 2.88,5.73 2.76,-1.21 4.73,-3.54 6.78,-5.66 -0.53,-3.52 0.64,-8.27 -2.62,-10.68 -4.91,0.45 -8.53,4.35 -12.12,7.36 m -7.42,-0.07 c 3.38,-0.72 6.11,-2.87 7.99,-5.7 -3.06,1.25 -5.96,3.03 -7.99,5.7 m -7.08,1.38 c 1.09,-1.4 2.02,-2.93 2.81,-4.51 -2.01,0.68 -2.46,2.68 -2.81,4.51 m 108.34,2.55 c 3.72,0.8 7.55,1 11.35,0.68 11.39,-0.76 22.71,2.6 34.09,1.18 2.95,-0.18 5.33,-2.05 7.34,-4.05 -14.21,-1.24 -28.25,-5 -42.59,-4.19 -4.31,0.11 -8.57,2.18 -10.19,6.38 m -76.04,-1.07 c -1.4,1.78 0.25,3.75 0.99,5.4 4.02,-2.77 8.22,-5.62 10.73,-9.95 -4.36,-0.71 -9.06,1 -11.72,4.55 m 163.79,-0.18 c 1.07,-0.62 4.48,-0.27 3.46,-2.51 -0.12,-0.61 -0.35,-1.82 -0.47,-2.43 -1.11,1.58 -2.1,3.23 -2.99,4.94 m -26.99,1.24 c 1.09,0.29 2.18,0.57 3.27,0.86 0.31,-1.58 0.58,-3.17 0.82,-4.76 -1.77,0.84 -3.13,2.21 -4.09,3.9 m 38.41,-0.92 c 3.14,1.58 6.64,2.3 10.16,1.94 6.67,-0.52 13.58,-0.62 19.86,-3.17 -7.92,-1.6 -16.02,-0.75 -23.99,-0.08 -2.06,0.15 -4.07,0.7 -6.03,1.31 m -284.27,1.05 c 0.02,2.39 3.74,2.8 5.7,2.67 0.2,-1.02 0.35,-2.05 0.48,-3.07 -2.07,-0.12 -4.18,-0.26 -6.18,0.4 m 123.77,7.71 c 3.52,-1.36 6.71,-3.7 8.45,-7.13 -4.4,-0.4 -8.02,2.82 -8.45,7.13 m -62.15,-5.32 c -1.32,1.15 -1.66,2.96 -2.28,4.52 1.43,-0.7 2.83,-1.43 4.24,-2.17 -0.56,-0.89 -0.32,-3.27 -1.96,-2.35 m 49.2,4.91 c 0.52,1.89 2.74,1.52 4.22,2 1.76,-2.34 3.45,-4.74 4.62,-7.44 -3.48,0.71 -6.77,2.49 -8.84,5.44 m -41.35,-2.83 c -1.59,1.05 0.38,3.36 1.76,2.17 1.58,-1.06 -0.39,-3.35 -1.76,-2.17 m 66.75,6.13 c 3.67,-0.48 6.8,-2.59 8.73,-5.74 -3.38,1.09 -6.42,3.05 -8.73,5.74 M 278.7,540.44 c 6.64,4.17 13.91,7.38 21.55,9.2 7.32,1.74 14.79,3.64 22.38,2.96 -5.79,-5.75 -14.32,-5.46 -21.69,-7.45 -7.4,-1.62 -14.65,-4.11 -22.24,-4.71 m 112.63,4.54 c 0.42,0.56 1.27,1.69 1.69,2.25 2.34,-1.51 3.97,-3.83 5.31,-6.23 -2.65,0.59 -5.54,1.48 -7,3.98 m 14.78,1.14 c -1.09,0.97 -0.57,2.43 -0.38,3.65 4.14,-1.79 7.58,-4.92 10.19,-8.55 -3.67,0.53 -7.39,1.98 -9.81,4.9 m -30.8,1.87 c -1.11,1.36 1.26,2.71 2.16,1.42 1.13,-1.36 -1.28,-2.77 -2.16,-1.42 m 56.33,17.07 c 1.39,0.6 2.77,1.26 4.24,1.67 1.18,-0.85 2.09,-2 3.1,-3.01 -2.56,-0.42 -5.04,0.25 -7.34,1.34 z"
       id="path5"
       inkscape:connector-curvature="0"
       style="fill:#000000" />
    <path
       d="m 187.44,148.42 c 1.77,-1.81 4.42,-0.19 5.84,1.27 2.32,2.46 4.44,6.13 3.02,9.56 -3.11,2.73 -7.33,0.35 -10.81,-0.26 0.19,-3.52 -0.42,-7.63 1.95,-10.57 z"
       id="path7"
       inkscape:connector-curvature="0"
       style="fill:#000000" />
    <path
       d="m 203.47,153.47 c 1.89,-2.19 4.9,-3.9 7.85,-2.95 1.7,1.44 -0.48,2.53 -1.67,3.21 -2,0.95 -4.17,1.41 -6.29,1.98 -0.44,1.83 -0.89,3.66 -1.45,5.45 -2.49,-2.51 -0.23,-5.58 1.56,-7.69 z"
       id="path9"
       inkscape:connector-curvature="0"
       style="fill:#000000" />
    <path
       d="m 132.42,167.78 c 3.55,-4.43 9.3,-5.86 14.63,-6.77 5.52,-0.7 11.33,-1.13 16.62,0.96 -3.92,2.6 -9.09,5.08 -13.75,3 -6.07,-2.72 -11.39,3.34 -17.5,2.81 z"
       id="path11"
       inkscape:connector-curvature="0"
       style="fill:#000000" />
    <path
       d="m 130.29,168.16 c 2.49,-0.9 1.81,3.5 -0.27,3.19 -1.58,-0.41 -0.97,-2.74 0.27,-3.19 z"
       id="path13"
       inkscape:connector-curvature="0"
       style="fill:#000000" />
    <path
       d="m 104.07,175.7 c 1.72,-0.98 3.5,-1.86 5.34,-2.6 -0.76,1.1 -0.77,3.32 -2.54,3.26 -0.96,-0.12 -1.89,-0.34 -2.8,-0.66 z"
       id="path15"
       inkscape:connector-curvature="0"
       style="fill:#000000" />
    <path
       d="m 116.29,173.03 c 3.36,-1.62 7.49,0.54 9.83,3.08 2.36,2.65 -2.14,3.58 -4.07,3.54 -3.31,0.72 -6.03,-1.83 -7.39,-4.57 0.41,-0.51 1.22,-1.54 1.63,-2.05 z"
       id="path17"
       inkscape:connector-curvature="0"
       style="fill:#000000" />
    <path
       d="m 103.14,185.98 c 1.22,-2.26 2.03,-5.33 4.77,-6.18 2.33,-0.61 4.62,0.62 6.46,1.94 3.55,2.71 6.59,6.65 6.59,11.31 -6.51,-1.01 -10.96,-7.15 -17.82,-7.07 z"
       id="path19"
       inkscape:connector-curvature="0"
       style="fill:#000000" />
    <path
       d="m 213.01,185.36 c 3.36,-0.1 -1.34,3.03 0,0 z"
       id="path21"
       inkscape:connector-curvature="0"
       style="fill:#000000" />
    <path
       d="m 206.14,213.98 c 0.88,-3.42 2.52,-6.62 4.93,-9.22 4.8,7.43 -2.52,15.42 -0.19,23.32 4.02,-4.86 2.58,-12.04 6.81,-16.74 0.14,6.03 -1.44,11.95 -3.54,17.56 -1.04,2.48 -2.18,5.21 -4.55,6.7 -2.51,0.99 -4.23,-2.07 -4.87,-4.05 -1.32,-5.83 -0.15,-11.9 1.41,-17.57 z"
       id="path23"
       inkscape:connector-curvature="0"
       style="fill:#000000" />
    <path
       d="m 134.02,222.67 c 1.39,-0.47 1.88,0 1.47,1.42 -1.39,0.46 -1.88,-0.02 -1.47,-1.42 z"
       id="path25"
       inkscape:connector-curvature="0"
       style="fill:#000000" />
    <path
       d="m 142.41,244.74 c 0.99,-5.53 -1.29,-10.73 -3.15,-15.79 1.91,2.68 3.3,5.78 5.69,8.09 3.21,2.53 6.95,4.34 10.07,7.02 -1.34,0.71 -2.68,1.4 -4.03,2.07 2.1,2.09 4.13,4.27 5.71,6.79 -5.45,-1.33 -9.96,-4.79 -14.29,-8.18 z"
       id="path27"
       inkscape:connector-curvature="0"
       style="fill:#000000" />
    <path
       d="m 152.16,234.17 c 0.98,-0.94 1.93,-1.93 3.01,-2.76 2.82,1.09 2.44,4.52 2.64,6.96 -2.32,-0.74 -4.12,-2.37 -5.65,-4.2 z"
       id="path29"
       inkscape:connector-curvature="0"
       style="fill:#000000" />
    <path
       d="m 134.45,251.2 c 3.59,-0.1 7.18,0.52 10.51,1.89 4.98,2.03 10.13,4.15 14,8.03 -4.66,-0.83 -9.01,-2.77 -13.16,-4.96 -3.66,-1.97 -8.15,-2.11 -11.35,-4.96 z"
       id="path31"
       inkscape:connector-curvature="0"
       style="fill:#000000" />
    <path
       d="m 200.37,251.76 c 1.99,2.8 3.42,5.95 4.4,9.24 -2.44,-2.53 -3.62,-5.88 -4.4,-9.24 z"
       id="path33"
       inkscape:connector-curvature="0"
       style="fill:#000000" />
    <path
       d="m 129.6,253.55 c 4.93,0.22 9.01,3.32 13.01,5.87 4.57,3.18 9.4,6.37 12.44,11.17 -5.81,-0.64 -10.75,-4.04 -16.37,-5.36 -5.25,-1.17 -8.5,-6.69 -9.08,-11.68 z"
       id="path35"
       inkscape:connector-curvature="0"
       style="fill:#000000" />
    <path
       d="m 120.18,259.63 c 5.77,1.58 10.74,5.11 15.38,8.77 1.51,1.42 3.82,2.89 3.39,5.29 -3.1,-0.06 -6.75,-0.13 -8.95,-2.67 -3.42,-3.66 -7.48,-6.86 -9.82,-11.39 z"
       id="path37"
       inkscape:connector-curvature="0"
       style="fill:#000000" />
    <path
       d="m 118.07,265.76 c 2.96,2.2 5.87,4.49 9.3,5.95 5.17,2.22 7.08,9.82 3.35,14.08 -2.1,2.26 -5.44,0.59 -6.94,-1.5 -3.75,-4.64 -8.37,-8.64 -11.17,-13.97 4.03,1.66 7.37,4.55 11.2,6.59 -0.64,-4.29 -3.56,-7.58 -5.74,-11.15 z"
       id="path39"
       inkscape:connector-curvature="0"
       style="fill:#000000" />
    <path
       d="m 141.28,278.61 c 2.67,1.8 4.49,4.51 5.67,7.47 -3.62,-0.76 -4.76,-4.35 -5.67,-7.47 z"
       id="path41"
       inkscape:connector-curvature="0"
       style="fill:#000000" />
    <path
       d="m 137.01,280.21 c 2.51,-0.74 1.87,3.54 -0.31,2.99 -1.67,-0.34 -1.1,-2.74 0.31,-2.99 z"
       id="path43"
       inkscape:connector-curvature="0"
       style="fill:#000000" />
    <path
       d="m 215.37,291.9 c -2.14,-3.55 -0.62,-7.78 0.32,-11.47 0.58,3.81 0.48,7.7 -0.32,11.47 z"
       id="path45"
       inkscape:connector-curvature="0"
       style="fill:#000000" />
    <path
       d="m 184.08,281.01 c 1.21,2.89 2.05,6.23 0.5,9.18 -0.55,-3.03 -0.74,-6.11 -0.5,-9.18 z"
       id="path47"
       inkscape:connector-curvature="0"
       style="fill:#000000" />
    <path
       d="m 194.68,295.05 c 0.07,-4.59 0.45,-9.47 3.29,-13.29 1.74,3.16 2.58,6.69 3.08,10.25 1.47,0.15 2.95,0.27 4.41,0.56 1.07,4.07 -0.39,8.26 0.14,12.38 0.59,1.28 1.91,1.99 2.88,2.96 -0.7,3.99 -1.35,8.31 -4.43,11.26 -2.04,-2.76 -3.64,-5.82 -5.69,-8.58 -3.3,-4.44 -3.63,-10.22 -3.68,-15.54 z"
       id="path49"
       inkscape:connector-curvature="0"
       style="fill:#000000" />
    <path
       d="m 218.31,297.39 c 0.19,-5.06 -0.16,-10.57 2.59,-15.06 0.49,5.15 -0.55,10.34 -2.59,15.06 z"
       id="path51"
       inkscape:connector-curvature="0"
       style="fill:#000000" />
    <path
       d="m 152.27,285.57 c 3.6,8.1 6.3,16.89 12.18,23.73 -1.03,-7.13 -5.06,-13.29 -6.78,-20.21 5.44,2.74 9.02,7.87 12.9,12.37 2.79,3.42 5.66,6.9 7.23,11.09 -1.25,0.82 -2.55,1.59 -3.74,2.5 -0.08,2.65 0.95,5.14 1.76,7.61 -1.62,-2.08 -3.12,-4.55 -5.79,-5.38 -1.58,1.35 -2.94,2.94 -4.36,4.45 -4.4,-3.01 -6.62,-8.03 -8.4,-12.87 -2.65,-7.49 -5.36,-15.22 -5,-23.29 z"
       id="path53"
       inkscape:connector-curvature="0"
       style="fill:#000000" />
    <path
       d="m 138.31,302.06 c -1.51,-2.74 -1.34,-5.82 -0.19,-8.62 0.9,2.73 2.33,6.05 0.19,8.62 z"
       id="path55"
       inkscape:connector-curvature="0"
       style="fill:#000000" />
    <path
       d="m 147.18,302.78 c 0.94,-1.04 1.87,-2.1 2.9,-3.04 2.49,1.72 2.72,5 2.45,7.74 -2.71,0.74 -3.67,-3.24 -5.35,-4.7 z"
       id="path57"
       inkscape:connector-curvature="0"
       style="fill:#000000" />
    <path
       d="m 227.13,326.31 c 0.37,-0.02 1.12,-0.05 1.5,-0.07 -0.1,1.8 -0.22,3.6 -0.42,5.4 -0.7,-1.7 -0.89,-3.53 -1.08,-5.33 z"
       id="path59"
       inkscape:connector-curvature="0"
       style="fill:#000000" />
    <path
       d="m 170.94,349.74 c 2.33,0.77 3.31,2.68 3.13,5.1 -1.81,-1.16 -2.67,-3.09 -3.13,-5.1 z"
       id="path61"
       inkscape:connector-curvature="0"
       style="fill:#000000" />
    <path
       d="m 192.1,353 c 1.38,-0.68 3.25,1.44 2.54,2.77 -1.4,0.62 -3.33,-1.42 -2.54,-2.77 z"
       id="path63"
       inkscape:connector-curvature="0"
       style="fill:#000000" />
    <path
       d="m 234.14,357.42 c 5.51,2.75 5.45,9.84 4.39,15.06 -2.92,-4.44 -4.9,-9.67 -4.39,-15.06 z"
       id="path65"
       inkscape:connector-curvature="0"
       style="fill:#000000" />
    <path
       d="m 245.63,387.58 c 0.83,2.47 0.86,5.09 0.06,7.58 -0.66,-1.08 -1.31,-2.15 -1.96,-3.21 0.62,-1.47 1.24,-2.93 1.9,-4.37 z"
       id="path67"
       inkscape:connector-curvature="0"
       style="fill:#000000" />
    <path
       d="m 259.93,409.52 c 3.35,1.53 5.33,4.73 6.55,8.07 -4.78,0.57 -5.54,-4.65 -6.55,-8.07 z"
       id="path69"
       inkscape:connector-curvature="0"
       style="fill:#000000" />
    <path
       d="m 270.25,425.6 c 1.4,-0.19 1.61,2.21 0.57,2.79 -1.41,0.19 -1.62,-2.22 -0.57,-2.79 z"
       id="path71"
       inkscape:connector-curvature="0"
       style="fill:#000000" />
    <path
       d="m 274.93,431.21 c 5.92,5.08 10.97,11.92 11.76,19.9 -6.54,-4.43 -11.54,-11.84 -11.76,-19.9 z"
       id="path73"
       inkscape:connector-curvature="0"
       style="fill:#000000" />
    <path
       d="m 357.12,496.51 c 1.65,-0.47 2.21,0.09 1.66,1.68 -1.66,0.46 -2.22,-0.1 -1.66,-1.68 z"
       id="path75"
       inkscape:connector-curvature="0"
       style="fill:#000000" />
  </g>
</svg>
