<?xml version="1.0" encoding="UTF-8" standalone="no"?>
<svg
   xmlns:dc="http://purl.org/dc/elements/1.1/"
   xmlns:cc="http://creativecommons.org/ns#"
   xmlns:rdf="http://www.w3.org/1999/02/22-rdf-syntax-ns#"
   xmlns:svg="http://www.w3.org/2000/svg"
   xmlns="http://www.w3.org/2000/svg"
   xmlns:sodipodi="http://sodipodi.sourceforge.net/DTD/sodipodi-0.dtd"
   xmlns:inkscape="http://www.inkscape.org/namespaces/inkscape"
   width="1784.4287"
   height="732.45001"
   viewBox="0 0 1427.543 585.96001"
   version="1.1"
   id="svg2"
   inkscape:version="0.48.4 r9939"
   sodipodi:docname="flask-full.svg">
  <metadata
     id="metadata151">
    <rdf:RDF>
      <cc:Work
         rdf:about="">
        <dc:format>image/svg+xml</dc:format>
        <dc:type
           rdf:resource="http://purl.org/dc/dcmitype/StillImage" />
      </cc:Work>
    </rdf:RDF>
  </metadata>
  <defs
     id="defs149" />
  <sodipodi:namedview
     pagecolor="#ffffff"
     bordercolor="#666666"
     borderopacity="1"
     objecttolerance="10"
     gridtolerance="10"
     guidetolerance="10"
     inkscape:pageopacity="0"
     inkscape:pageshadow="2"
     inkscape:window-width="1366"
     inkscape:window-height="705"
     id="namedview147"
     showgrid="false"
     fit-margin-top="10"
     fit-margin-left="10"
     fit-margin-right="10"
     fit-margin-bottom="10"
     inkscape:zoom="0.16426667"
     inkscape:cx="883.46626"
     inkscape:cy="355.575"
     inkscape:window-x="-8"
     inkscape:window-y="-8"
     inkscape:window-maximized="1"
     inkscape:current-layer="svg2" />
  <g
     id="#000000ff"
     transform="translate(-43.226996,8)">
    <path
       d="m 127.36,0 6.32,0 c 4.08,0.7 8.33,1.99 11.24,5.12 3.32,3.31 4.24,8.41 3.26,12.88 -0.79,4.33 -3.6,8.43 -2.53,12.98 0.45,3.34 3.27,5.9 6.49,6.59 9.09,2.09 18.45,-0.96 27.6,0.59 2.38,0.49 5.02,1.61 5.88,4.08 1.35,3.93 -0.34,8 -1.35,11.8 10.94,11.01 27.82,7.8 41.11,13.48 5.02,1.92 7.29,7.2 7.46,12.26 2.87,0.49 5.77,0.96 8.53,1.94 11.04,3.8 18.99,13.81 30.65,16.16 3.72,0.6 7.31,1.78 10.75,3.3 13.38,5.31 27.57,9.25 39.58,17.45 5.51,4.05 11.25,9.19 12.65,16.19 -3.56,2.98 -8.47,3.15 -12.86,2.67 -11.49,-1.52 -21.81,-7.4 -33.15,-9.53 -4.68,-0.93 -10.4,-0.46 -13.41,3.73 -3.47,5.01 -3.99,11.46 -3.44,17.37 1.49,17.03 2.56,34.09 3.72,51.15 2.82,40.51 6.61,81.62 20.74,120 3.15,9.52 6.54,18.99 11.31,27.84 11.39,21.36 27.22,39.87 42.8,58.24 8.93,10.7 18.25,21.17 29.1,29.98 17.47,14.58 37.07,26.35 57.21,36.83 17.34,8.29 35.6,14.57 54.16,19.52 9.83,2.38 19.66,5.1 29.71,6.29 5.35,-3.66 9.3,-9 13.84,-13.58 0.19,0.54 0.57,1.63 0.76,2.17 1.26,0.39 2.53,0.79 3.8,1.19 0.73,-1.36 1.46,-2.72 2.12,-4.11 -1.06,0.15 -3.19,0.45 -4.25,0.6 -0.59,-0.36 -1.17,-0.71 -1.74,-1.06 7.12,-5.91 13.44,-13.69 22.86,-15.91 4.62,-1.32 9.24,0.55 13.21,2.82 -1.07,10.1 -9.76,16.46 -15.18,24.26 -1.07,1.56 -2.33,4.3 -0.13,5.53 6.28,2.82 13.27,1.01 19.81,0.42 10.7,-0.88 20.26,6.21 30.93,5.15 5.36,-0.41 9.22,-4.32 13.21,-7.42 3.11,1.62 5.9,3.96 9.42,4.66 10.37,2.31 21,0.08 31.48,0.2 4.36,0.18 9.66,0.82 12.1,4.99 2.56,4.68 0.77,10.1 -0.28,14.95 -15.79,9.06 -36.52,4.27 -50.9,16.55 -6.08,-2.69 -12.82,-4.15 -19.46,-3.14 -13.94,2.01 -26.49,9.43 -40.52,11.07 -4.38,0.57 -8.83,-0.03 -13.2,0.57 -29.96,5.13 -60.41,7.26 -90.78,6.85 -45.41,-3.49 -91.63,-5.5 -135.34,-19.46 -8.89,-3.19 -18.02,-5.7 -26.75,-9.33 -18.24,-7.41 -35.37,-17.25 -51.94,-27.81 -7.67,-4.45 -14.37,-10.3 -21.38,-15.68 -16.72,-13.03 -33.3,-26.64 -46.44,-43.41 -4.21,-5.77 -8.71,-11.31 -13.13,-16.92 C 130.36,380.51 104.85,332.59 87.08,282 81.45,264.63 77.64,246.76 73.35,229.03 68.41,209 63.3,188.72 53.82,170.27 c -4.04,-9.21 -3.24,-20.23 1.57,-29.01 6.36,-11.86 18.14,-20.24 30.93,-23.94 7.01,-1.98 14.27,-3.97 20.16,-8.44 -5.78,0.46 -11.5,2.09 -16.4,5.24 -3.78,2.32 -9.9,3.95 -12.89,-0.36 -3.02,-5.14 0.01,-11.66 4.3,-15.06 6.06,-5.22 15.02,-3.27 21.38,-7.93 7.22,-4.42 10.04,-14.46 6.32,-22.02 -1.44,-2.51 -5.15,-5.1 -2.68,-8.21 5.68,-7.72 15.7,-10.91 21.21,-18.84 1.45,-2.1 2.15,-4.96 0.85,-7.32 C 126.32,30 121.12,28.44 118.33,24.51 114.98,20.16 111.98,14.43 113.9,8.85 115.95,3.31 122.03,1.03 127.36,0 m -3.11,5.15 c -5.52,4.29 -7.06,14.35 -0.14,18.09 -0.99,-2.05 -2.25,-4 -2.86,-6.22 -0.08,-2.57 2.88,-2.54 4.73,-2.6 4.85,-0.13 9.85,1.53 14.59,0.06 2.56,-1.4 0.55,-4.68 -0.43,-6.52 -2.8,-5.75 -11.28,-7.23 -15.89,-2.81 m 12.57,40.89 c 2.11,-0.25 4.08,-1.02 4.51,-3.37 -1.79,0.7 -3.28,1.92 -4.51,3.37 m 16.32,3.3 c 4.56,0.18 9.43,0.06 13.45,-2.39 l -0.16,-0.92 c -4,-2.57 -12.62,-2.87 -13.29,3.31 m 7.61,22.9 c 3.06,5.11 7.36,9.85 13.01,12.06 2.49,0.69 6.62,0.76 7.38,-2.38 0.22,-3.21 -1.56,-6.19 -1.54,-9.4 2.44,-0.32 4.65,1.19 6.95,1.79 -1.13,-2.06 -2.48,-4.1 -4.55,-5.33 -6.89,-4.48 -15.31,-5.3 -22.72,-8.6 -2.32,3.79 -0.47,8.34 1.47,11.86 m -22.92,5.67 c -3.72,1.33 -7.74,2.32 -10.74,5.05 2.59,0.21 5.27,0.11 7.57,-1.24 8.45,-4.08 17.9,-0.56 26.79,-1.31 -1.87,-2.71 -4.27,-5.18 -7.27,-6.59 -5.61,0.59 -10.99,2.42 -16.35,4.09 m 32.1,12.73 c -4.25,1.32 -8.74,1.58 -12.99,2.9 -11.35,3.31 -22.97,5.63 -34.2,9.36 -1.98,0.61 -3.89,1.51 -5.28,3.09 1.65,0.11 3.37,0.25 4.96,-0.34 10.26,-3.37 20.76,-6.47 31.59,-7.16 7.76,-0.48 16.22,0.88 22.02,6.49 -0.77,-2.87 -2.26,-5.9 -1.28,-8.89 0.34,-1.79 2.71,-1.84 3.83,-0.78 4.62,3.2 5.97,9.31 10.57,12.55 2.19,1.91 5.89,2.72 8.03,0.29 3.72,-4.08 3.72,-10.25 2.11,-15.24 3.4,3.14 6.5,6.94 11.04,8.45 -1.33,-4.34 -4.58,-7.62 -7.17,-11.23 1.3,-1.9 2.9,-3.77 3.21,-6.14 -1.19,-2.31 -4.24,-1.56 -6.32,-1.46 -10.28,1.74 -20.06,5.48 -30.12,8.11 m 37.11,18.33 c -29.07,6.14 -56.69,17.95 -86.14,22.45 -2.8,0.73 -6.62,0.72 -8.2,3.52 2.31,3.72 7.24,4.45 10.6,7 -1.85,1.19 -4.79,1.48 -5.56,3.87 2.07,3.26 6.67,3.75 8.64,7.11 -1.19,2.33 -4.06,3.02 -6.4,3.57 -6.22,-0.93 -12.8,-2.58 -17.68,-6.77 -3.5,-3.01 -3.24,-8.04 -1.96,-12.06 -9.41,1.5 -19.08,3.23 -27.4,8.17 -4.35,2.59 -8.3,6.5 -9.43,11.6 -1.24,5.67 0.9,11.4 3.75,16.24 1.49,2.42 2.87,5.13 5.49,6.52 -0.66,-7.03 -1.51,-14.24 0.23,-21.19 1.01,-4 3.2,-8.07 7.11,-9.85 4.19,-2.01 8.97,-0.92 13.26,0.14 -3.56,1.73 -9.14,2.88 -9.24,7.79 0.62,5.23 5.1,8.89 9.25,11.56 3.94,2.28 8.78,4.59 13.36,2.98 3.41,-1.7 2.38,-6.06 2.45,-9.14 6.69,0.7 13.22,-2.64 19.81,-1.55 0.82,2.26 -0.87,4.46 -1.43,6.58 19.72,-2.23 35.11,-16.52 54.06,-21.14 6.38,-1.78 13.03,-0.31 19.49,-1.5 17.36,-2.33 34.94,-4.39 51.56,-10.21 4.33,-1.68 9.1,-1.77 13.35,-3.69 6.8,-2.98 12.99,-8.03 16.14,-14.87 1.96,-4.15 1.95,-9.56 -1.24,-13.11 -24.74,-2.48 -49.61,1.3 -73.87,5.98 m 107.16,11.78 c 0.78,4.83 6.57,5.5 9.6,8.46 1.33,1.35 1.78,3.96 4.07,3.92 1.09,-2.08 1.38,-4.76 -0.09,-6.73 -3.09,-4.19 -8.58,-5.71 -13.58,-5.65 m -64.27,25.7 c -11.87,1.19 -24.1,2.72 -34.97,7.93 3.7,2.27 8.1,3.85 10.68,7.55 -8.12,-0.19 -15.77,-3.26 -23.67,-4.73 -0.59,3.44 -2,7.74 -6.08,8.18 -5.93,0.78 -11.9,-0.49 -17.8,-1.04 2.23,1.08 6.16,1.48 6.11,4.67 -0.95,3.45 -4.35,5.38 -7.23,7.08 -5.9,3.02 -12.9,5.2 -19.48,3.22 -3.46,-1.83 -6.87,2.4 -6.64,5.7 0.68,7.45 7.37,12.7 8.35,20.05 0.2,1.97 -1.61,3.19 -2.58,4.67 -1.08,1.2 -1.64,3.22 -3.53,3.36 -5.18,1.08 -11.08,0.08 -15.63,3.27 -3.09,2.21 -3.29,6.25 -3.37,9.69 -1.9,-0.05 -4.15,-1.09 -5.77,0.37 -1.5,1.87 -0.91,4.49 -0.29,6.59 1.14,3.38 3.13,6.83 6.44,8.45 2.05,1.07 3.95,-0.64 5.63,-1.6 6.23,1.9 12.97,4.69 16.25,10.72 3.71,6.9 1.81,14.97 1.85,22.42 -0.24,1.75 0.37,3.93 -1.01,5.32 -2.28,1.16 -4.37,-1.16 -5.67,-2.77 -2.83,-4.01 -5.43,-9.12 -3.97,-14.13 0.94,-2.85 4.24,-3.17 6.74,-3.59 -2.75,-3.82 -5,-8.48 -9.38,-10.68 -2.67,-1.33 -5.23,0.89 -6.89,2.79 -3.05,3.56 -5.88,7.32 -9.35,10.51 5.03,4.5 12.24,7.16 15.14,13.63 1.24,3.88 -3.05,5.83 -5.89,7.07 4.15,0.89 8.38,2.38 11.39,5.52 4.67,4.79 6.3,11.51 8.12,17.74 0.47,3.21 2.96,6.5 6.45,6.39 3.33,-0.93 4.55,-5.43 8.12,-5.86 1.63,0.21 3.13,0.9 4.68,1.41 -4.39,-4.9 -9.56,-9 -14.22,-13.62 0.02,-0.78 0.06,-2.36 0.09,-3.14 -0.36,0.55 -1.07,1.64 -1.42,2.19 -2.55,-2.8 -6.28,-5.14 -6.75,-9.22 3.47,-0.27 6.91,0.27 10.29,1 -0.18,-5.54 -1.51,-11 -1.39,-16.54 -0.02,-2.56 2.39,-3.65 4.56,-4.01 0.81,-0.81 1.63,-1.61 2.46,-2.41 -0.17,6.82 -1.91,13.57 -1.41,20.42 0.17,1.6 0.78,4.32 2.98,3.81 5.22,-2.06 8.4,-7.03 12.52,-10.54 3.16,-1.03 5.14,2.57 6.7,4.71 2.81,4.64 7.97,8.22 8.28,14.06 0.17,2.5 -2.06,4.47 -4.43,4.64 -5.69,0.56 -10.72,-2.64 -15.63,-5 1.9,4.74 6.06,7.89 9.86,11.05 5.3,4.37 11.54,9.68 11.19,17.24 -0.75,4.82 0.84,9.92 4.25,13.41 3.06,2.83 7.36,0.57 10.76,-0.25 0.99,2.63 1.63,5.55 3.65,7.65 3.2,-2.48 2.38,-7.33 3.1,-10.92 4.77,1.29 9.93,2.88 13.01,7.04 3.6,4.65 3.62,11.05 7.17,15.72 0.78,0.21 2.34,0.63 3.12,0.84 0.09,-8.26 -5.85,-14.85 -7.66,-22.64 3.54,2.58 6.07,6.22 9.2,9.24 4.09,4 8.33,8.24 10.3,13.75 1.09,2.91 0.75,6.56 -1.72,8.69 -4.32,3.74 -10.4,3.76 -15.8,3.78 7.34,4.09 12.18,11.56 19.89,15.07 3.64,1.82 8.24,0.65 11.48,3.39 5.41,3.95 9.91,9.54 11.67,16.08 0.92,2.83 0.27,6.93 -3.07,7.75 -6.12,1.09 -12.07,-1.93 -16.88,-5.44 -6.47,-3.65 -13.39,-7.27 -20.94,-7.68 5.32,6.44 13.54,9.35 20.94,12.71 12.65,5.64 25.41,11.04 37.81,17.21 9.45,4.85 19.18,9.6 26.9,17.06 7.65,6.6 13.35,15.15 21.29,21.42 -8.17,2.62 -17.36,2.07 -25.09,-1.69 -1.51,-0.91 -3.86,-2.16 -3.38,-4.25 1.5,-2.33 4.56,-2.56 6.92,-3.48 -5.07,-1.08 -10.08,-2.53 -15.24,-3.14 -1.59,-0.17 -3.87,-0.37 -4.37,1.65 1.37,5.28 5.06,10.24 10.35,12.1 11.71,4.69 24.54,4.53 36.91,5.63 -1.59,3.48 -4.07,6.41 -6.25,9.52 2.04,0.45 4.1,0.77 6.18,1.04 -1.93,1.29 -3.73,2.78 -4.88,4.83 3.28,2.69 7.38,4.05 10.82,6.52 2.99,-1.46 6.63,-3 9.82,-1.15 4.92,2.79 6.02,9.19 10.6,12.34 3.67,1.84 7.26,-1.39 9.72,-3.82 2.78,-3.24 6.12,-5.93 9.9,-7.91 -2.37,4 -6.09,7.05 -8.11,11.27 7.03,-2.02 12.55,-7.98 20.17,-8.34 16.65,-1.32 31.49,7.83 46.42,13.76 4.59,2.34 9.93,1.62 14.7,3.38 7.23,2.14 14.84,5.71 22.48,3.48 3.11,-1.27 6.78,-1.84 9.08,-4.51 -10.44,-5.33 -22.69,-5.47 -33.27,-10.5 -1.55,-0.79 -3.14,-1.82 -3.77,-3.53 0.46,-1.49 1.51,-2.67 2.41,-3.9 -10.89,3.6 -23.11,0.65 -32.22,-5.97 -6.26,-4.25 -11.05,-10.14 -16.12,-15.64 -16.22,-4.28 -32.38,-10.03 -46.15,-19.86 -8.28,-6.09 -16.22,-13.6 -20.21,-23.25 0.53,-0.47 1.59,-1.41 2.13,-1.88 -2.17,-4.55 -5.88,-8.04 -9.46,-11.47 -11.33,-11.19 -18.83,-25.4 -27.18,-38.78 -2.39,-2.9 -5.94,-4.66 -8.06,-7.83 -1.9,-2.03 -2.99,-5.13 -5.57,-6.33 -1.37,3.4 -1.21,7.16 -1.55,10.76 -0.59,-5.54 -2.64,-10.94 -6.34,-15.15 -2.92,-3.36 -7.06,-6.68 -11.83,-5.49 0.57,-2.25 0.72,-4.77 2.25,-6.63 1.8,-2.14 4.35,-3.39 6.66,-4.88 -0.63,-3.08 -3.76,-4.8 -4.38,-7.84 -2.6,-13.58 -7.91,-26.45 -10.79,-39.96 -1.09,-6.45 -2.95,-12.74 -3.91,-19.21 -0.44,-1.45 -0.75,-4.35 -2.93,-3.47 -4.53,3.24 -6.88,8.6 -8.69,13.7 0,-5.85 0.36,-12.04 3.07,-17.33 1.33,-2.51 2.94,0.47 4.33,1.29 1.67,-2.91 3.63,-6.31 2.72,-9.78 -0.89,-2.65 -4.16,-1.93 -6.25,-1.69 2.75,-7.01 4.1,-14.94 2.18,-22.32 -0.28,-1.99 -2.29,-2.05 -3.81,-1.48 2.11,-11.68 2.96,-23.7 1.5,-35.51 -0.5,-3.19 -1.59,-8.1 -5.94,-7.14 3.52,-11.56 5.09,-23.87 3.96,-35.92 -0.75,-4.62 -1.75,-10.73 -6.74,-12.59 -4.46,-1.3 -7.96,2.3 -11.69,3.93 m -93.14,23.43 c 0.74,2.09 2.88,1.19 3.91,-0.08 -0.24,-0.46 -0.73,-1.39 -0.97,-1.86 -1.02,0.59 -2.12,1.08 -2.94,1.94 m -75.78,5.17 c 1.35,0.95 2.74,1.84 4.15,2.7 1.45,-1.24 2.68,-2.72 3.1,-4.63 -2.57,-0.06 -5.12,0.41 -7.25,1.93 m 43.63,11.22 c 4.15,4.33 11.05,4 15.55,7.9 -3.43,0.13 -6.83,-0.59 -10.24,-0.39 -1.15,0.68 -0.67,2.37 0.36,2.9 5.01,4.07 12.91,1.97 16.62,-2.83 2.22,-2.97 -1.11,-5.96 -3.98,-6.4 -6.02,-1.12 -12.21,-1.02 -18.31,-1.18 m -18.9,10.66 c 1.03,2.41 3.62,3.46 5.64,4.89 2.32,-1.53 4.49,-3.34 5.63,-5.96 -3.09,-2.46 -9.68,-3.19 -11.27,1.07 m 13.9,6.03 c 1.2,1.8 3.48,2.09 5.44,2.38 0.48,-1.07 0.85,-2.17 1.11,-3.32 -2.22,-0.15 -4.63,-0.48 -6.55,0.94 m 25.56,-0.86 c -1.26,0.93 -0.15,3.84 1.44,2.64 1.3,-0.91 0.11,-3.79 -1.44,-2.64 m -62.31,6.11 c -0.24,-1.57 -0.54,-3.13 -0.95,-4.65 -1.98,1.65 -1.31,3.81 0.95,4.65 m 30.57,0.58 c 0.69,1.9 3.22,0.89 4.73,1.33 -0.5,-1.51 0.39,-4.58 -2.12,-4.17 -1.24,0.5 -2.24,1.55 -2.61,2.84 m -37.16,0.5 c -1.46,0.18 -1.52,2.8 -0.02,2.99 1.54,-0.12 1.53,-2.85 0.02,-2.99 m 28.33,11.6 c 2.98,2.56 6.48,4.62 10.33,5.54 1.16,-0.72 2.26,-1.53 3.28,-2.43 -3.5,-3.3 -9.06,-4.81 -13.61,-3.11 m -18.01,12.14 c 0.58,3.36 3.96,4.95 6.87,5.88 -0.86,-3.23 -1.24,-7.13 -4,-9.39 -2.13,-1.34 -3.45,1.8 -2.87,3.51 m 19.67,0.61 c 2.52,2.55 6.39,2.73 9.73,3.3 -0.74,-3.13 -2.18,-7.06 -5.97,-7.28 -2.09,-0.41 -5.54,1.67 -3.76,3.98 m -1.95,5.35 c 1.86,2.74 5.23,3.52 8.18,4.48 -0.88,-3.69 -4.88,-4.64 -8.18,-4.48 m 16.66,9.12 c -0.51,1.65 0.04,2.19 1.66,1.62 0.49,-1.64 -0.06,-2.18 -1.66,-1.62 m -26.7,2.45 c 0.85,7.32 4.55,13.84 6.2,20.95 1.21,4.88 3.34,10.16 8.26,12.32 -0.36,-10.99 -5.79,-21.06 -10.93,-30.51 -0.91,-0.98 -1.9,-4.35 -3.53,-2.76 m -6.49,4.79 c 1.09,6.61 3.79,12.87 7.19,18.61 6.02,11.36 9.55,23.9 16.01,35.05 3.15,5.2 6.97,10.25 12.23,13.48 -1.85,-3.67 -4.24,-7.05 -5.9,-10.82 -3.96,-8.36 -5.29,-17.8 -10.18,-25.74 -1.68,-3 -4.34,-5.43 -5.37,-8.78 -1.9,-5.65 -4.72,-10.94 -8.01,-15.89 -1.61,-2.3 -3.21,-4.89 -5.97,-5.91 m 42.73,19.84 c -0.08,1.89 4.55,1.84 4.18,-0.25 -1.15,-0.95 -3.08,-0.64 -4.18,0.25 m 3.16,13.28 c 1.31,1.75 3.43,2.39 5.38,3.14 1.73,-0.93 3.44,-1.88 5.12,-2.89 -3.15,-2.2 -7.09,-1.08 -10.5,-0.25 m 35.36,3.48 c 0.48,1.36 2.3,1.22 3.42,1.81 -0.32,-1.77 -0.26,-3.76 -1.54,-5.17 -1.34,0.32 -2.92,1.97 -1.88,3.36 m 19.27,-1.76 c -0.98,1.48 1.58,2.95 2.64,1.73 0.99,-1.48 -1.61,-3 -2.64,-1.73 m -5.86,15.45 c 1.89,4.27 4.98,8.38 4.79,13.25 -0.26,2.03 -2.65,2.49 -4.32,2.17 -7.46,-1.18 -13.59,-6.36 -21.05,-7.55 -1.7,-0.4 -4.17,0.28 -3.91,2.46 0.47,4.04 3.02,7.41 5.54,10.44 -0.35,0.41 -1.05,1.23 -1.4,1.63 2.78,1.66 5.73,3.01 8.75,4.15 10.29,3.81 19.52,9.86 29.52,14.29 2.1,1.02 4.43,1.29 6.73,1.45 -0.21,-4.44 -3.17,-7.97 -5.56,-11.46 -1.7,-2.68 -5.03,-3.71 -6.63,-6.44 -3.92,-6.99 -2.85,-15.58 -6.45,-22.64 -1.13,-2.33 -3.9,-1.91 -6.01,-1.75 m -76.59,3.9 c 1.76,7.74 5.52,14.83 8.52,22.14 8.9,19.15 21.32,36.31 33.1,53.74 3.77,5.66 7.93,11.07 11.02,17.15 10.79,19.53 23.43,38.85 41.69,52.19 9.92,6.25 15.4,18.12 26.66,22.5 4.49,1.41 9.24,3.83 14.01,2.24 -0.46,-2.1 -1.08,-4.25 -2.62,-5.84 -5.19,-5.85 -11.98,-11.17 -20.06,-11.77 -3.33,-4.99 -8.43,-8.36 -12.03,-13.08 -1.96,-2.05 0.04,-4.32 1.73,-5.62 -3.26,0.74 -6.88,0.73 -9.7,-1.27 -6.62,-4.5 -8.06,-13.21 -13.58,-18.6 -5.37,-0.24 -10.61,-2.87 -13.34,-7.64 -4.32,-7.57 -4.75,-16.88 -10.01,-24.02 -2.6,-4.04 -6.59,-6.76 -10.35,-9.59 -1.47,-3.14 -2.26,-6.66 -4.39,-9.48 -8.18,-11.84 -19.64,-21.66 -24.68,-35.48 -2.02,-5.96 -4.63,-11.72 -7.9,-17.11 -2.35,-3.71 -4.36,-7.89 -8.07,-10.46 M 156.02,335 c 1.61,0.63 4.86,2.94 5.36,-0.08 -0.33,-2.71 -3.99,-0.72 -5.36,0.08 m 0.9,15.08 c 0.82,4.16 5.43,5.8 8.71,7.66 -1.31,-3.96 -4.63,-6.86 -8.71,-7.66 m 72.43,2.76 c 2.22,2.57 5.69,3.18 8.79,4.06 -0.55,-1.89 -0.92,-4.2 -2.92,-5.14 -1.84,-0.95 -4.93,-1.2 -5.87,1.08 m -32.88,1.85 c 0.84,2.65 2.91,4.55 4.8,6.49 -2.9,-1.28 -5.87,-2.39 -8.97,-3.03 0.41,1.98 0.94,3.95 1.57,5.88 -2.59,-0.32 -5.19,-0.6 -7.79,-0.63 2.55,4.33 7.71,6.44 9.7,11.14 -2.03,-0.07 -4.04,-0.23 -6.06,-0.38 5.49,4.87 12.27,8.55 16.58,14.57 -4.56,-1.36 -8.56,-4.03 -13.05,-5.58 0.61,3.52 3.92,5.27 6.71,6.9 6.94,3.81 14.51,6.48 20.95,11.19 5.44,3.12 10.81,7.13 17.21,7.84 -2.33,-3.01 -5.39,-5.29 -8.22,-7.79 0.52,-1.65 1.77,-3.4 0.84,-5.14 -2.04,-4.19 -7.03,-5.92 -9.1,-10.07 0.33,-1.01 0.69,-2.01 1.1,-2.98 -4.09,-2.62 -8.39,-4.98 -11.92,-8.37 3.24,-1.12 6.68,-0.68 10.03,-0.73 -2.59,-1.96 -7.51,-2.88 -7.71,-6.67 2.92,-2.68 7.28,-2.86 10.28,-5.46 -0.46,-1.77 -2.82,-1.55 -4.17,-2.2 -7.56,-1.76 -14.88,-5.25 -22.78,-4.98 m -25.91,7.07 c 2.98,3.68 7.57,5.36 11.8,7.14 -2.65,-3.9 -6.86,-7.26 -11.8,-7.14 m -13.83,8.17 c 1.97,3.49 5.19,6.04 8.53,8.14 -1.83,-3.58 -4.69,-6.72 -8.53,-8.14 m 100.43,27.11 c -1.29,1.96 1.64,2.17 2.79,2.74 0.14,-1.64 -0.73,-3.99 -2.79,-2.74 m 11.28,6.43 c -0.14,2.05 1.91,2.68 3.45,3.33 -0.34,-1.57 -1.39,-4.52 -3.45,-3.33 m -56.56,6.08 c 2.35,3.08 6.92,3.46 10.52,3.26 -2.08,-3.45 -7.03,-2.57 -10.52,-3.26 m 31.24,2 c 1.38,1.97 2.92,4.11 5.37,4.79 3.91,1.25 7.88,2.51 12,2.77 -4.87,-4.09 -11.07,-6.74 -17.37,-7.56 m -29.99,2.68 c -1.61,1.66 2.21,3.7 2.89,1.68 0.19,-1.43 -1.74,-2.7 -2.89,-1.68 m 12.87,0.15 c 2.03,1.77 4.46,2.95 6.91,4.02 0.77,-0.23 2.32,-0.69 3.09,-0.91 -2.81,-2.32 -6.47,-2.93 -10,-3.11 m -9.49,6.25 c -2.45,0.5 -2.25,3.26 -0.86,4.79 2.18,2.76 4.72,5.82 8.37,6.5 3.85,0.81 7.08,3.34 10.98,3.97 5.96,1.14 12.26,1.21 18.13,-0.47 1.53,-0.59 4.13,-1.25 3.81,-3.41 -2.84,-3.52 -7.84,-3.65 -11.79,-5.24 -9,-3.71 -18.76,-7.57 -28.64,-6.14 m 39.34,2.64 c 2.56,4.42 7.77,6.09 11.03,9.9 5.76,3.48 13.06,5.63 19.75,3.84 -2.46,-4.4 -8.13,-3.53 -11.99,-5.69 -5.63,-3.88 -11.83,-7.5 -18.79,-8.05 m 15.95,1.55 c 2.93,1.19 6.04,1.97 8.8,3.57 5.22,3.1 11.38,4 17.35,4.35 1.91,-0.05 4.34,0.45 5.61,-1.41 -3.94,-1.44 -8.13,-1.92 -12.17,-2.93 -2.76,-1.41 -5.19,-3.57 -8.36,-4.03 -3.67,-0.6 -7.87,-1.71 -11.23,0.45 m 98.5,9.52 c -1.59,0.63 -3,2.53 -1.92,4.19 1.45,0.16 2.92,0.12 4.39,0.14 -0.6,-1.47 -0.32,-4.31 -2.47,-4.33 m -138.66,7.85 c 1.85,2.27 4.9,2.74 7.56,3.52 -1.77,-2.4 -4.72,-3.24 -7.56,-3.52 m 43.62,-0.78 c 3.61,5.23 10.42,7.3 16.54,6.59 -4.39,-4.18 -10.66,-5.91 -16.54,-6.59 m -15.9,3.4 c 1.56,0.32 3.14,0.6 4.72,0.83 -1.05,-1.61 -3.64,-3.61 -4.72,-0.83 m 120.31,2.11 c 0.38,2.86 3.62,2.59 5.73,3.07 -0.65,-2.65 -3.22,-3.68 -5.73,-3.07 m 11.19,6.66 c -0.44,1.39 0.05,1.86 1.49,1.43 0.4,-1.38 -0.09,-1.86 -1.49,-1.43 m -116.65,1.96 c 1.12,2.14 2.57,4.25 4.81,5.34 4.89,2.43 10.24,4.28 15.76,4.22 -2.91,-3.36 -7.12,-5.05 -11.04,-6.92 -3,-1.42 -6.19,-2.53 -9.53,-2.64 m 17.48,2.16 c 2.09,0.84 4.25,1.5 6.43,2.07 0.46,-3.85 -4.35,-4.57 -6.43,-2.07 m -27.22,2.09 c -0.31,0.1 -0.92,0.31 -1.23,0.42 l -0.05,0.73 c 2.21,1.15 6.23,3.63 7.49,0.08 -1.68,-1.52 -4.1,-1.67 -6.21,-1.23 m 301.65,15.68 c 0.02,-1.73 0,-3.46 -0.05,-5.18 -3.08,0.61 -3.85,5.24 0.05,5.18 m -307.76,2.48 c 3.39,1.14 7.56,0.87 9.06,-2.92 -3.19,0.12 -6.81,0.31 -9.06,2.92 m 29.16,-1.97 c 2.77,2.02 6.97,3.68 9.57,0.58 -3.06,-1.19 -6.39,-1.37 -9.57,-0.58 m 14.88,4.1 c 2.16,2.63 5.81,2.92 8.85,3.93 0.18,-1.47 0.77,-3.46 -0.93,-4.3 -2.41,-1.27 -5.72,-1.41 -7.92,0.37 m -27.38,3.5 c -1.29,0.81 0.17,2.83 1.34,1.86 1.23,-0.82 -0.17,-2.81 -1.34,-1.86 m 62.31,1.33 c 1.12,0.49 2.27,0.93 3.44,1.33 3.03,1.26 6.16,-1.01 8.05,-3.25 -3.85,-0.47 -8.39,-0.89 -11.49,1.92 m -79.5,3.12 c 0.23,1.53 3.15,2 3.44,0.29 -0.28,-1.48 -3.11,-1.93 -3.44,-0.29 m 191.59,2.4 c -1.37,2.31 3.09,2.36 3.28,0.32 -0.14,-1.6 -2.56,-1.32 -3.28,-0.32 m -178.96,4.9 c 0.84,-0.19 2.5,-0.57 3.33,-0.77 -0.42,-0.97 -0.83,-1.95 -1.23,-2.92 -1.19,0.93 -1.85,2.21 -2.1,3.69 m -8.94,-0.41 c 1.25,1.56 2.74,2.92 4.46,3.97 7.28,4.64 14.92,8.71 22.67,12.53 5.45,2.82 11.68,4.23 16.35,8.42 -8.12,-1.59 -15.44,-5.63 -23.04,-8.72 -8.94,-3.62 -16.56,-10.06 -25.94,-12.63 2.11,2.87 5.37,4.43 8.33,6.25 6.81,3.97 13.55,8.14 20.91,11.03 22.83,9.92 46.03,20.03 70.87,23.6 22.96,3.38 45.88,7.08 68.98,9.43 23.61,2.2 47.69,2.95 71.03,-1.91 -17.83,-7.95 -37.64,1.24 -55.9,-4.2 -2.69,-0.67 -5.25,-2.64 -8.12,-1.93 -23.46,4.21 -47.05,-1.33 -70.27,-4.46 -7.25,-1.24 -13.58,-5.36 -20.5,-7.66 -22.28,-8.94 -45.2,-16.78 -65.88,-29.17 -4.3,-2.4 -9.08,-3.91 -13.95,-4.55 m 25.1,4.05 c 1.31,1.24 2.96,1.98 4.53,2.85 0.73,-1.45 1.36,-2.93 1.83,-4.48 -2.11,-0.28 -5.86,-1.41 -6.36,1.63 m 134.93,6.59 c -4.17,3.2 -10.22,6.33 -9.52,12.54 3.5,0.04 5.96,-2.66 8.79,-4.29 1.01,1.98 1.41,4.42 3.12,5.95 3.23,-0.66 5.2,-3.63 7.51,-5.72 -0.31,-3.52 0.39,-7.59 -1.77,-10.61 -2.76,-1.78 -5.79,0.73 -8.13,2.13 m -14.57,4.49 c 3.65,-0.09 6.6,-2.43 8.53,-5.36 -3.25,1.04 -6.07,3.02 -8.53,5.36 m -6.43,-2.04 c -1.24,0.17 -2.18,2.87 -0.44,2.9 1.35,-0.12 2.27,-2.92 0.44,-2.9 m 42.8,0.53 c -3.26,0.84 -6.69,2.34 -8.62,5.24 -1.23,1.76 0.04,3.86 1.51,4.98 3.13,-1.52 5.85,-3.76 8.47,-6.01 1.14,-1.21 3.09,-2.62 2.03,-4.47 -1.15,-0.05 -2.27,0.04 -3.39,0.26 m 76.09,6.23 c 3.46,0.45 6.95,0.86 10.45,0.62 12.77,-1.15 25.44,2.4 38.21,1.35 3.57,-0.23 7.12,-1.6 9.28,-4.58 -15.14,-1.14 -30.07,-4.86 -45.31,-4.46 -4.9,0.2 -11.39,1.41 -12.63,7.07 M 616.76,513 c 1.25,-0.21 2.51,-0.42 3.77,-0.64 -0.18,-1.26 -0.4,-2.53 -0.6,-3.77 -1.97,0.69 -2.75,2.51 -3.17,4.41 m -29.99,2.01 c 0.61,0.02 1.83,0.06 2.45,0.08 2.13,-0.21 1.13,-2.99 1.71,-4.35 -2.41,0.2 -3.67,2.1 -4.16,4.27 m 42.7,-1.84 c 2.48,2.45 6.21,2.67 9.49,2.54 6.41,-0.29 12.83,-0.86 19.15,-2.01 1.39,-0.21 2.63,-0.9 3.88,-1.53 -10.78,-1.54 -21.82,-0.75 -32.52,1 m -315.9,1.85 c 1.81,2.13 4.64,2.46 7.24,2.82 -0.21,-1.18 0.49,-3.08 -1.11,-3.49 -2.03,-0.85 -4.16,0.12 -6.13,0.67 m 137.91,7.64 c 3.68,-1.21 7.07,-3.55 8.9,-7.03 -4.41,-0.98 -8.81,2.51 -8.9,7.03 m -71.4,-0.71 c 2.46,-0.89 4.9,-2.27 4.02,-5.34 -2.55,0.61 -3.69,2.95 -4.02,5.34 m 57.99,-0.88 c -0.83,0.58 -1.64,2.88 -0.03,2.89 4.44,1.7 7.23,-3.72 8.26,-7.24 -3.08,0.65 -6.07,2 -8.23,4.35 m -46.86,-1.62 c -1.57,0.96 0.14,3.47 1.59,2.26 1.56,-0.98 -0.14,-3.5 -1.59,-2.26 m 74.47,6.31 c 3.65,-0.52 6.97,-2.53 8.66,-5.88 -3.22,1.33 -6.89,2.64 -8.66,5.88 m -133.29,-5.05 c 8.68,5.51 18.59,8.74 28.63,10.75 6.32,1.19 12.75,2.66 19.22,1.95 -3.73,-4.05 -9.53,-5.43 -14.82,-6.09 -11.11,-1.65 -21.8,-5.78 -33.03,-6.61 m 123.92,5.18 c 0.65,0.48 1.95,1.45 2.6,1.93 1.94,-2 4.44,-3.78 5.06,-6.67 -3.05,0.63 -5.93,2.05 -7.66,4.74 m 16.95,0.45 c -1.16,0.97 -1.74,3.91 0.5,3.72 3.76,-2.18 7.45,-4.82 9.95,-8.45 -3.96,0.05 -7.68,1.98 -10.45,4.73 m -34.04,2.16 c -0.55,1.56 0.04,2.05 1.76,1.47 0.5,-1.58 -0.09,-2.07 -1.76,-1.47 m 62.54,17.84 c 1.37,0.9 2.83,1.62 4.33,2.3 1.02,-1.12 2.06,-2.23 3.08,-3.36 -2.55,-0.58 -5.09,-0.04 -7.41,1.06 z"
       id="path5"
       inkscape:connector-curvature="0"
       style="fill:#000000" />
    <path
       d="m 1279.36,32.41 c 3.52,-1.89 8.42,-0.76 10.56,2.68 1.87,2.94 1.87,6.57 1.92,9.94 -0.89,69.33 -0.07,138.66 -0.02,207.98 0.18,2.6 -0.34,6.95 3.15,7.48 4.33,-0.54 7.67,-3.71 11.01,-6.25 15.9,-12.78 31.63,-25.78 46.92,-39.29 2.66,-2.92 6.95,-7.63 3.66,-11.53 -5.6,-5.02 -13.69,-4.38 -20.46,-6.56 -7.07,-2.44 -5.45,-16.43 2.85,-15.05 30.88,3.63 62.03,2.22 93.04,2.87 7.73,-0.23 9.31,12.13 2.86,15.13 -5.91,2.72 -12.7,1.62 -18.93,3.06 -25.69,4.41 -47.07,21 -65.37,38.64 -1.86,2.08 -5.31,4.04 -4.35,7.31 1.9,5.9 5.6,11.01 8.89,16.2 12.35,18.56 25.67,36.59 41.15,52.7 9.41,9.53 19.48,19.39 32.55,23.57 6.71,2.28 13.91,1.09 20.78,2.39 2.25,0.27 3.65,2.29 3.98,4.4 0.56,3.24 0.83,7.2 -1.7,9.71 -2.85,2.72 -7.06,2.84 -10.75,3.02 -14.69,0.45 -29.38,1.2 -43.99,2.7 -5.14,0.72 -11.01,-0.07 -14.62,-4.15 -22.66,-24.47 -43.11,-51.06 -60.16,-79.74 -1.43,-2.3 -3.19,-5.33 -6.33,-5.07 -5.63,0.87 -10.07,4.8 -14.78,7.68 -4.85,2.95 -8.73,7.91 -9.19,13.7 -0.4,6.67 0.17,13.35 0.16,20.03 0.27,7.22 0.08,15.2 4.53,21.32 3.55,4.62 9.78,5.38 15.12,6.45 5.88,1.26 12.34,0.8 17.72,3.83 3.77,2.27 3.63,7.51 2.16,11.12 -1.63,2.53 -5.19,1.51 -7.7,1.67 -25.98,-1.73 -52,0.22 -77.92,2.08 -4.84,0.17 -9.99,0.96 -14.57,-0.99 -2.45,-1.11 -2.48,-4.17 -2.5,-6.45 -0.24,-3.96 3.05,-6.91 6.34,-8.45 4.87,-2.43 11.19,-2.74 14.57,-7.53 5.35,-7.49 5.51,-17.19 5.66,-26.04 -0.03,-67.31 0.08,-134.62 -0.05,-201.94 -0.43,-8.8 -0.19,-18.51 -5.35,-26.09 -4.89,-6.45 -12.64,-9.53 -19.97,-12.24 -3.29,-1.21 -7.32,-3.5 -6.9,-7.6 0.66,-5.56 6.43,-7.96 11.02,-9.68 10.21,-3.56 20.11,-8.06 29.3,-13.78 5.23,-3.08 10.16,-6.72 15.71,-9.23 z"
       id="path7"
       inkscape:connector-curvature="0"
       style="fill:#000000" />
    <path
       d="m 756.47,33.63 c 3.47,-1.39 7.94,-0.04 9.54,3.47 2.05,4.32 1.33,9.25 1.22,13.87 -1.28,25.98 -1.24,52 -1.06,78.01 0.26,58.66 0.52,117.33 0.79,176 0.14,7.06 -0.35,14.21 0.97,21.2 1.15,6.3 5.21,12.11 11.18,14.69 7.38,3.91 15.92,4 23.8,6.22 5.66,1.5 6.48,9.61 2.31,13.09 -2.94,2.17 -6.8,1.43 -10.18,1.31 -25.66,-2.15 -51.43,-0.75 -77.05,1.11 -3.55,-0.03 -7.48,1.01 -10.75,-0.75 -2.05,-2.65 -2.49,-6.73 -1.19,-9.8 4.16,-6 12.62,-5.55 17.82,-10.19 5.46,-4.97 6.42,-12.86 6.46,-19.84 0,-68.34 0,-136.67 0,-205.01 -0.11,-9.1 -0.44,-18.55 -4.23,-26.99 -3.25,-6.93 -9.92,-11.45 -16.78,-14.32 -3.13,-1.44 -6.73,-2.35 -9.08,-5.02 -2.11,-2.54 -1.41,-6.43 0.64,-8.79 2.6,-3.06 6.6,-4.27 10.22,-5.68 10.23,-3.5 19.9,-8.44 29.09,-14.1 5.3,-3.05 10.5,-6.39 16.28,-8.48 z"
       id="path9"
       inkscape:connector-curvature="0"
       style="fill:#000000" />
    <path
       d="m 453.45,57.56 c 1.81,-0.62 3.77,-0.35 5.64,-0.2 23.49,3.36 47.28,2.92 70.94,3.18 32.98,0 65.96,-0.39 98.9,-1.99 8.33,-0.26 16.67,-1.27 25.01,-0.67 1.71,0.3 4.17,0.22 5.01,2.11 -0.15,3.73 -1.32,7.31 -1.83,10.99 -1.99,13.24 -2.6,26.63 -3.01,39.99 -0.26,2.54 0.05,5.38 -1.36,7.63 -2.01,2.76 -5.99,2.57 -8.89,1.57 -4.42,-1.69 -5.63,-6.72 -7.48,-10.58 -3.92,-8.45 -8.16,-17.57 -16.3,-22.74 -7.11,-4.69 -15.85,-5.3 -24.09,-5.9 -14.99,-0.85 -30.01,-1.01 -45.02,-1.07 -7.89,0.17 -16.04,-0.8 -23.7,1.56 -3.35,0.8 -4.24,4.51 -4.18,7.5 -0.07,34.01 0.01,68.02 -0.04,102.03 0.07,2.27 -0.13,5.5 2.52,6.45 3.68,1.27 7.68,0.46 11.5,0.49 17.03,-0.38 34.02,-1.5 51.02,-2.49 4.3,-0.39 9.3,-1.67 11.4,-5.86 3.06,-6.67 3.48,-14.13 5.08,-21.2 0.6,-2.76 2.54,-5.43 5.47,-5.94 3.47,-0.45 7.27,0.31 10.13,2.39 1.9,1.44 1.68,4.01 1.28,6.09 -5.11,26.36 -4.91,53.37 -3.97,80.09 0.47,5.5 -6.25,6.97 -10.43,6.12 -3.65,-0.86 -4.67,-4.92 -5.45,-8.06 -2.13,-8.92 -4.98,-18.39 -11.99,-24.75 -3.41,-3.14 -8.03,-4.47 -12.57,-4.77 -16.28,-1.5 -32.65,-1.57 -48.99,-1.65 -2.03,-0.13 -5.19,0.36 -4.91,3.06 -0.19,33.67 -0.01,67.35 -0.09,101.03 -0.06,4.68 0.36,9.76 3.39,13.56 2.41,3.2 6.26,4.75 9.97,5.89 7.66,2.23 15.6,3.25 23.49,4.33 2.66,0.41 5.49,0.84 7.69,2.53 3.74,2.74 3.54,9.56 -0.82,11.6 -6.12,3.01 -13.21,1.85 -19.77,1.57 -28.6,-2.05 -57.45,-3.13 -85.96,0.56 -3.1,0.35 -6.95,0.59 -9.07,-2.18 -2.32,-3.28 -2.44,-9.08 1.71,-10.96 4.11,-1.87 8.85,-1.5 12.98,-3.33 6.64,-2.63 11.04,-8.98 13.06,-15.62 2.71,-8.34 2.97,-17.2 2.99,-25.89 -0.01,-63.02 -0.01,-126.03 0,-189.04 0.01,-9.02 -0.39,-18.62 -5.23,-26.53 -4.94,-7.33 -13.04,-11.56 -20.77,-15.32 -3.22,-1.56 -6.71,-4.15 -6.76,-8.08 0.18,-2.71 0.89,-6.1 3.5,-7.5 z"
       id="path11"
       inkscape:connector-curvature="0"
       style="fill:#000000" />
    <path
       d="m 230.78,106.67 c 2.39,-2.28 5.76,0.14 7.43,2.16 2.07,2.5 4.34,6.45 2.15,9.51 -3.52,2.37 -7.84,0.12 -11.54,-0.65 0,-3.7 -0.42,-7.91 1.96,-11.02 z"
       id="path13"
       inkscape:connector-curvature="0"
       style="fill:#000000" />
    <path
       d="m 247.42,113.44 c 2.21,-3.28 6.49,-6.11 10.5,-4.36 -0.44,4.25 -6.31,4.11 -9.56,5.13 -0.63,1.63 0.37,5.07 -2.22,4.84 -1.56,-1.88 0.33,-3.96 1.28,-5.61 z"
       id="path15"
       inkscape:connector-curvature="0"
       style="fill:#000000" />
    <path
       d="m 175.1,123.04 c 7.16,-3.28 15.22,-3.94 23,-3.66 2.17,-0.01 4.21,0.8 6.15,1.72 -3.52,2.73 -8.03,3.4 -12.28,4.22 -1.88,-0.93 -3.76,-2.15 -5.94,-2.11 -5.57,-0.02 -10.13,4.35 -15.81,3.77 1.3,-1.67 2.91,-3.11 4.88,-3.94 z"
       id="path17"
       inkscape:connector-curvature="0"
       style="fill:#000000" />
    <path
       d="m 168.38,127.33 c 1.97,0.57 -0.07,4.62 -1.73,3.14 -0.92,-1.23 0.41,-2.96 1.73,-3.14 z"
       id="path19"
       inkscape:connector-curvature="0"
       style="fill:#000000" />
    <path
       d="m 150.05,135.09 c 2.82,-5.8 11.1,-2.41 13.67,1.88 -0.2,0.42 -0.6,1.26 -0.8,1.68 -3.28,1.1 -7.82,1.94 -10.36,-1.07 -0.85,-0.82 -1.69,-1.65 -2.51,-2.49 z"
       id="path21"
       inkscape:connector-curvature="0"
       style="fill:#000000" />
    <path
       d="m 138.64,135.92 c 1.62,-1.5 3.57,-2.57 5.71,-3.14 -0.17,3.12 -3.14,3.78 -5.71,3.14 z"
       id="path23"
       inkscape:connector-curvature="0"
       style="fill:#000000" />
    <path
       d="m 137.81,146.45 c 0.87,-2.43 1.71,-5.29 4.28,-6.44 2.76,-1.12 5.75,0.19 7.99,1.84 3.68,2.84 7.09,6.74 7.33,11.6 -7.3,-0.09 -12.03,-7.69 -19.6,-7 z"
       id="path25"
       inkscape:connector-curvature="0"
       style="fill:#000000" />
    <path
       d="m 259.26,146.32 c 0.63,0.35 0.63,0.35 0,0 z"
       id="path27"
       inkscape:connector-curvature="0"
       style="fill:#000000" />
    <path
       d="m 255.13,168.16 c 0.6,-1.6 3.03,-1.48 3.21,0.31 2.11,4.54 -0.66,9.07 -1.41,13.56 -0.64,2.75 -0.59,5.61 -0.11,8.38 4.89,-4.47 2.52,-12.64 7.51,-17.01 0.18,6.74 -1.8,13.37 -4.42,19.51 -1.28,2.42 -2.73,5.76 -5.84,6.03 -4.3,-1.52 -4.82,-6.93 -4.67,-10.86 0.53,-6.88 1.91,-14.04 5.73,-19.92 z"
       id="path29"
       inkscape:connector-curvature="0"
       style="fill:#000000" />
    <path
       d="m 1112.52,177.77 c 17.84,-1.62 36,-0.35 53.44,3.73 3.58,1.17 8.15,1.76 10.27,5.24 1.95,8.39 2.93,17.02 5.09,25.38 0.7,4.62 2.74,9.21 2.48,13.88 -2.74,3.28 -7.72,3.9 -11.76,3.58 -3.34,-0.35 -5,-3.6 -6.7,-6.06 -7.01,-10.73 -16.95,-20.17 -29.39,-24.07 -9.16,-2.87 -19.07,-2.7 -28.4,-0.81 -6.44,1.33 -13.2,4.66 -15.8,11.09 -3.05,7.9 -1.26,17.68 4.89,23.63 2.04,2.01 4.5,3.53 6.95,4.99 21.08,12.11 44.9,18.97 64.96,32.92 9.08,6.22 15.73,15.89 18.02,26.68 2.72,12.83 1.66,26.99 -5.27,38.38 -6.45,10.66 -17.25,18.09 -28.82,22.28 -14.53,5.23 -30.24,5.8 -45.52,4.96 -15.96,-1.04 -31.98,-3.4 -47.18,-8.49 -2.45,-1.17 -6.25,-1.8 -6.62,-5.04 -1.17,-5.94 -1.04,-12.03 -1.27,-18.05 0.04,-6.21 -0.53,-12.49 0.57,-18.64 0.51,-2.68 2.29,-5.82 5.45,-5.61 4.39,-0.26 7.36,3.53 9.37,6.93 4.6,7.78 10.83,14.69 18.5,19.55 12.96,8.34 28.97,10.39 44.07,9.11 6.78,-0.79 14.01,-2.4 19.08,-7.3 6.34,-6.25 6.96,-16.64 3.36,-24.45 -3.76,-7.41 -11.34,-11.69 -18.25,-15.7 -19.33,-10.28 -40.46,-17.46 -58.03,-30.81 -7.85,-5.84 -13.62,-14.44 -15.6,-24.06 -3.04,-14.54 -0.85,-31 9.04,-42.58 10.71,-12.53 26.96,-19 43.07,-20.66 z"
       id="path31"
       inkscape:connector-curvature="0"
       style="fill:#000000" />
    <path
       d="m 921.67,178.86 c 12.63,-1.5 26.01,-1.5 37.88,3.65 8.02,3.46 14.55,10.19 17.68,18.36 2.93,7.33 3.58,15.33 3.46,23.16 -0.29,31 -0.65,62 -0.89,93 -0.19,5.39 1.69,11.98 7.44,13.75 8.17,2.3 16.43,-1.66 24.66,-1.31 4.28,0.77 5.26,5.85 4.9,9.49 -1.59,4.11 -5.76,6.34 -9.14,8.82 -9.11,5.77 -18.74,11.08 -29.24,13.79 -5.16,1.36 -10.97,1.49 -15.68,-1.3 -6.09,-3.4 -9.16,-10.13 -14.69,-14.18 -1.71,-1.54 -3.94,-0.53 -5.75,0.16 -11.06,4.55 -21.53,10.6 -33.05,13.98 -12.01,3.45 -24.91,5 -37.23,2.32 -13.89,-3.03 -26.24,-13.41 -30.48,-27.14 -2.97,-9.86 -3.56,-21.12 1.38,-30.45 5.55,-10.54 15.7,-17.67 26.02,-23.05 18.23,-9.23 38.23,-14.28 58.17,-18.28 5.79,-1.2 12.31,-2.3 16.42,-7 3.03,-3.48 2.24,-8.4 2.54,-12.65 0.36,-10.65 1.15,-22.06 -4.14,-31.75 -3.85,-7.38 -11.62,-12 -19.69,-13.29 -5.46,-0.83 -11.77,-1.86 -16.49,1.78 -9.3,6.6 -11.29,18.97 -19.59,26.47 -7.03,6.8 -17.81,9.38 -27.17,6.77 -6.97,-2.1 -9.53,-10.33 -8.46,-16.89 0.81,-3.51 3.15,-6.42 5.64,-8.92 4.61,-4.51 10.08,-7.99 15.61,-11.25 15.38,-8.86 32.2,-15.69 49.89,-18.04 m 12.85,98.88 c -10.8,2.11 -21.64,4.56 -31.8,8.88 -7.66,3.37 -15.33,7.88 -19.9,15.11 -4.44,6.85 -4.04,15.68 -1.75,23.21 2.22,7.11 8.66,12.32 15.87,13.81 13.53,3.06 27.86,0.28 40.32,-5.45 4.08,-1.94 8.75,-5.21 8.58,-10.27 0.23,-11.67 0.25,-23.33 0.47,-35 -0.09,-3.12 0.39,-6.93 -2.17,-9.25 -2.74,-2.1 -6.46,-1.51 -9.62,-1.04 z"
       id="path33"
       inkscape:connector-curvature="0"
       style="fill:#000000" />
    <path
       d="m 171.71,185.05 c 1.43,-0.39 1.9,0.11 1.43,1.5 -1.41,0.36 -1.89,-0.14 -1.43,-1.5 z"
       id="path35"
       inkscape:connector-curvature="0"
       style="fill:#000000" />
    <path
       d="m 177.23,191.15 c 2.69,3.5 4.38,8.02 8.36,10.33 2.8,1.89 6.12,3.09 8.48,5.58 0.44,1.91 -2.41,1.99 -3.52,2.86 2.29,2.02 4.49,4.16 6.1,6.78 -6.01,-1 -10.95,-4.92 -15.64,-8.55 1.22,-5.99 -1.55,-11.63 -3.78,-17 z"
       id="path37"
       inkscape:connector-curvature="0"
       style="fill:#000000" />
    <path
       d="m 192.03,197.27 c 1.24,-0.96 2.02,-3.18 3.89,-2.85 2.26,1.6 2,4.55 2.09,6.97 -2.66,-0.2 -4.36,-2.25 -5.98,-4.12 z"
       id="path39"
       inkscape:connector-curvature="0"
       style="fill:#000000" />
    <path
       d="m 172.62,215.04 c 6.21,-0.13 12.09,2.22 17.64,4.76 3.13,1.55 6.53,2.93 8.76,5.76 -5.28,-1.04 -10.35,-3.03 -15.05,-5.64 -3.63,-2.01 -8.61,-1.35 -11.35,-4.88 z"
       id="path41"
       inkscape:connector-curvature="0"
       style="fill:#000000" />
    <path
       d="m 245.16,215.85 c 2.28,2.69 3.78,5.93 4.63,9.34 -2.53,-2.54 -3.59,-6.01 -4.63,-9.34 z"
       id="path43"
       inkscape:connector-curvature="0"
       style="fill:#000000" />
    <path
       d="m 166.58,217.64 c 6.24,0.17 11.31,4.2 16.42,7.3 4.25,3.06 9,5.85 11.81,10.42 -5.39,0.09 -9.87,-3.27 -14.93,-4.57 -3.01,-0.96 -6.58,-1.35 -8.68,-3.99 -2.13,-2.71 -4.03,-5.71 -4.62,-9.16 z"
       id="path45"
       inkscape:connector-curvature="0"
       style="fill:#000000" />
    <path
       d="m 156.52,224.44 c 4.19,0.19 7.66,2.79 11.16,4.82 3.8,2.62 8.23,4.97 10.25,9.36 -3.73,0.23 -8.25,0.35 -10.9,-2.77 -3.5,-3.81 -7.86,-6.88 -10.51,-11.41 z"
       id="path47"
       inkscape:connector-curvature="0"
       style="fill:#000000" />
    <path
       d="m 154.23,230.81 c 1.71,0.95 3.29,2.1 4.86,3.28 2.63,2.08 6.44,2.29 8.61,5.05 3.19,3.54 3.69,10.17 -0.46,13.16 -2.87,1.67 -5.83,-0.81 -7.56,-2.97 -3.7,-4.68 -8.69,-8.35 -11.43,-13.74 4.42,1.2 7.71,4.54 11.69,6.63 0.47,-4.62 -3.69,-7.7 -5.71,-11.41 z"
       id="path49"
       inkscape:connector-curvature="0"
       style="fill:#000000" />
    <path
       d="m 179.95,244.6 c 3.13,1.2 4.72,4.3 5.89,7.23 -3.73,-0.47 -4.89,-4.16 -5.89,-7.23 z"
       id="path51"
       inkscape:connector-curvature="0"
       style="fill:#000000" />
    <path
       d="m 172.89,247.25 c 1.32,-0.56 2.68,-1.01 4.08,-1.3 -0.4,0.99 -0.83,1.96 -1.31,2.92 -1.19,0.14 -1.87,-1.08 -2.77,-1.62 z"
       id="path53"
       inkscape:connector-curvature="0"
       style="fill:#000000" />
    <path
       d="m 227.21,246.61 c 1.26,2.92 2.41,6.7 0.45,9.57 -0.55,-3.16 -0.72,-6.38 -0.45,-9.57 z"
       id="path55"
       inkscape:connector-curvature="0"
       style="fill:#000000" />
    <path
       d="m 261.4,258.32 c -1.13,-3.76 -1.13,-8.28 1.04,-11.65 0.21,3.89 0.47,7.96 -1.04,11.65 z"
       id="path57"
       inkscape:connector-curvature="0"
       style="fill:#000000" />
    <path
       d="m 239.87,252.81 c 0.28,-2.02 1.41,-3.71 2.88,-5.07 1.94,3.21 2.66,6.91 3.17,10.58 1.83,0.21 4.79,-0.75 5.34,1.79 0.57,3.96 -0.91,7.94 -0.23,11.91 0.31,1.48 2.02,1.73 3.09,2.45 -0.62,3.8 -0.93,8.03 -3.48,11.12 -2.13,1.73 -3.48,-1.34 -4.33,-2.88 -1.48,-3.42 -4.86,-5.67 -5.8,-9.36 -2.02,-6.62 -2.02,-13.79 -0.64,-20.54 z"
       id="path59"
       inkscape:connector-curvature="0"
       style="fill:#000000" />
    <path
       d="m 265.35,263.45 c -0.19,-5.11 -0.38,-10.88 2.56,-15.3 0.65,5.23 -0.65,10.47 -2.56,15.3 z"
       id="path61"
       inkscape:connector-curvature="0"
       style="fill:#000000" />
    <path
       d="m 194.3,266.9 c -1.37,-4.94 -2.96,-10.12 -1.97,-15.28 3.31,8.68 6.89,17.61 12.96,24.76 -0.83,-6.18 -3.84,-11.75 -6.28,-17.4 -0.61,-1.2 -0.52,-2.56 -0.49,-3.85 6.93,4.43 11.99,11.1 17.19,17.34 1.78,2.39 4.11,4.74 4.21,7.91 -1.23,0.58 -2.54,1.05 -3.64,1.88 -0.76,2.67 0.8,5.27 1.57,7.77 -1.78,-1.85 -3.35,-4.18 -5.9,-5.01 -2.1,0.82 -3.22,3.02 -5.03,4.28 -2.04,-0.43 -3.32,-2.18 -4.51,-3.73 -4.01,-5.57 -5.92,-12.26 -8.11,-18.67 z"
       id="path63"
       inkscape:connector-curvature="0"
       style="fill:#000000" />
    <path
       d="m 177.83,267.87 c -3.76,0.06 -3.36,-5.67 -1.19,-7.62 0.75,2.47 1.25,5.03 1.19,7.62 z"
       id="path65"
       inkscape:connector-curvature="0"
       style="fill:#000000" />
    <path
       d="m 186.48,269.8 c 0.89,-1.48 2.09,-2.71 3.53,-3.66 1.86,2.68 3.33,6.3 1.34,9.35 -1.78,-1.77 -3.36,-3.7 -4.87,-5.69 z"
       id="path67"
       inkscape:connector-curvature="0"
       style="fill:#000000" />
    <path
       d="m 272.27,280.2 c 1.29,0.87 0.37,3.6 -0.68,4.5 -1.92,-0.49 -0.77,-3.89 0.68,-4.5 z"
       id="path69"
       inkscape:connector-curvature="0"
       style="fill:#000000" />
    <path
       d="m 212.61,319.66 c 2.81,-0.08 3.73,2.23 3.26,4.65 -1.93,-0.85 -2.63,-2.81 -3.26,-4.65 z"
       id="path71"
       inkscape:connector-curvature="0"
       style="fill:#000000" />
    <path
       d="m 236,322.42 c 1.51,-0.26 3.14,1.72 2.81,3.16 -1.43,0.36 -3.51,-1.77 -2.81,-3.16 z"
       id="path73"
       inkscape:connector-curvature="0"
       style="fill:#000000" />
    <path
       d="m 282.71,327.48 c 6.02,2.44 5.86,10.29 4.79,15.64 -3.16,-4.49 -5.67,-10.03 -4.79,-15.64 z"
       id="path75"
       inkscape:connector-curvature="0"
       style="fill:#000000" />
    <path
       d="m 295.71,367.11 c -2.68,-1.95 -2.8,-5.78 0.1,-7.59 0.4,2.52 0.33,5.07 -0.1,7.59 z"
       id="path77"
       inkscape:connector-curvature="0"
       style="fill:#000000" />
    <path
       d="m 311.2,383 c 3.88,0.27 6.05,4.43 6.8,7.84 -1.28,-0.29 -2.63,-0.37 -3.8,-0.97 -1.33,-2.13 -2.15,-4.52 -3,-6.87 z"
       id="path79"
       inkscape:connector-curvature="0"
       style="fill:#000000" />
    <path
       d="m 158.38,399.4 c 0.25,0.25 0.25,0.25 0,0 z"
       id="path81"
       inkscape:connector-curvature="0"
       style="fill:#000000" />
    <path
       d="m 979.13,405.08 c 3.23,-1.14 6.14,-3.2 9.55,-3.82 1.55,2.62 0.53,5.82 0.71,8.71 -0.13,16 -0.25,32.03 0.04,48.03 0.33,3.65 7.35,-0.47 6.38,3.73 -3.28,2.33 -7.07,3.78 -10.85,5.06 -0.95,-1.86 -1.89,-3.71 -2.8,-5.57 -5.42,2.32 -11.25,6.16 -17.35,4 -9.02,-2.92 -12.64,-13.94 -10.23,-22.48 1.65,-5.41 6.04,-9.72 11.12,-12.01 5.34,-2.29 11.14,-0.38 16.68,-0.15 -0.06,-5.86 0.32,-11.74 -0.16,-17.58 -0.29,-3.28 -4.37,-3.24 -6.24,-5.22 -0.16,-1.85 1.89,-2.03 3.15,-2.7 m -11.04,29.08 c -4.15,0.68 -6.42,4.89 -6.63,8.77 -0.83,6.18 1.77,13.03 7.4,16.11 4.23,2.36 9.59,0.85 13.04,-2.23 0.41,-5.86 0.45,-11.82 -0.03,-17.67 -2.93,-4.27 -8.85,-5.85 -13.78,-4.98 z"
       id="path83"
       inkscape:connector-curvature="0"
       style="fill:#000000" />
    <path
       d="m 883.15,407.07 c 4.14,-2.15 8.2,-4.95 12.88,-5.7 0.2,10.83 -0.53,21.7 0.38,32.51 5.5,-2.97 12.15,-4.79 18.24,-2.55 5.64,1.92 9.42,7.76 9.08,13.67 0.26,9.25 -6.71,18.03 -15.74,19.94 -6.36,1.26 -12.98,-0.26 -18.75,-3.01 -0.03,-16.34 0.4,-32.7 -0.28,-49.02 0.23,-3.74 -5.31,-2.84 -5.81,-5.84 m 19.24,28.52 c -2.52,0.84 -6.33,2.09 -6.21,5.35 0,4.86 -0.44,9.81 0.44,14.62 1.8,5.7 9.41,6.26 14.11,4.13 6.43,-3.1 7.12,-11.85 4.5,-17.74 -2.02,-4.89 -7.64,-8.07 -12.84,-6.36 z"
       id="path85"
       inkscape:connector-curvature="0"
       style="fill:#000000" />
    <path
       d="m 1138.45,402.5 c 1.32,-0.82 4.26,-2.26 4.15,0.52 -0.16,17.96 -0.14,35.96 0.14,53.93 -0.34,4.46 4.69,4.71 7.72,5.91 -0.05,0.54 -0.16,1.62 -0.22,2.16 -6.45,-0.06 -12.89,0.24 -19.33,0.22 -1.39,-3.24 4.67,-3.02 4.42,-6.23 0.45,-9.31 0.05,-18.65 0.18,-27.97 -0.16,-5.67 0.4,-11.39 -0.35,-17.02 -0.37,-3.21 -3.88,-4.16 -5.97,-6.01 2.16,-2.94 6.3,-3.49 9.26,-5.51 z"
       id="path87"
       inkscape:connector-curvature="0"
       style="fill:#000000" />
    <path
       d="m 327.87,405.34 c 6.36,5.1 11.92,12.26 12.91,20.61 -7.16,-4.08 -12.75,-12.19 -12.91,-20.61 z"
       id="path89"
       inkscape:connector-curvature="0"
       style="fill:#000000" />
    <path
       d="m 1424.79,422.71 c 0.79,-0.83 1.62,-0.82 2.49,0.05 0.41,2.43 0.33,4.91 0.51,7.37 4.05,0.13 8.11,0.08 12.17,0.2 -0.85,1.48 -1.01,3.89 -2.94,4.34 -3.26,0.33 -6.54,0.16 -9.78,0.44 -0.03,7.93 -1.04,16.13 0.69,23.91 3.4,3.64 8.89,1.3 13.21,1.15 -1.61,4.47 -6.99,5.24 -11.11,5.5 -4.06,0.39 -8.54,-1.88 -9.42,-6.1 -1.37,-7.75 0.17,-15.7 -0.87,-23.48 -0.97,-1.47 -3.13,-1.62 -4.25,-2.99 0.03,-1.78 1.92,-2.46 3.05,-3.5 2.65,-1.74 4.22,-4.54 6.25,-6.89 z"
       id="path91"
       inkscape:connector-curvature="0"
       style="fill:#000000" />
    <path
       d="m 1199.84,433.07 c 2.55,-2.5 6.47,-3.32 9.71,-4.81 1.91,1.2 2.16,3.89 3.15,5.81 4.33,-1.72 8.43,-4.74 13.35,-4.14 6.03,0.11 11.88,4.18 13.49,10.1 2.72,8.96 -1.49,19.43 -9.89,23.71 -5.24,2.97 -11.49,1.86 -17.02,0.49 0.11,5.56 -0.43,11.16 0.24,16.69 1.61,3.07 5.72,2.71 8.5,4.09 0.02,0.53 0.04,1.58 0.06,2.11 -6.88,0.3 -13.77,0.09 -20.63,0.74 0.65,-2.96 5.21,-3.35 4.85,-6.77 0.12,-13.74 0.19,-27.5 -0.04,-41.23 0.21,-3.62 -3.43,-4.92 -5.77,-6.79 m 19.38,2.12 c -3.67,1.33 -6.59,4.81 -6.47,8.85 -0.03,4.6 -0.42,9.28 0.25,13.85 4.16,2.78 9.68,3.92 14.53,2.56 5.7,-2.56 5.61,-10.04 4.88,-15.29 -0.71,-6.09 -6.65,-12.61 -13.19,-9.97 z"
       id="path93"
       inkscape:connector-curvature="0"
       style="fill:#000000" />
    <path
       d="m 1003.82,437.86 c 4.39,-7.76 15.67,-11.31 23.21,-6.01 3.42,1.96 4.42,6.15 7.53,8.45 -0.81,1.6 -2.17,2.75 -3.91,3.18 -7.07,2.21 -14.19,4.25 -21.3,6.34 0.86,4.25 3.04,9.03 7.65,10.19 6,1.74 11.46,-1.91 16.85,-3.9 l 0.88,0.77 c -0.64,3.01 -3.72,4.37 -6.14,5.72 -6.61,3.31 -15.41,4.19 -21.47,-0.72 -7.09,-5.61 -7.55,-16.56 -3.3,-24.02 m 7.34,-1.69 c -2.14,2.9 -2.05,6.67 -2.32,10.1 4.4,-1.38 8.94,-2.4 13.23,-4.11 2.29,-0.68 2.35,-3.67 1.16,-5.34 -2.34,-4.29 -9.27,-4.56 -12.07,-0.65 z"
       id="path95"
       inkscape:connector-curvature="0"
       style="fill:#000000" />
    <path
       d="m 1098.02,431.97 c 5.12,-3.14 12.23,-3.81 17.31,-0.21 3.48,1.96 4.58,6.15 7.66,8.57 -0.77,1.4 -1.85,2.59 -3.44,2.99 -7.22,2.37 -14.59,4.29 -21.83,6.6 1.07,4.04 2.91,8.64 7.31,9.97 6.38,2.06 12.23,-1.99 17.99,-4.06 -0.15,1.61 -0.35,3.37 -1.91,4.25 -6.84,5.13 -17.12,7.49 -24.63,2.47 -10.18,-6.98 -8.75,-24.35 1.54,-30.58 m 1.38,4.48 c -1.91,2.89 -1.9,6.49 -2.04,9.82 4.49,-1.47 9.17,-2.44 13.53,-4.29 2.18,-0.94 1.78,-3.93 0.57,-5.48 -2.54,-4.12 -9.48,-4.1 -12.06,-0.05 z"
       id="path97"
       inkscape:connector-curvature="0"
       style="fill:#000000" />
    <path
       d="m 1328.66,436.63 c 4.73,-6.9 15.23,-9.76 22.33,-4.83 3.47,1.96 4.47,6.21 7.61,8.52 -0.84,1.56 -2.18,2.73 -3.91,3.16 -7.08,2.22 -14.23,4.24 -21.34,6.36 0.92,4.24 3.05,9.03 7.69,10.17 6.17,1.67 11.88,-1.94 17.35,-4.25 0.8,3.41 -2.65,5.1 -5.07,6.48 -6.55,3.49 -15.3,4.68 -21.61,0.07 -7.97,-5.71 -8.4,-18.05 -3.05,-25.68 m 6.5,-0.42 c -2.11,2.9 -2.03,6.65 -2.29,10.07 4.38,-1.38 8.88,-2.4 13.16,-4.09 2.33,-0.66 2.42,-3.68 1.21,-5.37 -2.33,-4.3 -9.31,-4.57 -12.08,-0.61 z"
       id="path99"
       inkscape:connector-curvature="0"
       style="fill:#000000" />
    <path
       d="m 798.09,430.31 c 5.83,0.36 11.67,0.28 17.49,-0.46 -0.06,2.66 -2.86,2.97 -4.55,4.28 -0.96,1.38 0.19,3.08 0.53,4.51 2.38,5.45 4.39,11.11 7.51,16.21 3.48,-5.95 6.61,-12.23 8.49,-18.88 -0.99,-2.52 -4.69,-2.36 -5.55,-4.93 1.49,-0.9 3.31,-0.16 4.95,-0.19 4.12,0.45 8.28,0.22 12.43,0.42 -1.09,2.7 -4.91,2.38 -6,5.12 -5.13,10.19 -9.61,20.73 -15.52,30.52 -4.47,-6.46 -6.75,-14.11 -10.7,-20.87 -4.05,6.53 -7.03,13.66 -11.12,20.17 -6.11,-9.32 -10.66,-19.54 -16.09,-29.23 -1.23,-2.22 -3.71,-3.18 -5.5,-4.83 l 0.37,-1.2 c 6.2,0.19 12.39,-0.02 18.6,-0.3 -0.57,2.67 -3.5,2.97 -5.12,4.67 1.71,7.07 5.56,13.46 9.06,19.78 2.52,-3.87 4.64,-8 6.56,-12.2 1.77,-3.3 -0.67,-7.45 -3.62,-9.14 -1.21,-0.89 -4.3,-1.66 -2.22,-3.45 z"
       id="path101"
       inkscape:connector-curvature="0"
       style="fill:#000000" />
    <path
       d="m 856.38,430.61 c 4.31,-1.63 9.42,-1.93 13.52,0.47 4.02,2.07 6.13,6.3 8.62,9.87 -0.86,1.5 -2.54,2.1 -4.06,2.65 -6.86,2.23 -13.9,3.91 -20.7,6.31 0.1,2.92 1.51,5.76 3.51,7.87 2.77,2.8 7.11,3.08 10.76,2.22 3.5,-0.68 6.45,-2.87 9.86,-3.83 2.31,0.44 -0.06,2.98 -0.92,3.77 -5.03,3.87 -11.58,5.97 -17.92,5.21 -5.05,-0.56 -9.65,-3.82 -11.92,-8.35 -4.53,-9.26 -0.77,-22.36 9.25,-26.19 m -1.23,5.76 c -1.99,2.89 -1.91,6.55 -2.18,9.91 4.39,-1.37 8.89,-2.41 13.18,-4.09 2.4,-0.68 2.43,-3.81 1.13,-5.51 -2.44,-4.24 -9.45,-4.37 -12.13,-0.31 z"
       id="path103"
       inkscape:connector-curvature="0"
       style="fill:#000000" />
    <path
       d="m 1170.41,430.57 c 5.76,-1.18 12.27,-0.66 17.15,2.88 7.69,5.67 8.12,18.07 1.94,25.02 -6.55,7.8 -19.19,9.19 -27.54,3.57 -8.29,-5.89 -8.39,-19.43 -1.09,-26.16 2.62,-2.59 5.94,-4.47 9.54,-5.31 m 0.03,4.13 c -8.38,3.22 -8.37,14.57 -4.47,21.27 3.19,6.06 12.58,7.29 17.09,2.1 4.1,-4.94 3.38,-12.35 0.72,-17.8 -2.29,-4.85 -8.25,-7.53 -13.34,-5.57 z"
       id="path105"
       inkscape:connector-curvature="0"
       style="fill:#000000" />
    <path
       d="m 1248.08,435.27 c 3.24,-2.72 7.12,-4.52 11.01,-6.12 0.78,1.91 1.55,3.82 2.37,5.72 5.17,-3.26 11.13,-6.33 17.45,-5.22 3,0.4 5.17,2.67 7.21,4.71 5.86,-3.47 12.93,-6.34 19.78,-4.24 3.88,1.11 6.42,4.88 6.92,8.76 0.9,6.64 -0.16,13.38 0.6,20.03 0.71,3.33 4.95,2.95 7.41,4.35 -0.02,0.38 -0.07,1.15 -0.09,1.53 -6.6,0.33 -13.22,-0.04 -19.83,0.15 0.08,-0.58 0.25,-1.74 0.33,-2.32 1.64,-0.63 4.16,-0.61 4.6,-2.77 0.74,-5.24 0.35,-10.58 0.29,-15.85 0.02,-3.72 -2.09,-8 -6.17,-8.41 -4.42,-0.37 -9.58,0.33 -12.83,3.57 -0.49,5.27 -0.15,10.58 -0.35,15.87 0.12,2.06 -0.34,4.41 0.9,6.22 1.97,0.89 4.3,1.01 6.06,2.39 l -0.57,1.33 c -6.07,0.39 -12.19,0.55 -18.25,0.14 -0.89,-3.18 4.64,-2.12 4.8,-5.1 0.64,-4.98 0.26,-10.03 0.29,-15.03 0.05,-3.74 -1.47,-8.24 -5.4,-9.42 -3.94,-0.53 -8.19,0.28 -11.48,2.57 -2.77,1.66 -1.71,5.24 -1.92,7.89 0.27,4.68 -0.59,9.53 0.63,14.1 1.68,2.24 4.97,1.68 7.32,2.86 -0.12,0.41 -0.34,1.23 -0.45,1.65 -6.75,0.31 -13.52,0.72 -20.28,0.64 1.05,-1.99 3.32,-2.51 5.03,-3.75 1.35,-3.32 0.65,-7.05 0.84,-10.54 -0.18,-3.86 0.49,-7.9 -0.8,-11.61 -0.97,-2.33 -4.81,-1.67 -5.42,-4.1 z"
       id="path107"
       inkscape:connector-curvature="0"
       style="fill:#000000" />
    <path
       d="m 1364.75,435.87 c 3.59,-2.66 7.68,-4.53 11.51,-6.83 0.76,1.97 1.47,3.95 2.2,5.94 5.16,-3.35 11.26,-6.39 17.59,-4.98 3.99,0.61 7.1,4.02 7.82,7.93 1.31,6.99 -0.04,14.18 0.96,21.2 0.64,3.99 6.8,2.11 7.53,6 -6.64,0.24 -13.28,-0.06 -19.9,-0.08 0.46,-2.3 3,-2.74 4.51,-4.18 1.18,-3.13 0.52,-6.6 0.71,-9.87 -0.17,-4.2 0.6,-8.93 -1.99,-12.56 -2.87,-3.63 -8.2,-3.27 -12.14,-1.93 -2.38,0.88 -5.56,2.39 -5.31,5.42 -0.03,5.33 -0.17,10.69 0.09,16.02 -0.07,2.13 1.83,3.51 3.76,3.83 1.43,0.57 4.29,0.58 3.67,2.89 -6.36,0.26 -12.72,0.67 -19.07,0.93 -1.33,-2.95 4.14,-2.77 4.19,-5.66 0.71,-6.29 0.47,-12.69 0.17,-19 -0.15,-3.26 -4.2,-3.52 -6.3,-5.07 z"
       id="path109"
       inkscape:connector-curvature="0"
       style="fill:#000000" />
    <path
       d="m 1040.07,431.11 c 6.03,-0.29 12.1,-0.27 18.14,-0.59 0.68,2.99 -3.56,3.32 -5.38,4.68 2.43,7.31 6.23,14.22 10.75,20.45 3.32,-6.39 7.03,-12.73 8.98,-19.7 -0.77,-2.3 -3.9,-2.9 -4.4,-5.41 5.29,0.5 10.72,0.02 15.93,1.24 -2.19,1.55 -5.17,2.41 -6.23,5.12 -4.67,10 -9.77,19.82 -15.58,29.21 -6.41,-8.7 -11.77,-18.14 -16.5,-27.84 -0.8,-1.5 -1.58,-3.13 -3.13,-3.96 -1.13,-0.88 -2.96,-1.42 -2.58,-3.2 z"
       id="path111"
       inkscape:connector-curvature="0"
       style="fill:#000000" />
    <path
       d="m 1452.36,455.47 c 2.25,-0.9 5.19,-0.57 6.78,1.43 2.05,2.55 1.89,6.09 1.58,9.17 -0.72,6.33 -4.99,12.03 -10.77,14.65 -3.87,-3.59 4.09,-5.44 4.9,-8.93 3.07,-5.47 -5.88,-6.69 -5.44,-11.79 -0.05,-1.93 1.16,-3.8 2.95,-4.53 z"
       id="path113"
       inkscape:connector-curvature="0"
       style="fill:#000000" />
    <path
       d="m 418.95,474.2 c 1.62,-0.47 2.18,0.08 1.67,1.68 -1.65,0.49 -2.21,-0.07 -1.67,-1.68 z"
       id="path115"
       inkscape:connector-curvature="0"
       style="fill:#000000" />
    <path
       d="m 961.79,488.96 c 4.3,-2.18 8.69,-4.54 13.46,-5.54 0.07,15.86 -0.16,31.72 -0.06,47.59 0.13,3.41 -0.46,6.94 0.45,10.28 1.72,1.35 6.56,-0.78 6.17,2.45 -3.08,2.29 -6.68,3.96 -10.38,4.96 -1.88,-0.91 -2.25,-3.61 -3.37,-5.29 -5.37,2.28 -11.12,6.08 -17.18,4.04 -7.64,-2.35 -11.63,-10.8 -11.05,-18.38 0.14,-7.22 5.49,-13.42 11.89,-16.21 5.32,-2.22 11.07,-0.3 16.58,-0.12 -0.1,-5.94 0.35,-11.9 -0.22,-17.81 -0.33,-3.58 -5.76,-2.62 -6.29,-5.97 m -8.44,27.55 c -4.11,1.04 -5.92,5.48 -6.03,9.35 -0.62,5.97 2.09,12.46 7.51,15.38 4.23,2.36 9.64,0.78 13.04,-2.33 0.27,-5.87 0.46,-11.83 -0.1,-17.67 -3.16,-4.33 -9.34,-5.97 -14.42,-4.73 z"
       id="path117"
       inkscape:connector-curvature="0"
       style="fill:#000000" />
    <path
       d="m 1335.55,491.66 c 2.14,-0.93 5.47,-0.24 6.02,2.37 1.22,3.91 -3.16,8.68 -7.1,6.45 -3.79,-1.83 -2.41,-7.46 1.08,-8.82 z"
       id="path119"
       inkscape:connector-curvature="0"
       style="fill:#000000" />
    <path
       d="m 1177.66,513.7 c 3.82,-2.43 6.54,-5.98 9.32,-9.46 4.05,0.29 0.76,5.94 3,8.01 3.72,0.39 7.47,0.09 11.21,0.12 -0.44,1.61 -0.55,3.73 -2.36,4.45 -3.29,0.42 -6.63,0.19 -9.92,0.35 -0.55,6.24 -0.29,12.52 -0.24,18.77 0.27,2.14 -0.19,5.09 2,6.37 3.68,1.81 7.84,0.45 11.67,-0.11 -0.35,4.01 -5.02,4.79 -8.22,5.43 -4.6,0.99 -10.63,-0.5 -11.88,-5.64 -1.54,-7.94 0.29,-16.16 -1.03,-24.11 -1.41,-1.14 -5.39,-1.79 -3.55,-4.18 z"
       id="path121"
       inkscape:connector-curvature="0"
       style="fill:#000000" />
    <path
       d="m 1294.62,513.88 c 3.78,-2.54 6.72,-5.95 9.41,-9.58 0.5,0.1 1.5,0.32 2,0.42 0.33,2.44 0.31,4.91 0.37,7.37 4.1,0.5 8.24,0.21 12.37,0.49 -0.92,1.35 -1.07,3.49 -2.73,4.21 -3.28,0.48 -6.61,0.22 -9.9,0.35 -0.7,6.22 -0.33,12.49 -0.31,18.74 0.23,2.31 -0.18,5.67 2.53,6.69 3.71,1.4 7.68,0.03 11.48,-0.2 -1.03,3.51 -4.78,4.54 -7.93,5.17 -3.33,0.52 -7.14,0.62 -9.92,-1.56 -2.13,-1.67 -2.96,-4.44 -3.08,-7.03 -0.4,-6.63 0.25,-13.3 -0.29,-19.92 0.11,-2.78 -5.6,-2.01 -4,-5.15 z"
       id="path123"
       inkscape:connector-curvature="0"
       style="fill:#000000" />
    <path
       d="m 1065.75,515.01 c 2.77,-2.09 6.26,-3.05 9.41,-4.46 2.23,0.69 2.48,4.02 3.73,5.88 4.3,-2.44 9,-5.11 14.15,-4.23 6.28,0.47 11.89,5.42 12.81,11.7 1.87,8.79 -2.7,18.44 -10.85,22.3 -5.15,2.59 -11.13,1.6 -16.44,0.16 0.03,5.51 -0.41,11.06 0.16,16.56 1.48,3.83 6.95,2.25 9.13,5.25 -1.25,2.09 -3.88,1.15 -5.84,1.32 -5.19,-0.36 -10.34,0.47 -15.51,0.47 1.04,-2.84 5.39,-3.35 5.06,-6.82 0.18,-12.38 -0.02,-24.77 0.09,-37.15 -0.14,-2.47 0.24,-5.25 -1.26,-7.38 -1.49,-1.3 -3.34,-2.11 -4.64,-3.6 m 19.51,2.32 c -3.29,1.24 -6.25,4.05 -6.51,7.73 -0.3,4.94 -0.37,9.94 0.04,14.88 4.17,2.94 9.89,4.09 14.8,2.63 5.6,-2.73 5.49,-10.17 4.66,-15.46 -0.73,-5.97 -6.6,-12.25 -12.99,-9.78 z"
       id="path125"
       inkscape:connector-curvature="0"
       style="fill:#000000" />
    <path
       d="m 796.48,512.56 c 6.5,-1.09 14.11,0.05 18.62,5.3 5.47,6.53 4.99,17.19 -0.91,23.31 -6.41,7.09 -17.93,8.37 -26.09,3.7 -8.3,-4.89 -9.6,-17.3 -3.95,-24.66 2.98,-3.95 7.45,-6.76 12.33,-7.65 m 0.04,4.05 c -4.61,1.13 -7.79,5.74 -7.86,10.39 -0.22,5.53 1.27,11.97 6.31,15.07 4.76,2.8 11.87,1.51 14.52,-3.61 2.73,-5.48 1.83,-12.46 -1.48,-17.5 -2.42,-3.72 -7.21,-5.55 -11.49,-4.35 z"
       id="path127"
       inkscape:connector-curvature="0"
       style="fill:#000000" />
    <path
       d="m 825.85,517.86 c 3.72,-2.38 7.67,-4.36 11.44,-6.66 0.86,1.9 1.47,3.89 2.04,5.9 5.12,-2.85 10.65,-6.1 16.77,-5.1 4.36,0.29 8.06,3.73 8.83,8.01 1.33,6.92 0.05,14.03 0.94,21 0.4,4.22 6.6,2.48 7.72,6.22 -6.57,0.36 -13.17,0.11 -19.73,-0.09 -0.38,-2.96 4.67,-2.5 4.67,-5.51 0.43,-5.23 0.29,-10.52 0.07,-15.75 -0.1,-3.75 -2.66,-7.58 -6.6,-7.97 -4.4,-0.45 -9.94,0.55 -12.46,4.53 -0.43,6.05 -0.33,12.19 -0.05,18.25 0.16,4.44 7.5,2.13 7.4,6.09 -6.29,0.38 -12.59,0.72 -18.87,1.02 -2.05,-1.27 0.96,-2.28 1.73,-3.06 3.02,-1.33 2.45,-5.09 2.61,-7.79 -0.16,-4.98 0.39,-10.02 -0.43,-14.95 -1.17,-2.23 -4.21,-2.62 -6.08,-4.14 z"
       id="path129"
       inkscape:connector-curvature="0"
       style="fill:#000000" />
    <path
       d="m 878.83,521.7 c 3.53,-8.1 14,-12.7 22.14,-8.8 4.4,1.91 6.53,6.41 9.28,10.04 -0.6,1.58 -2.29,2.16 -3.71,2.72 -7.12,2.38 -14.48,4.02 -21.5,6.67 1.34,4.05 3.31,8.86 7.99,9.89 6.28,1.78 11.82,-2.42 17.58,-4.08 -0.07,3.77 -3.8,5.39 -6.65,6.88 -6.52,3.14 -15.13,3.84 -21.01,-1.01 -6.6,-5.18 -7.31,-15.04 -4.12,-22.31 m 7.89,-2.87 c -1.82,2.85 -1.72,6.36 -1.99,9.61 4.48,-1.41 9.11,-2.43 13.48,-4.22 2.09,-0.82 1.99,-3.6 0.91,-5.2 -2.41,-4.51 -9.84,-4.56 -12.4,-0.19 z"
       id="path131"
       inkscape:connector-curvature="0"
       style="fill:#000000" />
    <path
       d="m 995.46,512.38 c 0.63,-0.26 1.88,-0.8 2.5,-1.06 1.74,1.49 0.59,4.76 2.67,5.9 3.53,-2.15 6.94,-5.27 11.35,-5.14 4.53,-0.47 4.37,6.45 1.7,8.46 -3.73,0.75 -7.71,-1.94 -11.36,-0.2 -2.32,1.79 -2.18,5.03 -2.27,7.67 0.09,4.32 -0.31,8.7 0.32,13 0.86,3.9 8.77,1.76 7.75,6.3 -6.57,-0.01 -13.14,-0.63 -19.7,0.09 -1.48,-3.59 4.49,-3.12 4.48,-6.31 0.4,-5.7 0.25,-11.44 0.09,-17.14 0.31,-3.8 -4.73,-3.86 -5.89,-6.78 2.75,-1.66 5.7,-2.97 8.36,-4.79 z"
       id="path133"
       inkscape:connector-curvature="0"
       style="fill:#000000" />
    <path
       d="m 1037.38,512.53 c 5.9,-0.91 12.56,-0.11 17.17,4 6.61,6.01 6.69,17.38 0.94,24 -6.38,7.76 -18.66,9.22 -27.06,4.08 -8.89,-5.68 -9.17,-19.86 -1.51,-26.7 2.86,-2.77 6.53,-4.7 10.46,-5.38 m 0.05,4.03 c -5.07,1.13 -8.32,6.42 -8.04,11.44 -0.07,5.72 2.02,12.51 7.81,14.79 5.19,2.1 11.93,-0.3 13.72,-5.83 1.88,-5.81 0.8,-12.88 -3.38,-17.46 -2.49,-2.78 -6.53,-3.82 -10.11,-2.94 z"
       id="path135"
       inkscape:connector-curvature="0"
       style="fill:#000000" />
    <path
       d="m 1150.44,512.56 c 3.91,-1.03 8.62,-1.66 12.13,0.83 2.95,2.21 2.72,6.27 2.73,9.58 0.07,5.68 -0.52,11.39 0.06,17.05 0.98,3.42 7.07,-1.09 7,3.02 -2.51,2.45 -5.9,4.29 -9.43,4.44 -1.76,-0.67 -2.98,-2.14 -4.36,-3.32 -4.88,2.05 -10.29,4.89 -15.67,2.98 -5.15,-1.74 -6.98,-9.4 -2.68,-12.95 4.9,-4.73 12.23,-4.4 17.99,-7.28 0.61,-2.59 0.5,-5.34 -0.16,-7.9 -0.93,-2.73 -4.35,-3.99 -6.96,-3.17 -2.7,1.98 -3.42,6.46 -7.26,6.82 -2.51,0.84 -4.97,-1.99 -3.45,-4.26 2.54,-3.03 6.4,-4.59 10.06,-5.84 m -2.96,21.8 c -2.82,1.95 -2.4,7 0.83,8.28 3.27,1.08 7.04,0.29 9.85,-1.66 0.78,-3.22 0.32,-6.6 0.36,-9.89 -3.88,0.02 -7.85,1.01 -11.04,3.27 z"
       id="path137"
       inkscape:connector-curvature="0"
       style="fill:#000000" />
    <path
       d="m 1236.08,517.12 c 5,-3.84 11.58,-6.3 17.93,-5.12 3.06,0.51 5.45,3.21 5.64,6.31 0.43,6.89 -0.26,13.8 0.07,20.7 0.04,3.82 4.84,1.91 7.25,2.29 -0.23,3.55 -4.22,4.68 -6.97,5.81 -2.9,1.48 -4.85,-1.44 -6.99,-2.8 -4.88,1.7 -9.96,4.69 -15.27,2.96 -5.17,-1.52 -7.36,-8.98 -3.34,-12.76 4.43,-4.28 10.81,-5.04 16.48,-6.65 3.18,-0.64 2.1,-4.67 2.08,-6.99 0.04,-3.58 -3.71,-5.87 -7,-5.21 -1.95,1.13 -2.78,3.39 -4.21,5.04 -1.43,2.01 -4.77,2.8 -6.7,1.12 -1.12,-1.62 -0.56,-3.67 1.03,-4.7 m 5.57,17.55 c -2.58,2.16 -1.82,7.16 1.55,8.1 3.33,1.03 6.76,-0.24 9.73,-1.74 0.16,-3.37 0.21,-6.74 0.02,-10.1 -3.96,0.38 -8.15,1.16 -11.3,3.74 z"
       id="path139"
       inkscape:connector-curvature="0"
       style="fill:#000000" />
    <path
       d="m 1336.4,512.57 c 1.01,-0.91 2.08,-1.02 3.21,-0.32 0.75,9.22 -0.39,18.51 0.32,27.73 0.29,3.52 4.58,3.58 6.87,5.32 -0.18,0.5 -0.54,1.5 -0.72,2 -6.07,-0.14 -12.14,0.23 -18.2,0.06 -0.51,-3.38 4.99,-3.01 4.73,-6.44 0.22,-5.71 0.5,-11.51 -0.24,-17.19 -0.45,-3.14 -4.61,-3.15 -5.79,-5.65 2.5,-2.74 6.81,-3.24 9.82,-5.51 z"
       id="path141"
       inkscape:connector-curvature="0"
       style="fill:#000000" />
    <path
       d="m 1351.89,517.93 c 3.37,-2.91 7.38,-4.91 11.45,-6.67 0.81,1.87 1.51,3.77 2.2,5.7 5.08,-2.68 10.37,-5.88 16.37,-5.3 3.58,0.02 6.29,2.56 8.68,4.91 5.63,-3.61 12.61,-6.2 19.32,-4.37 3.62,0.95 6.31,4.17 7.02,7.79 1.33,7.09 -0.13,14.38 0.89,21.49 1.07,3.63 6.98,1.77 7.62,5.66 -4.51,0.15 -9.01,-0.31 -13.51,-0.05 -2.24,0 -4.55,0.47 -6.68,-0.32 -0.76,-3.19 4.65,-1.87 4.94,-4.84 0.67,-4.27 0.24,-8.62 0.35,-12.92 -0.03,-3.56 -0.15,-7.91 -3.39,-10.15 -3.41,-2.09 -7.71,-1.2 -11.3,-0.15 -1.93,0.77 -4.98,1.64 -4.56,4.3 -0.06,6.04 -0.34,12.1 -0.06,18.15 -0.12,3.59 4.54,3.06 6.9,4.2 -0.27,0.46 -0.82,1.38 -1.1,1.84 -6.14,0.33 -12.33,0.56 -18.45,-0.04 0.68,-2.26 3.22,-2.39 4.88,-3.61 1.31,-2.64 0.79,-5.72 0.94,-8.56 -0.16,-4.22 0.46,-8.6 -0.89,-12.67 -0.98,-2.69 -3.51,-5.02 -6.5,-4.79 -4.03,0.13 -8.66,1.07 -11.18,4.49 -0.51,6.31 -0.46,12.73 -0.02,19.06 0.56,4 5.85,2.23 8.03,4.71 -1.07,1.66 -3.23,1.03 -4.83,1.28 -5.35,-0.07 -10.67,0.51 -16.01,0.51 0.57,-2.25 3.17,-2.56 4.74,-3.87 1.18,-2.37 0.74,-5.14 0.87,-7.69 -0.17,-4.41 0.35,-8.88 -0.38,-13.25 -0.52,-3.05 -4.17,-3.46 -6.34,-4.84 z"
       id="path143"
       inkscape:connector-curvature="0"
       style="fill:#000000" />
    <path
       d="m 1435.23,516.25 c 4.98,-4.77 13.27,-6.43 19.33,-2.74 3.8,2.12 5.68,6.26 8.21,9.61 -1.39,2.04 -3.93,2.57 -6.11,3.31 -6.34,1.83 -12.65,3.75 -18.98,5.6 0.92,4.14 2.91,8.8 7.38,10.06 6.2,1.89 12.1,-1.73 17.58,-4.14 0,1.26 0.34,2.86 -0.94,3.68 -4.83,4.1 -11.35,6.26 -17.66,5.8 -6.38,-0.39 -12.18,-5.12 -13.82,-11.29 -1.83,-6.86 -0.35,-14.95 5.01,-19.89 m 4.2,2.19 c -2.03,2.92 -2.15,6.61 -2.04,10.03 4.32,-1.5 8.81,-2.47 13.07,-4.14 2.1,-0.67 2.32,-3.4 1.28,-5.04 -2.19,-4.58 -9.48,-4.94 -12.31,-0.85 z"
       id="path145"
       inkscape:connector-curvature="0"
       style="fill:#000000" />
  </g>
</svg>
