<?xml version="1.0" encoding="UTF-8" standalone="no"?>
<!-- Created with Inkscape (http://www.inkscape.org/) -->

<svg
   xmlns:dc="http://purl.org/dc/elements/1.1/"
   xmlns:cc="http://creativecommons.org/ns#"
   xmlns:rdf="http://www.w3.org/1999/02/22-rdf-syntax-ns#"
   xmlns:svg="http://www.w3.org/2000/svg"
   xmlns="http://www.w3.org/2000/svg"
   xmlns:sodipodi="http://sodipodi.sourceforge.net/DTD/sodipodi-0.dtd"
   xmlns:inkscape="http://www.inkscape.org/namespaces/inkscape"
   width="297mm"
   height="210mm"
   viewBox="0 0 1052.3622 744.09448"
   id="svg2"
   version="1.1"
   inkscape:version="0.91pre3 r13670"
   sodipodi:docname="fluxbox_logo_black.svg">
  <defs
     id="defs4" />
  <sodipodi:namedview
     id="base"
     pagecolor="#ffffff"
     bordercolor="#666666"
     borderopacity="1.0"
     inkscape:pageopacity="0.0"
     inkscape:pageshadow="2"
     inkscape:zoom="0.49497475"
     inkscape:cx="77.821973"
     inkscape:cy="589.86195"
     inkscape:document-units="px"
     inkscape:current-layer="layer1"
     showgrid="false"
     inkscape:window-width="1920"
     inkscape:window-height="1017"
     inkscape:window-x="-8"
     inkscape:window-y="-8"
     inkscape:window-maximized="1" />
  <metadata
     id="metadata7">
    <rdf:RDF>
      <cc:Work
         rdf:about="">
        <dc:format>image/svg+xml</dc:format>
        <dc:type
           rdf:resource="http://purl.org/dc/dcmitype/StillImage" />
        <dc:title></dc:title>
      </cc:Work>
    </rdf:RDF>
  </metadata>
  <g
     inkscape:label="Camada 1"
     inkscape:groupmode="layer"
     id="layer1"
     transform="translate(0,-308.26772)">
    <path
       style="fill:#000000"
       d="m 366.94955,961.04424 c -10.41183,-3.32725 -18.93305,-11.48041 -21.44264,-20.51646 -1.03166,-3.71458 -1.88032,-18.84117 -1.88589,-33.61467 -0.009,-24.44047 0.31803,-27.18908 3.63199,-30.50304 2.00318,-2.00318 5.28113,-3.64215 7.28431,-3.64215 2.00319,0 5.28112,1.63897 7.2843,3.64215 3.29529,3.29528 3.64216,6.07026 3.64216,29.13724 0,23.06698 0.34689,25.84196 3.64216,29.13724 4.53464,4.53464 19.09927,5.00326 25.08988,0.80728 3.87217,-2.71218 4.04736,-4.00058 4.04736,-29.76555 0,-23.77722 0.38996,-27.28354 3.33027,-29.9445 4.24,-3.83715 10.13803,-3.85401 13.95213,-0.0399 2.57404,2.57401 2.89762,7.33224 2.40642,35.38389 -0.51672,29.50988 -0.90785,32.86943 -4.37098,37.54503 -8.92187,12.04544 -30.07024,17.65948 -46.61147,12.37345 z M 232.96017,959.5698 c -8.77322,-3.18178 -18.67252,-11.75685 -21.56548,-18.68068 -1.80503,-4.32005 -2.54355,-14.2592 -2.54355,-34.23155 l 0,-28.14397 6.11147,-2.01695 c 4.20344,-1.38726 7.61471,-1.44543 10.92646,-0.1863 l 4.815,1.83066 0,22.89897 c 0,34.75077 3.3783,39.1078 30.3229,39.1078 12.81275,0 17.43957,0.67461 19.62665,2.86169 3.64459,3.6446 3.65557,9.76309 0.0267,14.94387 -2.64069,3.77011 -4.16889,4.03788 -22.3082,3.90881 -10.71034,-0.0761 -22.14577,-1.10776 -25.41208,-2.29235 z m 251.77776,-1.87597 c -3.33218,-5.08559 -2.44962,-8.0424 7.10765,-23.81269 3.60627,-5.95064 6.55684,-13.15377 6.55684,-16.00698 0,-5.2658 -4.9782,-16.57196 -11.16426,-25.35552 -1.8724,-2.65858 -3.40436,-6.83387 -3.40436,-9.2784 0,-4.4759 4.95513,-10.47232 8.65381,-10.47232 3.48908,0 12.74711,8.91709 18.06852,17.40313 8.9707,14.30559 16.25588,13.31496 27.44116,-3.73141 8.66168,-13.20039 14.55902,-16.31723 20.57405,-10.87369 5.11396,4.62805 4.4529,9.35584 -2.99539,21.42304 -10.64152,17.24061 -9.94083,26.6689 3.38745,45.58068 6.38605,9.06127 3.66359,19.43104 -5.10138,19.43104 -5.59704,0 -13.73025,-7.10139 -20.86212,-18.21544 -3.21195,-5.0054 -7.16392,-9.10072 -8.78214,-9.10072 -1.61821,0 -8.70328,6.14644 -15.74458,13.65879 -13.87209,14.80006 -18.87353,16.77037 -23.73525,9.35049 z m 148.93396,2.44921 c -5.50008,-2.21316 -7.15326,-9.72786 -3.40012,-15.45584 2.87217,-4.38348 3.66302,-4.53942 23.02136,-4.53942 16.21465,0 20.24911,-0.52664 21.10413,-2.7548 2.43714,-6.35106 -2.6611,-8.17166 -22.88311,-8.17166 -12.69552,0 -20.20315,-0.7585 -21.62994,-2.1853 -3.63222,-3.63221 -2.73195,-15.60478 1.33714,-17.78249 1.93733,-1.03683 12.12567,-1.88515 22.64074,-1.88515 17.66825,0 19.20811,-0.28286 20.30203,-3.72954 2.34161,-7.37777 -1.77803,-9.01799 -22.64997,-9.01799 -21.00737,0 -23.81524,-1.08321 -23.81524,-9.18736 0,-9.28554 4.28767,-10.84449 29.82634,-10.84449 25.0261,0 30.50936,1.47434 37.22223,10.00837 3.27599,4.16475 3.62913,7.3706 3.59872,32.66977 -0.0382,31.80873 -1.77078,37.30906 -13.26474,42.11154 -7.08278,2.95936 -44.5694,3.51672 -51.40957,0.76436 z m 145.86684,-0.75846 c -12.43027,-5.40999 -20.75299,-23.34373 -20.68227,-44.56604 0.0484,-14.52315 4.0589,-24.30785 13.28244,-32.40625 8.27879,-7.26887 16.61842,-9.6213 34.15431,-9.6342 11.46376,-0.009 15.43737,0.83366 23.58268,4.99779 5.38773,2.75438 12.29544,8.15528 15.35044,12.00199 5.16041,6.49773 5.59962,8.21849 6.18973,24.25052 0.79412,21.57407 -0.42085,28.14527 -6.55081,35.4303 -8.21951,9.76833 -16.81687,12.46635 -39.61131,12.43074 -12.8085,-0.0201 -22.08123,-0.92322 -25.71521,-2.50485 z m 42.28701,-25.42847 c 5.69865,-5.69864 6.19167,-7.08311 6.19167,-17.38719 0,-9.76746 -0.61465,-11.76516 -4.81861,-15.66126 -4.20668,-3.8986 -6.51938,-4.46574 -18.21078,-4.46574 -18.29102,0 -20.67647,2.39745 -20.67647,20.78052 0,12.83495 0.27451,13.72717 5.60297,18.21076 4.54777,3.82671 7.49715,4.71458 15.66126,4.71458 9.01074,0 10.70315,-0.64485 16.24996,-6.19167 z m 87.35969,25.1829 c -4.36364,-4.36363 -3.53814,-8.09456 4.83178,-21.83783 10.23283,-16.80214 10.20184,-23.29742 -0.19318,-40.50176 -6.85092,-11.33869 -7.41298,-13.12531 -5.47042,-17.38876 4.87259,-10.69419 13.71091,-7.30433 25.46065,9.76516 3.70133,5.37717 8.55862,10.45322 10.79396,11.28015 4.42088,1.63538 8.45757,-2.01641 20.54123,-18.58267 7.30875,-10.02001 14.03044,-11.7366 18.60704,-4.75181 3.55584,5.42689 2.81873,8.3646 -5.61162,22.36458 -7.8821,13.08951 -8.04063,20.12728 -0.75187,33.3774 9.12664,16.59121 9.56426,17.76736 8.37448,22.5078 -0.63024,2.51108 -2.84338,5.10437 -4.91806,5.76283 -6.5304,2.07268 -13.65854,-2.62156 -22.3708,-14.7323 -4.63604,-6.44449 -9.643,-11.71725 -11.12657,-11.71725 -1.48355,0 -5.38057,3.06451 -8.66003,6.81001 -18.25487,20.84903 -23.29067,23.86036 -29.50659,17.64445 z M 75.284208,956.84935 c -2.524133,-2.78915 -3.008999,-7.74559 -2.983903,-30.50304 0.02729,-24.78607 0.389659,-27.80785 4.125158,-34.40323 4.61372,-8.14595 13.176691,-14.61102 22.946829,-17.32489 10.349818,-2.8749 36.951538,-2.33699 41.485708,0.83886 4.76654,3.33861 6.7925,10.78109 4.23544,15.55901 -1.74873,3.2675 -3.86448,3.60479 -22.61272,3.60479 -21.8833,0 -22.894211,0.40863 -22.894211,9.25433 0,3.22314 1.487511,3.4932 19.241021,3.4932 10.58258,0 20.82614,0.84832 22.76347,1.88515 4.06909,2.17771 4.96936,14.15028 1.33714,17.78249 -1.452,1.452 -9.37443,2.1853 -23.60994,2.1853 -24.824458,0 -25.194921,0.25167 -25.194921,17.11643 0,8.09369 -0.69176,10.4418 -3.522437,11.95673 -5.375568,2.87692 -11.968146,2.2549 -15.316634,-1.44513 z M 245.83835,835.40941 c -10.16396,-15.88781 -17.01883,-32.77384 -20.3108,-50.03295 -2.41901,-12.68227 -4.06344,-17.22952 -6.75035,-18.66648 -6.66178,-3.56266 -42.77713,-29.23714 -42.09142,-29.92284 0.37587,-0.37588 10.16262,3.02304 21.74833,7.55315 11.58571,4.5301 21.76551,8.23653 22.62178,8.23653 1.30519,0 6.09946,-25.68428 6.4586,-34.60046 0.0604,-1.50239 -1.38448,-9.2875 -3.21108,-17.30024 -4.81532,-21.12333 -4.47584,-57.03168 0.72312,-76.48525 18.18986,-68.06328 79.67831,-123.99616 182.10995,-165.65602 129.26441,-52.57301 318.90296,-75.42312 459.57882,-55.37602 7.76235,1.10618 14.11335,2.60765 14.11335,3.33659 0,0.72894 -9.62895,1.47771 -21.39767,1.66393 -115.69173,1.83072 -244.27711,28.15938 -345.34881,70.71235 -59.39057,25.00446 -125.15852,63.78636 -156.81323,92.46927 l -9.10539,8.25057 21.85293,-10.69832 c 94.44403,-46.236 190.93142,-70.3564 315.04637,-78.75683 54.67937,-3.70086 175.32217,0.92202 193.94471,7.43172 4.20891,1.47125 4.05834,1.6023 -1.99369,1.7352 -16.92544,0.37172 -67.68505,4.33048 -97.25501,7.58497 -168.52762,18.54827 -305.83632,68.54872 -405.58263,147.69138 -24.07476,19.10188 -55.44491,50.5338 -72.22277,72.36502 -12.9904,16.90299 -28.69675,41.5045 -27.33158,42.81058 1.43161,1.36961 37.75436,8.61807 55.3309,11.04165 85.33718,11.76692 158.23637,-3.30123 216.3049,-44.70991 20.66645,-14.73724 47.60537,-42.87604 59.40692,-62.05292 5.10773,-8.29976 9.28676,-16.14909 9.28676,-17.44294 0,-1.29388 0.91495,-2.3525 2.03324,-2.3525 3.10498,0 0.2131,22.04737 -5.13556,39.15316 -9.39612,30.05007 -29.30928,61.13477 -53.5275,83.55716 -68.72819,63.63176 -167.50091,72.8153 -273.7253,25.44998 -10.10965,-4.50788 -19.35188,-8.61475 -20.53829,-9.12636 -3.08831,-1.33179 -9.76885,21.05184 -11.21723,37.58414 l -1.19426,13.63166 -5.80811,-9.07897 z m 74.0985,-107.39362 c 0,-0.76014 3.7291,-6.60791 8.28687,-12.99507 l 8.28685,-11.61298 16.29769,0 c 8.96373,0 16.29768,0.50742 16.29768,1.12759 0,0.62016 -2.92753,5.94681 -6.50562,11.83699 l -6.50564,10.70941 -9.62989,0 c -5.29645,0 -13.43196,0.52115 -18.07892,1.15806 -4.64695,0.63695 -8.44902,0.53615 -8.44902,-0.224 z"
       id="path3347"
       inkscape:connector-curvature="0" />
  </g>
</svg>
