<?xml version="1.0" encoding="UTF-8" standalone="no"?>
<svg
   xmlns:dc="http://purl.org/dc/elements/1.1/"
   xmlns:cc="http://creativecommons.org/ns#"
   xmlns:rdf="http://www.w3.org/1999/02/22-rdf-syntax-ns#"
   xmlns:svg="http://www.w3.org/2000/svg"
   xmlns="http://www.w3.org/2000/svg"
   xmlns:sodipodi="http://sodipodi.sourceforge.net/DTD/sodipodi-0.dtd"
   xmlns:inkscape="http://www.inkscape.org/namespaces/inkscape"
   width="512"
   height="512"
   viewBox="0 0 409.6 409.6"
   version="1.1"
   id="svg2"
   inkscape:version="0.48.4 r9939"
   sodipodi:docname="gulp.svg">
  <metadata
     id="metadata15">
    <rdf:RDF>
      <cc:Work
         rdf:about="">
        <dc:format>image/svg+xml</dc:format>
        <dc:type
           rdf:resource="http://purl.org/dc/dcmitype/StillImage" />
      </cc:Work>
    </rdf:RDF>
  </metadata>
  <defs
     id="defs13" />
  <sodipodi:namedview
     pagecolor="#ffffff"
     bordercolor="#666666"
     borderopacity="1"
     objecttolerance="10"
     gridtolerance="10"
     guidetolerance="10"
     inkscape:pageopacity="0"
     inkscape:pageshadow="2"
     inkscape:window-width="1366"
     inkscape:window-height="705"
     id="namedview11"
     showgrid="false"
     fit-margin-top="10"
     fit-margin-right="10"
     fit-margin-bottom="10"
     fit-margin-left="10"
     inkscape:zoom="0.37019608"
     inkscape:cx="152.5"
     inkscape:cy="326.68724"
     inkscape:window-x="-8"
     inkscape:window-y="-8"
     inkscape:window-maximized="1"
     inkscape:current-layer="svg2" />
  <g
     id="#eb4a4bff"
     transform="matrix(0.80936477,0,0,0.80936477,115.2,-1.8403934)">
    <path
       d="m 210.97,4.99 c 1.3,-1.28 2.69,-3.33 4.82,-2.54 5.38,1.53 9.88,5.8 12.21,10.83 l 0,2.09 c -18.34,19.85 -37.15,39.28 -55.63,59.01 -1.03,1 -1.45,2.4 -1.78,3.76 -3,12.46 -6.1,24.9 -9.19,37.35 18.41,1.28 36.97,2.78 54.9,7.42 4.05,1.36 8.86,2.33 11.47,6.03 0.5,4.67 -5.46,5.82 -8.81,7.24 -22.68,6.48 -46.47,7.49 -69.89,8.95 -32.85,1.23 -65.82,1.01 -98.58,-1.97 C 37.82,141.85 25.1,140.44 12.75,137.19 8.17,135.88 3.27,134.47 0,130.75 l 0,-1.55 c 1.99,-2.3 4.68,-3.84 7.53,-4.82 7.9,-2.81 16.23,-4.17 24.5,-5.44 35.78,-5.01 72.02,-5.2 108.08,-4.52 4.25,-15.92 7.99,-32.01 12.57,-47.82 19.24,-20.7 38.93,-41.01 58.29,-61.61 m -78.84,130.09 c 3.04,2.49 7.07,2.96 10.85,3.24 4.65,0.21 9.41,0.09 13.88,-1.36 1.13,-0.5 3.47,-1.14 2.64,-2.85 -0.45,-0.38 -1.34,-1.14 -1.79,-1.52 -0.36,0.4 -1.08,1.19 -1.45,1.59 -4.74,2.16 -10.22,1.58 -15.28,1.35 -2.23,-0.45 -5.7,-0.3 -6.04,-3.24 -1.09,0.78 -2.03,1.71 -2.81,2.79 z"
       id="path5"
       inkscape:connector-curvature="0"
       style="fill:#eb4a4b" />
    <path
       d="m 1.44,138.62 c 5.57,2.74 11.65,4.2 17.7,5.46 27.62,5.27 55.8,6.34 83.84,7.01 21.34,0.28 42.69,-0.34 63.98,-1.72 15.28,-1.3 30.63,-2.68 45.63,-6.01 4.9,-1.15 9.8,-2.49 14.32,-4.74 -4.77,45 -9.73,89.99 -14.51,134.99 -6.11,5.53 -12.31,10.98 -18.88,15.95 -2.02,1.33 -4.09,3.23 -6.69,2.77 -1.03,-0.93 -0.88,-2.42 0.09,-3.3 5.97,-7.35 12.95,-14.19 16.63,-23.07 1.22,-3.04 1.6,-7.03 -0.83,-9.59 -3.19,-3.49 -8.6,-4.03 -12.86,-2.47 -5.94,2.3 -10.62,6.82 -15.01,11.28 0.49,-2.67 1.47,-5.49 0.56,-8.18 -1.39,-2.16 -5.06,-2.33 -6.46,-0.08 -3.33,4.4 -4.65,9.89 -6.37,15.04 -0.32,1.4 -1.53,2.25 -2.46,3.22 -5.48,5.24 -11.07,10.54 -17.7,14.32 -1.55,1 -3.37,1.29 -5.18,1.35 -1.02,-3.71 0.73,-7.31 1.98,-10.72 7.21,-18.08 14.37,-36.2 22.19,-54.04 1.3,-3.03 3.31,-6.32 2.08,-9.72 -1.4,-2.64 -5.2,-2.8 -7.47,-1.27 -1.65,1.06 -2.39,2.96 -3.12,4.7 -7.73,19.7 -15.66,39.31 -23.28,59.05 -0.95,2.37 -1.69,4.81 -2.36,7.27 -3.59,2.66 -7.7,6.25 -12.49,5.36 -1.5,-1.46 -0.88,-3.6 -0.61,-5.41 1.65,-8.98 6.33,-16.94 9.33,-25.47 1.17,-2.98 0.15,-7.32 -3.51,-7.75 -3.4,0.09 -4.77,3.61 -5.9,6.26 -3.29,9.73 -7.76,19.44 -15.09,26.82 -2.96,2.9 -6.88,5.21 -11.18,4.46 -1.83,-5.13 0.68,-10.46 2.42,-15.26 2.29,-5.9 5.93,-11.17 8.15,-17.09 0.72,-2.22 -1.01,-4.48 -3.2,-4.8 -2.99,-0.91 -5.89,1.2 -7.07,3.85 -4.8,9.94 -9.21,20.15 -11.9,30.89 -1.01,3.95 -1.25,8.84 1.87,11.96 3.2,2.87 7.93,2.62 11.83,1.64 7.29,-1.88 12.97,-7.47 16.73,-13.78 -0.36,3.34 -0.83,6.76 -0.26,10.11 0.52,3.03 3.85,4.82 6.73,4.26 4.98,-0.89 9.36,-3.68 13.29,-6.73 0.58,4.13 4.3,7.38 8.54,6.79 8.27,-0.9 14.71,-6.84 20.64,-12.17 -4.2,9.81 -8.93,19.39 -13.26,29.14 -1.56,4.04 -3.96,8.42 -2.46,12.84 1.52,1.87 4.28,2.08 6.42,1.27 2.62,-1.32 4.19,-4.01 5.18,-6.67 3.94,-10.89 7.86,-21.81 12.8,-32.3 4.04,-9.6 9.35,-18.94 17.22,-25.92 3.23,-2.68 7.79,-5.89 12.05,-3.69 -0.31,1.48 -0.66,3.01 -1.53,4.29 -5.19,8.01 -12.75,14.38 -16.89,23.08 -2.3,4.38 0.99,9.79 5.85,10.05 12.37,1.31 21.47,-8.72 29.97,-16.11 -3.64,31.27 -7.06,62.57 -10.89,93.82 -3.63,3.3 -8.52,4.67 -13.04,6.31 -20.7,6.5 -42.42,9.1 -64.03,10.08 -17.78,0.49 -35.61,-0.43 -53.19,-3.15 -12.9,-2.09 -25.87,-4.65 -37.96,-9.73 -2.11,-1.13 -4.93,-1.93 -5.88,-4.34 -2.45,-26.02 -4.87,-52.05 -7.48,-78.05 3.78,2.24 8.45,2.87 12.61,1.33 9.1,-3.31 16.08,-10.38 22.64,-17.22 -2.4,7.06 -4.58,14.2 -6.56,21.39 -0.81,2.85 -1.11,5.93 -0.36,8.82 0.56,1.98 3.26,2.68 4.79,1.36 2.47,-1.79 3.8,-4.73 4.61,-7.59 3.3,-11.58 6.62,-23.17 10.35,-34.62 2.77,-8.34 7.28,-16.51 6.72,-25.55 -0.8,-4.46 -7.27,-4.24 -8.94,-0.51 -2.78,5.92 -3.89,12.51 -6.7,18.43 -4,6.68 -9.37,12.44 -15.08,17.69 -3.41,2.83 -7.03,5.9 -11.51,6.77 -3.65,0.5 -5.88,-3.18 -6.3,-6.32 -1.32,-8.86 1.35,-17.71 4.28,-25.99 4.47,-11.65 10.43,-22.88 18.54,-32.42 3.74,-4.09 7.9,-8.36 13.42,-9.85 3.56,-0.95 7.38,0.81 9.37,3.81 2.2,2.89 3.32,6.76 6.47,8.83 3.24,1.4 6.26,-2.16 6.13,-5.24 0.72,-4.93 -2.98,-8.75 -6.06,-12.03 -5.1,-5.12 -13.01,-7.24 -19.91,-4.92 -8.51,2.81 -15.47,8.95 -21.15,15.7 C 26.14,234.3 19.51,248.02 14.88,262.2 10.3,221.02 5.9,179.82 1.44,138.62 z"
       id="path7"
       inkscape:connector-curvature="0"
       style="fill:#eb4a4b" />
    <path
       d="m 31.45,388.99 c 13.92,5.25 28.62,8.11 43.33,10.12 31.31,4.11 63.32,3.23 94.31,-2.95 8.74,-1.77 17.41,-4.01 25.74,-7.23 -4.3,7.64 -8.7,15.24 -13.04,22.86 -1.26,2.17 -0.89,4.79 -1.13,7.19 -1.32,24.36 -2.76,48.71 -4.17,73.06 0.02,3.94 -3.93,6.13 -7,7.69 -9.87,4.56 -20.79,6.1 -31.49,7.41 -19.3,1.9 -38.87,1.66 -58.04,-1.42 -7.58,-1.38 -15.27,-2.98 -22.16,-6.53 -2.46,-1.4 -5.26,-3.16 -5.89,-6.13 -1.99,-26.32 -3.76,-52.68 -5.87,-78.97 -4.65,-8.48 -9.71,-16.75 -14.59,-25.1 z"
       id="path9"
       inkscape:connector-curvature="0"
       style="fill:#eb4a4b" />
  </g>
</svg>
