<?xml version="1.0" encoding="UTF-8" ?>
<!DOCTYPE svg PUBLIC "-//W3C//DTD SVG 1.1//EN" "http://www.w3.org/Graphics/SVG/1.1/DTD/svg11.dtd">
<svg width="342pt" height="258pt" viewBox="0 0 342 258" version="1.1" xmlns="http://www.w3.org/2000/svg">
<g id="#342415ff">
<path fill="#342415" opacity="1.00" d=" M 159.89 0.00 L 163.78 0.00 L 164.84 0.88 C 162.73 1.02 160.16 0.74 158.72 2.65 C 156.99 4.29 157.34 6.86 157.24 9.02 C 157.39 23.13 157.08 37.24 157.40 51.34 C 156.33 49.04 156.50 46.45 156.49 43.98 C 156.65 30.98 156.39 17.97 156.59 4.97 C 156.51 2.75 158.49 1.39 159.89 0.00 Z" />
<path fill="#342415" opacity="1.00" d=" M 12.43 5.35 L 12.44 5.22 C 13.25 9.30 12.63 13.51 13.00 17.64 C 17.23 14.92 22.85 14.77 27.38 16.82 C 22.28 15.66 16.94 16.25 12.30 18.69 C 12.20 14.25 12.07 9.79 12.43 5.35 Z" />
<path fill="#342415" opacity="1.00" d=" M 44.81 18.91 C 48.96 15.38 55.22 14.31 60.16 16.75 C 55.18 15.65 49.59 16.21 45.58 19.61 C 37.65 26.00 36.58 38.15 41.05 46.87 C 35.45 38.34 36.70 25.45 44.81 18.91 Z" />
<path fill="#342415" opacity="1.00" d=" M 123.38 18.43 C 127.77 15.06 134.11 14.43 139.01 17.03 C 132.92 15.16 125.76 16.50 121.53 21.49 C 115.45 28.32 115.02 38.92 119.06 46.89 C 113.30 38.15 114.76 24.79 123.38 18.43 Z" />
<path fill="#342415" opacity="1.00" d=" M 174.24 23.17 C 179.27 15.73 190.35 13.12 198.09 17.77 C 191.23 14.99 182.74 15.97 177.37 21.29 C 170.99 27.27 169.83 37.15 173.08 45.03 C 169.20 38.31 169.86 29.49 174.24 23.17 Z" />
<path fill="#342415" opacity="1.00" d=" M 254.00 20.02 C 258.18 16.65 263.89 14.02 269.22 16.25 C 264.53 15.91 259.49 16.72 255.92 20.03 C 248.50 26.64 247.54 38.34 251.97 46.91 C 249.87 43.68 248.72 39.88 248.60 36.04 C 248.32 34.57 248.86 32.53 247.28 31.69 L 247.25 31.27 C 247.89 30.54 248.54 29.84 249.22 29.16 C 250.15 25.80 252.02 22.84 254.00 20.02 Z" />
<path fill="#342415" opacity="1.00" d=" M 57.36 117.43 C 59.90 107.15 74.60 102.42 82.49 109.64 C 86.65 113.90 84.41 120.70 79.84 123.67 C 80.48 121.33 81.31 117.84 78.46 116.59 C 75.83 114.82 73.20 117.04 71.57 119.02 C 71.23 119.37 70.57 120.06 70.23 120.41 C 69.98 121.88 69.81 123.35 69.62 124.83 C 65.56 125.03 61.49 125.03 57.42 124.87 C 57.68 122.39 57.63 119.90 57.36 117.43 Z" />
<path fill="#342415" opacity="1.00" d=" M 258.20 115.00 C 258.08 109.09 264.78 105.87 269.96 106.21 C 277.31 106.05 283.98 111.33 285.97 118.33 C 285.44 120.49 284.96 122.66 284.50 124.83 C 280.84 125.04 277.17 125.04 273.51 124.83 C 273.23 123.68 272.93 122.53 272.61 121.39 C 272.35 120.99 271.82 120.21 271.56 119.81 C 270.15 117.46 267.50 114.80 264.55 116.46 C 261.47 117.77 261.98 121.61 263.47 123.95 C 260.63 121.83 257.69 118.88 258.20 115.00 Z" />
</g>
<g id="#ffffffff">
<path fill="#ffffff" opacity="1.00" d=" M 1.56 3.73 C 2.64 2.70 3.72 1.67 4.80 0.64 C 8.01 0.31 11.94 1.75 12.43 5.35 C 12.07 9.79 12.20 14.25 12.30 18.69 C 16.94 16.25 22.28 15.66 27.38 16.82 C 31.50 18.47 34.78 22.37 34.97 26.90 C 35.05 34.28 34.99 41.67 35.00 49.05 C 35.40 52.32 32.19 55.27 28.98 54.72 C 26.15 54.55 24.12 51.83 23.84 49.18 C 23.56 42.79 23.99 36.39 23.66 30.02 C 23.33 26.96 19.96 24.89 17.06 25.70 C 14.49 26.09 12.71 28.55 12.56 31.04 C 12.21 37.65 12.92 44.32 12.23 50.89 C 10.96 55.99 3.04 55.85 1.57 50.94 C 1.56 35.21 1.71 19.48 1.56 3.73 Z" />
<path fill="#ffffff" opacity="1.00" d=" M 142.73 2.71 C 145.87 -0.95 152.65 0.84 152.89 5.86 C 153.12 20.28 152.97 34.71 152.97 49.13 C 153.04 52.24 150.17 55.14 147.00 54.73 C 145.00 54.64 143.54 53.13 142.26 51.78 C 135.42 58.72 123.25 54.97 119.06 46.89 C 115.02 38.92 115.45 28.32 121.53 21.49 C 125.76 16.50 132.92 15.16 139.01 17.03 C 139.99 17.62 140.92 18.29 141.86 18.94 C 141.69 14.24 141.77 9.54 141.79 4.84 C 142.02 4.31 142.49 3.25 142.73 2.71 M 131.47 27.61 C 124.87 31.35 126.35 44.99 134.99 44.61 C 141.42 44.27 143.08 35.99 140.81 31.08 C 139.55 27.40 134.83 25.61 131.47 27.61 Z" />
<path fill="#ffffff" opacity="1.00" d=" M 158.72 2.65 C 160.16 0.74 162.73 1.02 164.84 0.88 C 166.39 2.19 168.29 3.68 168.18 5.94 C 168.35 19.97 168.19 34.01 168.25 48.04 C 168.36 50.42 167.60 53.29 165.15 54.20 C 162.31 55.64 158.75 54.11 157.40 51.34 C 157.08 37.24 157.39 23.13 157.24 9.02 C 157.34 6.86 156.99 4.29 158.72 2.65 Z" />
<path fill="#ffffff" opacity="1.00" d=" M 211.77 2.70 C 214.71 -0.65 220.80 0.51 221.79 5.01 C 222.32 9.64 221.72 14.33 222.25 18.97 C 223.08 18.21 223.93 17.47 224.78 16.73 C 228.97 16.13 233.55 15.53 237.44 17.64 C 242.67 20.31 245.89 25.71 247.25 31.27 L 247.28 31.69 C 248.21 38.64 246.59 46.38 241.20 51.21 C 236.08 56.28 226.65 57.19 221.51 51.66 C 219.24 56.42 211.53 55.25 210.84 50.07 C 210.70 35.01 210.75 19.95 210.82 4.88 C 211.06 4.34 211.53 3.24 211.77 2.70 M 226.35 27.43 C 219.89 30.81 220.40 43.17 228.09 44.55 C 234.60 45.63 237.96 37.30 235.76 32.13 C 234.92 28.08 230.12 25.42 226.35 27.43 Z" />
<path fill="#ffffff" opacity="1.00" d=" M 255.92 20.03 C 259.49 16.72 264.53 15.91 269.22 16.25 C 271.71 16.87 273.70 18.56 275.64 20.14 L 275.49 18.72 C 278.56 15.53 284.92 16.35 285.68 21.14 C 285.85 30.44 285.70 39.75 285.75 49.04 C 286.15 52.28 283.05 55.07 279.90 54.76 C 277.97 54.61 276.66 53.01 275.12 52.05 C 268.00 58.56 256.30 54.89 251.97 46.91 C 247.54 38.34 248.50 26.64 255.92 20.03 M 265.10 27.26 C 260.05 29.52 259.16 36.58 261.55 41.08 C 263.51 44.94 269.32 45.89 272.30 42.69 C 275.11 39.37 275.35 34.21 273.41 30.42 C 272.00 27.42 268.15 25.94 265.10 27.26 Z" />
<path fill="#ffffff" opacity="1.00" d=" M 304.82 16.69 C 308.36 15.45 313.96 16.20 314.02 20.89 C 314.08 21.97 314.14 23.05 314.20 24.13 C 313.65 24.64 313.11 25.14 312.56 25.64 C 309.47 28.46 303.43 27.40 301.87 31.97 C 300.62 38.50 302.57 45.39 300.75 51.83 C 298.68 56.26 291.56 55.36 290.44 50.67 C 289.76 43.14 290.60 35.53 290.00 27.98 C 290.17 25.26 290.24 22.54 290.56 19.83 C 290.93 19.37 291.65 18.46 292.01 18.00 C 292.48 17.67 293.43 17.02 293.90 16.69 C 296.81 16.36 299.56 17.45 301.38 19.74 C 302.51 18.71 303.66 17.69 304.82 16.69 Z" />
<path fill="#ffffff" opacity="1.00" d=" M 45.58 19.61 C 49.59 16.21 55.18 15.65 60.16 16.75 C 61.31 17.41 62.40 18.17 63.37 19.06 C 63.59 19.28 64.03 19.71 64.26 19.93 C 66.05 17.75 68.52 16.56 71.38 16.81 C 73.40 18.18 75.21 20.27 74.98 22.88 C 75.00 31.64 75.04 40.41 74.97 49.18 C 74.98 51.89 72.84 54.53 70.06 54.72 C 67.67 55.10 65.73 53.43 64.25 51.78 C 57.44 58.76 45.24 54.94 41.05 46.87 C 36.58 38.15 37.65 26.00 45.58 19.61 M 51.84 28.86 C 48.38 32.82 48.67 39.48 52.23 43.29 C 54.50 44.89 57.58 45.57 60.03 43.94 C 64.64 41.04 65.08 34.24 62.33 29.89 C 60.14 26.33 54.66 25.72 51.84 28.86 Z" />
<path fill="#ffffff" opacity="1.00" d=" M 79.49 20.61 C 80.85 17.46 84.14 16.41 87.34 16.95 C 88.43 17.83 89.45 18.80 90.48 19.75 C 91.53 18.70 92.63 17.70 93.75 16.72 C 97.78 16.20 102.08 15.59 105.96 17.18 C 110.24 18.90 113.20 23.40 113.00 28.02 C 112.96 35.37 113.08 42.73 112.95 50.09 C 112.82 53.00 109.73 55.14 106.94 54.71 C 104.13 54.53 102.13 51.82 101.83 49.17 C 101.49 42.58 102.16 35.93 101.52 29.37 C 100.30 24.06 91.65 24.52 90.77 29.82 C 89.93 36.83 91.08 43.99 90.20 51.00 C 88.82 56.01 81.05 55.79 79.56 50.96 C 79.53 40.87 79.83 30.72 79.49 20.61 Z" />
<path fill="#ffffff" opacity="1.00" d=" M 177.37 21.29 C 182.74 15.97 191.23 14.99 198.09 17.77 C 204.80 21.42 208.84 29.39 207.60 36.97 C 207.10 39.07 204.66 39.38 202.86 39.48 C 196.21 39.59 189.55 39.37 182.89 39.59 C 184.46 45.77 192.11 45.58 196.95 43.94 C 198.34 43.32 199.69 42.62 200.91 41.71 C 205.35 40.34 209.17 45.74 206.48 49.46 C 202.62 54.21 195.94 55.24 190.17 55.40 C 183.06 55.59 176.15 51.46 173.08 45.03 C 169.83 37.15 170.99 27.27 177.37 21.29 M 183.32 30.47 L 183.13 30.45 C 183.16 30.79 183.21 31.46 183.24 31.80 C 187.87 31.83 192.50 31.90 197.13 31.74 C 196.51 30.49 195.85 29.26 195.15 28.05 C 191.79 23.74 185.08 25.65 183.32 30.47 Z" />
<path fill="#ffffff" opacity="1.00" d=" M 316.84 20.81 C 321.61 15.36 329.82 15.50 336.09 17.97 C 339.68 19.52 342.12 24.85 338.66 27.73 C 334.15 31.29 329.19 23.42 324.72 26.91 C 323.44 28.99 325.87 29.89 327.36 30.50 C 331.71 32.17 336.57 33.56 339.51 37.46 C 342.92 42.38 341.10 49.90 336.02 52.97 C 331.58 55.89 325.89 55.78 320.90 54.64 C 317.67 53.80 314.02 52.32 312.76 48.94 C 311.87 46.55 313.59 44.48 314.80 42.62 C 317.26 42.12 319.71 42.53 321.85 43.86 C 324.06 44.89 326.50 46.05 329.00 45.40 C 331.27 45.69 330.32 43.03 329.95 41.89 C 324.82 39.50 318.73 38.46 314.83 34.02 C 313.32 29.64 313.39 24.28 316.84 20.81 Z" />
<path fill="#ffffff" opacity="1.00" d=" M 134.30 89.34 C 145.24 87.13 156.26 91.04 165.70 96.37 C 169.97 99.08 175.23 97.61 179.34 95.35 C 187.69 90.80 197.33 87.51 206.93 89.22 C 218.03 90.81 227.71 96.85 236.42 103.57 C 239.80 106.01 244.04 109.19 248.40 107.33 C 252.82 104.47 256.55 100.44 261.63 98.65 C 271.42 95.57 282.92 98.57 289.75 106.30 C 298.80 118.56 298.48 136.90 288.80 148.73 C 282.98 156.51 273.52 160.29 264.38 162.49 C 248.66 165.05 232.50 161.58 218.25 154.81 C 210.09 151.66 202.74 146.42 194.07 144.69 C 190.81 143.89 187.13 145.99 186.44 149.34 C 185.81 152.85 186.13 156.45 186.09 160.00 C 185.96 183.68 186.07 207.35 186.04 231.03 C 185.93 237.62 185.43 245.35 179.78 249.75 C 174.19 254.78 164.80 253.66 160.25 247.79 C 156.03 242.93 156.15 236.07 155.96 230.02 C 156.06 204.36 155.96 178.70 155.94 153.04 C 156.10 150.15 155.25 147.00 152.68 145.37 C 149.59 144.45 146.25 145.04 143.33 146.25 C 128.51 152.52 114.08 160.46 97.99 162.96 C 89.96 163.40 81.65 163.97 73.90 161.33 C 64.05 158.91 55.31 152.42 50.22 143.65 C 44.37 131.44 45.04 115.67 54.19 105.23 C 61.89 97.37 74.97 94.68 84.71 100.24 C 88.76 102.39 91.61 106.52 96.13 107.78 C 102.46 107.99 106.93 102.90 111.85 99.74 C 118.49 94.71 126.06 90.90 134.30 89.34 M 118.57 104.63 C 107.49 111.17 99.59 121.72 89.07 128.97 C 84.20 132.70 76.48 132.35 72.63 127.35 C 70.66 124.99 70.93 121.82 71.57 119.02 C 73.20 117.04 75.83 114.82 78.46 116.59 C 81.31 117.84 80.48 121.33 79.84 123.67 C 84.41 120.70 86.65 113.90 82.49 109.64 C 74.60 102.42 59.90 107.15 57.36 117.43 C 55.20 122.83 55.37 128.94 56.57 134.55 C 58.46 142.56 65.15 148.66 72.76 151.29 C 85.05 155.70 98.73 154.33 110.90 150.20 C 128.80 143.70 145.11 132.63 164.14 129.43 C 165.43 129.82 165.96 130.70 165.73 132.05 C 165.75 167.68 165.71 203.31 165.75 238.94 C 165.42 241.29 167.58 242.60 168.92 244.16 C 170.88 243.89 173.22 244.30 174.79 242.80 C 176.20 241.25 176.57 239.09 176.55 237.07 C 176.53 202.06 176.55 167.05 176.53 132.04 C 176.22 130.18 177.07 129.34 179.07 129.54 C 196.86 132.58 212.31 142.50 228.86 149.08 C 240.58 153.64 253.71 155.58 266.06 152.52 C 273.07 150.84 279.83 146.94 283.70 140.70 C 287.71 134.03 287.71 125.71 285.97 118.33 C 283.98 111.33 277.31 106.05 269.96 106.21 C 264.78 105.87 258.08 109.09 258.20 115.00 C 257.69 118.88 260.63 121.83 263.47 123.95 C 261.98 121.61 261.47 117.77 264.55 116.46 C 267.50 114.80 270.15 117.46 271.56 119.81 C 272.71 124.41 270.08 129.30 265.53 130.69 C 260.15 133.10 254.52 129.99 250.39 126.60 C 241.06 118.92 233.07 109.47 222.39 103.54 C 212.46 97.70 200.01 96.27 189.06 99.86 C 181.59 102.33 175.55 107.88 171.39 114.45 C 167.31 107.99 161.42 102.42 154.07 99.98 C 142.35 95.95 128.94 97.94 118.57 104.63 Z" />
</g>
<g id="#160d044f">
<path fill="#160d04" opacity="0.31" d=" M 0.00 3.20 L 0.43 3.72 C 1.26 6.74 1.07 9.90 1.07 13.00 C 1.03 23.67 1.10 34.35 1.10 45.02 C 1.16 47.13 0.79 49.22 0.00 51.18 L 0.00 3.20 Z" />
</g>
<g id="#554a3e98">
<path fill="#554a3e" opacity="0.60" d=" M 314.02 20.89 C 317.02 19.10 319.54 16.30 323.13 15.69 C 327.51 15.03 332.39 15.27 336.09 17.97 C 329.82 15.50 321.61 15.36 316.84 20.81 C 313.39 24.28 313.32 29.64 314.83 34.02 C 312.96 31.63 312.90 28.52 312.56 25.64 C 313.11 25.14 313.65 24.64 314.20 24.13 C 314.14 23.05 314.08 21.97 314.02 20.89 Z" />
</g>
<g id="#3d2d1d9f">
<path fill="#3d2d1d" opacity="0.62" d=" M 63.37 19.06 C 64.94 16.14 68.53 15.21 71.38 16.81 C 68.52 16.56 66.05 17.75 64.26 19.93 C 64.03 19.71 63.59 19.28 63.37 19.06 Z" />
</g>
<g id="#241a0f67">
<path fill="#241a0f" opacity="0.40" d=" M 79.18 18.25 C 80.77 15.46 84.91 15.15 87.34 16.95 C 84.14 16.41 80.85 17.46 79.49 20.61 C 78.22 30.36 80.08 40.52 78.53 50.25 C 77.95 42.19 78.47 34.11 78.25 26.05 C 78.36 23.45 77.88 20.62 79.18 18.25 Z" />
</g>
<g id="#433a317b">
<path fill="#433a31" opacity="0.48" d=" M 195.15 28.05 C 195.85 29.26 196.51 30.49 197.13 31.74 C 192.50 31.90 187.87 31.83 183.24 31.80 C 183.21 31.46 183.16 30.79 183.13 30.45 L 183.32 30.47 C 187.50 30.84 191.70 30.85 195.90 30.73 C 195.71 30.06 195.34 28.72 195.15 28.05 Z" />
</g>
<g id="#4a3f348e">
<path fill="#4a3f34" opacity="0.56" d=" M 62.33 29.89 C 65.08 34.24 64.64 41.04 60.03 43.94 C 57.58 45.57 54.50 44.89 52.23 43.29 C 54.90 43.86 58.09 44.26 60.22 42.12 C 63.59 39.02 63.19 33.97 62.33 29.89 Z" />
</g>
<g id="#372c217a">
<path fill="#372c21" opacity="0.48" d=" M 329.95 41.89 C 330.32 43.03 331.27 45.69 329.00 45.40 C 326.50 46.05 324.06 44.89 321.85 43.86 C 324.60 44.07 329.12 45.84 329.95 41.89 Z" />
</g>
<g id="#ecf0f0ff">
<path fill="#ecf0f0" opacity="1.00" d=" M 123.01 87.93 C 134.46 82.83 148.15 82.81 159.45 88.37 C 163.73 90.10 167.33 93.27 171.63 94.87 C 178.68 90.68 185.88 86.29 194.06 84.79 C 202.51 83.40 211.36 84.30 219.22 87.79 C 229.29 92.00 237.69 99.12 246.14 105.84 C 248.98 100.96 253.12 96.77 258.41 94.61 C 268.39 90.45 280.61 92.24 288.94 99.16 C 295.38 104.23 299.14 112.10 300.30 120.11 C 301.56 129.43 300.45 139.41 295.44 147.54 C 289.87 156.69 280.29 162.92 270.03 165.59 C 259.24 168.51 247.78 168.19 236.92 165.83 C 220.26 162.22 205.79 152.74 190.00 146.74 C 189.93 175.84 189.98 204.93 189.97 234.02 C 189.90 237.69 190.36 241.51 189.03 245.04 C 186.20 253.46 176.90 259.08 168.12 257.50 C 161.20 256.58 155.34 251.41 152.87 244.98 C 152.51 243.33 152.20 241.67 152.12 239.98 C 151.84 209.22 152.37 178.45 151.85 147.69 L 151.82 147.08 C 136.18 153.29 121.66 162.60 105.00 166.00 C 91.35 168.84 76.54 168.40 63.82 162.26 C 53.40 157.26 45.04 147.58 42.81 136.10 C 40.67 125.01 42.10 112.46 49.44 103.48 C 57.53 93.29 72.61 89.49 84.53 94.73 C 89.65 96.93 93.75 101.01 96.50 105.81 C 104.93 99.30 113.09 92.13 123.01 87.93 M 134.30 89.34 C 126.06 90.90 118.49 94.71 111.85 99.74 C 106.93 102.90 102.46 107.99 96.13 107.78 C 91.61 106.52 88.76 102.39 84.71 100.24 C 74.97 94.68 61.89 97.37 54.19 105.23 C 45.04 115.67 44.37 131.44 50.22 143.65 C 55.31 152.42 64.05 158.91 73.90 161.33 C 81.65 163.97 89.96 163.40 97.99 162.96 C 114.08 160.46 128.51 152.52 143.33 146.25 C 146.25 145.04 149.59 144.45 152.68 145.37 C 155.25 147.00 156.10 150.15 155.94 153.04 C 155.96 178.70 156.06 204.36 155.96 230.02 C 156.15 236.07 156.03 242.93 160.25 247.79 C 164.80 253.66 174.19 254.78 179.78 249.75 C 185.43 245.35 185.93 237.62 186.04 231.03 C 186.07 207.35 185.96 183.68 186.09 160.00 C 186.13 156.45 185.81 152.85 186.44 149.34 C 187.13 145.99 190.81 143.89 194.07 144.69 C 202.74 146.42 210.09 151.66 218.25 154.81 C 232.50 161.58 248.66 165.05 264.38 162.49 C 273.52 160.29 282.98 156.51 288.80 148.73 C 298.48 136.90 298.80 118.56 289.75 106.30 C 282.92 98.57 271.42 95.57 261.63 98.65 C 256.55 100.44 252.82 104.47 248.40 107.33 C 244.04 109.19 239.80 106.01 236.42 103.57 C 227.71 96.85 218.03 90.81 206.93 89.22 C 197.33 87.51 187.69 90.80 179.34 95.35 C 175.23 97.61 169.97 99.08 165.70 96.37 C 156.26 91.04 145.24 87.13 134.30 89.34 Z" />
</g>
<g id="#2d1f13ff">
<path fill="#2d1f13" opacity="1.00" d=" M 118.57 104.63 C 128.94 97.94 142.35 95.95 154.07 99.98 C 161.42 102.42 167.31 107.99 171.39 114.45 C 175.55 107.88 181.59 102.33 189.06 99.86 C 200.01 96.27 212.46 97.70 222.39 103.54 C 233.07 109.47 241.06 118.92 250.39 126.60 C 254.52 129.99 260.15 133.10 265.53 130.69 C 270.08 129.30 272.71 124.41 271.56 119.81 C 271.82 120.21 272.35 120.99 272.61 121.39 C 272.93 122.53 273.23 123.68 273.51 124.83 C 277.17 125.04 280.84 125.04 284.50 124.83 C 284.96 122.66 285.44 120.49 285.97 118.33 C 287.71 125.71 287.71 134.03 283.70 140.70 C 279.83 146.94 273.07 150.84 266.06 152.52 C 253.71 155.58 240.58 153.64 228.86 149.08 C 212.31 142.50 196.86 132.58 179.07 129.54 C 174.13 128.78 169.08 128.77 164.14 129.43 C 145.11 132.63 128.80 143.70 110.90 150.20 C 98.73 154.33 85.05 155.70 72.76 151.29 C 65.15 148.66 58.46 142.56 56.57 134.55 C 55.37 128.94 55.20 122.83 57.36 117.43 C 57.63 119.90 57.68 122.39 57.42 124.87 C 61.49 125.03 65.56 125.03 69.62 124.83 C 69.81 123.35 69.98 121.88 70.23 120.41 C 70.57 120.06 71.23 119.37 71.57 119.02 C 70.93 121.82 70.66 124.99 72.63 127.35 C 76.48 132.35 84.20 132.70 89.07 128.97 C 99.59 121.72 107.49 111.17 118.57 104.63 M 126.28 104.27 C 118.10 107.34 111.39 113.24 105.73 119.76 C 102.79 123.19 98.96 125.66 95.70 128.77 C 92.76 131.53 89.64 134.20 86.02 136.03 C 83.23 137.48 79.77 138.00 77.90 140.78 C 83.75 144.86 91.07 145.38 97.98 145.16 C 104.72 145.49 111.26 143.56 117.64 141.65 C 130.60 137.22 142.41 129.66 155.91 126.75 C 159.12 125.98 162.50 125.90 165.59 124.64 C 166.69 122.81 165.85 120.57 165.52 118.64 C 164.01 113.24 160.81 107.98 155.82 105.16 C 146.81 100.28 135.56 99.78 126.28 104.27 M 182.13 108.27 C 178.14 112.97 175.64 119.28 176.37 125.50 C 187.62 125.82 198.17 130.31 208.34 134.75 C 220.08 140.64 232.75 145.24 245.98 145.83 C 251.01 145.58 256.06 144.90 260.97 143.74 C 263.10 143.29 264.73 141.79 266.13 140.20 C 262.21 137.39 257.37 136.34 253.43 133.59 C 244.68 127.81 238.58 118.99 230.31 112.62 C 222.66 105.04 211.72 100.86 200.97 101.07 C 194.07 101.00 187.34 103.87 182.13 108.27 Z" />
<path fill="#2d1f13" opacity="1.00" d=" M 151.62 237.01 C 151.82 207.24 151.34 177.45 151.85 147.69 C 152.37 178.45 151.84 209.22 152.12 239.98 C 152.20 241.67 152.51 243.33 152.87 244.98 C 151.85 242.45 151.47 239.73 151.62 237.01 Z" />
</g>
<g id="#46382bff">
<path fill="#46382b" opacity="1.00" d=" M 126.28 104.27 C 135.56 99.78 146.81 100.28 155.82 105.16 C 160.81 107.98 164.01 113.24 165.52 118.64 C 165.85 120.57 166.69 122.81 165.59 124.64 C 162.50 125.90 159.12 125.98 155.91 126.75 C 142.41 129.66 130.60 137.22 117.64 141.65 C 111.26 143.56 104.72 145.49 97.98 145.16 C 91.07 145.38 83.75 144.86 77.90 140.78 C 79.77 138.00 83.23 137.48 86.02 136.03 C 89.64 134.20 92.76 131.53 95.70 128.77 C 98.96 125.66 102.79 123.19 105.73 119.76 C 111.39 113.24 118.10 107.34 126.28 104.27 M 114.74 120.69 C 110.66 124.88 104.36 127.67 103.10 133.94 C 115.44 135.40 127.78 132.00 138.98 127.03 C 144.08 124.97 149.46 123.22 153.81 119.74 C 154.06 118.50 153.32 117.35 152.70 116.34 C 149.25 111.61 143.52 108.90 137.75 108.59 C 129.16 110.40 120.91 114.37 114.74 120.69 Z" />
<path fill="#46382b" opacity="1.00" d=" M 182.13 108.27 C 187.34 103.87 194.07 101.00 200.97 101.07 C 211.72 100.86 222.66 105.04 230.31 112.62 C 238.58 118.99 244.68 127.81 253.43 133.59 C 257.37 136.34 262.21 137.39 266.13 140.20 C 264.73 141.79 263.10 143.29 260.97 143.74 C 256.06 144.90 251.01 145.58 245.98 145.83 C 232.75 145.24 220.08 140.64 208.34 134.75 C 198.17 130.31 187.62 125.82 176.37 125.50 C 175.64 119.28 178.14 112.97 182.13 108.27 M 203.23 109.28 C 197.68 110.26 191.83 113.49 189.74 118.93 C 190.89 120.94 193.21 121.78 195.13 122.88 C 207.04 128.66 219.85 133.78 233.33 133.44 C 234.80 133.25 236.95 133.38 237.68 131.79 C 236.17 127.16 231.54 124.94 228.31 121.70 C 223.69 116.57 217.39 113.29 211.02 110.85 C 208.52 110.01 205.93 108.79 203.23 109.28 Z" />
</g>
<g id="#56493dff">
<path fill="#56493d" opacity="1.00" d=" M 114.74 120.69 C 120.91 114.37 129.16 110.40 137.75 108.59 C 143.52 108.90 149.25 111.61 152.70 116.34 C 153.32 117.35 154.06 118.50 153.81 119.74 C 149.46 123.22 144.08 124.97 138.98 127.03 C 127.78 132.00 115.44 135.40 103.10 133.94 C 104.36 127.67 110.66 124.88 114.74 120.69 Z" />
</g>
<g id="#56493eff">
<path fill="#56493e" opacity="1.00" d=" M 203.23 109.28 C 205.93 108.79 208.52 110.01 211.02 110.85 C 217.39 113.29 223.69 116.57 228.31 121.70 C 231.54 124.94 236.17 127.16 237.68 131.79 C 236.95 133.38 234.80 133.25 233.33 133.44 C 219.85 133.78 207.04 128.66 195.13 122.88 C 193.21 121.78 190.89 120.94 189.74 118.93 C 191.83 113.49 197.68 110.26 203.23 109.28 Z" />
</g>
<g id="#a49e9aff">
<path fill="#a49e9a" opacity="1.00" d=" M 164.14 129.43 C 169.08 128.77 174.13 128.78 179.07 129.54 C 177.07 129.34 176.22 130.18 176.53 132.04 C 176.55 167.05 176.53 202.06 176.55 237.07 C 176.57 239.09 176.20 241.25 174.79 242.80 C 173.22 244.30 170.88 243.89 168.92 244.16 C 167.58 242.60 165.42 241.29 165.75 238.94 C 165.71 203.31 165.75 167.68 165.73 132.05 C 165.96 130.70 165.43 129.82 164.14 129.43 M 169.30 147.99 C 168.37 155.28 167.23 162.58 167.27 169.95 C 166.80 185.99 166.74 202.11 168.69 218.07 C 169.01 220.98 169.63 223.88 171.05 226.47 C 173.71 221.05 173.67 214.85 174.11 208.96 C 174.41 199.31 174.88 189.66 174.68 180.00 C 174.15 168.77 174.55 157.44 172.44 146.36 C 172.12 145.04 171.53 143.81 171.00 142.58 C 170.15 144.28 169.48 146.09 169.30 147.99 Z" />
</g>
<g id="#bebab8ff">
<path fill="#bebab8" opacity="1.00" d=" M 169.30 147.99 C 169.48 146.09 170.15 144.28 171.00 142.58 C 171.53 143.81 172.12 145.04 172.44 146.36 C 174.55 157.44 174.15 168.77 174.68 180.00 C 174.88 189.66 174.41 199.31 174.11 208.96 C 173.67 214.85 173.71 221.05 171.05 226.47 C 169.63 223.88 169.01 220.98 168.69 218.07 C 166.74 202.11 166.80 185.99 167.27 169.95 C 167.23 162.58 168.37 155.28 169.30 147.99 Z" />
</g>
</svg>
