<svg xmlns="http://www.w3.org/2000/svg" width="72" height="100" viewBox="0 0 72 100">
  <path fill="#430098" fill-rule="evenodd" d="M41.798,88 C44.421,88 47.148,89.666 47.148,93.66 C47.148,97.654 44.421,99.32 41.798,99.32 C39.159,99.319 36.433,97.654 36.433,93.66 C36.433,89.667 39.159,88 41.798,88 Z M65.796,88.207 L65.796,94.722 C65.796,96.225 66.282,96.903 67.462,96.903 C68.641,96.903 69.112,96.225 69.112,94.722 L69.112,88.207 L72,88.207 L72,94.736 C72,97.625 70.615,99.275 67.431,99.275 C64.247,99.275 62.848,97.625 62.848,94.736 L62.848,88.207 L65.796,88.207 Z M53.376,88.207 L53.376,92.157 L56.383,88.207 L59.802,88.207 L56.132,92.511 L60.126,99.114 L56.795,99.114 L54.216,94.751 L53.376,95.724 L53.376,99.114 L50.428,99.114 L50.428,88.207 L53.376,88.207 Z M21.1,88.207 L21.1,90.654 L16.266,90.654 L16.266,92.423 L19.715,92.423 L19.715,94.722 L16.266,94.722 L16.266,96.741 L21.351,96.741 L21.351,99.114 L13.319,99.114 L13.319,88.207 L21.1,88.207 Z M28.847,88.207 C31.647,88.207 33.357,89.136 33.357,91.759 C33.357,93.468 32.635,94.457 31.205,94.942 L33.519,99.113 L30.395,99.113 L28.287,95.326 L27.476,95.326 L27.476,99.113 L24.587,99.113 L24.587,88.207 L28.847,88.207 Z M2.948,88.207 L2.948,92.26 L6.574,92.26 L6.574,88.207 L9.522,88.207 L9.522,99.113 L6.574,99.113 L6.574,94.706 L2.948,94.706 L2.948,99.113 L0,99.113 L0,88.207 L2.948,88.207 Z M41.797,90.433 C40.249,90.433 39.38,91.656 39.38,93.66 C39.38,95.665 40.25,96.962 41.797,96.962 C43.33,96.961 44.199,95.665 44.199,93.66 C44.199,91.656 43.329,90.433 41.797,90.433 Z M28.744,90.594 L27.477,90.594 L27.477,93.085 L28.744,93.085 C29.953,93.085 30.483,92.746 30.483,91.832 C30.483,90.918 29.952,90.594 28.744,90.594 Z M64.8,0 C68.776,0 72,3.224 72,7.2 L72,7.2 L72,72.8 C72,76.776 68.776,80 64.8,80 L64.8,80 L7.2,80 C3.224,80 0,76.776 0,72.8 L0,72.8 L0,7.2 C0,3.224 3.224,0 7.2,0 L7.2,0 Z M64.8,4 L7.2,4 C5.436,4 4,5.435 4,7.2 L4,7.2 L4,72.8 C4,74.564 5.436,76 7.2,76 L7.2,76 L64.8,76 C66.565,76 68,74.564 68,72.8 L68,72.8 L68,7.2 C68,5.435 66.565,4 64.8,4 L64.8,4 Z M19,52 L28,60 L19,68 L19,52 Z M27,12 L27,34.711 C30.994,33.411 36.577,32 42,32 C46.945,32 49.905,33.944 51.517,35.575 C54.814625,38.91 54.995191,43.1202378 55.0003112,43.9159307 L55.0002258,68 L47,68 L47,44.11 C46.961,42.243 46.062,40 42,40 C33.866,40 24.742,44.091 24.651,44.132 L24.651,44.132 L19,46.692 L19,12 L27,12 Z M55,12 C54.46,16.544 52.618,20.9 49,25 L49,25 L41,25 C44.144,20.875 46.118,16.534 47,12 L47,12 Z"/>
</svg>
