<?xml version="1.0" encoding="utf-8"?>
<!DOCTYPE svg PUBLIC "-//W3C//DTD SVG 1.1//EN" "http://www.w3.org/Graphics/SVG/1.1P/DTD/svg11.dtd">
<svg version="1.1" id="Layer_1" xmlns="http://www.w3.org/2000/svg" xmlns:xlink="http://www.w3.org/1999/xlink" x="0px" y="0px"
	 width="1024px" height="600px" viewBox="0 0 1024 600" enable-background="new 0 0 1024 600" xml:space="preserve">
<g>
	<polygon fill="#E45126" points="53.07,531.97 26,228.35 323.45,228.35 296.352,531.921 174.543,565.69 	"/>
	<polygon fill="#F1682B" points="174.725,539.878 273.152,512.591 296.31,253.175 174.725,253.175 	"/>
	<polygon fill="#EBEBEB" points="174.725,365.784 125.45,365.784 122.046,327.652 174.725,327.652 174.725,290.413 174.596,290.413 
		81.35,290.413 82.242,300.404 91.394,403.02 174.725,403.02 	"/>
	<polygon fill="#EBEBEB" points="174.725,462.491 174.562,462.538 133.09,451.338 130.438,421.641 110.287,421.641 93.058,421.641 
		98.275,480.108 174.553,501.284 174.725,501.235 	"/>
	<g>
		<path fill="#020202" d="M53.675,145.838h18.924v18.696H89.91v-18.696h18.925v56.618H89.911v-18.958h-17.31v18.958H53.675V145.838
			L53.675,145.838z"/>
		<path fill="#020202" d="M133.719,164.614h-16.66v-18.775h52.252v18.775h-16.667v37.843H133.72L133.719,164.614L133.719,164.614z"
			/>
		<path fill="#020202" d="M177.604,145.838h19.733l12.137,19.894l12.127-19.894h19.739v56.618h-18.846v-28.063l-13.021,20.13h-0.325
			l-13.028-20.13v28.063h-18.517L177.604,145.838L177.604,145.838z"/>
		<path fill="#020202" d="M250.758,145.838h18.929v37.903h26.612v18.714h-45.542L250.758,145.838L250.758,145.838z"/>
	</g>
	<polygon fill="#FFFFFF" points="174.596,365.784 174.596,403.02 220.45,403.02 216.128,451.312 174.596,462.524 174.596,501.267 
		250.936,480.108 251.495,473.817 260.246,375.783 261.154,365.784 251.12,365.784 	"/>
	<polygon fill="#FFFFFF" points="174.596,290.413 174.596,313.541 174.596,327.56 174.596,327.652 264.423,327.652 264.423,327.652 
		264.543,327.652 265.29,319.282 266.986,300.404 267.877,290.413 	"/>
</g>
<g>
	<g>
		<polygon fill="#151515" points="933.643,161.385 908.954,161.385 934.629,189.244 934.629,202.504 881.746,202.504 
			881.746,186.979 907.416,186.979 881.746,159.119 881.746,145.838 933.643,145.838 933.643,161.385 		"/>
		<polygon fill="#151515" points="871.265,161.385 846.576,161.385 872.25,189.244 872.25,202.504 819.367,202.504 819.367,186.979 
			845.039,186.979 819.367,159.119 819.367,145.838 871.265,145.838 871.265,161.385 		"/>
		<polygon fill="#151515" points="809.496,162.016 782.856,162.016 782.856,186.329 809.496,186.329 809.496,202.504 
			763.923,202.504 763.923,145.838 809.496,145.838 		"/>
	</g>
	<polygon fill="#1673B6" points="727.62,531.994 700.55,228.374 998,228.374 970.903,531.945 849.093,565.715 	"/>
	<polygon fill="#35A9DB" points="849.276,539.904 947.703,512.615 970.86,253.2 849.276,253.2 	"/>
	<g>
		<polygon fill="#FFFFFF" points="849.275,363.2 898.551,363.2 901.953,325.068 849.275,325.068 849.275,287.829 849.404,287.829 
			942.65,287.829 941.758,297.82 932.605,400.436 849.275,400.436 		"/>
		<polygon fill="#EBEBEB" points="849.498,459.907 849.336,459.954 807.863,448.754 805.212,419.057 785.061,419.057 
			767.832,419.057 773.049,477.525 849.326,498.701 849.498,498.652 		"/>
		<polygon fill="#FFFFFF" points="895.386,398.859 890.901,448.729 849.369,459.94 849.369,498.682 925.709,477.525 
			926.269,471.234 932.746,398.859 		"/>
		<polygon fill="#EBEBEB" points="849.404,287.829 849.404,310.957 849.404,324.976 849.404,325.068 759.576,325.068 
			759.576,325.068 759.457,325.068 758.711,316.698 757.014,297.82 756.123,287.829 		"/>
		<polygon fill="#EBEBEB" points="849.275,363.204 849.275,386.333 849.275,400.35 849.275,400.441 808.447,400.441 
			808.447,400.441 808.328,400.441 807.582,392.073 805.885,373.195 804.994,363.204 		"/>
	</g>
</g>
<g>
	<polygon fill="#E4A227" points="390.345,408.754 363.275,105.132 660.725,105.132 633.627,408.705 511.818,442.475 	"/>
	<polygon fill="#F0BF26" points="511.75,416.287 610.178,389 633.336,129.583 511.75,129.583 	"/>
	<g>
		<polygon fill="#151515" points="564.936,38.071 540.246,38.071 565.922,65.931 565.922,79.191 513.039,79.191 513.039,63.665 
			538.709,63.665 513.039,35.806 513.039,22.525 564.936,22.525 564.936,38.071 		"/>
		<path fill="#020202" d="M503.621,22.55v56.617h-45.543V60.453h26.613V22.55h18.928H503.621z"/>
	</g>
	<polygon fill="#EBEBEB" points="511.693,338.926 511.531,338.973 470.059,327.773 467.406,298.075 447.256,298.075 
		430.027,298.075 435.244,356.543 511.521,377.719 511.693,377.67 	"/>
	<polygon fill="#EBEBEB" points="516.709,279.437 516.709,242.2 470.855,242.2 476.232,183.758 516.812,182.677 516.709,143.954 
		442.565,143.954 439.811,171.403 431.059,269.438 430.151,279.437 440.186,279.437 	"/>
	<polygon fill="#FFFFFF" points="516.457,182.729 516.62,182.683 557.291,185.132 560.742,223.579 580.893,223.579 598.123,223.579 
		591.609,151.633 516.629,143.937 516.457,143.985 	"/>
	<polyline fill="#FFFFFF" points="594.284,182.843 591.093,143.954 512.49,143.954 512.49,168.106 512.49,182.746 512.49,182.843 
		594.284,182.843 	"/>
	<polygon fill="#FFFFFF" points="511.564,242.218 511.564,279.454 557.418,279.454 553.096,327.748 511.564,338.959 
		511.564,377.701 587.904,356.543 588.463,350.252 597.215,252.217 598.123,242.218 588.088,242.218 	"/>
	<path fill="#FFFFFF" d="M589.5,181.193"/>
</g>
</svg>
