<?xml version="1.0" encoding="UTF-8" standalone="no"?>
<svg
   xmlns:dc="http://purl.org/dc/elements/1.1/"
   xmlns:cc="http://creativecommons.org/ns#"
   xmlns:rdf="http://www.w3.org/1999/02/22-rdf-syntax-ns#"
   xmlns:svg="http://www.w3.org/2000/svg"
   xmlns="http://www.w3.org/2000/svg"
   xmlns:sodipodi="http://sodipodi.sourceforge.net/DTD/sodipodi-0.dtd"
   xmlns:inkscape="http://www.inkscape.org/namespaces/inkscape"
   xml:space="preserve"
   version="1.1"
   viewBox="0 0 499.99998 116.34737"
   id="svg2"
   inkscape:version="0.91 r13725"
   sodipodi:docname="jasmine.svg"
   width="500"
   height="116.34737"
   inkscape:export-filename="C:\Users\Lincoln\Desktop\github\jasmine.png"
   inkscape:export-xdpi="100"
   inkscape:export-ydpi="100"><metadata
     id="metadata23"><rdf:RDF><cc:Work
         rdf:about=""><dc:format>image/svg+xml</dc:format><dc:type
           rdf:resource="http://purl.org/dc/dcmitype/StillImage" /><dc:title></dc:title></cc:Work></rdf:RDF></metadata><sodipodi:namedview
     pagecolor="#ffffff"
     bordercolor="#666666"
     borderopacity="1"
     objecttolerance="10"
     gridtolerance="10"
     guidetolerance="10"
     inkscape:pageopacity="0"
     inkscape:pageshadow="2"
     inkscape:window-width="1600"
     inkscape:window-height="847"
     id="namedview21"
     showgrid="false"
     fit-margin-top="0"
     fit-margin-left="0"
     fit-margin-right="0"
     fit-margin-bottom="0"
     inkscape:zoom="0.5703301"
     inkscape:cx="314.71801"
     inkscape:cy="73.229374"
     inkscape:window-x="-8"
     inkscape:window-y="-8"
     inkscape:window-maximized="1"
     inkscape:current-layer="g9" /><defs
     id="defs4"><clipPath
       id="a"><path
         d="M 0,1500 0,0 l 5455.7,0 0,1500 L 0,1500 Z"
         id="path7"
         inkscape:connector-curvature="0" /></clipPath></defs><g
     transform="matrix(1.25,0,0,-1.25,-18.815,136.863)"
     id="g9"><path
       style="fill:#8a4182"
       d="m 406.82023,59.293899 c -1.52832,5.608456 -6.48184,9.178629 -12.23606,9.178629 -5.24584,0 -10.27085,-4.07879 -11.36307,-9.178629 l 23.59913,0 z m 6.77336,-11.508437 c -3.05902,-7.428931 -10.26847,-12.454499 -18.35329,-12.454499 -11.36466,0 -20.46862,8.886311 -20.46862,20.322463 0,11.508437 8.66786,20.758558 20.24859,20.758558 5.3912,0 10.78082,-2.403522 14.56745,-6.264425 3.86209,-4.078473 5.46428,-9.031676 5.46428,-14.566656 l -0.29152,-3.132411 -31.4663,0 c 1.1653,-5.390648 6.11882,-9.322406 11.6546,-9.322406 3.85971,0 7.20945,1.455871 9.39548,4.660567 l 9.24933,0 m -80.11741,19.157163 -5.0258,0 0,8.303264 13.91211,0 0,-5.535536 c 2.3314,4.297474 6.70108,6.410266 11.50765,6.410266 4.22511,0 8.37634,-1.748825 11.2177,-4.807918 3.20438,-3.569299 3.27746,-6.992757 3.27746,-11.435357 l 0,-15.223578 5.02581,0 0,-8.303264 -18.93713,0 0,8.303264 5.02501,0 0,12.601453 c 0,2.40384 0,4.879965 -1.5299,6.992996 -1.60219,2.111521 -4.22432,3.130822 -6.84644,3.130822 -2.69521,0 -5.4627,-1.092221 -7.06489,-3.276664 -1.67527,-2.184442 -1.67527,-5.535536 -1.67527,-8.158694 l 0,-11.289992 5.02502,0 0,-8.303264 -18.93713,0 0,8.303264 5.0258,0 0,22.289256 m -12.74602,12.01761 -8.88631,0 0,9.39628 8.88631,0 0,-9.39628 z m 0,-34.306866 5.02581,0 0,-8.303264 -19.01101,0 0,8.303264 5.09889,0 0,22.289256 -5.02581,0 0,8.303264 13.91212,0 0,-30.591726 m -80.26833,22.289256 -5.02501,0 0,8.303264 13.11063,0 0,-5.826901 c 2.47676,4.078712 6.26418,6.773917 11.21691,6.773917 5.38961,0 9.90625,-3.2773 12.09069,-8.1579 2.11295,4.952806 7.3572,8.1579 12.74682,8.1579 4.2251,0 8.37713,-1.747554 11.21691,-4.952807 3.05981,-3.569617 3.05981,-7.429646 3.05981,-11.872245 l 0,-14.714404 5.0258,0 0,-8.303265 -18.93872,0 0,8.303265 5.02661,0 0,12.528372 c 0,2.549999 0,4.807918 -1.16531,7.066235 -1.45682,2.111522 -3.8613,3.204696 -6.33647,3.204696 -2.40368,0 -5.0266,-1.020254 -6.55571,-2.913014 -1.82143,-2.331793 -1.82143,-4.51687 -1.82143,-7.357917 l 0,-12.528372 5.02581,0 0,-8.303265 -18.93792,0 0,8.303265 5.0266,0 0,11.945325 c 0,2.331237 0,5.244489 -1.1653,7.284043 -1.23838,2.330284 -3.78822,3.569299 -6.41035,3.569299 -2.47676,0 -4.58892,-0.874412 -6.19111,-2.841681 -1.96758,-2.403125 -2.11295,-4.952171 -2.11295,-7.93874 l 0,-12.018405 5.02581,0 0,-8.303264 -18.93713,0 0,8.303264 5.02501,0 0,22.289256 M 211.42066,47.639938 c 0.29153,-3.496379 2.62213,-5.826345 6.26419,-5.826345 2.6952,0 5.31653,1.892442 5.31653,4.806091 0,3.860983 -3.64126,4.516315 -6.62799,5.31741 -6.77416,1.747872 -14.20364,3.860982 -14.20364,12.382214 0,7.429964 6.26418,11.726881 13.1845,11.726881 3.49511,0 6.6272,-0.728889 8.81244,-3.495743 l 0,2.694569 6.55571,0 0,-10.561581 -8.59559,0 c -0.14536,2.768761 -2.25752,4.589236 -5.02501,4.589236 -2.40368,0 -4.95273,-1.383904 -4.95273,-4.078791 0,-3.641823 3.56899,-4.442759 6.40956,-5.098091 6.9918,-1.602587 14.49437,-3.788618 14.49437,-12.529168 0,-7.866137 -6.628,-12.236054 -13.91133,-12.236054 -3.93438,0 -7.50336,1.237744 -10.0524,4.224314 l 0,-3.204378 -6.77336,0 0,11.289992 9.10475,0 m -25.4984,8.374755 c 0,6.410584 -5.31733,11.582311 -11.72688,11.582311 -6.62799,0 -11.72688,-5.463568 -11.72688,-12.018405 0,-6.337663 5.31733,-11.581516 11.58152,-11.581516 6.70028,0 11.87224,5.389774 11.87224,12.01761 z M 185.7769,41.593958 c -2.84137,-4.297156 -7.42949,-6.264107 -12.52838,-6.264107 -11.14462,0 -19.95706,9.25012 -19.95706,20.249384 0,11.289992 9.03167,20.685478 20.39395,20.685478 5.02581,0 9.39628,-2.330284 12.09149,-6.555155 l 0,5.535536 13.91212,0 0,-8.303264 -4.88045,0 0,-22.289256 4.88045,0 0,-8.303264 -13.91212,0 0,5.244171 m -60.02054,9.395485 c 0.0731,-3.205331 2.03988,-6.481995 5.68194,-6.481995 2.18523,0 3.78742,1.019301 4.88044,2.840093 1.01914,1.821428 1.01914,4.515997 1.01914,6.555472 l 0,26.148173 -5.68114,0 0,8.304058 21.19545,0 0,-8.304058 -5.60806,0 0,-27.386553 c 0,-4.662077 -0.29232,-8.303264 -3.56898,-12.091485 -2.91365,-3.350537 -7.64794,-5.24425 -12.16457,-5.24425 -9.3232,0 -16.46196,6.191186 -16.09656,15.659672 l 10.34234,0"
       id="path15"
       inkscape:connector-curvature="0" /><path
       style="fill:#8a4182"
       d="m 57.97669,70.950083 7.20866,0 1.790687,2.465243 0,19.312059 -10.789557,0 0,-19.313648 1.790131,-2.463733"
       id="path17"
       inkscape:connector-curvature="0" /><path
       style="fill:#8a4182"
       d="m 59.993526,33.289502 2.989986,0 0,14.681042 -2.989986,0 0,-14.681042 z m -26.65814,19.50429 -0.923503,2.843827 13.961367,4.534902 0.923106,-2.843826 -13.960573,-4.534903 m 18.014103,22.346449 -8.627356,11.877012 2.419965,1.75788 8.627356,-11.877806 -2.419965,-1.757165 m 20.612399,-0.108905 -2.41933,1.757483 8.628151,11.877807 2.419965,-1.757086 -8.628945,-11.878601 m 17.80678,-22.415556 -13.962161,4.537365 0.923741,2.844382 13.961367,-4.537365 -0.923026,-2.844382 m -22.165339,16.577932 2.228529,-6.856767 2.89808,-0.940184 18.366791,5.966864 -3.333856,10.261319 -18.36838,-5.968691 -1.79164,-2.46278 m 1.312254,-9.699718 -5.832859,-4.237024 7.95e-4,-3.046304 11.351157,-15.624721 8.729826,6.341238 -11.35354,15.625515 -2.895379,0.941296 m -8.822764,-4.238613 -5.83127,4.238613 -2.898398,-0.943282 -11.351157,-15.623927 8.728238,-6.341078 11.352745,15.62472 0,3.044875 m -6.756202,7.081803 2.227258,6.855495 -1.791323,2.46564 -18.366791,5.967738 -3.334333,-10.261319 18.369969,-5.968453 2.895697,0.941137 M 61.59095,109.4904 C 35.929709,109.4904 15.052,88.616662 15.052,62.959393 15.052,37.292592 35.929709,16.4125 61.59095,16.4125 c 25.658857,0 46.53339,20.880092 46.53339,46.546893 0,25.657269 -20.874533,46.531007 -46.53339,46.531007 z m 0,-9.4217 c 20.491658,0 37.110896,-16.612088 37.110896,-37.109307 0,-20.504368 -16.619238,-37.123606 -37.110896,-37.123606 -20.499602,0 -37.115663,16.619238 -37.115663,37.123606 0,20.497219 16.616061,37.109307 37.115663,37.109307"
       id="path19"
       inkscape:connector-curvature="0" /></g></svg>