<?xml version="1.0" encoding="UTF-8"?>
<!DOCTYPE svg PUBLIC "-//W3C//DTD SVG 1.1//EN" "http://www.w3.org/Graphics/SVG/1.1/DTD/svg11.dtd">
<!-- Creator: CorelDRAW X5 -->
<svg xmlns="http://www.w3.org/2000/svg" xml:space="preserve" width="210mm" height="297mm" style="shape-rendering:geometricPrecision; text-rendering:geometricPrecision; image-rendering:optimizeQuality; fill-rule:evenodd; clip-rule:evenodd"
viewBox="0 0 21000 29700"
 xmlns:xlink="http://www.w3.org/1999/xlink">
 <defs>
  <style type="text/css">
   <![CDATA[
    .fil1 {fill:#323330}
    .fil0 {fill:#F0DB4E}
    .fil2 {fill:#FDFAEA}
   ]]>
  </style>
 </defs>
 <g id="Camada_x0020_1">
  <metadata id="CorelCorpID_0Corel-Layer"/>
  <g id="_532863528">
   <polygon class="fil0" points="-8056,33406 29011,33406 29022,-3666 -8056,-3666 "/>
   <path class="fil1" d="M16815 25283l-2813 1621c185,519 809,1259 1109,1573 1464,1527 3740,2150 5992,1955 3129,-271 5415,-2226 4941,-5694 -586,-4288 -6017,-4469 -7286,-6117 -453,-589 -332,-1545 118,-1992 645,-641 2135,-653 2922,223 253,281 516,727 591,791 330,-175 2651,-1700 2678,-1735 -328,-739 -1217,-1644 -1898,-2049 -2413,-1431 -6946,-906 -7944,2539 -455,1570 -73,3223 691,4290 1657,2316 5571,2674 6489,4129 676,1071 -90,2653 -2344,2559 -802,-34 -1468,-284 -1982,-666 -389,-289 -703,-644 -979,-1032 -84,-118 -205,-322 -284,-395z"/>
   <path class="fil1" d="M8621 25081c0,1406 -349,2246 -1790,2275 -789,16 -1302,-313 -1700,-822 -195,-250 -465,-669 -599,-955 -131,41 -2568,1518 -2841,1700 196,502 613,1089 926,1416 433,452 720,729 1306,1058 1069,600 2515,827 3930,657 2813,-338 4249,-2227 4249,-5258l0 -11818 -3481 0 0 11747z"/>
   <polygon class="fil2" points="29011,33406 29056,33406 29056,-3706 -8056,-3706 -8056,-3666 29022,-3666 "/>
  </g>
 </g>
</svg>
