<svg xmlns:dc="http://purl.org/dc/elements/1.1/" xmlns:cc="http://creativecommons.org/ns#" xmlns:rdf="http://www.w3.org/1999/02/22-rdf-syntax-ns#" xmlns:svg="http://www.w3.org/2000/svg" xmlns="http://www.w3.org/2000/svg" id="svg2" preserveAspectRatio="xMidYMid meet" version="1.1" viewBox="0 0 160.10664 156.98515" height="156.98515" width="160.10664">
      <metadata id="metadata26">
        <rdf:rdf xmlns="http://www.w3.org/1999/xhtml">
          <cc:work rdf:about="">
            <dc:format>image/svg+xml</dc:format>
            <dc:type rdf:resource="http://purl.org/dc/dcmitype/StillImage"></dc:type>
            <dc:title></dc:title>
          </cc:work>
        </rdf:rdf>
      </metadata>
      <defs id="defs24"/>
      <g transform="matrix(0.62649123,0,0,0.62649123,-0.27477954,-0.27455194)" id="g6" style="fill:#de4f4f">
        <path style="fill:#de4f4f; fill-opacity:1; stroke:none" d="M 0.43860078,0.43823749 219.30039,232.26587 c 0,0 7.45622,5.25885 13.15803,-0.87647 5.70181,-6.13533 1.3158,-12.27065 1.3158,-12.27065 L 0.43860078,0.43823749 l 0,0 z" id="path8"/>
        <path style="fill:#de4f4f; fill-opacity:1; stroke:none" d="M 69.737525,22.350112 236.40582,202.02749 c 0,0 7.45622,5.25884 13.15803,-0.87648 5.70181,-6.13533 1.3158,-12.27065 1.3158,-12.27065 L 69.737525,22.350112 l 0,0 z" id="path10"/>
        <path style="fill:#de4f4f; fill-opacity:1; stroke:none" d="M 21.052838,69.241524 187.72114,248.9189 c 0,0 7.45621,5.25885 13.15802,-0.87648 5.70181,-6.13532 1.3158,-12.27065 1.3158,-12.27065 L 21.052838,69.241524 l 0,0 z" id="path12"/>
        <path style="fill:#de4f4f; fill-opacity:1; stroke:none" d="M 128.32077,41.194324 244.76195,166.72418 c 0,0 5.20922,3.67404 9.19273,-0.61234 3.98351,-4.28639 0.91927,-8.57278 0.91927,-8.57278 L 128.32077,41.194324 l 0,0 z" id="path14"/>
        <path style="fill:#de4f4f; fill-opacity:1; stroke:none" d="M 37.091803,123.58297 153.53299,249.11282 c 0,0 5.20921,3.67405 9.19273,-0.61234 3.98351,-4.28638 0.91927,-8.57277 0.91927,-8.57277 L 37.091803,123.58297 l 0,0 z" id="path16"/>
        <path style="fill:#de4f4f; fill-opacity:1; stroke:none" d="m 188.15974,68.365049 52.77506,57.067161 c 0,0 2.57683,1.72156 4.54735,-0.28693 1.97051,-2.00849 0.45473,-4.01699 0.45473,-4.01699 l -57.77714,-52.763241 0,0 z" id="path18"/>
        <path style="fill:#de4f4f; fill-opacity:1; stroke:none" d="m 66.228719,181.43032 52.775071,57.06716 c 0,0 2.57682,1.72156 4.54734,-0.28693 1.97051,-2.00849 0.45473,-4.01698 0.45473,-4.01698 l -57.777141,-52.76325 0,0 z" id="path20"/>
      </g>
    </svg>