<?xml version="1.0" encoding="UTF-8" standalone="no"?>
<!-- Generator: Adobe Illustrator 16.0.0, SVG Export Plug-In . SVG Version: 6.00 Build 0) -->

<svg
   xmlns:dc="http://purl.org/dc/elements/1.1/"
   xmlns:cc="http://creativecommons.org/ns#"
   xmlns:rdf="http://www.w3.org/1999/02/22-rdf-syntax-ns#"
   xmlns:svg="http://www.w3.org/2000/svg"
   xmlns="http://www.w3.org/2000/svg"
   xmlns:sodipodi="http://sodipodi.sourceforge.net/DTD/sodipodi-0.dtd"
   xmlns:inkscape="http://www.inkscape.org/namespaces/inkscape"
   version="1.1"
   id="Layer_1"
   x="0px"
   y="0px"
   width="300"
   height="203.7393"
   viewBox="-18.458 6.58 300 203.7393"
   xml:space="preserve"
   inkscape:version="0.91 r13725"
   sodipodi:docname="mysql.svg"><metadata
     id="metadata23"><rdf:RDF><cc:Work
         rdf:about=""><dc:format>image/svg+xml</dc:format><dc:type
           rdf:resource="http://purl.org/dc/dcmitype/StillImage" /><dc:title></dc:title></cc:Work></rdf:RDF></metadata><defs
     id="defs21" /><sodipodi:namedview
     pagecolor="#ffffff"
     bordercolor="#666666"
     borderopacity="1"
     objecttolerance="10"
     gridtolerance="10"
     guidetolerance="10"
     inkscape:pageopacity="0"
     inkscape:pageshadow="2"
     inkscape:window-width="1600"
     inkscape:window-height="847"
     id="namedview19"
     showgrid="false"
     fit-margin-top="0"
     fit-margin-left="0"
     fit-margin-right="0"
     fit-margin-bottom="0"
     inkscape:zoom="1.7812664"
     inkscape:cx="214.47736"
     inkscape:cy="149.78587"
     inkscape:window-x="-8"
     inkscape:window-y="-8"
     inkscape:window-maximized="1"
     inkscape:current-layer="Layer_1" /><path
     style="fill:#5d87a1"
     d="m 53.667085,192.18738 -11.575715,0 c -0.409344,-19.53891 -1.536717,-37.90793 -3.379884,-55.12051 l -0.102903,0 -17.624163,55.12051 -8.813202,0 -17.5190318,-55.12051 -0.1006586,0 c -1.2996037,16.52587 -2.1182921,34.89937 -2.4582936,55.12051 l -10.551234,0 c 0.680003,-24.5897 2.388959,-47.64271 5.120155,-69.16124 l 14.3471746,0 16.6981074,50.81906 0.102903,0 16.801002,-50.81906 13.727567,0 c 3.00633,25.20486 4.78239,48.2601 5.328183,69.16124"
     id="path5"
     inkscape:connector-curvature="0" /><path
     style="fill:#5d87a1"
     d="m 103.86877,141.16031 c -4.713048,25.57618 -10.931498,44.15995 -18.648639,55.76026 -6.012659,8.92952 -12.600193,13.39874 -19.77378,13.39874 -1.912509,0 -4.272388,-0.5771 -7.068455,-1.72236 l 0,-6.167 c 1.366718,0.19684 2.970542,0.30867 4.813709,0.30867 3.350804,0 6.043975,-0.92158 8.097406,-2.76921 2.456065,-2.25028 3.684097,-4.78016 3.684097,-7.57847 0,-1.91921 -0.957372,-5.84266 -2.867645,-11.78373 l -12.703088,-39.44914 11.372161,0 9.117411,29.50409 c 2.048959,6.69938 2.903435,11.37663 2.561198,14.04072 4.985947,-13.31598 8.468727,-27.83539 10.452817,-43.54705 l 10.962808,0 0,0.004 z"
     id="path7"
     inkscape:connector-curvature="0" /><path
     style="fill:#f8981d"
     d="m 257.95439,192.18738 -32.88174,0 0,-69.16124 11.06125,0 0,60.64778 21.82049,0 0,8.51346 z"
     id="path9"
     inkscape:connector-curvature="0" /><path
     style="fill:#f8981d"
     d="m 216.46523,193.85832 -12.71426,-6.27438 c 1.12737,-0.92605 2.20554,-1.92817 3.17634,-3.08908 5.40422,-6.34819 8.09964,-15.73627 8.09964,-28.17093 0,-22.88076 -8.97873,-34.32674 -26.94291,-34.32674 -8.80871,0 -15.68033,2.90343 -20.5947,8.71254 -5.39976,6.35266 -8.09517,15.70718 -8.09517,28.07474 0,12.15729 2.38896,21.07563 7.16912,26.73263 4.37304,5.12462 10.96505,7.69029 19.78048,7.69029 3.28818,0 6.3057,-0.40262 9.05478,-1.2146 l 16.55272,9.63636 4.51396,-7.77083 z m -41.18717,-15.51034 c -2.80054,-4.50501 -4.2008,-11.73899 -4.2008,-21.71312 0,-17.4139 5.29015,-26.13092 15.88164,-26.13092 5.53622,0 9.59387,2.08475 12.18863,6.24529 2.79606,4.51174 4.20304,11.68085 4.20304,21.51629 0,17.55706 -5.29463,26.3367 -15.87942,26.3367 -5.53844,0.002 -9.5961,-2.07579 -12.19309,-6.25424"
     id="path11"
     inkscape:connector-curvature="0" /><path
     style="fill:#f8981d"
     d="m 154.57375,173.01755 c 0,5.86503 -2.15185,10.67651 -6.45108,14.44561 -4.3037,3.75343 -10.07479,5.63463 -17.30653,5.63463 -6.76424,0 -13.3227,-2.1608 -19.67089,-6.46003 l 2.97278,-5.93884 c 5.4624,2.73567 10.40808,4.09566 14.84823,4.09566 4.16726,0 7.42412,-0.9238 9.78623,-2.75579 2.35988,-1.8387 3.76686,-4.41779 3.76686,-7.67912 0,-4.10908 -2.8654,-7.62095 -8.12201,-10.56241 -4.84726,-2.66185 -14.54178,-8.22715 -14.54178,-8.22715 -5.25437,-3.82949 -7.88491,-7.94082 -7.88491,-14.71401 0,-5.60556 1.96172,-10.13071 5.8874,-13.57323 3.93015,-3.45594 9.0011,-5.17831 15.21731,-5.17831 6.41977,0 12.25572,1.72014 17.51232,5.12463 l -2.66633,5.94108 c -4.49607,-1.91027 -8.93399,-2.86541 -13.31151,-2.86541 -3.54541,0 -6.28332,0.85224 -8.18688,2.56343 -1.91922,1.70449 -3.10251,3.88542 -3.10251,6.5607 0,4.08896 2.9258,7.64556 8.32556,10.64518 4.91213,2.66633 14.84823,8.3278 14.84823,8.3278 5.38858,3.82278 8.07951,7.8961 8.07951,14.61558"
     id="path13"
     inkscape:connector-curvature="0" /><path
     style="fill:#5d87a1"
     d="m 271.84078,99.861293 c -6.68821,-0.169995 -11.86652,0.503297 -16.21271,2.341987 -1.25489,0.50105 -3.25017,0.50105 -3.42464,2.08698 0.67778,0.67106 0.75606,1.75369 1.34435,2.67975 1.00212,1.67093 2.74909,3.91897 4.34397,5.09108 1.75147,1.34211 3.50962,2.6708 5.3528,3.84068 3.25015,2.01093 6.93424,3.1808 10.10162,5.18502 1.84541,1.1654 3.67962,2.67304 5.52727,3.92791 0.90816,0.66882 1.48973,1.7537 2.66856,2.17199 l 0,-0.255 c -0.59052,-0.75159 -0.75829,-1.8387 -1.33763,-2.67528 l -2.50976,-2.42027 c -2.42475,-3.25686 -5.43778,-6.0999 -8.68793,-8.43518 -2.67528,-1.84316 -8.52689,-4.34844 -9.61176,-7.43082 l -0.17009,-0.17 c 1.83868,-0.17224 4.01963,-0.83882 5.7666,-1.35106 2.84305,-0.74934 5.43556,-0.57934 8.3524,-1.32869 1.34212,-0.33552 2.67305,-0.75605 4.01963,-1.16987 l 0,-0.75382 c -1.5121,-1.505402 -2.59027,-3.505149 -4.18068,-4.927787 -4.25448,-3.675149 -8.94293,-7.269772 -13.78796,-10.27834 -2.59474,-1.675403 -5.93212,-2.753565 -8.69465,-4.17844 -0.99539,-0.503293 -2.67303,-0.751583 -3.25909,-1.588167 -1.49868,-1.838692 -2.34197,-4.258967 -3.42909,-6.435425 -2.4158,-4.59226 -4.76227,-9.687809 -6.847,-14.544018 -1.50765,-3.256857 -2.42475,-6.509241 -4.26346,-9.522283 -8.61187,-14.204016 -17.96416,-22.806951 -32.33818,-31.251072 -3.08908,-1.758165 -6.76424,-2.507511 -10.68991,-3.429094 l -6.26991,-0.331056 c -1.33763,-0.586056 -2.6775,-2.176457 -3.84514,-2.92804 -4.76897,-3.0063298 -17.04706,-9.5222828 -20.55444,-0.919346 -2.25923,5.43779 3.34185,10.783868 5.26555,13.541907 1.4204,1.914746 3.26133,4.093441 4.25449,6.267661 0.58829,1.420403 0.75382,2.928042 1.34211,4.428971 1.33764,3.677385 2.58804,7.768589 4.34621,11.199921 0.91711,1.749219 1.91698,3.587912 3.08909,5.171605 0.67106,0.926057 1.8387,1.335401 2.0937,2.845275 -1.1654,1.66422 -1.25712,4.176205 -1.92594,6.265426 -3.00632,9.441756 -1.83198,21.13826 2.42922,28.076978 1.33318,2.089221 4.51398,6.68819 8.76847,4.925551 3.76687,-1.503165 2.93253,-6.265426 4.01515,-10.44163 0.2483,-1.008821 0.0849,-1.670929 0.58607,-2.333038 l 0,0.163294 c 1.16538,2.337512 2.34197,4.590023 3.42238,6.934244 2.5925,4.091204 7.10648,8.354645 10.86663,11.188738 2.00198,1.512115 3.58791,4.097915 6.09542,5.021735 l 0,-0.25053 -0.16556,0 c -0.50778,-0.74934 -1.25041,-1.08487 -1.91699,-1.66645 -1.50764,-1.5054 -3.17633,-3.344098 -4.34619,-5.01279 -3.50292,-4.681734 -6.6032,-9.864522 -9.35453,-15.212836 -1.34658,-2.59475 -2.50751,-5.43108 -3.59239,-8.021355 -0.50553,-0.999874 -0.50553,-2.507513 -1.34435,-3.010805 -1.25711,1.836456 -3.0891,3.42686 -4.0062,5.677134 -1.5904,3.599095 -1.75593,8.025828 -2.34646,12.629272 l -0.32882,0.161047 c -2.66185,-0.668818 -3.58791,-3.422386 -4.59897,-5.759896 -2.50303,-5.936608 -2.92356,-15.465602 -0.75158,-22.314845 0.58159,-1.751456 3.09805,-7.267535 2.09369,-8.936227 -0.50329,-1.59935 -2.17645,-2.50975 -3.09356,-3.769098 -1.07817,-1.583691 -2.25923,-3.587912 -3.01081,-5.346078 -2.00422,-4.677259 -3.01304,-9.860047 -5.1716,-14.53507 -1.00882,-2.178695 -2.76028,-4.433442 -4.17844,-6.439899 -1.59264,-2.254748 -3.3441,-3.842915 -4.60345,-6.515952 -0.41605,-0.919349 -0.99987,-2.422512 -0.33105,-3.422386 0.16329,-0.671057 0.50329,-0.921583 1.16987,-1.089347 1.08264,-0.914873 4.17621,0.248289 5.26108,0.751582 3.09804,1.252637 5.68832,2.422512 8.27412,4.176204 1.16988,0.838821 2.42474,2.426985 3.92568,2.845277 l 1.75816,0 c 2.66857,0.581582 5.67714,0.161047 8.18912,0.91711 4.42673,1.422638 8.43741,3.509622 12.03428,5.762132 10.94492,6.940956 19.97061,16.803241 26.0638,28.582506 0.99987,1.919221 1.42489,3.677388 2.33752,5.679371 1.7604,4.097915 3.93686,8.276355 5.68384,12.287033 1.75593,3.925677 3.42909,7.934116 5.9366,11.195449 1.25041,1.753692 6.27438,2.673038 8.52689,3.592386 1.66646,0.749346 4.2612,1.415927 5.76437,2.335274 2.84305,1.751456 5.6749,3.762387 8.34793,5.688316 1.33092,1.002111 5.51384,3.091332 5.76214,4.764498 M 186.60324,27.2441 c -1.41591,0 -2.4158,0.165521 -3.42014,0.420529 l 0,0.167768 0.16103,0 c 0.6733,1.335401 1.84318,2.261457 2.67752,3.426857 0.67328,1.339876 1.25712,2.668566 1.91698,4.006204 l 0.16102,-0.165521 c 1.17881,-0.834347 1.76488,-2.171985 1.76488,-4.178442 -0.50776,-0.590528 -0.58607,-1.167637 -1.00882,-1.753691 -0.49211,-0.836584 -1.57698,-1.252639 -2.25252,-1.923695"
     id="path15"
     inkscape:connector-curvature="0" /><path
     style="fill:#f8981d"
     d="m 279.7995,192.17621 1.73132,0 0,-8.4732 -2.59699,0 -2.1183,5.78225 -2.30172,-5.78225 -2.50081,0 0,8.4732 1.63514,0 0,-6.44662 0.0917,0 2.41133,6.44662 1.24593,0 2.40238,-6.44662 0,6.44662 z m -13.94678,0 1.83198,0 0,-7.03714 2.3979,0 0,-1.43831 -6.72844,0 0,1.43831 2.49408,0 0.004,7.03714 0,0 z"
     id="path17"
     inkscape:connector-curvature="0" /></svg>