<?xml version="1.0" encoding="UTF-8" standalone="no"?>
<!-- Generator: Adobe Illustrator 18.0.0, SVG Export Plug-In . SVG Version: 6.00 Build 0)  -->

<svg
   xmlns:dc="http://purl.org/dc/elements/1.1/"
   xmlns:cc="http://creativecommons.org/ns#"
   xmlns:rdf="http://www.w3.org/1999/02/22-rdf-syntax-ns#"
   xmlns:svg="http://www.w3.org/2000/svg"
   xmlns="http://www.w3.org/2000/svg"
   xmlns:sodipodi="http://sodipodi.sourceforge.net/DTD/sodipodi-0.dtd"
   xmlns:inkscape="http://www.inkscape.org/namespaces/inkscape"
   version="1.1"
   id="Layer_1"
   x="0px"
   y="0px"
   viewBox="0 0 300.00006 224.87115"
   enable-background="new 0 0 612 792"
   xml:space="preserve"
   inkscape:version="0.91 r13725"
   sodipodi:docname="sass.svg"
   width="300.00006"
   height="224.87115"><metadata
     id="metadata9"><rdf:RDF><cc:Work
         rdf:about=""><dc:format>image/svg+xml</dc:format><dc:type
           rdf:resource="http://purl.org/dc/dcmitype/StillImage" /><dc:title></dc:title></cc:Work></rdf:RDF></metadata><defs
     id="defs7" /><sodipodi:namedview
     pagecolor="#ffffff"
     bordercolor="#666666"
     borderopacity="1"
     objecttolerance="10"
     gridtolerance="10"
     guidetolerance="10"
     inkscape:pageopacity="0"
     inkscape:pageshadow="2"
     inkscape:window-width="1600"
     inkscape:window-height="847"
     id="namedview5"
     showgrid="false"
     fit-margin-top="0"
     fit-margin-left="0"
     fit-margin-right="0"
     fit-margin-bottom="0"
     inkscape:zoom="0.2979798"
     inkscape:cx="273.81699"
     inkscape:cy="208.78492"
     inkscape:window-x="-8"
     inkscape:window-y="-8"
     inkscape:window-maximized="1"
     inkscape:current-layer="Layer_1" /><path
     d="m 258.1824,129.23367 c -10.48248,0.0548 -19.56839,2.57406 -27.18105,6.32563 -2.78219,-5.55889 -5.60271,-10.44414 -6.07371,-14.08069 -0.55314,-4.24447 -1.19392,-6.77473 -0.52576,-11.82975 0.66816,-5.05503 3.59274,-12.213127 3.54892,-12.749847 -0.0438,-0.53672 -0.6572,-3.11079 -6.70353,-3.1546 -6.04631,-0.0438 -11.22182,1.16107 -11.82975,2.76028 -0.60792,1.5992 -1.77446,5.191937 -2.49739,8.938027 -1.05701,5.48222 -12.0762,25.03964 -18.33064,35.27566 -2.04282,-3.99254 -3.78442,-7.51408 -4.14589,-10.29626 -0.55315,-4.24447 -1.19393,-6.77472 -0.52576,-11.82975 0.66816,-5.05503 3.59273,-12.21313 3.54893,-12.74985 -0.0438,-0.53672 -0.65722,-3.11078 -6.70353,-3.1546 -6.04632,-0.0438 -11.22184,1.16107 -11.82976,2.76028 -0.60791,1.5992 -1.25965,5.32886 -2.49739,8.93803 -1.23774,3.60917 -15.88254,36.2341 -19.71625,44.69018 -1.9552,4.31019 -3.65298,7.77149 -4.85787,10.13196 -0.005,-0.005 -0.005,-0.0109 -0.005,-0.0109 0,0 -0.0712,0.15882 -0.20264,0.42171 -1.02963,2.00996 -1.63755,3.12721 -1.63755,3.12721 0,0 0.005,0.0164 0.0164,0.0438 -0.81603,1.47872 -1.68683,2.8479 -2.1195,2.8479 -0.30122,0 -0.90913,-3.9323 0.13145,-9.33236 2.17974,-11.31494 7.4155,-28.96646 7.36073,-29.57438 -0.0274,-0.31217 0.97487,-3.38462 -3.41748,-4.99478 -4.26638,-1.56087 -5.78891,1.04605 -6.17776,1.05153 -0.3779,0.005 -0.65721,0.92009 -0.65721,0.92009 0,0 4.75381,-19.84769 -9.06948,-19.84769 -8.64228,0 -20.61992,9.45284 -26.51836,18.02394 -3.72418,2.03187 -11.68735,6.3804 -20.14343,11.02467 -3.24771,1.78542 -6.56114,3.60917 -9.69931,5.33982 -0.21359,-0.2355 -0.42718,-0.471 -0.64625,-0.7065 -16.764294,-17.88155 -47.751672,-30.53281 -46.437255,-54.575687 0.476476,-8.74087 3.516065,-31.75411 59.543085,-59.67452 45.89506,-22.87086 82.63848,-16.57808 88.98603,-2.62883 9.06947,19.92436 -19.63411,56.96354 -67.29815,62.30335 -18.16086,2.03735 -27.72324,-5.00026 -30.10015,-7.62361 -2.50287,-2.76028 -2.87529,-2.88624 -3.81181,-2.36595 -1.52253,0.84341 -0.55862,3.28056 0,4.7319 1.42395,3.70227 7.26216,10.26888 17.21886,13.538487 8.75731,2.87529 30.07824,4.45259 55.86273,-5.520547 28.87883,-11.17254 51.42656,-42.24208 44.80518,-68.21824 C 181.10872,1.0944835 137.30577,-7.5916265 95.85235,7.1353335 71.17965,15.898103 44.469599,29.655663 25.268158,47.619363 2.4356425,68.978643 -1.2063875,87.566683 0.29423749,95.332693 5.6231035,122.92997 43.664519,140.90462 58.895324,154.22405 c -0.750313,0.41623 -1.456812,0.80508 -2.09759,1.15559 -7.634551,3.77895 -36.633874,18.94951 -43.885075,34.9854 -8.2260575,18.18824 1.308941,31.23383 7.623618,32.99186 19.562905,5.44388 39.635147,-4.34853 50.424323,-20.43918 10.78369,-16.08518 9.46927,-37.0337 4.5183,-46.59608 -0.0602,-0.12049 -0.13144,-0.2355 -0.19168,-0.35051 1.97162,-1.16655 3.98159,-2.355 5.97512,-3.52154 3.88848,-2.2838 7.70029,-4.40878 11.01372,-6.21062 -1.85114,5.07693 -3.20937,11.16159 -3.91587,19.94627 -0.82699,10.32365 3.40105,23.66498 8.93803,28.91717 2.43715,2.31119 5.37269,2.36595 7.2293,2.36595 6.44064,0 9.38165,-5.36172 12.6184,-11.69831 3.97063,-7.77696 7.49218,-16.82453 7.49218,-16.82453 0,0 -4.41973,24.44815 7.62362,24.44815 4.38686,0 8.80111,-5.69033 10.76726,-8.593 0.005,0.0329 0.011,0.0493 0.011,0.0493 0,0 0.115,-0.18621 0.33955,-0.56958 0.45457,-0.69554 0.71198,-1.13916 0.71198,-1.13916 0,0 0.0109,-0.0438 0.0219,-0.12597 1.76351,-3.06149 5.6739,-10.04433 11.54497,-21.56191 7.5798,-14.88029 14.8529,-33.51763 14.8529,-33.51763 0,0 0.67912,4.55665 2.89172,12.09264 1.30347,4.43615 4.0747,9.33236 6.25444,14.03687 -1.75803,2.44263 -2.83696,3.8392 -2.83696,3.8392 0,0 0.011,0.0274 0.0274,0.0712 -1.40753,1.86757 -2.97934,3.87753 -4.62785,5.84368 -5.98059,7.12524 -13.1113,15.26367 -14.06425,17.61319 -1.12274,2.76575 -0.85985,4.8031 1.31442,6.44064 1.58825,1.19393 4.41424,1.38014 7.36072,1.18298 5.37817,-0.36147 9.16259,-1.69232 11.02468,-2.50835 2.90815,-1.02963 6.29825,-2.64526 9.48023,-4.98383 5.87107,-4.31567 9.40904,-10.48795 9.06948,-18.66472 -0.18622,-4.50735 -1.6266,-8.9709 -3.44487,-13.18798 0.53124,-0.76675 1.06797,-1.53897 1.60469,-2.32214 9.25568,-13.52754 16.43021,-28.3914 16.43021,-28.3914 0,0 0.67911,4.55664 2.89172,12.09263 1.12272,3.81181 3.33533,7.97413 5.32338,12.0543 -8.70254,7.07047 -14.09712,15.28557 -15.97017,20.67468 -3.4613,9.96766 -0.75031,14.48049 4.33759,15.51012 2.3057,0.46552 5.55888,-0.59149 8.00698,-1.62659 3.04506,-1.0132 6.70901,-2.69455 10.13197,-5.20838 5.87105,-4.31567 11.51209,-10.35651 11.17254,-18.53328 -0.15335,-3.72418 -1.16654,-7.4155 -2.53573,-10.96442 7.37716,-3.07245 16.92311,-4.78119 29.08695,-3.36272 26.09118,3.04507 31.21193,19.33836 30.23159,26.1569 -0.98033,6.81853 -6.4516,10.56462 -8.28083,11.69831 -1.82922,1.13368 -2.38785,1.52253 -2.23451,2.36595 0.22455,1.22131 1.06796,1.1775 2.62883,0.91461 2.14689,-0.36146 13.7028,-5.54793 14.19571,-18.13347 0.62983,-15.99755 -14.68313,-33.54502 -41.79845,-33.40262 z m -201.111269,67.802 c -8.642291,9.42547 -20.718496,12.99082 -25.894014,9.98957 -5.591748,-3.24223 -3.379146,-17.12028 7.229294,-27.12628 6.46255,-6.09561 14.809097,-11.71474 20.346077,-15.17056 1.259651,-0.75579 3.110787,-1.87304 5.361726,-3.22032 0.372419,-0.21359 0.586011,-0.32861 0.586011,-0.32861 l -0.01095,-0.0164 c 0.432662,-0.2574 0.876278,-0.52576 1.336324,-0.7996 3.855621,14.23952 0.115011,26.77577 -8.954465,36.67223 z m 62.960569,-42.8007 c -3.0122,7.33883 -9.31045,26.11308 -13.14417,25.10536 -3.29152,-0.86532 -5.296,-15.13222 -0.65721,-29.18005 2.33309,-7.07047 7.3224,-15.5156 10.25245,-18.79616 4.71548,-5.2741 9.9129,-7.00475 11.17255,-4.86334 1.61016,2.72193 -5.73414,23.13373 -7.62362,27.73419 z m 52.01804,24.8151 c -1.27607,0.66816 -2.4481,1.08439 -2.99029,0.76126 -0.39981,-0.2355 0.52577,-1.11725 0.52577,-1.11725 0,0 6.50636,-6.99927 9.06947,-10.18673 1.48968,-1.85114 3.22033,-4.05279 5.10432,-6.51184 0.0164,0.24645 0.0219,0.48743 0.0219,0.7284 -0.0219,8.39037 -8.122,14.05331 -11.73118,16.32616 z m 40.07329,-9.12972 c -0.95295,-0.67912 -0.79413,-2.86434 2.33857,-9.68835 1.22679,-2.67813 4.03088,-7.18548 8.90517,-11.49567 0.56411,1.77446 0.90915,3.47225 0.89819,5.05503 -0.0657,10.54819 -7.59076,14.49144 -12.14193,16.12899 z"
     id="path3"
     inkscape:connector-curvature="0"
     style="fill:#d06397" /></svg>