<?xml version="1.0" encoding="UTF-8" standalone="no"?>
<!-- Generator: Adobe Illustrator 15.0.2, SVG Export Plug-In . SVG Version: 6.00 Build 0)  -->

<svg
   xmlns:dc="http://purl.org/dc/elements/1.1/"
   xmlns:cc="http://creativecommons.org/ns#"
   xmlns:rdf="http://www.w3.org/1999/02/22-rdf-syntax-ns#"
   xmlns:svg="http://www.w3.org/2000/svg"
   xmlns="http://www.w3.org/2000/svg"
   xmlns:sodipodi="http://sodipodi.sourceforge.net/DTD/sodipodi-0.dtd"
   xmlns:inkscape="http://www.inkscape.org/namespaces/inkscape"
   version="1.1"
   x="0px"
   y="0px"
   width="547.23431"
   height="232.32202"
   viewBox="0 0 547.2343 232.32202"
   enable-background="new 0 0 289.333 122.833"
   xml:space="preserve"
   id="svg2"
   inkscape:version="0.91 r13725"
   sodipodi:docname="symfony.svg"
   inkscape:export-filename="C:\Users\Lincoln\Desktop\github\symfony.png"
   inkscape:export-xdpi="89.875252"
   inkscape:export-ydpi="89.875252"><metadata
     id="metadata40"><rdf:RDF><cc:Work
         rdf:about=""><dc:format>image/svg+xml</dc:format><dc:type
           rdf:resource="http://purl.org/dc/dcmitype/StillImage" /><dc:title /></cc:Work></rdf:RDF></metadata><defs
     id="defs38" /><sodipodi:namedview
     pagecolor="#ffffff"
     bordercolor="#666666"
     borderopacity="1"
     objecttolerance="10"
     gridtolerance="10"
     guidetolerance="10"
     inkscape:pageopacity="0"
     inkscape:pageshadow="2"
     inkscape:window-width="1600"
     inkscape:window-height="847"
     id="namedview36"
     showgrid="false"
     fit-margin-top="0"
     fit-margin-left="0"
     fit-margin-right="0"
     fit-margin-bottom="0"
     inkscape:zoom="1.2407848"
     inkscape:cx="124.92093"
     inkscape:cy="116.16101"
     inkscape:window-x="-8"
     inkscape:window-y="-8"
     inkscape:window-maximized="1"
     inkscape:current-layer="svg2" /><g
     id="fond"
     transform="translate(128.95064,54.744513)"
     inkscape:export-xdpi="45"
     inkscape:export-ydpi="45" /><g
     id="compacte"
     transform="translate(128.95064,54.744513)"
     inkscape:export-xdpi="45"
     inkscape:export-ydpi="45" /><g
     id="rectangle"
     transform="translate(128.95064,54.744513)"
     inkscape:export-xdpi="45"
     inkscape:export-ydpi="45" /><g
     id="g12"
     transform="scale(1.8913649,1.8913649)"><circle
       cx="58.657001"
       cy="58.07"
       r="28.072001"
       id="circle14" /><path
       d="m 70.93,40.385 c -2.851,0.1 -5.342,1.672 -7.193,3.846 -2.053,2.384 -3.417,5.213 -4.401,8.099 -1.759,-1.442 -3.116,-3.308 -5.938,-4.122 -2.183,-0.627 -4.473,-0.369 -6.58,1.201 -0.999,0.746 -1.686,1.873 -2.013,2.932 -0.848,2.754 0.889,5.205 1.679,6.086 l 1.725,1.846 c 0.356,0.363 1.211,1.309 0.794,2.664 -0.453,1.475 -2.229,2.428 -4.052,1.867 -0.814,-0.252 -1.984,-0.857 -1.721,-1.709 0.108,-0.35 0.358,-0.613 0.493,-0.912 0.123,-0.26 0.181,-0.454 0.218,-0.568 0.333,-1.088 -0.122,-2.502 -1.286,-2.861 -1.087,-0.332 -2.197,-0.068 -2.628,1.329 -0.49,1.591 0.271,4.472 4.344,5.729 4.772,1.467 8.809,-1.133 9.381,-4.521 0.361,-2.122 -0.599,-3.7 -2.354,-5.729 l -1.43,-1.581 c -0.867,-0.867 -1.164,-2.342 -0.268,-3.475 0.757,-0.957 1.834,-1.365 3.601,-0.886 2.577,0.698 3.726,2.487 5.642,3.93 -0.791,2.595 -1.309,5.2 -1.776,7.538 l -0.287,1.74 c -1.371,7.186 -2.416,11.131 -5.134,13.396 -0.547,0.391 -1.331,0.973 -2.51,1.014 -0.619,0.02 -0.818,-0.406 -0.828,-0.592 -0.014,-0.434 0.353,-0.633 0.596,-0.828 0.363,-0.199 0.912,-0.527 0.875,-1.578 -0.041,-1.246 -1.071,-2.324 -2.559,-2.273 -1.117,0.037 -2.816,1.086 -2.752,3.01 0.066,1.984 1.916,3.473 4.706,3.377 1.492,-0.049 4.822,-0.656 8.103,-4.557 3.819,-4.473 4.888,-9.6 5.692,-13.352 l 0.896,-4.953 c 0.499,0.059 1.031,0.1 1.611,0.113 4.757,0.102 7.136,-2.363 7.173,-4.155 0.023,-1.085 -0.712,-2.152 -1.742,-2.128 -0.736,0.021 -1.662,0.511 -1.884,1.529 -0.217,1 1.514,1.902 0.161,2.779 -0.961,0.623 -2.684,1.061 -5.11,0.705 l 0.442,-2.439 c 0.899,-4.624 2.011,-10.312 6.224,-10.449 0.307,-0.016 1.431,0.014 1.457,0.756 0.007,0.248 -0.054,0.312 -0.344,0.88 -0.297,0.442 -0.408,0.819 -0.395,1.253 0.042,1.18 0.939,1.956 2.238,1.91 1.737,-0.057 2.237,-1.748 2.209,-2.618 -0.072,-2.045 -2.226,-3.335 -5.075,-3.243 z"
       id="path16"
       inkscape:connector-curvature="0"
       style="fill:#ffffff" /></g><g
     id="g18"
     transform="scale(1.8913649,1.8913649)"><g
       id="g20"><path
         d="m 200.791,50.172 c 6.474,0 10.813,4.677 10.813,11.147 0,6.097 -4.424,11.146 -10.813,11.146 -6.428,0 -10.852,-5.049 -10.852,-11.146 0,-6.47 4.338,-11.147 10.852,-11.147 z m 0,19.125 c 4.593,0 6.637,-4.176 6.637,-7.978 0,-4.048 -2.463,-7.972 -6.637,-7.972 -4.216,0 -6.68,3.924 -6.68,7.972 0,3.802 2.047,7.978 6.68,7.978 z"
         id="path22"
         inkscape:connector-curvature="0" /></g><path
       d="m 189.401,52.154 0,-1.481 -5.638,0 0,-2.024 c 0,-2.881 0.419,-5.055 3.798,-5.055 0.062,0 0.128,0.006 0.193,0.009 0.007,0 0.005,-0.011 0.013,-0.011 0.938,0.068 1.72,-0.695 1.772,-1.633 l 0.068,-1.286 c -0.793,-0.126 -1.63,-0.25 -2.63,-0.25 -5.803,0 -7.138,3.382 -7.138,8.56 l 0,1.69 -5.015,0 0,1.653 c 0.129,0.857 0.863,1.518 1.758,1.518 0.004,0 0.009,0.004 0.014,0.004 l 3.243,0 0,18.119 2.16,0 c 0.005,0 0.002,0 0.007,0 0.9,0 1.634,-0.678 1.756,-1.541 l 0,-16.578 3.926,0 c 0.924,-0.031 1.667,-0.77 1.713,-1.694 z"
       id="path24"
       inkscape:connector-curvature="0" /><path
       d="m 137.125,50.673 c -0.006,0 -0.011,0.005 -0.021,0.005 -0.826,0 -1.627,0.568 -1.977,1.337 l -5.399,16.278 -0.084,0 -5.281,-16.27 c -0.346,-0.773 -1.15,-1.346 -1.982,-1.346 -0.01,0 -0.013,-0.005 -0.021,-0.005 l -2.737,0 7.223,19.874 c 0.252,0.711 0.754,1.797 0.754,2.254 0,0.42 -1.17,5.26 -4.679,5.26 -0.086,0 -0.174,-0.01 -0.259,-0.016 -0.895,-0.049 -1.571,0.576 -1.72,1.539 l -0.107,1.359 c 0.71,0.125 1.422,0.293 2.674,0.293 5.176,0 6.721,-4.721 8.184,-8.811 l 7.847,-21.753 -2.415,0 z"
       id="path26"
       inkscape:connector-curvature="0" /><path
       d="m 112.177,54.998 c -3.24,-1.658 -6.787,-2.785 -6.849,-6.121 0.01,-3.543 3.266,-4.474 5.774,-4.471 0.012,-0.002 0.022,-0.002 0.028,-0.002 1.09,0 1.961,0.108 2.812,0.295 0.011,0 0.009,-0.014 0.022,-0.014 0.9,0.066 1.655,-0.637 1.76,-1.523 l 0.072,-1.287 c -1.645,-0.408 -3.364,-0.617 -4.86,-0.617 -5.455,0.034 -9.506,2.779 -9.519,8.018 0.006,4.58 3.092,6.355 6.414,7.963 3.256,1.566 6.821,2.858 6.852,6.639 -0.018,3.943 -3.824,5.396 -6.447,5.402 -1.534,-0.006 -3.199,-0.387 -4.603,-0.83 -0.879,-0.145 -1.6,0.631 -1.715,1.658 l -0.118,1.146 c 1.929,0.623 3.906,1.168 5.895,1.168 0,0 0.002,0 0.004,0 0.005,0 0.012,0 0.018,0 6.112,-0.045 10.862,-2.482 10.881,-8.811 -0.007,-4.882 -3.116,-6.933 -6.421,-8.613 z"
       id="path28"
       inkscape:connector-curvature="0" /><path
       d="m 171.534,71.967 c 0.003,0 0.003,0 0.005,0 0.847,0 1.554,-0.596 1.731,-1.389 l 0,-12.264 c 0,-4.635 -1.958,-8.143 -7.389,-8.143 -1.92,0 -5.134,1.088 -6.596,4.135 -1.126,-2.881 -3.59,-4.135 -6.051,-4.135 -3.133,0 -5.263,1.127 -6.765,3.592 l -0.084,0 0,-1.324 c -0.012,-0.975 -0.801,-1.762 -1.777,-1.762 -0.009,0 -0.013,-0.005 -0.019,-0.005 l -1.877,0 0,21.294 2.124,0 c 0.003,0 0.003,0 0.005,0 0.984,0 1.78,-0.799 1.78,-1.781 0,-0.027 0.009,-0.037 0.018,-0.055 l 0,-8.895 c 0,-3.965 1.585,-7.889 5.592,-7.889 3.171,0 3.802,3.297 3.802,5.928 l 0,12.691 2.153,0 c 0.002,0 0.002,0 0.006,0 0.93,0 1.679,-0.715 1.762,-1.623 l 0,-9.107 c 0,-3.965 1.588,-7.889 5.595,-7.889 3.173,0 3.8,3.297 3.8,5.928 l 0,12.691 2.185,0 z"
       id="path30"
       inkscape:connector-curvature="0" /><path
       d="m 232.182,71.967 c 0.002,0 0.002,0 0.005,0 0.957,0 1.728,-0.756 1.773,-1.703 l 0,-10.948 c 0,-5.719 -2.466,-9.145 -7.977,-9.145 -2.964,0 -5.801,1.463 -6.973,3.886 l -0.082,0 0,-1.591 c 0,-0.002 -0.004,-0.002 -0.004,-0.006 0,-0.987 -0.799,-1.783 -1.779,-1.783 -0.011,0 -0.013,-0.005 -0.02,-0.005 l -1.998,0 0,21.294 2.157,0 c 0,0 0,0 0.004,0 0.934,0 1.691,-0.727 1.763,-1.643 l 0,-8.211 c 0,-5.176 2.006,-8.766 6.473,-8.766 3.427,0.207 4.507,2.627 4.507,7.597 l 0,11.022 2.151,0 z"
       id="path32"
       inkscape:connector-curvature="0" /><path
       d="m 253.31,50.673 c -0.01,0 -0.014,0.005 -0.022,0.005 -0.827,0 -1.629,0.568 -1.978,1.337 l -5.397,16.278 -0.088,0 -5.282,-16.27 c -0.346,-0.773 -1.15,-1.346 -1.98,-1.346 -0.008,0 -0.013,-0.005 -0.02,-0.005 l -2.737,0 7.224,19.874 c 0.25,0.711 0.755,1.797 0.755,2.254 0,0.42 -1.171,5.26 -4.681,5.26 -0.085,0 -0.171,-0.01 -0.259,-0.016 -0.895,-0.049 -1.568,0.576 -1.722,1.539 l -0.105,1.359 c 0.709,0.125 1.422,0.293 2.675,0.293 5.176,0 6.72,-4.721 8.184,-8.811 l 7.849,-21.753 -2.416,0 z"
       id="path34"
       inkscape:connector-curvature="0" /></g></svg>