<?xml version="1.0" encoding="UTF-8" standalone="no"?>
<svg
   xmlns:dc="http://purl.org/dc/elements/1.1/"
   xmlns:cc="http://creativecommons.org/ns#"
   xmlns:rdf="http://www.w3.org/1999/02/22-rdf-syntax-ns#"
   xmlns:svg="http://www.w3.org/2000/svg"
   xmlns="http://www.w3.org/2000/svg"
   xmlns:sodipodi="http://sodipodi.sourceforge.net/DTD/sodipodi-0.dtd"
   xmlns:inkscape="http://www.inkscape.org/namespaces/inkscape"
   width="431.70731"
   height="526.25543"
   viewBox="0 0 431.70731 526.25543"
   version="1.1"
   preserveAspectRatio="xMinYMin meet"
   id="svg2"
   inkscape:version="0.91 r13725"
   sodipodi:docname="vagrant.svg"
   inkscape:export-filename="C:\Users\Lincoln\Desktop\github\vagrant.png"
   inkscape:export-xdpi="89"
   inkscape:export-ydpi="89">
  <metadata
     id="metadata64">
    <rdf:RDF>
      <cc:Work
         rdf:about="">
        <dc:format>image/svg+xml</dc:format>
        <dc:type
           rdf:resource="http://purl.org/dc/dcmitype/StillImage" />
        <dc:title></dc:title>
      </cc:Work>
    </rdf:RDF>
  </metadata>
  <defs
     id="defs62" />
  <sodipodi:namedview
     pagecolor="#ffffff"
     bordercolor="#666666"
     borderopacity="1"
     objecttolerance="10"
     gridtolerance="10"
     guidetolerance="10"
     inkscape:pageopacity="0"
     inkscape:pageshadow="2"
     inkscape:window-width="1600"
     inkscape:window-height="847"
     id="namedview60"
     showgrid="false"
     fit-margin-top="0"
     fit-margin-left="0"
     fit-margin-right="0"
     fit-margin-bottom="0"
     inkscape:zoom="0.75399361"
     inkscape:cx="216.12724"
     inkscape:cy="262.99198"
     inkscape:window-x="-8"
     inkscape:window-y="-8"
     inkscape:window-maximized="1"
     inkscape:current-layer="svg2" />
  <g
     id="g4"
     transform="matrix(1.6899689,0,0,1.6899689,0,-1.1230407)">
    <g
       id="g6">
      <path
         d="m 255.28,19.165867 c -1.84213,-1.5104 -16.31893,-9.2736003 -16.31893,-9.2736003 L 223.5136,18.8672 223.5046,18.8619 238.95253,9.888 223.5104,0.6848 223.5054,18.861867 207.39446,9.8442667 c 0,0 -13.17866,7.7034663 -19.5776,11.3962663 -8.0544,4.647467 -27.80906,16.4096 -27.80906,16.4096 l 0,17.3696 -16.27414,42.4 0,23.022937 -11.42186,6.66666 -4.5454,11.88907 L 95.738667,55.9136 95.744,37.6928 31.914667,0.66453333 0.03093333,19.121067 0,19.1136 l 0,18.776533 19.883733,47.8912 12.0832,7.1168 0.01067,21.839997 47.9008,116.34347 47.871997,27.39627 0,0.15786 47.80907,-27.66613 79.89333,-193.461333 -0.1728,-18.3424"
         id="path8"
         inkscape:connector-curvature="0"
         style="fill:#3185b8" />
      <path
         d="M 127.7856,258.49813 79.8784,231.0816 31.9776,114.73813 31.966933,92.898133 19.883733,85.781333 0,37.890133 0,19.1136 l 15.733333,9.173333 0,18.484267 16.261334,9.4368 0.0021,-18.592 31.771733,18.382933 1.531734,18.1984 46.188806,119.891197 32.0992,18.69867 0,36.66773 -15.84747,-9.3216 0.0448,18.3648"
         id="path10"
         inkscape:connector-curvature="0"
         style="fill:#3185b8" />
      <path
         d="m 95.738667,55.9136 32.027733,83.0848 -0.0661,45.7664 -16.2336,9.23307 L 65.300267,74.064 63.768533,55.998933 95.744,37.6928 95.7387,55.9136"
         id="path12"
         inkscape:connector-curvature="0"
         style="fill:#61a5ce" />
      <path
         d="m 15.733333,28.286933 0,18.484267 L 31.9968,37.616 15.733333,28.286933"
         id="path14"
         inkscape:connector-curvature="0"
         style="fill:#61a5ce" />
      <path
         d="M 31.994667,56.208 31.9968,37.616 15.733333,46.7712 31.994667,56.208"
         id="path16"
         inkscape:connector-curvature="0"
         style="fill:#eae9e6" />
      <path
         d="m 127.70027,184.7648 16.01066,9.1616 17.82614,-44.75733 13.728,8.16853 0,-42.89493 4.37973,-10.35627 11.68853,6.8448 0,-18.133333 -15.91146,-9.2448 16,-9.288534 -15.73334,-9.066666 -0.0416,-18.429867 -15.63946,-9.117867 0,17.3696 -16.27414,42.4 0,23.022937 -11.42186,6.66666 -4.54507,11.88907 -0.0661,45.7664"
         id="path18"
         inkscape:connector-curvature="0"
         style="fill:#3185b8" />
      <path
         d="m 127.48053,203.5008 16.10774,9.2864 -0.08,36.67627 32.0512,-18.49387 L 255.4528,37.508267 255.28,19.165867 207.39413,46.768 l 0,36.824533 -16.0608,9.205334 0,18.133333 -11.68853,-6.8448 -4.37973,10.35627 0,42.80533 -22.24427,13.08053 -9.30987,23.59787 -16.2304,9.5744"
         id="path20"
         inkscape:connector-curvature="0"
         style="fill:#61a5ce" />
      <path
         d="m 63.6672,74.397867 16.066133,-9.333334 0,18.466134 -16.066133,-9.1328"
         id="path22"
         inkscape:connector-curvature="0"
         style="fill:#eae9e6" />
      <path
         d="m 79.733333,83.530667 15.9328,9.000533 0,-18.133333 -15.9328,-9.333334 0,18.466134"
         id="path24"
         inkscape:connector-curvature="0"
         style="fill:#3185b8" />
      <path
         d="m 47.845333,120.19627 0,18.59946 16.0864,-9.25653 -16.0864,-9.34293"
         id="path26"
         inkscape:connector-curvature="0"
         style="fill:#61a5ce" />
      <path
         d="m 79.988267,138.88213 -16.142934,9.39947 -16,-9.48587 16.0864,-9.25653 16.056534,9.34293"
         id="path28"
         inkscape:connector-curvature="0"
         style="fill:#eae9e6" />
      <path
         d="m 79.770667,194.13333 0,18.75734 16.1696,-9.34934 -16.1696,-9.408"
         id="path30"
         inkscape:connector-curvature="0"
         style="fill:#61a5ce" />
      <path
         d="m 111.52213,230.8832 16.28694,9.46667 0.0587,-19.05174 -16.3456,9.58507"
         id="path32"
         inkscape:connector-curvature="0"
         style="fill:#eae9e6" />
      <path
         d="m 127.7504,258.63573 0.0587,-18.28586 15.6992,9.1136 -15.75787,9.17226"
         id="path34"
         inkscape:connector-curvature="0"
         style="fill:#61a5ce" />
      <path
         d="m 127.70027,184.7648 -16.2336,9.23307 16.01386,9.50293 16.2304,-9.5744 -16.01066,-9.1616"
         id="path36"
         inkscape:connector-curvature="0"
         style="fill:#eae9e6" />
      <path
         d="m 207.39413,83.592533 0,-36.824533 -15.85386,-9.025067 0,18.346667 -15.85174,9.108267 31.7056,18.394666"
         id="path38"
         inkscape:connector-curvature="0"
         style="fill:#3185b8" />
      <path
         d="m 175.42187,83.553067 16,-9.288534 15.97226,9.328 -16.0608,9.205334 -15.91146,-9.2448"
         id="path40"
         inkscape:connector-curvature="0"
         style="fill:#eae9e6" />
      <path
         d="m 175.68853,65.197867 15.85174,-9.108267 0,-18.346667 -15.89334,9.025067 0.0416,18.429867"
         id="path42"
         inkscape:connector-curvature="0"
         style="fill:#61a5ce" />
      <path
         d="M 223.50507,18.862933 223.5104,0.6848 238.95253,9.888 223.50507,18.862933"
         id="path44"
         inkscape:connector-curvature="0"
         style="fill:#3185b8" />
      <path
         d="M 255.28,19.165867 207.39413,46.768 191.54027,37.742933 175.64693,46.768 160.00747,37.650133 c 0,0 19.75466,-11.762133 27.80906,-16.4096 6.39894,-3.6928 19.5776,-11.3962663 19.5776,-11.3962663 L 223.5136,18.8672 238.96107,9.8922667 c 0,0 14.4768,7.7632003 16.31893,9.2736003 -4.35627,2.545066 0,0 0,0"
         id="path46"
         inkscape:connector-curvature="0"
         style="fill:#eae9e6" />
      <path
         d="M 95.744,37.6928 63.768533,55.998933 0.03093333,19.121067 31.914667,0.66453333 95.744,37.6928"
         id="path48"
         inkscape:connector-curvature="0"
         style="fill:#eae9e6" />
      <path
         d="m 239.20427,46.347733 0,-17.915733 -15.57974,8.989867 15.57974,8.925866"
         id="path50"
         inkscape:connector-curvature="0"
         style="fill:#3185b8" />
      <path
         d="m 191.97973,129.6384 15.50294,-8.89387 0,17.83787 -15.50294,-8.944"
         id="path52"
         inkscape:connector-curvature="0"
         style="fill:#3185b8" />
      <path
         d="m 159.58293,203.37813 0,18.48427 16.14827,-9.34187 -16.14827,-9.1424"
         id="path54"
         inkscape:connector-curvature="0"
         style="fill:#eae9e6" />
      <path
         d="m 175.83147,212.52053 -0.19947,-18.33493 -16.04907,9.19253 16.24854,9.1424"
         id="path56"
         inkscape:connector-curvature="0"
         style="fill:#3185b8" />
    </g>
    <path
       d="m 17.416533,311.46667 6.929067,0 13.141333,-39.7824 -4.957866,0 -11.648,35.3024 -11.6480003,-35.3024 -4.9578667,0 13.141333,39.7824 z m 39.901867,-39.7824 -6.929067,0 -13.44,39.7824 5.1968,0 3.2256,-9.55734 16.904534,0 3.285333,9.55734 5.1968,0 -13.44,-39.7824 z m 3.643733,25.74506 -14.216533,0 7.108267,-22.0416 7.108266,22.0416 z m 20.369067,-14.336 c 0,-5.376 1.9712,-7.3472 8.541867,-7.3472 3.285333,0 6.869333,0.3584 10.692263,1.01547 l 0.59734,-4.42027 c -3.70347,-0.83626 -7.64587,-1.2544 -11.05067,-1.2544 -9.915733,0 -13.917867,3.70347 -13.917867,11.76747 l 0,17.50187 c 0,7.3472 3.106134,11.70773 13.2608,11.70773 4.1216,0 8.721067,-0.59733 12.603737,-1.73227 l 0,-17.14346 -4.95787,0 0,13.49973 c -2.747733,0.5376 -5.376,0.7168 -7.466667,0.7168 -6.8096,0 -8.302933,-2.26987 -8.302933,-7.3472 l 0,-16.96427 z m 55.07413,28.37334 5.9136,0 -10.33386,-14.99307 c 4.59946,-1.31413 6.33173,-4.53973 6.33173,-9.25867 l 0,-5.7344 c 0,-6.0928 -2.98667,-9.79626 -11.52853,-9.79626 l -15.17227,0 0,39.7824 5.13707,0 0,-14.39574 9.73653,0 9.91573,14.39574 z m -3.2256,-29.9264 0,5.7344 c 0,3.88266 -1.67253,5.25653 -6.57066,5.25653 l -9.856,0 0,-16.24747 9.856,0 c 4.89813,0 6.57066,1.31414 6.57066,5.25654 l 0,0 z m 33.62987,-9.856 -6.92907,0 -13.44,39.7824 5.1968,0 3.2256,-9.55734 16.90454,0 3.28533,9.55734 5.1968,0 -13.44,-39.7824 z m 3.64373,25.74506 -14.21653,0 7.10827,-22.0416 7.10826,22.0416 z m 38.76694,14.03734 7.04853,0 0,-39.7824 -4.89813,0 0,34.048 -17.32267,-34.048 -7.04853,0 0,39.7824 4.89813,0 0,-33.8688 17.32267,33.8688 z m 25.20746,0 5.13707,0 0,-35.18294 11.88693,0 0,-4.59946 -28.91093,0 0,4.59946 11.88693,0 0,35.18294 z"
       id="path58"
       inkscape:connector-curvature="0"
       style="fill:#3285b7" />
  </g>
</svg>
