<?xml version="1.0" encoding="utf-8"?>
<!-- Generator: Adobe Illustrator 18.1.0, SVG Export Plug-In . SVG Version: 6.00 Build 0)  -->
<svg version="1.1" id="Camada_1" xmlns="http://www.w3.org/2000/svg" xmlns:xlink="http://www.w3.org/1999/xlink" x="0px" y="0px"
	 viewBox="0 0 841.9 595.3" enable-background="new 0 0 841.9 595.3" xml:space="preserve">
<g>
	<g>
		<polygon fill="#479F78" points="281,86.1 340,86.1 428.9,239.1 517.9,86 577,86 429,340.8 		"/>
		<polygon fill="#34475C" points="340,86.1 395.3,86.1 429,144.5 462.7,86.1 517.9,86 429,239 		"/>
	</g>
	<g>
		<g>
			<path fill="#34475C" d="M332.8,427c0-0.7,0.4-1.3,1.1-1.8c0.7-0.5,1.5-0.7,2.3-0.7c1.3,0,2.1,0.5,2.3,1.5l16.5,54.6l16.4-54.6
				c0.4-1,1.1-1.5,2.2-1.5c0.8,0,1.6,0.3,2.4,0.7c0.8,0.5,1.2,1.1,1.2,1.8c0,0.1,0,0.1-0.1,0.3c-0.1,0.1-0.1,0.2-0.1,0.3L358.5,488
				c-0.4,1.4-1.6,2.2-3.5,2.2c-1.9,0-3-0.7-3.5-2.1l-18.5-60.3C332.9,427.5,332.8,427.3,332.8,427z"/>
			<path fill="#34475C" d="M380.7,473.5v-23.8c0-0.5,0.3-1,0.8-1.5c0.6-0.5,1.3-0.7,2.1-0.7c0.7,0,1.4,0.2,2,0.7
				c0.6,0.5,0.9,1,0.9,1.5v23.7c0,3,1.1,5.6,3.3,7.9c2.2,2.3,4.8,3.5,7.8,3.5c3,0,5.6-1.2,7.8-3.5c2.2-2.3,3.3-4.9,3.3-7.9v-23.8
				c0-0.6,0.3-1.1,0.9-1.5c0.6-0.4,1.3-0.6,2-0.6c0.8,0,1.4,0.2,2,0.6c0.6,0.4,0.8,0.9,0.8,1.5v23.8c0,4.4-1.7,8.3-5,11.7
				c-3.4,3.4-7.3,5-11.9,5c-4.6,0-8.6-1.7-11.9-5C382.4,481.8,380.7,477.9,380.7,473.5z"/>
			<path fill="#34475C" d="M423.7,473.3v-10c0-4.4,1.7-8.3,5-11.5c3.3-3.2,7.3-4.8,12-4.8c4.5,0,8.4,1.5,11.7,4.6
				c3.3,3.1,4.9,6.9,4.9,11.6c0,1.7-0.2,3-0.6,4c-0.4,1-1,1.7-1.9,2.1c-0.9,0.4-1.6,0.7-2.4,0.8c-0.7,0.1-1.7,0.2-2.9,0.2h-20.1v3.3
				c0,3.5,1.3,6.3,3.8,8.4c2.5,2.1,5.8,3.2,9.7,3.2c2,0,3.8-0.3,5.3-0.9c1.5-0.6,2.7-1.2,3.5-1.8c0.8-0.6,1.4-0.9,1.9-0.9
				c0.7,0,1.2,0.3,1.7,0.9c0.5,0.6,0.8,1.2,0.8,1.8c0,1.2-1.3,2.5-3.8,3.9c-2.6,1.3-5.7,2-9.5,2c-5.6,0-10.2-1.6-13.8-4.7
				S423.7,478.3,423.7,473.3z M429.5,466h17.8c1.8,0,3-0.2,3.6-0.6c0.6-0.4,0.9-1.2,0.9-2.4c0-2.9-1.1-5.5-3.2-7.8
				c-2.1-2.2-4.8-3.4-8-3.4c-3.1,0-5.7,1.1-7.9,3.2c-2.2,2.1-3.2,4.7-3.2,7.6V466z"/>
			<path fill="#34475C" d="M464,485.7c0-1.3,0.4-2.3,1.1-3.2c0.7-0.9,1.7-1.3,2.8-1.3c1,0,1.9,0.4,2.7,1.3c0.8,0.9,1.2,1.9,1.2,3.2
				c0,1.1-0.4,2.2-1.2,3.1c-0.8,0.9-1.7,1.3-2.7,1.3c-1.1,0-2.1-0.4-2.8-1.3C464.4,488,464,486.9,464,485.7z"/>
			<path fill="#34475C" d="M472.4,507.6c0-0.8,0.2-1.5,0.7-2c0.5-0.5,1.1-0.8,1.8-0.8c2.6,0,4.3-1,5.2-2.9c0.8-1.9,1.2-4.8,1.2-8.6
				v-43.6c0-0.7,0.3-1.2,0.8-1.6c0.5-0.4,1.2-0.6,2-0.6c0.8,0,1.5,0.2,2.1,0.6c0.6,0.4,0.8,0.9,0.8,1.5v43.8
				c0,11.2-3.9,16.8-11.7,16.8c-1,0-1.7-0.3-2.2-0.8C472.6,508.9,472.4,508.3,472.4,507.6z M481.2,433.9c-0.8-0.7-1.2-1.6-1.2-2.6
				c0-1,0.4-1.9,1.2-2.6c0.8-0.7,1.7-1.1,2.8-1.1c1.1,0,2,0.4,2.7,1.1c0.7,0.7,1.1,1.6,1.1,2.6c0,1-0.4,1.9-1.1,2.6
				c-0.7,0.7-1.6,1.1-2.7,1.1C483,435,482,434.7,481.2,433.9z"/>
			<path fill="#34475C" d="M495.6,483.8c0-0.6,0.2-1.2,0.6-1.8c0.4-0.6,0.9-0.9,1.4-0.9c0.4,0,1.1,0.3,2,1c0.9,0.7,2.2,1.4,3.8,2.1
				c1.7,0.7,3.6,1.1,6,1.1c3.1,0,5.5-0.6,6.9-1.8c1.5-1.2,2.2-2.7,2.2-4.5c0-2.1-0.8-3.8-2.3-5.1c-1.5-1.3-3.3-2.2-5.5-2.9
				c-2.1-0.6-4.3-1.3-6.5-2c-2.2-0.7-4-1.8-5.5-3.4c-1.5-1.6-2.3-3.8-2.3-6.5c0-3.3,1.2-6.1,3.5-8.5c2.3-2.4,5.9-3.6,10.5-3.6
				c2.9,0,5.6,0.5,8.1,1.4c2.5,0.9,3.8,1.9,3.8,3c0,0.6-0.2,1.2-0.7,2c-0.5,0.7-1,1.1-1.7,1.1c-0.2,0-1.3-0.4-3.3-1.2
				c-2-0.8-4.1-1.2-6.1-1.2c-3,0-5.2,0.7-6.7,2.1c-1.5,1.4-2.2,3-2.2,4.7c0,1.8,0.8,3.2,2.3,4.3c1.5,1,3.4,1.9,5.5,2.5
				c2.1,0.6,4.3,1.3,6.5,1.9c2.2,0.7,4,1.9,5.5,3.9c1.5,1.9,2.2,4.4,2.2,7.5c0,3.6-1.3,6.4-3.8,8.4c-2.5,2-6,3.1-10.5,3.1
				c-3.9,0-7.2-0.7-9.9-2.1C496.9,486.7,495.6,485.3,495.6,483.8z"/>
		</g>
	</g>
</g>
</svg>
