<?xml version="1.0" encoding="iso-8859-1"?><!-- Generator: Adobe Illustrator 16.0.0, SVG Export Plug-In . SVG Version: 6.00 Build 0) --><!DOCTYPE svg PUBLIC "-//W3C//DTD SVG 1.1//EN" "http://www.w3.org/Graphics/SVG/1.1/DTD/svg11.dtd"><svg version="1.1" id="Layer_1" xmlns="http://www.w3.org/2000/svg" xmlns:xlink="http://www.w3.org/1999/xlink" x="0px" y="0px" width="540.001px" height="122.523px" viewBox="0 0 540.001 122.523" style="enable-background:new 0 0 540.001 122.523;" xml:space="preserve"><g id="Layer_1_1_"></g><g id="Layer_2"><g><path style="fill:#00749A;" d="M313.19,48.227h-21.257v2.255c6.648,0,7.718,1.425,7.718,9.856V75.54	c0,8.431-1.068,9.976-7.718,9.976c-5.105-0.713-8.55-3.444-13.3-8.67l-5.463-5.937c7.362-1.308,11.28-5.938,11.28-11.164	c0-6.53-5.58-11.518-16.031-11.518H247.52v2.255c6.648,0,7.718,1.425,7.718,9.856V75.54c0,8.431-1.069,9.976-7.718,9.976v2.256	h23.631v-2.256c-6.649,0-7.718-1.545-7.718-9.976v-4.273h2.018l13.183,16.505h34.557c16.98,0,24.344-9.024,24.344-19.832	C337.534,57.133,330.172,48.227,313.19,48.227z M263.434,67.582V51.79h4.868c5.343,0,7.719,3.681,7.719,7.956	c0,4.157-2.376,7.837-7.719,7.837L263.434,67.582L263.434,67.582z M313.547,84.09h-0.832c-4.273,0-4.867-1.067-4.867-6.53V51.79	c0,0,5.225,0,5.699,0c12.351,0,14.605,9.024,14.605,16.031C328.152,75.064,325.896,84.09,313.547,84.09z"/><path style="fill:#00749A;" d="M181.378,71.978l8.194-24.228c2.376-7.006,1.307-9.023-6.293-9.023v-2.376h22.325v2.376	c-7.481,0-9.262,1.78-12.231,10.449L179.834,89.79h-1.543l-12.113-37.17l-12.35,37.17h-1.544l-13.181-40.613	c-2.851-8.669-4.75-10.449-11.639-10.449v-2.376h26.363v2.376c-7.007,0-8.908,1.662-6.413,9.023l7.956,24.228l11.994-35.627h2.257	L181.378,71.978z"/><path style="fill:#00749A;" d="M221.752,89.314c-13.062,0-23.75-9.618-23.75-21.376c0-11.638,10.689-21.257,23.75-21.257	c13.063,0,23.75,9.619,23.75,21.257C245.502,79.696,234.815,89.314,221.752,89.314z M221.752,50.365	c-10.924,0-14.725,9.854-14.725,17.574c0,7.839,3.801,17.576,14.725,17.576c11.045,0,14.846-9.737,14.846-17.576	C236.597,60.219,232.797,50.365,221.752,50.365z"/><path style="fill:#464342;" d="M366.864,85.396v2.375H339.67v-2.375c7.957,0,9.383-2.019,9.383-13.896V52.502	c0-11.877-1.426-13.775-9.383-13.775V36.35h24.581c12.231,0,19.002,6.294,19.002,14.727c0,8.194-6.771,14.606-19.002,14.606	h-6.769V71.5C357.482,83.378,358.907,85.396,366.864,85.396z M364.251,40.625h-6.769v20.664h6.769	c6.651,0,9.738-4.631,9.738-10.212C373.989,45.377,370.902,40.625,364.251,40.625z"/><path style="fill:#464342;" d="M464.834,76.609l-0.595,2.137c-1.067,3.919-2.376,5.344-10.807,5.344h-1.663	c-6.174,0-7.243-1.425-7.243-9.855v-5.462c9.263,0,9.976,0.83,9.976,7.006h2.257V58.083h-2.257c0,6.175-0.713,7.006-9.976,7.006	V51.79h6.53c8.433,0,9.738,1.425,10.807,5.344l0.596,2.256h1.898l-0.83-11.162h-34.914v2.255c6.649,0,7.719,1.425,7.719,9.856	V75.54c0,7.713-0.907,9.656-6.15,9.934c-4.983-0.762-8.404-3.479-13.085-8.628l-5.463-5.937	c7.362-1.308,11.282-5.938,11.282-11.164c0-6.53-5.582-11.518-16.031-11.518h-20.9v2.255c6.649,0,7.718,1.425,7.718,9.856V75.54	c0,8.431-1.067,9.976-7.718,9.976v2.256h23.632v-2.256c-6.648,0-7.719-1.545-7.719-9.976v-4.273h2.019l13.182,16.505h48.806	l0.713-11.161L464.834,76.609L464.834,76.609z M401.896,67.582V51.79h4.868c5.344,0,7.72,3.681,7.72,7.956	c0,4.157-2.376,7.837-7.72,7.837L401.896,67.582L401.896,67.582z"/><path style="fill:#464342;" d="M488.939,89.314c-4.75,0-8.907-2.493-10.688-4.038c-0.595,0.595-1.662,2.376-1.899,4.038h-2.257	V72.927h2.375c0.951,7.838,6.412,12.469,13.419,12.469c3.8,0,6.888-2.138,6.888-5.699c0-3.087-2.73-5.463-7.6-7.719l-6.77-3.206	c-4.751-2.258-8.312-6.178-8.312-11.401c0-5.7,5.344-10.568,12.707-10.568c3.919,0,7.243,1.426,9.263,3.088	c0.593-0.476,1.188-1.782,1.544-3.208h2.256v14.014h-2.494c-0.832-5.582-3.919-10.213-10.212-10.213	c-3.325,0-6.413,1.899-6.413,4.87c0,3.087,2.493,4.749,8.194,7.361l6.53,3.206c5.701,2.731,7.956,7.127,7.956,10.689	C503.427,84.09,496.895,89.314,488.939,89.314z"/><path style="fill:#464342;" d="M525.514,89.314c-4.751,0-8.908-2.493-10.688-4.038c-0.594,0.595-1.662,2.376-1.898,4.038h-2.257	V72.927h2.375c0.95,7.838,6.411,12.469,13.419,12.469c3.8,0,6.888-2.138,6.888-5.699c0-3.087-2.731-5.463-7.601-7.719l-6.77-3.206	c-4.75-2.258-8.312-6.178-8.312-11.401c0-5.7,5.344-10.568,12.707-10.568c3.919,0,7.242,1.426,9.263,3.088	c0.593-0.476,1.187-1.782,1.542-3.208h2.257v14.014h-2.493c-0.832-5.582-3.919-10.213-10.212-10.213	c-3.325,0-6.414,1.899-6.414,4.87c0,3.087,2.494,4.749,8.195,7.361l6.53,3.206c5.701,2.731,7.956,7.127,7.956,10.689	C540,84.09,533.469,89.314,525.514,89.314z"/><g><path style="fill:#464342;" d="M8.708,61.26c0,20.803,12.089,38.779,29.619,47.299L13.259,39.872	C10.343,46.408,8.708,53.641,8.708,61.26z"/><path style="fill:#464342;" d="M96.74,58.608c0-6.495-2.333-10.993-4.334-14.494c-2.664-4.329-5.161-7.995-5.161-12.324	c0-4.831,3.664-9.328,8.825-9.328c0.233,0,0.454,0.029,0.681,0.042c-9.35-8.565-21.807-13.796-35.488-13.796	c-18.36,0-34.514,9.42-43.91,23.688c1.232,0.037,2.395,0.062,3.382,0.062c5.497,0,14.006-0.667,14.006-0.667	c2.833-0.167,3.167,3.994,0.337,4.329c0,0-2.847,0.335-6.015,0.501L48.2,93.547l11.501-34.493L51.513,36.62	c-2.83-0.166-5.512-0.501-5.512-0.501c-2.832-0.166-2.5-4.496,0.332-4.329c0,0,8.68,0.667,13.844,0.667	c5.495,0,14.006-0.667,14.006-0.667c2.835-0.167,3.168,3.994,0.337,4.329c0,0-2.854,0.335-6.016,0.501l18.992,56.494	l5.242-17.517C95.011,68.328,96.74,63.107,96.74,58.608z"/><path style="fill:#464342;" d="M62.184,65.857l-15.769,45.818c4.708,1.385,9.688,2.142,14.847,2.142	c6.119,0,11.988-1.059,17.451-2.979c-0.141-0.225-0.269-0.464-0.374-0.724L62.184,65.857z"/><path style="fill:#464342;" d="M107.376,36.046c0.227,1.674,0.354,3.472,0.354,5.404c0,5.333-0.996,11.328-3.996,18.824	l-16.053,46.413c15.624-9.111,26.133-26.038,26.133-45.427C113.815,52.124,111.481,43.532,107.376,36.046z"/><path style="fill:#464342;" d="M61.262,0C27.483,0,0,27.481,0,61.26c0,33.783,27.483,61.264,61.263,61.264	c33.777,0,61.265-27.48,61.265-61.264C122.526,27.481,95.04,0,61.262,0z M61.262,119.715c-32.23,0-58.453-26.223-58.453-58.455	c0-32.229,26.222-58.45,58.453-58.45c32.229,0,58.449,26.221,58.449,58.45C119.712,93.492,93.491,119.715,61.262,119.715z"/></g></g></g></svg>