<?xml version="1.0" encoding="UTF-8" standalone="no"?>
<!-- Created with Inkscape (http://www.inkscape.org/) -->

<svg
   xmlns:dc="http://purl.org/dc/elements/1.1/"
   xmlns:cc="http://creativecommons.org/ns#"
   xmlns:rdf="http://www.w3.org/1999/02/22-rdf-syntax-ns#"
   xmlns:svg="http://www.w3.org/2000/svg"
   xmlns="http://www.w3.org/2000/svg"
   version="1.1"
   width="990"
   height="765"
   id="svg2"
   xml:space="preserve"><metadata
     id="metadata8"><rdf:RDF><cc:Work
         rdf:about=""><dc:format>image/svg+xml</dc:format><dc:type
           rdf:resource="http://purl.org/dc/dcmitype/StillImage" /><dc:title></dc:title></cc:Work></rdf:RDF></metadata><defs
     id="defs6" /><g
     transform="matrix(1.25,0,0,-1.25,0,765)"
     id="g10"><g
       transform="scale(0.1,0.1)"
       id="g12"
       style="fill:#67c32f;fill-opacity:1"><path
         d="m 3863.54,3423.46 c 0,0 0,475.58 475.59,475.58 l 1426.73,0 c 0,0 0,-475.58 -475.58,-475.58 l -1426.74,0"
         id="path14"
         style="fill:#67c32f;fill-opacity:1;fill-rule:nonzero;stroke:none" /><path
         d="m 3863.54,2815.78 c 0,0 0,475.58 475.59,475.58 l 713.36,0 c 0,0 0,-475.58 -475.59,-475.58 l -713.36,0"
         id="path16"
         style="fill:#67c32f;fill-opacity:1;fill-rule:nonzero;stroke:none" /><path
         d="m 3863.54,2208.1 c 0,0 0,475.57 475.59,475.57 l 237.77,0 c 0,0 0,-475.57 -475.56,-475.57 l -237.8,0"
         id="path18"
         style="fill:#67c32f;fill-opacity:1;fill-rule:nonzero;stroke:none" /><path
         d="m 3703.88,2579.23 0,-379.4 -1529.38,0 985.22,1343.92 -845.78,0 0,379.42 1595.48,0 -980.67,-1343.94 775.13,0"
         id="path20"
         style="fill:#67c32f;fill-opacity:1;fill-rule:nonzero;stroke:none" /></g></g><g
     id="layer2"
     style="display:inline"><text
       x="611.18561"
       y="515.09393"
       id="text3009-0"
       xml:space="preserve"
       style="font-size:47.40753937px;font-style:normal;font-weight:normal;line-height:125%;letter-spacing:0px;word-spacing:0px;fill:#67c32f;fill-opacity:1;stroke:none;font-family:Sans"><tspan
         x="611.18561"
         y="515.09393"
         id="tspan3011-2"
         style="font-size:106.66696167px;font-style:italic;font-variant:normal;font-weight:bold;font-stretch:normal;fill:#67c32f;fill-opacity:1;font-family:Poppl-Laudatio;-inkscape-font-specification:Poppl-Laudatio Bold Italic">2</tspan></text>
</g></svg>